<svg width="390" height="250" viewBox="0 0 390 250" fill="none" xmlns="http://www.w3.org/2000/svg">
<g filter="url(#filter0_d_141_630)">
<rect x="10" y="9" width="370" height="230" fill="white"/>
</g>
<g filter="url(#filter1_d_141_630)">
<circle cx="65.5" cy="64.5" r="37.5" fill="#FF5300"/>
</g>
<path d="M69.575 54.5C71.0401 54.7858 72.3866 55.5024 73.4421 56.5579C74.4976 57.6134 75.2142 58.9599 75.5 60.425L69.575 54.5ZM69.575 48.5C72.6189 48.8382 75.4574 50.2013 77.6244 52.3655C79.7913 54.5298 81.158 57.3665 81.5 60.41L69.575 48.5ZM80 72.38V76.88C80.0017 77.2978 79.9161 77.7113 79.7488 78.094C79.5814 78.4768 79.3359 78.8204 79.0281 79.1028C78.7203 79.3852 78.3569 79.6002 77.9611 79.7341C77.5654 79.8679 77.1461 79.9176 76.73 79.88C72.1142 79.3785 67.6805 77.8012 63.785 75.275C60.1607 72.972 57.088 69.8993 54.785 66.275C52.25 62.3618 50.6724 57.9065 50.18 53.27C50.1425 52.8552 50.1918 52.4371 50.3247 52.0424C50.4577 51.6477 50.6714 51.285 50.9521 50.9774C51.2329 50.6698 51.5747 50.4241 51.9557 50.2558C52.3367 50.0875 52.7485 50.0004 53.165 50H57.665C58.393 49.9928 59.0987 50.2506 59.6506 50.7253C60.2026 51.2 60.5631 51.8592 60.665 52.58C60.8549 54.0201 61.2072 55.4341 61.715 56.795C61.9168 57.3319 61.9605 57.9154 61.8409 58.4763C61.7212 59.0373 61.4433 59.5522 61.04 59.96L59.135 61.865C61.2703 65.6203 64.3797 68.7297 68.135 70.865L70.04 68.96C70.4478 68.5567 70.9627 68.2788 71.5237 68.1591C72.0846 68.0395 72.6681 68.0832 73.205 68.285C74.5659 68.7928 75.9799 69.1451 77.42 69.335C78.1486 69.4378 78.8141 69.8048 79.2898 70.3662C79.7655 70.9277 80.0183 71.6444 80 72.38Z" stroke="white" stroke-width="2" stroke-linecap="round" stroke-linejoin="round"/>
<path d="M122.75 52V50.025C124.333 48.925 125.658 47.9417 126.725 47.075C127.808 46.1917 128.675 45.3917 129.325 44.675C129.975 43.9417 130.442 43.2417 130.725 42.575C131.025 41.9083 131.175 41.2333 131.175 40.55C131.175 39.6833 130.892 38.975 130.325 38.425C129.775 37.8583 129.017 37.575 128.05 37.575C127.017 37.575 126.192 37.925 125.575 38.625C124.975 39.3083 124.633 40.25 124.55 41.45L122.225 40.375C122.375 38.8083 122.975 37.5667 124.025 36.65C125.075 35.7167 126.467 35.25 128.2 35.25C129.417 35.25 130.45 35.4833 131.3 35.95C132.15 36.4167 132.8 37.0417 133.25 37.825C133.7 38.6083 133.925 39.4833 133.925 40.45C133.925 41.5 133.667 42.5167 133.15 43.5C132.633 44.4667 131.817 45.4583 130.7 46.475C129.583 47.4917 128.117 48.5833 126.3 49.75V49.8C126.5 49.7833 126.775 49.7667 127.125 49.75C127.475 49.7333 127.825 49.725 128.175 49.725C128.525 49.7083 128.808 49.7 129.025 49.7H134.225V52H122.75ZM144.188 52V47.875H136.138V46.05C136.205 45.9 136.346 45.6667 136.563 45.35L143.438 35.5H146.713V45.8H149.513V47.875H146.713V52H144.188ZM138.638 45.8H144.188V39.975C144.188 39.575 144.196 39.1667 144.213 38.75C144.246 38.3167 144.271 37.8917 144.288 37.475H144.238C144.055 37.875 143.813 38.3167 143.513 38.8C143.23 39.2667 142.963 39.675 142.713 40.025L138.813 45.575C138.763 45.6583 138.705 45.7333 138.638 45.8ZM161.14 33.875L153.69 53.75H151.19L158.64 33.875H161.14ZM162.697 35.5H175.272V37.725C173.189 39.8583 171.705 42.0917 170.822 44.425C169.955 46.7583 169.522 49.2833 169.522 52H166.822C166.822 49.3833 167.289 46.8833 168.222 44.5C169.155 42.1 170.58 39.875 172.497 37.825H162.697V35.5ZM191.624 35.25C193.107 35.25 194.39 35.5333 195.474 36.1C196.557 36.65 197.474 37.4667 198.224 38.55L196.424 40.275C195.79 39.3083 195.074 38.6167 194.274 38.2C193.49 37.7667 192.557 37.55 191.474 37.55C190.257 37.55 189.374 37.7833 188.824 38.25C188.274 38.7167 187.999 39.2833 187.999 39.95C187.999 40.4667 188.174 40.9167 188.524 41.3C188.89 41.6833 189.565 41.9833 190.549 42.2L193.899 42.95C195.482 43.3167 196.607 43.8583 197.274 44.575C197.957 45.275 198.299 46.175 198.299 47.275C198.299 48.2917 198.024 49.175 197.474 49.925C196.924 50.6583 196.157 51.2333 195.174 51.65C194.19 52.05 193.049 52.25 191.749 52.25C189.999 52.25 188.507 51.925 187.274 51.275C186.04 50.6083 185.09 49.7833 184.424 48.8L186.274 46.95C186.79 47.8333 187.515 48.5583 188.449 49.125C189.399 49.675 190.524 49.95 191.824 49.95C192.974 49.95 193.874 49.75 194.524 49.35C195.19 48.9333 195.524 48.3417 195.524 47.575C195.524 47.1083 195.357 46.6917 195.024 46.325C194.707 45.9417 194.107 45.65 193.224 45.45L189.599 44.625C188.099 44.3083 186.99 43.7833 186.274 43.05C185.557 42.3167 185.199 41.4 185.199 40.3C185.199 39.3667 185.457 38.5167 185.974 37.75C186.49 36.9833 187.224 36.375 188.174 35.925C189.14 35.475 190.29 35.25 191.624 35.25ZM207.164 52.25C205.914 52.25 204.814 51.9917 203.864 51.475C202.931 50.9583 202.197 50.2167 201.664 49.25C201.131 48.2667 200.864 47.1 200.864 45.75C200.864 44.4 201.122 43.2417 201.639 42.275C202.172 41.2917 202.897 40.5417 203.814 40.025C204.747 39.5083 205.814 39.25 207.014 39.25C208.231 39.25 209.264 39.5 210.114 40C210.964 40.5 211.614 41.1833 212.064 42.05C212.514 42.9167 212.739 43.9 212.739 45C212.739 45.3167 212.731 45.6083 212.714 45.875C212.697 46.1417 212.672 46.3667 212.639 46.55H203.489C203.606 47.7167 203.981 48.6083 204.614 49.225C205.264 49.825 206.097 50.125 207.114 50.125C207.947 50.125 208.622 49.9667 209.139 49.65C209.656 49.3333 210.064 48.8917 210.364 48.325L212.489 49.325C212.056 50.2417 211.364 50.9583 210.414 51.475C209.481 51.9917 208.397 52.25 207.164 52.25ZM206.964 41.375C206.047 41.375 205.289 41.6417 204.689 42.175C204.106 42.7083 203.731 43.4833 203.564 44.5H210.139C210.072 43.5 209.756 42.7333 209.189 42.2C208.622 41.65 207.881 41.375 206.964 41.375ZM216.117 52V39.5H218.392L218.642 41.75C219.325 40.0833 220.634 39.25 222.567 39.25C222.817 39.25 223.067 39.275 223.317 39.325C223.567 39.3583 223.775 39.4167 223.942 39.5L223.567 41.85C223.384 41.7833 223.175 41.7333 222.942 41.7C222.725 41.65 222.425 41.625 222.042 41.625C221.509 41.625 220.992 41.7667 220.492 42.05C220.009 42.3167 219.6 42.7333 219.267 43.3C218.95 43.85 218.792 44.5417 218.792 45.375V52H216.117ZM234.694 39.5H237.494L232.519 52H229.594L224.594 39.5H227.544L231.069 49.675L234.694 39.5ZM241.124 37.4C240.541 37.4 240.091 37.2583 239.774 36.975C239.474 36.675 239.324 36.2583 239.324 35.725C239.324 35.1917 239.474 34.7833 239.774 34.5C240.091 34.2167 240.541 34.075 241.124 34.075C241.691 34.075 242.124 34.2167 242.424 34.5C242.741 34.7833 242.899 35.1917 242.899 35.725C242.899 36.2583 242.741 36.675 242.424 36.975C242.124 37.2583 241.691 37.4 241.124 37.4ZM242.449 39.5V52H239.774V39.5H242.449ZM252.035 39.25C253.518 39.25 254.701 39.575 255.585 40.225C256.468 40.875 257.101 41.7167 257.485 42.75L254.96 43.75C254.743 42.9833 254.393 42.4 253.91 42C253.443 41.5833 252.826 41.375 252.06 41.375C250.943 41.375 250.068 41.7583 249.435 42.525C248.818 43.275 248.51 44.3583 248.51 45.775C248.51 47.175 248.826 48.25 249.46 49C250.093 49.75 250.96 50.125 252.06 50.125C252.926 50.125 253.61 49.9167 254.11 49.5C254.626 49.0833 254.968 48.4833 255.135 47.7L257.56 48.525C257.21 49.6583 256.568 50.5667 255.635 51.25C254.701 51.9167 253.526 52.25 252.11 52.25C250.876 52.25 249.785 51.9917 248.835 51.475C247.901 50.9583 247.168 50.2167 246.635 49.25C246.101 48.2667 245.835 47.1 245.835 45.75C245.835 44.4 246.101 43.2417 246.635 42.275C247.168 41.2917 247.901 40.5417 248.835 40.025C249.768 39.5083 250.835 39.25 252.035 39.25ZM266.173 52.25C264.923 52.25 263.823 51.9917 262.873 51.475C261.939 50.9583 261.206 50.2167 260.673 49.25C260.139 48.2667 259.873 47.1 259.873 45.75C259.873 44.4 260.131 43.2417 260.648 42.275C261.181 41.2917 261.906 40.5417 262.823 40.025C263.756 39.5083 264.823 39.25 266.023 39.25C267.239 39.25 268.273 39.5 269.123 40C269.973 40.5 270.623 41.1833 271.073 42.05C271.523 42.9167 271.748 43.9 271.748 45C271.748 45.3167 271.739 45.6083 271.723 45.875C271.706 46.1417 271.681 46.3667 271.648 46.55H262.498C262.614 47.7167 262.989 48.6083 263.623 49.225C264.273 49.825 265.106 50.125 266.123 50.125C266.956 50.125 267.631 49.9667 268.148 49.65C268.664 49.3333 269.073 48.8917 269.373 48.325L271.498 49.325C271.064 50.2417 270.373 50.9583 269.423 51.475C268.489 51.9917 267.406 52.25 266.173 52.25ZM265.973 41.375C265.056 41.375 264.298 41.6417 263.698 42.175C263.114 42.7083 262.739 43.4833 262.573 44.5H269.148C269.081 43.5 268.764 42.7333 268.198 42.2C267.631 41.65 266.889 41.375 265.973 41.375Z" fill="#FF5300"/>
<path d="M141.344 94.3125C140.719 96.3333 139.625 97.8437 138.063 98.8437C136.5 99.8229 134.677 100.313 132.594 100.313C130.552 100.313 128.781 99.8854 127.281 99.0312C125.802 98.1771 124.656 96.9583 123.844 95.375C123.052 93.7917 122.656 91.8958 122.656 89.6875C122.656 87.4792 123.063 85.5833 123.875 84C124.688 82.4167 125.833 81.1979 127.313 80.3437C128.792 79.4896 130.531 79.0625 132.531 79.0625C134.635 79.0625 136.438 79.5104 137.938 80.4062C139.458 81.2812 140.5 82.6146 141.063 84.4062L137.156 86.0625C136.802 84.8125 136.26 83.9271 135.531 83.4062C134.802 82.8646 133.865 82.5937 132.719 82.5937C131.01 82.5937 129.646 83.2083 128.625 84.4375C127.625 85.6458 127.125 87.3958 127.125 89.6875C127.125 91.9583 127.604 93.7083 128.563 94.9375C129.521 96.1667 130.906 96.7812 132.719 96.7812C133.844 96.7812 134.813 96.4792 135.625 95.875C136.458 95.2708 137.042 94.3542 137.375 93.125L141.344 94.3125ZM153.488 90.0312C153.488 89.1354 153.228 88.4375 152.707 87.9375C152.207 87.4375 151.54 87.1875 150.707 87.1875C149.936 87.1875 149.259 87.3854 148.676 87.7812C148.092 88.1771 147.665 88.8333 147.394 89.75L143.738 88.625C144.092 87.25 144.863 86.1458 146.051 85.3125C147.259 84.4792 148.873 84.0625 150.894 84.0625C152.936 84.0625 154.582 84.5521 155.832 85.5312C157.103 86.4896 157.738 87.9271 157.738 89.8437V96.1875C157.738 96.9792 158.113 97.375 158.863 97.375C159.217 97.375 159.551 97.3229 159.863 97.2187L159.613 99.875C159.071 100.146 158.394 100.281 157.582 100.281C156.686 100.281 155.905 100.094 155.238 99.7187C154.592 99.3437 154.155 98.7812 153.926 98.0312C153.426 98.7812 152.707 99.3542 151.769 99.75C150.853 100.125 149.905 100.313 148.926 100.313C147.342 100.313 146.082 99.9583 145.144 99.25C144.228 98.5208 143.769 97.4687 143.769 96.0938C143.769 94.9271 144.144 93.9792 144.894 93.25C145.644 92.5 146.717 91.9896 148.113 91.7187L153.488 90.625V90.0312ZM148.051 95.6875C148.051 96.2083 148.238 96.6042 148.613 96.875C149.009 97.1458 149.478 97.2812 150.019 97.2812C150.623 97.2812 151.186 97.1875 151.707 97C152.228 96.8125 152.655 96.5 152.988 96.0625C153.321 95.6042 153.488 95 153.488 94.25V93.2812L150.207 93.9375C149.498 94.0833 148.957 94.2812 148.582 94.5312C148.228 94.7604 148.051 95.1458 148.051 95.6875ZM166.745 77.5312V95.1875C166.745 95.9167 166.87 96.4271 167.12 96.7187C167.37 97.0104 167.787 97.1562 168.37 97.1562C168.724 97.1562 169.016 97.1354 169.245 97.0937C169.474 97.0521 169.766 96.9687 170.12 96.8437L169.745 99.6562C169.391 99.8646 168.943 100.021 168.401 100.125C167.88 100.25 167.359 100.313 166.839 100.313C165.318 100.313 164.203 99.9479 163.495 99.2187C162.807 98.4687 162.464 97.2812 162.464 95.6562V77.5312H166.745ZM176.724 77.5312V95.1875C176.724 95.9167 176.849 96.4271 177.099 96.7187C177.349 97.0104 177.766 97.1562 178.349 97.1562C178.703 97.1562 178.995 97.1354 179.224 97.0937C179.453 97.0521 179.745 96.9687 180.099 96.8437L179.724 99.6562C179.37 99.8646 178.922 100.021 178.38 100.125C177.86 100.25 177.339 100.313 176.818 100.313C175.297 100.313 174.182 99.9479 173.474 99.2187C172.787 98.4687 172.443 97.2812 172.443 95.6562V77.5312H176.724ZM208.991 79.375V91.875C208.991 94.6875 208.241 96.8021 206.741 98.2187C205.241 99.6146 203.053 100.313 200.178 100.313C197.303 100.313 195.116 99.6146 193.616 98.2187C192.116 96.8021 191.366 94.6875 191.366 91.875V79.375H195.678V91.6875C195.678 93.4167 196.043 94.6979 196.772 95.5312C197.522 96.3646 198.658 96.7812 200.178 96.7812C201.699 96.7812 202.824 96.3646 203.553 95.5312C204.283 94.6979 204.647 93.4167 204.647 91.6875V79.375H208.991ZM219.588 100.313C218.005 100.313 216.557 100.031 215.244 99.4687C213.952 98.9062 212.9 98.1146 212.088 97.0937L214.557 94.5937C215.057 95.3437 215.723 95.9583 216.557 96.4375C217.39 96.9167 218.38 97.1562 219.525 97.1562C220.338 97.1562 220.984 97.0417 221.463 96.8125C221.963 96.5625 222.213 96.1771 222.213 95.6562C222.213 95.3229 222.098 95.0417 221.869 94.8125C221.64 94.5625 221.182 94.3646 220.494 94.2187L217.744 93.6562C215.932 93.2812 214.64 92.7187 213.869 91.9688C213.119 91.1979 212.744 90.2083 212.744 89C212.744 88.1458 212.994 87.3437 213.494 86.5937C214.015 85.8437 214.786 85.2396 215.807 84.7812C216.827 84.3021 218.098 84.0625 219.619 84.0625C222.786 84.0625 225.057 85.0312 226.432 86.9687L223.869 89.4687C223.411 88.7396 222.807 88.1875 222.057 87.8125C221.327 87.4167 220.557 87.2187 219.744 87.2187C217.911 87.2187 216.994 87.7292 216.994 88.75C216.994 89.0833 217.14 89.375 217.432 89.625C217.723 89.8542 218.255 90.0521 219.025 90.2187L222.213 90.875C223.755 91.1875 224.859 91.7187 225.525 92.4687C226.192 93.1979 226.525 94.0833 226.525 95.125C226.525 96.625 225.921 97.8646 224.713 98.8437C223.525 99.8229 221.817 100.313 219.588 100.313Z" fill="#373737"/>
<path d="M38.96 156.72V158.5H34.98V162.68H33.12V158.5H29.12V156.72H33.12V152.56H34.98V156.72H38.96ZM46.2703 150.62C47.6036 150.62 48.6703 150.933 49.4703 151.56C50.2703 152.187 50.6703 153.047 50.6703 154.14C50.6703 154.82 50.5036 155.42 50.1703 155.94C49.837 156.46 49.3636 156.847 48.7503 157.1V157.12C49.5236 157.4 50.1303 157.82 50.5703 158.38C51.0103 158.927 51.2303 159.607 51.2303 160.42C51.2303 161.58 50.777 162.5 49.8703 163.18C48.977 163.86 47.777 164.2 46.2703 164.2C45.257 164.2 44.377 164.047 43.6303 163.74C42.897 163.433 42.3236 163 41.9103 162.44C41.497 161.867 41.2903 161.193 41.2903 160.42C41.2903 159.62 41.5103 158.94 41.9503 158.38C42.3903 157.82 43.0036 157.4 43.7903 157.12V157.1C43.177 156.847 42.697 156.467 42.3503 155.96C42.017 155.44 41.8503 154.833 41.8503 154.14C41.8503 153.047 42.2503 152.187 43.0503 151.56C43.8636 150.933 44.937 150.62 46.2703 150.62ZM46.2703 152.42C45.5636 152.42 45.0036 152.593 44.5903 152.94C44.177 153.273 43.9703 153.747 43.9703 154.36C43.9703 154.96 44.177 155.433 44.5903 155.78C45.017 156.113 45.577 156.28 46.2703 156.28C46.9503 156.28 47.5036 156.113 47.9303 155.78C48.357 155.433 48.5703 154.96 48.5703 154.36C48.5703 153.747 48.3636 153.273 47.9503 152.94C47.537 152.593 46.977 152.42 46.2703 152.42ZM46.2703 162.4C47.137 162.4 47.817 162.207 48.3103 161.82C48.817 161.433 49.0703 160.9 49.0703 160.22C49.0703 159.527 48.817 158.987 48.3103 158.6C47.8036 158.213 47.1236 158.02 46.2703 158.02C45.417 158.02 44.7303 158.213 44.2103 158.6C43.7036 158.987 43.4503 159.527 43.4503 160.22C43.4503 160.9 43.7036 161.433 44.2103 161.82C44.717 162.207 45.4036 162.4 46.2703 162.4ZM58.6531 150.62C59.9865 150.62 61.0531 150.933 61.8531 151.56C62.6531 152.187 63.0531 153.047 63.0531 154.14C63.0531 154.82 62.8865 155.42 62.5531 155.94C62.2198 156.46 61.7465 156.847 61.1331 157.1V157.12C61.9065 157.4 62.5131 157.82 62.9531 158.38C63.3931 158.927 63.6131 159.607 63.6131 160.42C63.6131 161.58 63.1598 162.5 62.2531 163.18C61.3598 163.86 60.1598 164.2 58.6531 164.2C57.6398 164.2 56.7598 164.047 56.0131 163.74C55.2798 163.433 54.7065 163 54.2931 162.44C53.8798 161.867 53.6731 161.193 53.6731 160.42C53.6731 159.62 53.8931 158.94 54.3331 158.38C54.7731 157.82 55.3865 157.4 56.1731 157.12V157.1C55.5598 156.847 55.0798 156.467 54.7331 155.96C54.3998 155.44 54.2331 154.833 54.2331 154.14C54.2331 153.047 54.6331 152.187 55.4331 151.56C56.2465 150.933 57.3198 150.62 58.6531 150.62ZM58.6531 152.42C57.9465 152.42 57.3865 152.593 56.9731 152.94C56.5598 153.273 56.3531 153.747 56.3531 154.36C56.3531 154.96 56.5598 155.433 56.9731 155.78C57.3998 156.113 57.9598 156.28 58.6531 156.28C59.3331 156.28 59.8865 156.113 60.3131 155.78C60.7398 155.433 60.9531 154.96 60.9531 154.36C60.9531 153.747 60.7465 153.273 60.3331 152.94C59.9198 152.593 59.3598 152.42 58.6531 152.42ZM58.6531 162.4C59.5198 162.4 60.1998 162.207 60.6931 161.82C61.1998 161.433 61.4531 160.9 61.4531 160.22C61.4531 159.527 61.1998 158.987 60.6931 158.6C60.1865 158.213 59.5065 158.02 58.6531 158.02C57.7998 158.02 57.1131 158.213 56.5931 158.6C56.0865 158.987 55.8331 159.527 55.8331 160.22C55.8331 160.9 56.0865 161.433 56.5931 161.82C57.0998 162.207 57.7865 162.4 58.6531 162.4ZM71.1159 164.2C69.5293 164.2 68.2826 163.627 67.3759 162.48C66.4826 161.32 66.0359 159.627 66.0359 157.4C66.0359 155.173 66.4826 153.487 67.3759 152.34C68.2826 151.18 69.5293 150.6 71.1159 150.6C72.7026 150.6 73.9493 151.18 74.8559 152.34C75.7626 153.487 76.2159 155.173 76.2159 157.4C76.2159 159.627 75.7626 161.32 74.8559 162.48C73.9493 163.627 72.7026 164.2 71.1159 164.2ZM71.1159 162.38C73.0626 162.38 74.0359 160.72 74.0359 157.4C74.0359 154.08 73.0626 152.42 71.1159 152.42C69.1826 152.42 68.2159 154.08 68.2159 157.4C68.2159 160.72 69.1826 162.38 71.1159 162.38ZM85.2984 164V162.42C86.5651 161.54 87.6251 160.753 88.4784 160.06C89.3451 159.353 90.0384 158.713 90.5584 158.14C91.0784 157.553 91.4518 156.993 91.6784 156.46C91.9184 155.927 92.0384 155.387 92.0384 154.84C92.0384 154.147 91.8118 153.58 91.3584 153.14C90.9184 152.687 90.3118 152.46 89.5384 152.46C88.7118 152.46 88.0518 152.74 87.5584 153.3C87.0784 153.847 86.8051 154.6 86.7384 155.56L84.8784 154.7C84.9984 153.447 85.4784 152.453 86.3184 151.72C87.1584 150.973 88.2718 150.6 89.6584 150.6C90.6318 150.6 91.4584 150.787 92.1384 151.16C92.8184 151.533 93.3384 152.033 93.6984 152.66C94.0584 153.287 94.2384 153.987 94.2384 154.76C94.2384 155.6 94.0318 156.413 93.6184 157.2C93.2051 157.973 92.5518 158.767 91.6584 159.58C90.7651 160.393 89.5918 161.267 88.1384 162.2V162.24C88.2984 162.227 88.5184 162.213 88.7984 162.2C89.0784 162.187 89.3584 162.18 89.6384 162.18C89.9184 162.167 90.1451 162.16 90.3184 162.16H94.4784V164H85.2984ZM102.217 150.6C103.27 150.6 104.15 150.82 104.857 151.26C105.577 151.7 106.137 152.42 106.537 153.42L104.657 154.32C104.47 153.747 104.17 153.293 103.757 152.96C103.357 152.627 102.797 152.46 102.077 152.46C101.383 152.46 100.797 152.687 100.317 153.14C99.8367 153.58 99.4634 154.18 99.1967 154.94C98.9434 155.7 98.8167 156.567 98.8167 157.54V157.9L98.8967 157.94C99.0434 157.42 99.3034 156.993 99.6767 156.66C100.063 156.327 100.497 156.08 100.977 155.92C101.457 155.76 101.93 155.68 102.397 155.68C103.263 155.68 104.023 155.853 104.677 156.2C105.343 156.533 105.857 157.013 106.217 157.64C106.59 158.267 106.777 159.013 106.777 159.88C106.777 161.2 106.357 162.253 105.517 163.04C104.677 163.813 103.543 164.2 102.117 164.2C100.997 164.2 100.043 163.92 99.2567 163.36C98.4701 162.8 97.8701 162.013 97.4567 161C97.0434 159.987 96.8367 158.8 96.8367 157.44C96.8367 155.933 97.0701 154.673 97.5367 153.66C98.0167 152.647 98.6634 151.887 99.4767 151.38C100.29 150.86 101.203 150.6 102.217 150.6ZM102.077 157.46C101.317 157.46 100.697 157.687 100.217 158.14C99.7367 158.58 99.4967 159.16 99.4967 159.88C99.4967 160.347 99.6101 160.767 99.8367 161.14C100.063 161.513 100.37 161.813 100.757 162.04C101.157 162.253 101.597 162.36 102.077 162.36C102.903 162.36 103.537 162.147 103.977 161.72C104.43 161.28 104.657 160.667 104.657 159.88C104.657 159.133 104.43 158.547 103.977 158.12C103.537 157.68 102.903 157.46 102.077 157.46ZM113.603 164.2C112.43 164.2 111.463 163.947 110.703 163.44C109.957 162.933 109.363 162.2 108.923 161.24L110.923 160.2C111.11 160.853 111.41 161.38 111.823 161.78C112.237 162.18 112.843 162.38 113.643 162.38C114.47 162.38 115.117 162.153 115.583 161.7C116.063 161.247 116.303 160.62 116.303 159.82C116.303 158.993 116.083 158.367 115.643 157.94C115.203 157.5 114.57 157.28 113.743 157.28C113.157 157.28 112.63 157.373 112.163 157.56C111.71 157.733 111.343 158.02 111.063 158.42L109.303 158.08L110.103 150.8H117.783V152.64H111.803L111.323 156.36L111.283 156.58H111.323C111.63 156.26 112.023 156.007 112.503 155.82C112.997 155.62 113.577 155.52 114.243 155.52C115.097 155.52 115.83 155.7 116.443 156.06C117.07 156.407 117.55 156.893 117.883 157.52C118.23 158.147 118.403 158.873 118.403 159.7C118.403 160.673 118.19 161.493 117.763 162.16C117.35 162.827 116.777 163.333 116.043 163.68C115.323 164.027 114.51 164.2 113.603 164.2ZM131.928 150.6C133.061 150.6 134.014 150.88 134.788 151.44C135.561 152 136.148 152.787 136.548 153.8C136.948 154.813 137.148 156.007 137.148 157.38C137.148 159.647 136.688 161.353 135.768 162.5C134.861 163.633 133.588 164.2 131.948 164.2C130.828 164.2 129.861 163.953 129.048 163.46C128.248 162.967 127.654 162.227 127.268 161.24L129.288 160.3C129.474 160.913 129.781 161.413 130.208 161.8C130.634 162.173 131.228 162.36 131.988 162.36C132.801 162.36 133.441 162.153 133.908 161.74C134.374 161.313 134.708 160.713 134.908 159.94C135.108 159.153 135.208 158.227 135.208 157.16V156.94H135.128C134.968 157.487 134.701 157.927 134.328 158.26C133.954 158.58 133.528 158.82 133.048 158.98C132.568 159.127 132.088 159.2 131.608 159.2C130.754 159.2 129.994 159.033 129.328 158.7C128.674 158.353 128.161 157.873 127.788 157.26C127.414 156.647 127.228 155.92 127.228 155.08C127.228 153.707 127.648 152.62 128.488 151.82C129.328 151.007 130.474 150.6 131.928 150.6ZM131.948 152.48C131.108 152.48 130.468 152.707 130.028 153.16C129.588 153.613 129.368 154.247 129.368 155.06C129.368 155.78 129.601 156.347 130.068 156.76C130.534 157.16 131.161 157.36 131.948 157.36C132.708 157.36 133.328 157.14 133.808 156.7C134.288 156.247 134.528 155.66 134.528 154.94C134.528 154.193 134.288 153.6 133.808 153.16C133.328 152.707 132.708 152.48 131.948 152.48ZM144.552 150.62C145.885 150.62 146.952 150.933 147.752 151.56C148.552 152.187 148.952 153.047 148.952 154.14C148.952 154.82 148.785 155.42 148.452 155.94C148.118 156.46 147.645 156.847 147.032 157.1V157.12C147.805 157.4 148.412 157.82 148.852 158.38C149.292 158.927 149.512 159.607 149.512 160.42C149.512 161.58 149.058 162.5 148.152 163.18C147.258 163.86 146.058 164.2 144.552 164.2C143.538 164.2 142.658 164.047 141.912 163.74C141.178 163.433 140.605 163 140.192 162.44C139.778 161.867 139.572 161.193 139.572 160.42C139.572 159.62 139.792 158.94 140.232 158.38C140.672 157.82 141.285 157.4 142.072 157.12V157.1C141.458 156.847 140.978 156.467 140.632 155.96C140.298 155.44 140.132 154.833 140.132 154.14C140.132 153.047 140.532 152.187 141.332 151.56C142.145 150.933 143.218 150.62 144.552 150.62ZM144.552 152.42C143.845 152.42 143.285 152.593 142.872 152.94C142.458 153.273 142.252 153.747 142.252 154.36C142.252 154.96 142.458 155.433 142.872 155.78C143.298 156.113 143.858 156.28 144.552 156.28C145.232 156.28 145.785 156.113 146.212 155.78C146.638 155.433 146.852 154.96 146.852 154.36C146.852 153.747 146.645 153.273 146.232 152.94C145.818 152.593 145.258 152.42 144.552 152.42ZM144.552 162.4C145.418 162.4 146.098 162.207 146.592 161.82C147.098 161.433 147.352 160.9 147.352 160.22C147.352 159.527 147.098 158.987 146.592 158.6C146.085 158.213 145.405 158.02 144.552 158.02C143.698 158.02 143.012 158.213 142.492 158.6C141.985 158.987 141.732 159.527 141.732 160.22C141.732 160.9 141.985 161.433 142.492 161.82C142.998 162.207 143.685 162.4 144.552 162.4ZM150.733 150.8H160.793V152.58C159.126 154.287 157.939 156.073 157.233 157.94C156.539 159.807 156.193 161.827 156.193 164H154.033C154.033 161.907 154.406 159.907 155.153 158C155.899 156.08 157.039 154.3 158.573 152.66H150.733V150.8ZM167.351 164V160.7H160.911V159.24C160.965 159.12 161.078 158.933 161.251 158.68L166.751 150.8H169.371V159.04H171.611V160.7H169.371V164H167.351ZM162.911 159.04H167.351V154.38C167.351 154.06 167.358 153.733 167.371 153.4C167.398 153.053 167.418 152.713 167.431 152.38H167.391C167.245 152.7 167.051 153.053 166.811 153.44C166.585 153.813 166.371 154.14 166.171 154.42L163.051 158.86C163.011 158.927 162.965 158.987 162.911 159.04ZM178.213 164.2C177.039 164.2 176.073 163.947 175.313 163.44C174.566 162.933 173.973 162.2 173.533 161.24L175.533 160.2C175.719 160.853 176.019 161.38 176.433 161.78C176.846 162.18 177.453 162.38 178.253 162.38C179.079 162.38 179.726 162.153 180.193 161.7C180.673 161.247 180.913 160.62 180.913 159.82C180.913 158.993 180.693 158.367 180.253 157.94C179.813 157.5 179.179 157.28 178.353 157.28C177.766 157.28 177.239 157.373 176.773 157.56C176.319 157.733 175.953 158.02 175.673 158.42L173.913 158.08L174.713 150.8H182.393V152.64H176.413L175.933 156.36L175.893 156.58H175.933C176.239 156.26 176.633 156.007 177.113 155.82C177.606 155.62 178.186 155.52 178.853 155.52C179.706 155.52 180.439 155.7 181.053 156.06C181.679 156.407 182.159 156.893 182.493 157.52C182.839 158.147 183.013 158.873 183.013 159.7C183.013 160.673 182.799 161.493 182.373 162.16C181.959 162.827 181.386 163.333 180.653 163.68C179.933 164.027 179.119 164.2 178.213 164.2Z" fill="#7B7B7B"/>
<path d="M208.66 149.06L209.78 150.18C208.513 151.34 207.62 152.587 207.1 153.92C206.58 155.253 206.32 156.76 206.32 158.44C206.32 160.107 206.58 161.613 207.1 162.96C207.62 164.293 208.513 165.533 209.78 166.68L208.66 167.8C207.207 166.64 206.107 165.273 205.36 163.7C204.627 162.127 204.26 160.373 204.26 158.44C204.26 156.493 204.627 154.74 205.36 153.18C206.107 151.607 207.207 150.233 208.66 149.06ZM222.026 150.8V152.64H217.506V164H215.366V152.64H210.846V150.8H222.026ZM226.52 153.8C227.493 153.8 228.353 154.007 229.1 154.42C229.846 154.833 230.426 155.433 230.84 156.22C231.266 156.993 231.48 157.92 231.48 159C231.48 160.08 231.266 161.013 230.84 161.8C230.426 162.573 229.846 163.167 229.1 163.58C228.353 163.993 227.493 164.2 226.52 164.2C225.546 164.2 224.686 163.993 223.94 163.58C223.193 163.167 222.606 162.573 222.18 161.8C221.753 161.013 221.54 160.08 221.54 159C221.54 157.92 221.753 156.993 222.18 156.22C222.606 155.433 223.193 154.833 223.94 154.42C224.686 154.007 225.546 153.8 226.52 153.8ZM226.52 155.48C225.64 155.48 224.946 155.787 224.44 156.4C223.933 157 223.68 157.867 223.68 159C223.68 160.133 223.933 161.007 224.44 161.62C224.946 162.22 225.64 162.52 226.52 162.52C227.4 162.52 228.086 162.22 228.58 161.62C229.086 161.007 229.34 160.133 229.34 159C229.34 157.867 229.086 157 228.58 156.4C228.086 155.787 227.4 155.48 226.52 155.48ZM236.252 149.5V161.2C236.252 161.693 236.338 162.033 236.512 162.22C236.685 162.407 236.972 162.5 237.372 162.5C237.612 162.5 237.812 162.487 237.972 162.46C238.145 162.42 238.358 162.353 238.612 162.26L238.372 163.86C237.905 164.087 237.352 164.2 236.712 164.2C235.818 164.2 235.158 163.973 234.732 163.52C234.318 163.067 234.112 162.353 234.112 161.38V149.5H236.252ZM242.482 149.5V161.2C242.482 161.693 242.569 162.033 242.742 162.22C242.916 162.407 243.202 162.5 243.602 162.5C243.842 162.5 244.042 162.487 244.202 162.46C244.376 162.42 244.589 162.353 244.842 162.26L244.602 163.86C244.136 164.087 243.582 164.2 242.942 164.2C242.049 164.2 241.389 163.973 240.962 163.52C240.549 163.067 240.342 162.353 240.342 161.38V149.5H242.482ZM258.318 154V155.68H255.138V164H252.998V155.68H251.118V154H252.998V152.56C252.998 151.547 253.305 150.76 253.918 150.2C254.545 149.64 255.398 149.36 256.478 149.36C257.331 149.36 257.965 149.52 258.378 149.84L257.978 151.38C257.831 151.287 257.665 151.22 257.478 151.18C257.291 151.127 257.078 151.1 256.838 151.1C256.278 151.1 255.845 151.227 255.538 151.48C255.231 151.733 255.078 152.147 255.078 152.72V154H258.318ZM260.246 164V154H262.066L262.266 155.8C262.813 154.467 263.859 153.8 265.406 153.8C265.606 153.8 265.806 153.82 266.006 153.86C266.206 153.887 266.373 153.933 266.506 154L266.206 155.88C266.059 155.827 265.893 155.787 265.706 155.76C265.533 155.72 265.293 155.7 264.986 155.7C264.559 155.7 264.146 155.813 263.746 156.04C263.359 156.253 263.033 156.587 262.766 157.04C262.513 157.48 262.386 158.033 262.386 158.7V164H260.246ZM272.673 164.2C271.673 164.2 270.793 163.993 270.033 163.58C269.287 163.167 268.7 162.573 268.273 161.8C267.847 161.013 267.633 160.08 267.633 159C267.633 157.92 267.84 156.993 268.253 156.22C268.68 155.433 269.26 154.833 269.993 154.42C270.74 154.007 271.593 153.8 272.553 153.8C273.527 153.8 274.353 154 275.033 154.4C275.713 154.8 276.233 155.347 276.593 156.04C276.953 156.733 277.133 157.52 277.133 158.4C277.133 158.653 277.127 158.887 277.113 159.1C277.1 159.313 277.08 159.493 277.053 159.64H269.733C269.827 160.573 270.127 161.287 270.633 161.78C271.153 162.26 271.82 162.5 272.633 162.5C273.3 162.5 273.84 162.373 274.253 162.12C274.667 161.867 274.993 161.513 275.233 161.06L276.933 161.86C276.587 162.593 276.033 163.167 275.273 163.58C274.527 163.993 273.66 164.2 272.673 164.2ZM272.513 155.5C271.78 155.5 271.173 155.713 270.693 156.14C270.227 156.567 269.927 157.187 269.793 158H275.053C275 157.2 274.747 156.587 274.293 156.16C273.84 155.72 273.247 155.5 272.513 155.5ZM284.236 164.2C283.236 164.2 282.356 163.993 281.596 163.58C280.849 163.167 280.262 162.573 279.836 161.8C279.409 161.013 279.196 160.08 279.196 159C279.196 157.92 279.402 156.993 279.816 156.22C280.242 155.433 280.822 154.833 281.556 154.42C282.302 154.007 283.156 153.8 284.116 153.8C285.089 153.8 285.916 154 286.596 154.4C287.276 154.8 287.796 155.347 288.156 156.04C288.516 156.733 288.696 157.52 288.696 158.4C288.696 158.653 288.689 158.887 288.676 159.1C288.662 159.313 288.642 159.493 288.616 159.64H281.296C281.389 160.573 281.689 161.287 282.196 161.78C282.716 162.26 283.382 162.5 284.196 162.5C284.862 162.5 285.402 162.373 285.816 162.12C286.229 161.867 286.556 161.513 286.796 161.06L288.496 161.86C288.149 162.593 287.596 163.167 286.836 163.58C286.089 163.993 285.222 164.2 284.236 164.2ZM284.076 155.5C283.342 155.5 282.736 155.713 282.256 156.14C281.789 156.567 281.489 157.187 281.356 158H286.616C286.562 157.2 286.309 156.587 285.856 156.16C285.402 155.72 284.809 155.5 284.076 155.5ZM290.498 167.8L289.378 166.68C290.645 165.52 291.538 164.273 292.058 162.94C292.578 161.607 292.838 160.1 292.838 158.42C292.838 156.753 292.578 155.253 292.058 153.92C291.538 152.573 290.645 151.327 289.378 150.18L290.498 149.06C291.951 150.22 293.045 151.587 293.778 153.16C294.525 154.733 294.898 156.487 294.898 158.42C294.898 160.367 294.525 162.127 293.778 163.7C293.045 165.26 291.951 166.627 290.498 167.8Z" fill="#FF5300"/>
<path d="M38.96 201.72V203.5H34.98V207.68H33.12V203.5H29.12V201.72H33.12V197.56H34.98V201.72H38.96ZM46.2703 195.62C47.6036 195.62 48.6703 195.933 49.4703 196.56C50.2703 197.187 50.6703 198.047 50.6703 199.14C50.6703 199.82 50.5036 200.42 50.1703 200.94C49.837 201.46 49.3636 201.847 48.7503 202.1V202.12C49.5236 202.4 50.1303 202.82 50.5703 203.38C51.0103 203.927 51.2303 204.607 51.2303 205.42C51.2303 206.58 50.777 207.5 49.8703 208.18C48.977 208.86 47.777 209.2 46.2703 209.2C45.257 209.2 44.377 209.047 43.6303 208.74C42.897 208.433 42.3236 208 41.9103 207.44C41.497 206.867 41.2903 206.193 41.2903 205.42C41.2903 204.62 41.5103 203.94 41.9503 203.38C42.3903 202.82 43.0036 202.4 43.7903 202.12V202.1C43.177 201.847 42.697 201.467 42.3503 200.96C42.017 200.44 41.8503 199.833 41.8503 199.14C41.8503 198.047 42.2503 197.187 43.0503 196.56C43.8636 195.933 44.937 195.62 46.2703 195.62ZM46.2703 197.42C45.5636 197.42 45.0036 197.593 44.5903 197.94C44.177 198.273 43.9703 198.747 43.9703 199.36C43.9703 199.96 44.177 200.433 44.5903 200.78C45.017 201.113 45.577 201.28 46.2703 201.28C46.9503 201.28 47.5036 201.113 47.9303 200.78C48.357 200.433 48.5703 199.96 48.5703 199.36C48.5703 198.747 48.3636 198.273 47.9503 197.94C47.537 197.593 46.977 197.42 46.2703 197.42ZM46.2703 207.4C47.137 207.4 47.817 207.207 48.3103 206.82C48.817 206.433 49.0703 205.9 49.0703 205.22C49.0703 204.527 48.817 203.987 48.3103 203.6C47.8036 203.213 47.1236 203.02 46.2703 203.02C45.417 203.02 44.7303 203.213 44.2103 203.6C43.7036 203.987 43.4503 204.527 43.4503 205.22C43.4503 205.9 43.7036 206.433 44.2103 206.82C44.717 207.207 45.4036 207.4 46.2703 207.4ZM58.3731 195.6C59.5065 195.6 60.4598 195.88 61.2331 196.44C62.0065 197 62.5931 197.787 62.9931 198.8C63.3931 199.813 63.5931 201.007 63.5931 202.38C63.5931 204.647 63.1331 206.353 62.2131 207.5C61.3065 208.633 60.0331 209.2 58.3931 209.2C57.2731 209.2 56.3065 208.953 55.4931 208.46C54.6931 207.967 54.0998 207.227 53.7131 206.24L55.7331 205.3C55.9198 205.913 56.2265 206.413 56.6531 206.8C57.0798 207.173 57.6731 207.36 58.4331 207.36C59.2465 207.36 59.8865 207.153 60.3531 206.74C60.8198 206.313 61.1531 205.713 61.3531 204.94C61.5531 204.153 61.6531 203.227 61.6531 202.16V201.94H61.5731C61.4131 202.487 61.1465 202.927 60.7731 203.26C60.3998 203.58 59.9731 203.82 59.4931 203.98C59.0131 204.127 58.5331 204.2 58.0531 204.2C57.1998 204.2 56.4398 204.033 55.7731 203.7C55.1198 203.353 54.6065 202.873 54.2331 202.26C53.8598 201.647 53.6731 200.92 53.6731 200.08C53.6731 198.707 54.0931 197.62 54.9331 196.82C55.7731 196.007 56.9198 195.6 58.3731 195.6ZM58.3931 197.48C57.5531 197.48 56.9131 197.707 56.4731 198.16C56.0331 198.613 55.8131 199.247 55.8131 200.06C55.8131 200.78 56.0465 201.347 56.5131 201.76C56.9798 202.16 57.6065 202.36 58.3931 202.36C59.1531 202.36 59.7731 202.14 60.2531 201.7C60.7331 201.247 60.9731 200.66 60.9731 199.94C60.9731 199.193 60.7331 198.6 60.2531 198.16C59.7731 197.707 59.1531 197.48 58.3931 197.48ZM70.4978 209.2C69.3245 209.2 68.3578 208.947 67.5978 208.44C66.8511 207.933 66.2578 207.2 65.8178 206.24L67.8178 205.2C68.0045 205.853 68.3045 206.38 68.7178 206.78C69.1311 207.18 69.7378 207.38 70.5378 207.38C71.3645 207.38 72.0111 207.153 72.4778 206.7C72.9578 206.247 73.1978 205.62 73.1978 204.82C73.1978 203.993 72.9778 203.367 72.5378 202.94C72.0978 202.5 71.4645 202.28 70.6378 202.28C70.0511 202.28 69.5245 202.373 69.0578 202.56C68.6045 202.733 68.2378 203.02 67.9578 203.42L66.1978 203.08L66.9978 195.8H74.6778V197.64H68.6978L68.2178 201.36L68.1778 201.58H68.2178C68.5245 201.26 68.9178 201.007 69.3978 200.82C69.8911 200.62 70.4711 200.52 71.1378 200.52C71.9911 200.52 72.7245 200.7 73.3378 201.06C73.9645 201.407 74.4445 201.893 74.7778 202.52C75.1245 203.147 75.2978 203.873 75.2978 204.7C75.2978 205.673 75.0845 206.493 74.6578 207.16C74.2445 207.827 73.6711 208.333 72.9378 208.68C72.2178 209.027 71.4045 209.2 70.4978 209.2ZM89.1023 195.62C90.4357 195.62 91.5023 195.933 92.3023 196.56C93.1023 197.187 93.5023 198.047 93.5023 199.14C93.5023 199.82 93.3357 200.42 93.0023 200.94C92.669 201.46 92.1957 201.847 91.5823 202.1V202.12C92.3557 202.4 92.9623 202.82 93.4023 203.38C93.8423 203.927 94.0623 204.607 94.0623 205.42C94.0623 206.58 93.609 207.5 92.7023 208.18C91.809 208.86 90.609 209.2 89.1023 209.2C88.089 209.2 87.209 209.047 86.4623 208.74C85.729 208.433 85.1557 208 84.7423 207.44C84.329 206.867 84.1223 206.193 84.1223 205.42C84.1223 204.62 84.3423 203.94 84.7823 203.38C85.2223 202.82 85.8357 202.4 86.6223 202.12V202.1C86.009 201.847 85.529 201.467 85.1823 200.96C84.849 200.44 84.6823 199.833 84.6823 199.14C84.6823 198.047 85.0823 197.187 85.8823 196.56C86.6957 195.933 87.769 195.62 89.1023 195.62ZM89.1023 197.42C88.3957 197.42 87.8357 197.593 87.4223 197.94C87.009 198.273 86.8023 198.747 86.8023 199.36C86.8023 199.96 87.009 200.433 87.4223 200.78C87.849 201.113 88.409 201.28 89.1023 201.28C89.7823 201.28 90.3357 201.113 90.7623 200.78C91.189 200.433 91.4023 199.96 91.4023 199.36C91.4023 198.747 91.1957 198.273 90.7823 197.94C90.369 197.593 89.809 197.42 89.1023 197.42ZM89.1023 207.4C89.969 207.4 90.649 207.207 91.1423 206.82C91.649 206.433 91.9023 205.9 91.9023 205.22C91.9023 204.527 91.649 203.987 91.1423 203.6C90.6357 203.213 89.9557 203.02 89.1023 203.02C88.249 203.02 87.5623 203.213 87.0423 203.6C86.5357 203.987 86.2823 204.527 86.2823 205.22C86.2823 205.9 86.5357 206.433 87.0423 206.82C87.549 207.207 88.2357 207.4 89.1023 207.4ZM101.025 209.2C99.8518 209.2 98.8852 208.947 98.1252 208.44C97.3785 207.933 96.7852 207.2 96.3452 206.24L98.3452 205.2C98.5318 205.853 98.8318 206.38 99.2452 206.78C99.6585 207.18 100.265 207.38 101.065 207.38C101.892 207.38 102.538 207.153 103.005 206.7C103.485 206.247 103.725 205.62 103.725 204.82C103.725 203.993 103.505 203.367 103.065 202.94C102.625 202.5 101.992 202.28 101.165 202.28C100.578 202.28 100.052 202.373 99.5852 202.56C99.1318 202.733 98.7652 203.02 98.4852 203.42L96.7252 203.08L97.5252 195.8H105.205V197.64H99.2252L98.7452 201.36L98.7052 201.58H98.7452C99.0518 201.26 99.4452 201.007 99.9252 200.82C100.418 200.62 100.998 200.52 101.665 200.52C102.518 200.52 103.252 200.7 103.865 201.06C104.492 201.407 104.972 201.893 105.305 202.52C105.652 203.147 105.825 203.873 105.825 204.7C105.825 205.673 105.612 206.493 105.185 207.16C104.772 207.827 104.198 208.333 103.465 208.68C102.745 209.027 101.932 209.2 101.025 209.2ZM112.666 209.2C111.492 209.2 110.526 208.947 109.766 208.44C109.019 207.933 108.426 207.2 107.986 206.24L109.986 205.2C110.172 205.853 110.472 206.38 110.886 206.78C111.299 207.18 111.906 207.38 112.706 207.38C113.532 207.38 114.179 207.153 114.646 206.7C115.126 206.247 115.366 205.62 115.366 204.82C115.366 203.993 115.146 203.367 114.706 202.94C114.266 202.5 113.632 202.28 112.806 202.28C112.219 202.28 111.692 202.373 111.226 202.56C110.772 202.733 110.406 203.02 110.126 203.42L108.366 203.08L109.166 195.8H116.846V197.64H110.866L110.386 201.36L110.346 201.58H110.386C110.692 201.26 111.086 201.007 111.566 200.82C112.059 200.62 112.639 200.52 113.306 200.52C114.159 200.52 114.892 200.7 115.506 201.06C116.132 201.407 116.612 201.893 116.946 202.52C117.292 203.147 117.466 203.873 117.466 204.7C117.466 205.673 117.252 206.493 116.826 207.16C116.412 207.827 115.839 208.333 115.106 208.68C114.386 209.027 113.572 209.2 112.666 209.2ZM131.27 195.62C132.604 195.62 133.67 195.933 134.47 196.56C135.27 197.187 135.67 198.047 135.67 199.14C135.67 199.82 135.504 200.42 135.17 200.94C134.837 201.46 134.364 201.847 133.75 202.1V202.12C134.524 202.4 135.13 202.82 135.57 203.38C136.01 203.927 136.23 204.607 136.23 205.42C136.23 206.58 135.777 207.5 134.87 208.18C133.977 208.86 132.777 209.2 131.27 209.2C130.257 209.2 129.377 209.047 128.63 208.74C127.897 208.433 127.324 208 126.91 207.44C126.497 206.867 126.29 206.193 126.29 205.42C126.29 204.62 126.51 203.94 126.95 203.38C127.39 202.82 128.004 202.4 128.79 202.12V202.1C128.177 201.847 127.697 201.467 127.35 200.96C127.017 200.44 126.85 199.833 126.85 199.14C126.85 198.047 127.25 197.187 128.05 196.56C128.864 195.933 129.937 195.62 131.27 195.62ZM131.27 197.42C130.564 197.42 130.004 197.593 129.59 197.94C129.177 198.273 128.97 198.747 128.97 199.36C128.97 199.96 129.177 200.433 129.59 200.78C130.017 201.113 130.577 201.28 131.27 201.28C131.95 201.28 132.504 201.113 132.93 200.78C133.357 200.433 133.57 199.96 133.57 199.36C133.57 198.747 133.364 198.273 132.95 197.94C132.537 197.593 131.977 197.42 131.27 197.42ZM131.27 207.4C132.137 207.4 132.817 207.207 133.31 206.82C133.817 206.433 134.07 205.9 134.07 205.22C134.07 204.527 133.817 203.987 133.31 203.6C132.804 203.213 132.124 203.02 131.27 203.02C130.417 203.02 129.73 203.213 129.21 203.6C128.704 203.987 128.45 204.527 128.45 205.22C128.45 205.9 128.704 206.433 129.21 206.82C129.717 207.207 130.404 207.4 131.27 207.4ZM143.193 209.2C142.02 209.2 141.053 208.947 140.293 208.44C139.546 207.933 138.953 207.2 138.513 206.24L140.513 205.2C140.7 205.853 141 206.38 141.413 206.78C141.826 207.18 142.433 207.38 143.233 207.38C144.06 207.38 144.706 207.153 145.173 206.7C145.653 206.247 145.893 205.62 145.893 204.82C145.893 203.993 145.673 203.367 145.233 202.94C144.793 202.5 144.16 202.28 143.333 202.28C142.746 202.28 142.22 202.373 141.753 202.56C141.3 202.733 140.933 203.02 140.653 203.42L138.893 203.08L139.693 195.8H147.373V197.64H141.393L140.913 201.36L140.873 201.58H140.913C141.22 201.26 141.613 201.007 142.093 200.82C142.586 200.62 143.166 200.52 143.833 200.52C144.686 200.52 145.42 200.7 146.033 201.06C146.66 201.407 147.14 201.893 147.473 202.52C147.82 203.147 147.993 203.873 147.993 204.7C147.993 205.673 147.78 206.493 147.353 207.16C146.94 207.827 146.366 208.333 145.633 208.68C144.913 209.027 144.1 209.2 143.193 209.2ZM154.834 209.2C153.66 209.2 152.694 208.947 151.934 208.44C151.187 207.933 150.594 207.2 150.154 206.24L152.154 205.2C152.34 205.853 152.64 206.38 153.054 206.78C153.467 207.18 154.074 207.38 154.874 207.38C155.7 207.38 156.347 207.153 156.814 206.7C157.294 206.247 157.534 205.62 157.534 204.82C157.534 203.993 157.314 203.367 156.874 202.94C156.434 202.5 155.8 202.28 154.974 202.28C154.387 202.28 153.86 202.373 153.394 202.56C152.94 202.733 152.574 203.02 152.294 203.42L150.534 203.08L151.334 195.8H159.014V197.64H153.034L152.554 201.36L152.514 201.58H152.554C152.86 201.26 153.254 201.007 153.734 200.82C154.227 200.62 154.807 200.52 155.474 200.52C156.327 200.52 157.06 200.7 157.674 201.06C158.3 201.407 158.78 201.893 159.114 202.52C159.46 203.147 159.634 203.873 159.634 204.7C159.634 205.673 159.42 206.493 158.994 207.16C158.58 207.827 158.007 208.333 157.274 208.68C156.554 209.027 155.74 209.2 154.834 209.2ZM166.934 195.62C168.268 195.62 169.334 195.933 170.134 196.56C170.934 197.187 171.334 198.047 171.334 199.14C171.334 199.82 171.168 200.42 170.834 200.94C170.501 201.46 170.028 201.847 169.414 202.1V202.12C170.188 202.4 170.794 202.82 171.234 203.38C171.674 203.927 171.894 204.607 171.894 205.42C171.894 206.58 171.441 207.5 170.534 208.18C169.641 208.86 168.441 209.2 166.934 209.2C165.921 209.2 165.041 209.047 164.294 208.74C163.561 208.433 162.988 208 162.574 207.44C162.161 206.867 161.954 206.193 161.954 205.42C161.954 204.62 162.174 203.94 162.614 203.38C163.054 202.82 163.668 202.4 164.454 202.12V202.1C163.841 201.847 163.361 201.467 163.014 200.96C162.681 200.44 162.514 199.833 162.514 199.14C162.514 198.047 162.914 197.187 163.714 196.56C164.528 195.933 165.601 195.62 166.934 195.62ZM166.934 197.42C166.228 197.42 165.668 197.593 165.254 197.94C164.841 198.273 164.634 198.747 164.634 199.36C164.634 199.96 164.841 200.433 165.254 200.78C165.681 201.113 166.241 201.28 166.934 201.28C167.614 201.28 168.168 201.113 168.594 200.78C169.021 200.433 169.234 199.96 169.234 199.36C169.234 198.747 169.028 198.273 168.614 197.94C168.201 197.593 167.641 197.42 166.934 197.42ZM166.934 207.4C167.801 207.4 168.481 207.207 168.974 206.82C169.481 206.433 169.734 205.9 169.734 205.22C169.734 204.527 169.481 203.987 168.974 203.6C168.468 203.213 167.788 203.02 166.934 203.02C166.081 203.02 165.394 203.213 164.874 203.6C164.368 203.987 164.114 204.527 164.114 205.22C164.114 205.9 164.368 206.433 164.874 206.82C165.381 207.207 166.068 207.4 166.934 207.4ZM179.037 195.6C180.171 195.6 181.124 195.88 181.897 196.44C182.671 197 183.257 197.787 183.657 198.8C184.057 199.813 184.257 201.007 184.257 202.38C184.257 204.647 183.797 206.353 182.877 207.5C181.971 208.633 180.697 209.2 179.057 209.2C177.937 209.2 176.971 208.953 176.157 208.46C175.357 207.967 174.764 207.227 174.377 206.24L176.397 205.3C176.584 205.913 176.891 206.413 177.317 206.8C177.744 207.173 178.337 207.36 179.097 207.36C179.911 207.36 180.551 207.153 181.017 206.74C181.484 206.313 181.817 205.713 182.017 204.94C182.217 204.153 182.317 203.227 182.317 202.16V201.94H182.237C182.077 202.487 181.811 202.927 181.437 203.26C181.064 203.58 180.637 203.82 180.157 203.98C179.677 204.127 179.197 204.2 178.717 204.2C177.864 204.2 177.104 204.033 176.437 203.7C175.784 203.353 175.271 202.873 174.897 202.26C174.524 201.647 174.337 200.92 174.337 200.08C174.337 198.707 174.757 197.62 175.597 196.82C176.437 196.007 177.584 195.6 179.037 195.6ZM179.057 197.48C178.217 197.48 177.577 197.707 177.137 198.16C176.697 198.613 176.477 199.247 176.477 200.06C176.477 200.78 176.711 201.347 177.177 201.76C177.644 202.16 178.271 202.36 179.057 202.36C179.817 202.36 180.437 202.14 180.917 201.7C181.397 201.247 181.637 200.66 181.637 199.94C181.637 199.193 181.397 198.6 180.917 198.16C180.437 197.707 179.817 197.48 179.057 197.48Z" fill="#7B7B7B"/>
<defs>
<filter id="filter0_d_141_630" x="0" y="0" width="390" height="250" filterUnits="userSpaceOnUse" color-interpolation-filters="sRGB">
<feFlood flood-opacity="0" result="BackgroundImageFix"/>
<feColorMatrix in="SourceAlpha" type="matrix" values="0 0 0 0 0 0 0 0 0 0 0 0 0 0 0 0 0 0 127 0" result="hardAlpha"/>
<feOffset dy="1"/>
<feGaussianBlur stdDeviation="5"/>
<feColorMatrix type="matrix" values="0 0 0 0 0 0 0 0 0 0 0 0 0 0 0 0 0 0 0.1 0"/>
<feBlend mode="normal" in2="BackgroundImageFix" result="effect1_dropShadow_141_630"/>
<feBlend mode="normal" in="SourceGraphic" in2="effect1_dropShadow_141_630" result="shape"/>
</filter>
<filter id="filter1_d_141_630" x="17" y="17" width="105" height="105" filterUnits="userSpaceOnUse" color-interpolation-filters="sRGB">
<feFlood flood-opacity="0" result="BackgroundImageFix"/>
<feColorMatrix in="SourceAlpha" type="matrix" values="0 0 0 0 0 0 0 0 0 0 0 0 0 0 0 0 0 0 127 0" result="hardAlpha"/>
<feOffset dx="4" dy="5"/>
<feGaussianBlur stdDeviation="7.5"/>
<feColorMatrix type="matrix" values="0 0 0 0 1 0 0 0 0 0.326087 0 0 0 0 0 0 0 0 0.4 0"/>
<feBlend mode="normal" in2="BackgroundImageFix" result="effect1_dropShadow_141_630"/>
<feBlend mode="normal" in="SourceGraphic" in2="effect1_dropShadow_141_630" result="shape"/>
</filter>
</defs>
</svg>
