<svg width="688" height="109" viewBox="0 0 688 109" fill="none" xmlns="http://www.w3.org/2000/svg">
<path d="M67.5358 100.247C67.5282 100.247 67.5206 100.247 67.5129 100.247C66.5139 100.216 65.4997 100.146 64.5083 100.046C64.1651 100.015 63.9211 99.7048 63.9516 99.3563C63.9821 99.0077 64.2871 98.7598 64.6303 98.7908C65.5988 98.8915 66.575 98.9535 67.5511 98.9845C67.8943 98.9922 68.1612 99.2866 68.1459 99.6351C68.1383 99.9837 67.8637 100.247 67.5358 100.247ZM70.5023 100.247C70.1744 100.247 69.8999 99.976 69.8846 99.6429C69.877 99.2943 70.1439 99.0077 70.4795 98.9922C71.4556 98.9612 72.4317 98.8915 73.4002 98.7986C73.7434 98.7598 74.0408 99.0155 74.0789 99.364C74.1094 99.7048 73.8654 100.015 73.5222 100.053C72.5308 100.154 71.5166 100.224 70.5176 100.255C70.5176 100.247 70.51 100.247 70.5023 100.247ZM61.6257 99.6584C61.5952 99.6584 61.5571 99.6584 61.5266 99.6506C60.5428 99.4802 59.5514 99.2788 58.5753 99.0464C58.2397 98.969 58.0415 98.6282 58.1177 98.2951C58.194 97.9543 58.5295 97.7451 58.8575 97.8303C59.8031 98.055 60.7716 98.2564 61.7248 98.419C62.0604 98.4732 62.2891 98.7986 62.2358 99.1394C62.1824 99.4415 61.9231 99.6584 61.6257 99.6584ZM76.4049 99.6506C76.1074 99.6506 75.8482 99.4337 75.7948 99.1239C75.7414 98.7831 75.9626 98.4578 76.2981 98.4035C77.259 98.2409 78.2198 98.0395 79.1655 97.8148C79.501 97.7374 79.8289 97.9465 79.9128 98.2796C79.9891 98.6127 79.7832 98.9535 79.4552 99.0387C78.4791 99.2711 77.4877 99.4802 76.504 99.6429C76.4735 99.6429 76.443 99.6506 76.4049 99.6506ZM55.8528 98.2719C55.7918 98.2719 55.7308 98.2641 55.6698 98.2409C54.7165 97.9388 53.7557 97.6057 52.8177 97.2417C52.4974 97.1177 52.3372 96.7537 52.4669 96.4283C52.5889 96.103 52.9473 95.9403 53.2676 96.0643C54.1751 96.4206 55.1131 96.7459 56.0358 97.0403C56.3637 97.141 56.5468 97.4973 56.44 97.8226C56.3561 98.0937 56.1121 98.2719 55.8528 98.2719ZM82.1854 98.2564C81.9185 98.2564 81.6744 98.086 81.5982 97.8148C81.499 97.4818 81.682 97.1332 82.0023 97.0325C82.9327 96.7382 83.8631 96.4128 84.7706 96.0565C85.0909 95.9326 85.4493 96.0953 85.5713 96.4128C85.6933 96.7382 85.5332 97.1022 85.2205 97.2262C84.2901 97.5902 83.3293 97.931 82.376 98.2331C82.3074 98.2409 82.2464 98.2564 82.1854 98.2564ZM50.3011 96.103C50.2172 96.103 50.1257 96.0875 50.0418 96.041C49.1343 95.615 48.2344 95.1503 47.3498 94.6623C47.0524 94.4919 46.938 94.1123 47.1058 93.8102C47.2736 93.5081 47.6472 93.392 47.9446 93.5624C48.7987 94.0349 49.6834 94.4919 50.5604 94.9024C50.873 95.0496 51.0027 95.4214 50.8578 95.739C50.7586 95.9636 50.5375 96.103 50.3011 96.103ZM87.7218 96.0875C87.4854 96.0875 87.2643 95.9558 87.1651 95.7234C87.0202 95.4059 87.1575 95.0341 87.4625 94.8869C88.3395 94.4686 89.2165 94.0194 90.0706 93.5469C90.3681 93.3764 90.7417 93.4926 90.9095 93.7947C91.0773 94.0968 90.9629 94.4764 90.6655 94.6468C89.7885 95.1348 88.8886 95.5995 87.9811 96.0256C87.8972 96.0643 87.8057 96.0875 87.7218 96.0875ZM92.9151 93.1828C92.7092 93.1828 92.511 93.0821 92.3966 92.8962C92.2135 92.6019 92.2974 92.2146 92.5872 92.0287C93.4032 91.4942 94.2192 90.9288 94.997 90.3401C95.2716 90.1309 95.6605 90.1929 95.8588 90.4717C96.0647 90.7506 96.0037 91.1456 95.7291 91.347C94.9284 91.9512 94.0895 92.5322 93.2507 93.0821C93.1439 93.1518 93.0295 93.1828 92.9151 93.1828ZM97.689 89.6042C97.5136 89.6042 97.3382 89.5268 97.2162 89.3796C96.995 89.1162 97.0256 88.7212 97.2925 88.4966C98.0322 87.8614 98.7643 87.1875 99.4659 86.4981C99.7099 86.258 100.099 86.2657 100.343 86.5136C100.579 86.7615 100.572 87.1565 100.328 87.4044C99.6107 88.1093 98.8558 88.7986 98.0932 89.457C97.9712 89.5577 97.8339 89.6042 97.689 89.6042ZM24.6396 52.1684C24.6243 52.1684 24.6091 52.1684 24.6015 52.1684C24.2583 52.1452 24.0066 51.8508 24.0219 51.5023C24.0905 50.4875 24.1897 49.4651 24.3193 48.4581C24.3651 48.1173 24.6777 47.8772 25.0133 47.9159C25.3488 47.9624 25.5929 48.28 25.5471 48.6208C25.4175 49.5968 25.3259 50.5882 25.2573 51.5797C25.2344 51.9128 24.9599 52.1684 24.6396 52.1684ZM113.338 52.0057C113.017 52.0057 112.743 51.7501 112.72 51.4248C112.651 50.4411 112.552 49.4418 112.422 48.4659C112.377 48.125 112.613 47.8075 112.949 47.761C113.292 47.7145 113.597 47.9546 113.643 48.2955C113.78 49.3024 113.879 50.3249 113.948 51.3396C113.971 51.6881 113.711 51.9825 113.376 52.0057C113.36 52.0057 113.353 52.0057 113.338 52.0057ZM25.4098 46.1886C25.3717 46.1886 25.3259 46.1808 25.2878 46.1731C24.9523 46.1034 24.7387 45.778 24.8074 45.4372C25.0057 44.438 25.2344 43.4388 25.5013 42.4628C25.5929 42.1297 25.9284 41.9283 26.2563 42.0213C26.5842 42.1142 26.7825 42.4551 26.691 42.7881C26.4393 43.7409 26.2106 44.7091 26.0199 45.6851C25.9589 45.9794 25.6996 46.1886 25.4098 46.1886ZM112.537 46.0337C112.247 46.0337 111.995 45.8323 111.934 45.5302C111.736 44.5619 111.507 43.586 111.248 42.641C111.157 42.3079 111.347 41.9593 111.683 41.8664C112.011 41.7734 112.354 41.9671 112.445 42.3079C112.712 43.2839 112.949 44.2831 113.147 45.2823C113.216 45.6231 113.002 45.9562 112.666 46.0259C112.621 46.0259 112.583 46.0337 112.537 46.0337ZM26.9732 40.3714C26.9045 40.3714 26.8359 40.3637 26.7749 40.3404C26.4546 40.2243 26.2792 39.8679 26.3936 39.5426C26.7215 38.5821 27.0875 37.6216 27.4765 36.6844C27.6061 36.3668 27.9722 36.2196 28.2848 36.3513C28.5975 36.483 28.7424 36.8548 28.6128 37.1724C28.2315 38.0864 27.8807 39.0159 27.5604 39.9531C27.4689 40.2088 27.2248 40.3714 26.9732 40.3714ZM110.958 40.2165C110.707 40.2165 110.463 40.0538 110.379 39.7982C110.058 38.8687 109.7 37.9392 109.319 37.0329C109.181 36.7154 109.334 36.3436 109.647 36.2119C109.959 36.0725 110.325 36.2274 110.455 36.545C110.844 37.4745 111.21 38.435 111.545 39.3954C111.66 39.7208 111.492 40.0771 111.164 40.1933C111.096 40.2088 111.027 40.2165 110.958 40.2165ZM29.2839 34.8099C29.1923 34.8099 29.0932 34.7866 29.0093 34.7402C28.7043 34.5853 28.5823 34.2057 28.7348 33.8959C29.1847 32.9896 29.6728 32.0833 30.1837 31.2081C30.3591 30.906 30.7404 30.813 31.0302 30.9912C31.3276 31.1693 31.4191 31.5489 31.2437 31.851C30.748 32.703 30.2752 33.5783 29.8329 34.4613C29.7261 34.686 29.5126 34.8099 29.2839 34.8099ZM108.632 34.6859C108.404 34.6859 108.19 34.562 108.083 34.3451C107.641 33.4698 107.168 32.5946 106.672 31.7425C106.497 31.4482 106.596 31.0609 106.886 30.8827C107.176 30.7046 107.557 30.8053 107.732 31.0996C108.243 31.9749 108.731 32.8734 109.189 33.7719C109.342 34.0818 109.22 34.4613 108.922 34.6162C108.823 34.6627 108.724 34.6859 108.632 34.6859ZM32.3113 29.6201C32.1893 29.6201 32.0673 29.5814 31.9606 29.5117C31.6784 29.3181 31.6098 28.923 31.8004 28.6364C32.3647 27.7999 32.9672 26.9711 33.5849 26.1732C33.7984 25.9021 34.1874 25.8556 34.4543 26.0725C34.7212 26.2894 34.7669 26.6845 34.5534 26.9556C33.9509 27.7302 33.3637 28.5357 32.8147 29.349C32.7003 29.5194 32.5096 29.6201 32.3113 29.6201ZM105.597 29.504C105.399 29.504 105.208 29.411 105.086 29.2329C104.53 28.4195 103.95 27.614 103.34 26.8394C103.126 26.5683 103.172 26.1732 103.439 25.9563C103.706 25.7395 104.095 25.7859 104.308 26.057C104.926 26.8471 105.529 27.6759 106.1 28.5125C106.291 28.7991 106.222 29.1864 105.94 29.3878C105.841 29.473 105.719 29.504 105.597 29.504ZM35.9871 24.8797C35.8422 24.8797 35.6897 24.8254 35.5753 24.717C35.3236 24.4846 35.3007 24.0896 35.5295 23.834C36.2006 23.0826 36.9022 22.339 37.6191 21.6341C37.8631 21.394 38.252 21.4018 38.496 21.6496C38.7324 21.8975 38.7248 22.2925 38.4808 22.5404C37.7792 23.2298 37.1005 23.9502 36.4446 24.6783C36.3226 24.81 36.1549 24.8797 35.9871 24.8797ZM101.906 24.7867C101.738 24.7867 101.571 24.717 101.449 24.5776C100.793 23.8495 100.106 23.1291 99.4049 22.4397C99.1608 22.1996 99.1532 21.8046 99.3896 21.5489C99.626 21.3011 100.015 21.2933 100.267 21.5334C100.983 22.2383 101.693 22.9742 102.364 23.7255C102.593 23.9811 102.577 24.3762 102.318 24.6086C102.204 24.7325 102.051 24.7867 101.906 24.7867ZM40.25 20.6814C40.0746 20.6814 39.8992 20.6039 39.7772 20.4568C39.5561 20.1934 39.5866 19.7984 39.8458 19.5737C40.6084 18.9153 41.4015 18.2802 42.2023 17.676C42.4768 17.4669 42.8657 17.5288 43.064 17.8077C43.2699 18.0865 43.2089 18.4816 42.9344 18.683C42.1565 19.2716 41.3787 19.8913 40.6389 20.5342C40.5322 20.6349 40.3949 20.6814 40.25 20.6814ZM97.628 20.5962C97.4907 20.5962 97.3458 20.5497 97.2314 20.449C96.4917 19.8139 95.7139 19.1942 94.9284 18.6055C94.6539 18.4041 94.5928 18.0091 94.7987 17.7302C94.997 17.4514 95.386 17.3894 95.6605 17.5985C96.4688 18.2027 97.2619 18.8379 98.0246 19.4885C98.2838 19.7132 98.322 20.1082 98.1008 20.3716C97.9788 20.5265 97.811 20.5962 97.628 20.5962ZM45.0239 17.0951C44.818 17.0951 44.6197 16.9944 44.5053 16.8085C44.3223 16.5141 44.4062 16.1268 44.6883 15.9409C45.5272 15.391 46.3966 14.8642 47.2736 14.3763C47.571 14.2058 47.9446 14.322 48.1124 14.6241C48.2802 14.9262 48.1658 15.3058 47.8684 15.4762C47.0143 15.9564 46.1678 16.4676 45.3518 16.9944C45.2527 17.0641 45.1383 17.0951 45.0239 17.0951ZM92.8465 17.0253C92.7321 17.0253 92.6177 16.9944 92.5186 16.9247C91.695 16.3902 90.8485 15.8867 89.9944 15.4065C89.697 15.2438 89.5826 14.8565 89.7503 14.5544C89.9105 14.2523 90.2918 14.1361 90.5892 14.3065C91.4662 14.7945 92.3356 15.3212 93.182 15.8635C93.4718 16.0494 93.5557 16.4367 93.3727 16.731C93.2507 16.9247 93.0524 17.0253 92.8465 17.0253ZM50.2172 14.1904C49.9808 14.1904 49.7596 14.0587 49.6605 13.8263C49.5156 13.5087 49.6529 13.1369 49.9579 12.9897C50.8654 12.5637 51.7958 12.1609 52.7262 11.7891C53.0464 11.6652 53.4049 11.8279 53.5269 12.1454C53.6489 12.4708 53.4887 12.8348 53.1761 12.9588C52.2686 13.3151 51.3687 13.7024 50.4841 14.1206C50.3926 14.1749 50.3087 14.1904 50.2172 14.1904ZM87.6303 14.1284C87.5464 14.1284 87.4549 14.1129 87.371 14.0664C86.4864 13.6481 85.5789 13.2609 84.6714 12.9045C84.3511 12.7806 84.191 12.4165 84.313 12.0912C84.435 11.7659 84.7935 11.6032 85.1137 11.7272C86.0517 12.0912 86.9821 12.494 87.8896 12.92C88.2023 13.0672 88.3319 13.439 88.187 13.7488C88.0879 13.9967 87.8667 14.1284 87.6303 14.1284ZM55.746 12.0138C55.4791 12.0138 55.2427 11.8434 55.1588 11.5722C55.0597 11.2392 55.2427 10.8906 55.563 10.7899C56.5163 10.4878 57.4924 10.2167 58.4685 9.9766C58.8041 9.89914 59.132 10.1005 59.2159 10.4413C59.2921 10.7744 59.0939 11.1152 58.7583 11.2005C57.8127 11.4328 56.8671 11.6962 55.9367 11.9905C55.8757 12.006 55.807 12.0138 55.746 12.0138ZM82.0862 11.9673C82.0252 11.9673 81.9642 11.9595 81.9032 11.9363C80.9728 11.642 80.0196 11.3863 79.074 11.154C78.7384 11.0765 78.5325 10.7357 78.6164 10.4026C78.7003 10.0696 79.0282 9.86041 79.3561 9.93787C80.3246 10.1702 81.3084 10.4413 82.2616 10.7357C82.5895 10.8364 82.7726 11.1849 82.6734 11.518C82.5895 11.7969 82.3455 11.9673 82.0862 11.9673ZM61.5189 10.6118C61.2215 10.6118 60.9622 10.3949 60.9088 10.0928C60.8554 9.75196 61.0766 9.42664 61.4121 9.37242C62.3959 9.20201 63.3949 9.06259 64.3939 8.96189C64.7371 8.92316 65.0345 9.17878 65.0726 9.5196C65.1031 9.86816 64.8591 10.1702 64.5236 10.209C63.5551 10.3097 62.5789 10.4414 61.6181 10.604C61.5876 10.6118 61.5571 10.6118 61.5189 10.6118ZM76.3057 10.5885C76.2752 10.5885 76.2371 10.5885 76.2066 10.5808C75.2457 10.4181 74.2696 10.2864 73.3011 10.1935C72.9579 10.1625 72.7139 9.85266 72.7444 9.51184C72.7749 9.17102 73.0799 8.91541 73.4155 8.9464C74.4145 9.04709 75.4135 9.17877 76.3972 9.34143C76.7328 9.39565 76.9616 9.72099 76.9082 10.0618C76.8624 10.3716 76.6031 10.5885 76.3057 10.5885ZM67.4291 10.0076C67.1011 10.0076 66.8266 9.74422 66.8114 9.4034C66.7961 9.05484 67.063 8.76824 67.4062 8.75275C68.3976 8.71402 69.4271 8.71402 70.4184 8.74501C70.7616 8.75275 71.0285 9.04709 71.0133 9.39566C71.0056 9.73648 70.7311 9.99984 70.3956 9.99984C70.3879 9.99984 70.3803 9.99984 70.3727 9.99984C69.4118 9.96885 68.4052 9.96885 67.4443 10.0076C67.4443 10.0076 67.4367 10.0076 67.4291 10.0076Z" fill="#D7D7D7"/>
<path d="M20.2852 55.3211C20.2775 55.05 20.2775 54.7789 20.2775 54.5C20.2775 27.219 42.1336 5.01933 68.9924 5.01933C95.8511 5.01933 117.707 27.219 117.707 54.5C117.707 55.7393 117.661 56.9632 117.57 58.1716C119.072 58.6286 120.658 59.0623 122.428 59.4264C122.573 57.7997 122.649 56.1499 122.649 54.5C122.649 39.9455 117.067 26.2585 106.932 15.9643C96.7967 5.66998 83.3216 0 68.9924 0C54.6631 0 41.188 5.66998 31.0531 15.9643C21.0249 26.1501 15.4579 39.6666 15.3435 54.0585C17.1432 54.4225 18.76 54.8563 20.2852 55.3211Z" fill="#D7D7D7"/>
<path d="M106.169 86.436C97.2238 97.1641 83.8783 103.98 68.9923 103.98C56.8289 103.98 45.6949 99.4336 37.1538 91.9201C33.5849 91.4321 30.7556 90.6808 28.1552 89.852C29.0779 90.9441 30.0388 92.0053 31.053 93.0355C41.188 103.33 54.6631 109 68.9923 109C83.3216 109 96.7967 103.33 106.932 93.0355C108.518 91.4244 109.982 89.7358 111.339 87.9775C109.715 87.4275 108.037 86.9008 106.169 86.436Z" fill="#D7D7D7"/>
<path d="M135.529 95.0341C124.029 95.0341 118.195 93.0047 112.552 91.045C107.046 89.1317 101.853 87.3269 91.1764 87.3269C80.5 87.3269 75.2991 89.1317 69.8007 91.045C64.1575 93.0047 58.3236 95.0341 46.8236 95.0341C35.3236 95.0341 29.4897 93.0047 23.8465 91.045C18.3405 89.1317 13.1472 87.3269 2.47084 87.3269C1.10578 87.3269 0 86.2038 0 84.8173V52.912C0 51.5255 1.10578 50.4023 2.47084 50.4023C13.9708 50.4023 19.8047 52.4318 25.4479 54.3915C30.9539 56.3047 36.1472 58.1095 46.8236 58.1095C57.5 58.1095 62.7009 56.3047 68.1993 54.3915C73.8425 52.4318 79.6764 50.4023 91.1764 50.4023C102.676 50.4023 108.51 52.4318 114.153 54.3915C119.659 56.3047 124.853 58.1095 135.529 58.1095C136.894 58.1095 138 59.2326 138 60.6191V92.5244C138 93.9032 136.894 95.0341 135.529 95.0341ZM4.92641 82.3386C14.8173 82.6097 20.2089 84.4765 25.4327 86.2967C30.9387 88.21 36.132 90.0147 46.8084 90.0147C57.4847 90.0147 62.6857 88.21 68.184 86.2967C73.8272 84.337 79.6611 82.3076 91.1611 82.3076C102.661 82.3076 108.495 84.337 114.138 86.2967C119.202 88.055 123.999 89.7282 133.051 89.9838V63.0978C123.152 62.8267 117.768 60.96 112.544 59.1397C107.038 57.2265 101.845 55.4217 91.1688 55.4217C80.4924 55.4217 75.2915 57.2265 69.7931 59.1397C64.1499 61.0994 58.316 63.1288 46.816 63.1288C35.316 63.1288 29.4821 61.0994 23.8389 59.1397C18.7752 57.3814 13.9784 55.7083 4.93402 55.4526V82.3386H4.92641Z" fill="#D7D7D7"/>
<path d="M45.9009 43.865L48.9666 42.1687L50.5833 45.1818L40.7458 50.6349L39.1291 47.6218L42.1718 45.9332L38.2749 38.6753L36.3151 41.9131L34.5687 38.6598L37.5886 33.7024L39.7773 32.4863L45.9009 43.865Z" fill="#D7D7D7"/>
<path d="M52.2229 42.6958C50.835 41.5649 49.8131 39.6749 49.142 37.0258C48.4861 34.4232 48.4938 32.2931 49.1801 30.6277C49.8588 28.9701 51.1705 27.8857 53.0999 27.3822C55.0369 26.8787 56.6917 27.1885 58.072 28.3117C59.4523 29.4349 60.4742 31.2939 61.1377 33.9042C61.8088 36.5533 61.8011 38.7067 61.1224 40.3798C60.4437 42.0451 59.1397 43.1296 57.2027 43.633C55.2657 44.1365 53.6032 43.8189 52.2229 42.6958ZM57.6221 38.9158C57.7288 38.056 57.5611 36.7315 57.1112 34.9422C56.6688 33.1993 56.2037 31.9832 55.7003 31.2939C55.197 30.5967 54.5946 30.3489 53.893 30.527C53.1914 30.7129 52.7796 31.2319 52.6728 32.0839C52.5584 32.936 52.7262 34.2373 53.1609 35.9724C53.6108 37.7617 54.0912 39.001 54.5946 39.7059C55.0979 40.403 55.7003 40.6664 56.4096 40.4805C57.1111 40.3023 57.5153 39.7833 57.6221 38.9158Z" fill="#D7D7D7"/>
<path d="M65.6294 39.7908C64.5617 38.3501 64.0203 36.2665 64.0127 33.5322C64.005 30.8444 64.5312 28.784 65.5912 27.3432C66.6513 25.9025 68.1841 25.1821 70.1745 25.1744C72.1725 25.1666 73.7053 25.8792 74.773 27.3122C75.8406 28.7452 76.382 30.8056 76.3897 33.4935C76.3973 36.2277 75.8711 38.3191 74.8111 39.7676C73.7511 41.2161 72.2182 41.9442 70.2278 41.9442C68.2298 41.9519 66.697 41.2316 65.6294 39.7908ZM71.7759 37.4826C72.0886 36.677 72.2487 35.3525 72.2411 33.5089C72.2335 31.7119 72.0733 30.4183 71.753 29.6205C71.4327 28.8227 70.9066 28.4276 70.1821 28.4276C69.4576 28.4276 68.9391 28.8304 68.6188 29.6283C68.3061 30.4261 68.1459 31.7274 68.1536 33.5244C68.1612 35.368 68.3213 36.6925 68.6416 37.4981C68.9619 38.3036 69.4805 38.7064 70.2126 38.7064C70.9447 38.6909 71.4632 38.2881 71.7759 37.4826Z" fill="#D7D7D7"/>
<path d="M80.767 33.9583C80.3018 32.8893 80.3171 31.5803 80.8128 30.0311C81.3008 28.5129 82.0482 27.4672 83.0396 26.894C84.0386 26.3208 85.1748 26.2434 86.456 26.6694C87.7372 27.0954 88.6065 27.839 89.0717 28.9079C89.5369 29.9769 89.5293 31.2704 89.0336 32.7886C88.5379 34.3378 87.7829 35.399 86.7915 35.9722C85.7925 36.5454 84.6563 36.6228 83.3751 36.1968C82.1092 35.7785 81.2322 35.0272 80.767 33.9583ZM84.2978 43.5167L81.0187 42.4245L94.9742 29.8065L98.2305 30.8909L84.2978 43.5167ZM85.0681 33.5012C85.3197 33.2069 85.5943 32.6182 85.8764 31.7429C86.1433 30.9141 86.2577 30.2867 86.212 29.8762C86.1662 29.4657 85.9908 29.21 85.6705 29.1016C85.3579 28.9932 85.0604 29.0938 84.7935 29.4037C84.5266 29.7135 84.2597 30.279 83.9928 31.1155C83.7183 31.9753 83.5963 32.6105 83.6344 33.0055C83.6725 33.4083 83.8479 33.6562 84.1682 33.7646C84.5114 33.8885 84.8164 33.7956 85.0681 33.5012ZM90.2309 44.2913C89.7809 43.2301 89.8038 41.921 90.2995 40.3718C90.7876 38.8536 91.5273 37.808 92.511 37.227C93.4948 36.6461 94.6234 36.5764 95.9046 36.9946C97.201 37.4284 98.0704 38.172 98.5279 39.2255C98.9855 40.2789 98.9626 41.5802 98.4669 43.1061C97.9636 44.6553 97.2239 45.7165 96.2478 46.2974C95.264 46.8784 94.1277 46.9481 92.8313 46.5221C91.5425 46.096 90.6808 45.3525 90.2309 44.2913ZM94.5014 43.811C94.7683 43.5089 95.0352 42.928 95.3174 42.0682C95.5843 41.2394 95.6987 40.612 95.653 40.2014C95.6072 39.7909 95.4318 39.5353 95.1115 39.4268C94.7988 39.3184 94.5014 39.4269 94.2345 39.7289C93.9676 40.0388 93.7007 40.6042 93.4338 41.4408C93.1593 42.3006 93.0372 42.9357 93.0754 43.3308C93.1135 43.7336 93.2889 43.9814 93.6092 44.0899C93.9371 44.2061 94.2345 44.1054 94.5014 43.811Z" fill="#D7D7D7"/>
<path d="M22.428 70.9829L21.2917 76.0487C20.7045 76.1726 20.0716 76.2269 19.3853 76.2036C18.6989 76.1881 18.0126 76.0952 17.3186 75.9325C16.2357 75.6846 15.3435 75.2586 14.6419 74.6544C13.9403 74.058 13.4598 73.3144 13.2082 72.4314C12.9565 71.5483 12.9489 70.5801 13.1853 69.5112C13.4217 68.4732 13.8335 67.6057 14.4436 66.924C15.0461 66.2424 15.7858 65.7854 16.6628 65.5375C17.5398 65.2974 18.5006 65.2974 19.5454 65.5375C20.2622 65.7002 20.9181 65.9558 21.5129 66.2889C22.1077 66.6219 22.5729 67.0092 22.8932 67.4275L21.6425 69.1239C21.2536 68.7133 20.8647 68.3957 20.4681 68.1556C20.0716 67.9232 19.6369 67.7451 19.1488 67.6367C18.2642 67.4353 17.5474 67.5359 16.9983 67.9387C16.4492 68.3415 16.0603 69.0696 15.8315 70.1076C15.5875 71.1843 15.6333 72.0363 15.9688 72.6637C16.3043 73.2912 16.9449 73.7094 17.8829 73.9263C18.3176 74.027 18.7676 74.0812 19.2251 74.089L19.6445 72.2145L17.9134 71.8117L18.3176 70.0069L22.428 70.9829Z" fill="#D7D7D7"/>
<path d="M23.877 77.846L27.0646 68.001L29.627 68.8608L27.118 76.5989L31.2132 77.9699L30.5345 80.069L23.877 77.846Z" fill="#D7D7D7"/>
<path d="M35.2167 80.108C34.538 79.2637 34.2864 78.1095 34.4465 76.6455L35.1023 70.689L37.7104 70.9833L37.0393 77.0406C36.9554 77.7842 37.0546 78.3729 37.3444 78.8066C37.6265 79.2404 38.0765 79.4883 38.6789 79.558C39.2737 79.6277 39.7618 79.4805 40.1279 79.1165C40.4939 78.7524 40.7227 78.2024 40.7989 77.4743L41.47 71.4171L44.101 71.7192L43.4452 77.6757C43.285 79.1242 42.7741 80.1854 41.92 80.8593C41.0582 81.5409 39.9067 81.7965 38.4501 81.6261C36.9707 81.4557 35.8954 80.9523 35.2167 80.108Z" fill="#D7D7D7"/>
<path d="M49.4697 81.9047L49.0961 73.7638L46.0609 73.911L45.9618 71.7034L54.7469 71.2852L54.8461 73.4927L51.8109 73.6399L52.1846 81.7808L49.4697 81.9047Z" fill="#D7D7D7"/>
<path d="M58.987 81.0371L56.4705 70.9907L63.5245 69.1704L64.0354 71.1999L59.5209 72.3695L59.9937 74.2595L64.2185 73.1673L64.7294 75.1967L60.5046 76.2889L61.0232 78.3493L65.5378 77.1874L66.0487 79.2168L58.987 81.0371Z" fill="#D7D7D7"/>
<path d="M72.4165 66.0957L74.8492 65.3599L77.7699 75.2901L75.8634 75.871L69.7702 71.5876L71.4327 77.2188L69.0305 77.9469L66.1097 68.0167L67.9934 67.4435L74.0789 71.7037L72.4165 66.0957Z" fill="#D7D7D7"/>
<path d="M85.9449 74.3138L85.7238 63.9498L92.8464 63.7949L92.8922 65.9328L88.4234 66.0335L88.4615 67.9235L92.6482 67.8305L92.6939 69.9529L88.5072 70.0458L88.5988 74.2519L85.9449 74.3138Z" fill="#D7D7D7"/>
<path d="M104.232 75.2045L101.395 74.8792L100.465 71.3006C100.358 70.8978 100.023 70.6654 99.4582 70.5957L98.4897 70.4873L98.0398 74.4919L95.4088 74.1898L96.5603 63.8955L101.273 64.4377C102.501 64.5771 103.386 64.9489 103.942 65.5609C104.499 66.165 104.72 66.9629 104.613 67.9621C104.537 68.6592 104.285 69.2324 103.866 69.6972C103.447 70.1619 102.89 70.464 102.204 70.5957C102.478 70.6887 102.722 70.8513 102.928 71.0914C103.134 71.3316 103.279 71.6336 103.37 72.0054L104.232 75.2045ZM101.647 68.5275C101.921 68.3804 102.082 68.117 102.127 67.7375C102.173 67.3424 102.074 67.0403 101.845 66.8389C101.616 66.6376 101.205 66.4981 100.625 66.4362L98.9473 66.2425L98.7033 68.4578L100.381 68.6515C100.953 68.7134 101.372 68.6747 101.647 68.5275Z" fill="#D7D7D7"/>
<path d="M106.505 75.8319L109.547 65.9404L116.495 68.148L115.877 70.1464L111.431 68.7367L110.859 70.5957L115.015 71.9125L114.398 73.9109L110.241 72.5941L109.616 74.6235L114.062 76.0333L113.444 78.0317L106.505 75.8319Z" fill="#D7D7D7"/>
<path d="M116.403 79.217L118.981 69.1938L126.019 71.0684L125.501 73.0978L120.994 71.8972L120.506 73.7872L124.723 74.9103L124.204 76.9397L119.987 75.8166L119.461 77.8692L123.968 79.0698L123.449 81.0993L116.403 79.217Z" fill="#D7D7D7"/>
<path d="M197.918 75.7902L202.368 65.4555C202.63 64.8455 202.63 64.1514 202.368 63.5414L197.918 53.2067H205.896V48.439H194.342C193.551 48.439 192.815 48.8456 192.382 49.5187C191.949 50.1918 191.88 51.0402 192.196 51.7764L197.671 64.4949L192.196 77.2135C191.88 77.9497 191.949 78.7981 192.382 79.4711C192.815 80.1442 193.551 80.5509 194.342 80.5509H221.364C220.47 79.0154 219.645 77.4238 218.909 75.7832H197.918V75.7902Z" fill="#D7D7D7"/>
<path d="M331.329 64.5017L336.804 51.7832C337.12 51.047 337.051 50.1986 336.618 49.5255C336.185 48.8524 335.449 48.4458 334.658 48.4458H323.104V53.2135H331.082L326.632 63.5482C326.37 64.1582 326.37 64.8523 326.632 65.4623L331.082 75.797H310.091C309.355 77.4377 308.537 79.0222 307.636 80.5647H334.658C335.449 80.5647 336.185 80.1581 336.618 79.485C337.051 78.8119 337.12 77.9635 336.804 77.2273L331.329 64.5017Z" fill="#D7D7D7"/>
<path d="M243.145 40.8244C247.616 33.5957 255.518 28.7789 264.5 28.7789C273.482 28.7789 281.384 33.5957 285.855 40.8244H288.571C283.853 32.2285 274.83 26.395 264.5 26.395C254.17 26.395 245.147 32.2214 240.429 40.8244H243.145Z" fill="#D7D7D7"/>
<path d="M285.855 68.1758C281.384 75.4045 273.482 80.2213 264.5 80.2213C255.518 80.2213 247.616 75.4045 243.145 68.1758H240.429C245.147 76.7717 254.17 82.6051 264.5 82.6051C274.83 82.6051 283.853 76.7787 288.571 68.1758H285.855Z" fill="#D7D7D7"/>
<path d="M218.62 40.8244C224.431 20.5897 242.801 5.77472 264.5 5.77472C286.199 5.77472 304.569 20.5967 310.38 40.8244H315.249C312.918 31.7728 308.269 23.4713 301.604 16.6703C291.694 6.567 278.516 1 264.5 1C250.484 1 237.306 6.567 227.396 16.6703C220.731 23.4643 216.082 31.7658 213.751 40.8244H218.62Z" fill="#D7D7D7"/>
<path d="M310.38 68.1758C304.569 88.4105 286.199 103.225 264.5 103.225C242.801 103.225 224.431 88.4035 218.62 68.1758H213.751C216.082 77.2274 220.731 85.5288 227.396 92.3298C237.306 102.433 250.484 108 264.5 108C278.516 108 291.694 102.433 301.604 92.3298C308.269 85.5358 312.918 77.2344 315.249 68.1758H310.38Z" fill="#D7D7D7"/>
<path d="M323.104 70.5594H205.896C204.603 70.5594 203.558 69.4937 203.558 68.1755V40.8243C203.558 39.5062 204.603 38.4404 205.896 38.4404H323.104C324.397 38.4404 325.442 39.5062 325.442 40.8243V68.1755C325.442 69.4937 324.397 70.5594 323.104 70.5594ZM208.235 65.7987H320.772V43.2151H208.235V65.7987Z" fill="#D7D7D7"/>
<path d="M221.756 61.4798V47.4922H224.851C225.669 47.4922 226.405 47.7095 227.059 48.1513C227.623 48.5229 228.022 49.0978 228.262 49.883C228.393 50.2967 228.462 50.7945 228.462 51.3694C228.462 52.309 228.214 53.0592 227.726 53.6201C227.519 53.8585 227.279 54.0408 227.004 54.167C227.464 54.3422 227.856 54.6998 228.173 55.2257C228.386 55.5833 228.544 56.046 228.641 56.6069C228.689 56.8944 228.716 57.2169 228.716 57.5745C228.716 58.4579 228.551 59.2081 228.221 59.8251C227.967 60.3089 227.602 60.6945 227.141 60.982C226.619 61.3115 226.096 61.4728 225.573 61.4728H221.756V61.4798ZM223.984 53.2064H224.851C225.491 53.2064 225.924 52.8839 226.144 52.2459C226.227 52.0075 226.261 51.713 226.261 51.3624C226.261 50.7805 226.123 50.3458 225.848 50.0443C225.594 49.7708 225.264 49.6306 224.851 49.6306H223.984V53.2064ZM223.984 59.3974H224.851C225.553 59.3974 226.034 59.0328 226.309 58.2896C226.405 58.0372 226.453 57.7498 226.453 57.4202C226.453 56.642 226.309 56.0741 226.013 55.7165C225.752 55.3869 225.367 55.2257 224.851 55.2257H223.984V59.3974Z" fill="#D7D7D7"/>
<path d="M236.852 61.6339C235.938 61.6339 235.167 61.3114 234.535 60.6663C233.902 60.0213 233.585 59.236 233.585 58.3105V47.499H235.607V58.2825C235.607 58.619 235.724 58.8995 235.958 59.1379C236.192 59.3693 236.474 59.4884 236.797 59.4884C237.127 59.4884 237.402 59.3693 237.636 59.1379C237.863 58.9065 237.98 58.619 237.98 58.2825V47.499H240.133V58.3105C240.133 59.2501 239.81 60.0353 239.17 60.6734C238.53 61.3184 237.753 61.6339 236.852 61.6339Z" fill="#D7D7D7"/>
<path d="M247.065 49.6238H244.865V47.5063H251.323V49.6238H249.136V61.4799H247.065V49.6238Z" fill="#D7D7D7"/>
<path d="M259.108 61.662C258.193 61.662 257.423 61.3394 256.783 60.6874C256.144 60.0353 255.828 59.2501 255.828 58.3316V50.7033C255.828 49.7708 256.151 48.9855 256.79 48.3334C257.43 47.6814 258.207 47.3589 259.108 47.3589C260.023 47.3589 260.793 47.6884 261.426 48.3404C262.059 48.9925 262.375 49.7848 262.375 50.7033V52.3019H260.229V50.6612C260.229 50.3247 260.112 50.0372 259.878 49.7988C259.645 49.5604 259.363 49.4412 259.032 49.4412C258.702 49.4412 258.427 49.5604 258.193 49.7988C257.966 50.0372 257.849 50.3247 257.849 50.6612V58.3106C257.849 58.6471 257.966 58.9276 258.193 59.1659C258.42 59.3973 258.702 59.5165 259.032 59.5165C259.363 59.5165 259.645 59.3973 259.878 59.1659C260.112 58.9346 260.229 58.6471 260.229 58.3106V56.3825H262.375V58.3316C262.375 59.2641 262.052 60.0494 261.412 60.6944C260.772 61.3324 260.002 61.662 259.108 61.662Z" fill="#D7D7D7"/>
<path d="M269.225 55.5554V61.4799H267.155V47.5063H269.225V53.438H271.721V47.5063H273.792V61.4799H271.721V55.5554H269.225Z" fill="#D7D7D7"/>
<path d="M278.716 61.4798V47.4922H284.603V49.6096H280.786V53.4238H283.578V55.5412H280.786V59.3554H284.603V61.4728H278.716V61.4798Z" fill="#D7D7D7"/>
<path d="M292.368 47.5063C293.523 47.5063 294.369 47.8289 294.906 48.4739C295.38 49.0418 295.614 49.8271 295.614 50.8367V52.87C295.614 53.8586 295.243 54.693 294.507 55.3801L296.04 61.4799H293.805L292.554 56.2145C292.492 56.2145 292.437 56.2145 292.368 56.2145H291.178V61.4799H289.108V47.5063H292.368ZM293.606 50.8718C293.606 50.0585 293.214 49.6588 292.423 49.6588H291.178V54.1321H292.423C292.753 54.1321 293.028 54.0129 293.262 53.7745C293.489 53.5361 293.606 53.2487 293.606 52.9191V50.8718Z" fill="#D7D7D7"/>
<path d="M302.395 55.6253L299.624 47.4922H301.9L303.434 52.5123L304.954 47.4922H307.244L304.465 55.6253V61.4798H302.395V55.6253Z" fill="#D7D7D7"/>
<path d="M236.515 27.6078L236.281 27.2853L239.039 24.5859L239.81 25.6657L239.438 25.9321L238.792 25.4904L237.767 26.486L238.929 27.72L239.528 27.1381L239.321 26.6823L239.624 26.2336L240.614 27.4956L240.339 27.9023L239.816 27.5167L239.259 28.0636L240.071 28.926L240.807 28.5123L241.048 28.8418L239.321 30.5245L239.094 30.216L239.356 29.6411L237.127 27.2783L236.515 27.6078Z" fill="#D7D7D7"/>
<path d="M245.133 25.5185L243.29 26.7875L243.125 26.444L243.523 25.8971L241.777 23.2748L241.171 23.5273L240.965 23.1486C241.171 22.9523 241.426 22.728 241.715 22.4826C242.01 22.2372 242.258 22.0409 242.464 21.9006C242.987 21.536 243.434 21.3397 243.805 21.3047C244.177 21.2696 244.479 21.4239 244.713 21.7814C244.81 21.9287 244.871 22.104 244.885 22.2933C244.906 22.4826 244.885 22.6789 244.823 22.8682C244.768 23.0575 244.686 23.2328 244.569 23.387L245.422 23.6955C245.655 23.7797 245.841 23.8428 245.979 23.8778C246.116 23.9199 246.261 23.9339 246.405 23.9409C246.55 23.9409 246.694 23.9199 246.845 23.8638L246.969 23.8218L247.1 24.1653C246.99 24.3125 246.838 24.4528 246.653 24.579C246.378 24.7683 246.089 24.8594 245.8 24.8384C245.511 24.8173 245.202 24.7192 244.871 24.5369L244.053 24.1022L243.688 24.3546L244.321 25.3082L244.92 25.1539L245.133 25.5185ZM242.457 22.4896L243.393 23.8989L243.909 23.5483C244.012 23.387 244.067 23.2258 244.074 23.0575C244.087 22.8892 244.032 22.721 243.922 22.5527C243.833 22.4125 243.716 22.3073 243.578 22.2372C243.441 22.1671 243.296 22.139 243.138 22.153C242.98 22.1671 242.822 22.2302 242.671 22.3353C242.616 22.3774 242.567 22.4125 242.526 22.4405C242.492 22.4616 242.464 22.4826 242.457 22.4896Z" fill="#D7D7D7"/>
<path d="M246.928 19.6153L246.818 19.2296L250.318 17.624L250.752 18.8861L250.305 19.0123L249.789 18.3883L248.475 18.9912L249.094 20.4005L249.851 20.05L249.803 19.5592L250.229 19.2577L250.731 20.702L250.318 20.9825L249.968 20.4776L249.266 20.8002L249.864 22.1534L251.247 21.5223L251.316 20.5968L251.735 20.4636L252.162 21.6976L248.599 23.3313L248.475 22.9667L248.915 22.5179L247.595 19.5241L246.928 19.6153Z" fill="#D7D7D7"/>
<path d="M255.167 20.8281C254.858 20.9122 254.576 20.9402 254.301 20.9122C254.032 20.8842 253.826 20.807 253.682 20.6879L253.462 19.573L253.957 19.5099L254.273 20.1199C254.369 20.204 254.493 20.2602 254.651 20.2882C254.803 20.3162 254.961 20.3092 255.105 20.2672C255.215 20.2391 255.305 20.19 255.394 20.1199C255.477 20.0498 255.539 19.9657 255.573 19.8675C255.607 19.7694 255.614 19.6642 255.58 19.552C255.552 19.4468 255.49 19.3627 255.401 19.2996C255.312 19.2365 255.202 19.1874 255.085 19.1594C254.968 19.1243 254.803 19.0893 254.596 19.0542C254.307 18.9981 254.067 18.949 253.881 18.8859C253.695 18.8298 253.523 18.7317 253.358 18.5914C253.2 18.4512 253.083 18.2619 253.015 18.0165C252.939 17.7361 252.946 17.4696 253.042 17.2242C253.138 16.9788 253.296 16.7755 253.51 16.6072C253.723 16.439 253.964 16.3128 254.239 16.2426C254.431 16.1866 254.638 16.1655 254.871 16.1655C255.098 16.1655 255.284 16.2006 255.415 16.2707C255.422 16.2917 255.456 16.46 255.511 16.7755C255.566 17.091 255.607 17.3014 255.628 17.4135L255.147 17.4696L254.878 16.9227C254.796 16.8456 254.686 16.7966 254.541 16.7615C254.397 16.7264 254.259 16.7334 254.129 16.7685C253.984 16.8106 253.874 16.8877 253.805 16.9999C253.737 17.1121 253.73 17.2453 253.771 17.4065C253.799 17.5187 253.867 17.6099 253.964 17.68C254.06 17.7501 254.177 17.7992 254.307 17.8342C254.438 17.8693 254.617 17.9043 254.837 17.9464C255.14 18.0025 255.387 18.0586 255.587 18.1147C255.779 18.1778 255.965 18.2759 256.13 18.4092C256.295 18.5494 256.412 18.7387 256.474 18.9771C256.556 19.2716 256.536 19.552 256.419 19.8044C256.302 20.0568 256.123 20.2742 255.889 20.4494C255.669 20.6388 255.422 20.758 255.167 20.8281Z" fill="#D7D7D7"/>
<path d="M257.966 15.8288L257.987 15.4152L260.215 15.1838L260.202 15.5975L259.631 15.8499L259.761 17.14L261.653 16.9436L261.529 15.6676L260.869 15.5274L260.875 15.1137L263.118 14.8823L263.104 15.296L262.533 15.5484L262.863 18.8367L263.516 18.9419V19.3555L261.288 19.5869L261.295 19.2013L261.859 18.9138L261.728 17.5817L259.837 17.778L259.975 19.1382L260.635 19.2434L260.621 19.657L258.406 19.8884V19.5028L258.977 19.2153L258.654 15.9691L257.966 15.8288Z" fill="#D7D7D7"/>
<path d="M268.276 19.5028L268.413 19.1102L269.039 19.005L269.892 15.8639L269.294 15.5554L269.417 15.1558L271.171 15.5133L271.295 16.2706L271.591 18.6053L272.842 16.523L273.207 15.927L274.933 16.2776L274.803 16.6772L274.197 16.7263L273.778 19.9866L274.362 20.2951L274.239 20.7087L272.196 20.2951L272.34 19.9024L272.863 19.7762L273.173 17.2171L271.529 20.0076L270.8 19.9585L270.387 16.6912L269.734 19.1522L270.236 19.4467L270.091 19.8604L268.276 19.5028Z" fill="#D7D7D7"/>
<path d="M277.285 17.5115L277.485 17.168L281.034 18.6614L280.435 19.8463L280.036 19.6079L280.126 18.7946L278.791 18.2337L278.214 19.664L278.984 19.9865L279.3 19.6149L279.809 19.7201L279.128 21.0873L278.64 20.9751L278.764 20.3651L278.056 20.0637L277.498 21.4309L278.902 22.0198L279.603 21.4309L279.988 21.6482L279.404 22.8121L275.793 21.2906L275.972 20.9541L276.598 20.9681L277.829 17.9392L277.285 17.5115Z" fill="#D7D7D7"/>
<path d="M280.91 23.5764L281.15 23.282L281.763 23.3381L284.968 20.9893L285.8 21.3258L284.892 25.3924L285.188 25.8762L284.94 26.1987L283.09 24.9997L283.331 24.7053L283.984 24.7894L284.156 24.0111L282.946 23.2259L282.327 23.7237L282.753 24.2916L282.499 24.6141L280.91 23.5764ZM283.413 22.8613L284.314 23.4432L284.706 21.8306L283.413 22.8613Z" fill="#D7D7D7"/>
<path d="M289.218 23.9341L292.306 26.8298L291.281 27.7903L290.972 27.3907L291.412 26.6334L290.779 26.0375L288.503 28.5616L288.895 29.1505L288.578 29.424L286.914 27.8675L287.196 27.608L287.787 27.8745L290.057 25.3574L289.438 24.7755L288.626 25.3083L288.331 24.9367L289.218 23.9341Z" fill="#D7D7D7"/>
<path d="M234.768 80.1372L233.565 78.6577L233.819 78.5035L234.259 78.7699L236.13 77.1854L235.896 76.7296L236.165 76.5474C236.385 76.7507 236.584 76.933 236.749 77.1012C236.914 77.2695 237.086 77.4518 237.258 77.6692C237.54 78.0127 237.698 78.3282 237.74 78.6227C237.781 78.9102 237.657 79.1836 237.368 79.422C237.203 79.5622 237.017 79.6393 236.811 79.6674C236.605 79.6884 236.398 79.6604 236.192 79.5693C235.986 79.4781 235.807 79.3378 235.649 79.1415C235.614 79.0995 235.559 79.0294 235.497 78.9382L235.724 78.6577L235.786 78.7349C235.944 78.9242 236.11 79.0293 236.281 79.0504C236.453 79.0714 236.618 79.0153 236.777 78.8751C236.942 78.7349 237.038 78.5736 237.066 78.3983C237.093 78.216 237.038 78.0338 236.887 77.8515C236.866 77.8234 236.839 77.7954 236.804 77.7603C236.77 77.7253 236.749 77.7042 236.729 77.6832L234.775 79.3379L235.071 79.9549L234.768 80.1372Z" fill="#D7D7D7"/>
<path d="M237.863 83.4533L236.605 82.2543L236.832 82.065L237.306 82.2754L238.95 80.4805L238.661 80.0598L238.909 79.8354C239.094 79.9617 239.301 80.1159 239.535 80.2982C239.768 80.4805 239.954 80.6417 240.099 80.7749C240.456 81.1185 240.683 81.427 240.773 81.7004C240.862 81.9809 240.8 82.2403 240.58 82.4787C240.484 82.5839 240.374 82.654 240.229 82.7031C240.092 82.7521 239.947 82.7662 239.796 82.7592C239.645 82.7451 239.5 82.7101 239.369 82.654L239.287 83.3621C239.266 83.5584 239.253 83.7057 239.246 83.8249C239.239 83.937 239.253 84.0493 239.273 84.1614C239.294 84.2736 239.342 84.3788 239.404 84.4839L239.459 84.5751L239.225 84.7364C239.094 84.6733 238.971 84.5821 238.84 84.4629C238.647 84.2806 238.537 84.0773 238.503 83.8529C238.469 83.6286 238.489 83.3691 238.565 83.0887L238.744 82.3805L238.496 82.1422L237.898 82.7942L238.118 83.2289L237.863 83.4533ZM239.645 80.8731L238.764 81.8337L239.115 82.1702C239.253 82.2193 239.383 82.2333 239.507 82.2123C239.631 82.1912 239.748 82.1211 239.851 82.0089C239.94 81.9108 239.995 81.8056 240.023 81.6934C240.05 81.5742 240.05 81.4621 240.009 81.3429C239.975 81.2237 239.899 81.1115 239.796 81.0133C239.755 80.9783 239.72 80.9432 239.693 80.9222C239.665 80.8942 239.651 80.8801 239.645 80.8731Z" fill="#D7D7D7"/>
<path d="M242.368 83.2781L242.574 83.0537L244.988 84.8206L244.328 85.6058L244.074 85.3534L244.287 84.7575L243.379 84.0984L242.698 85.073L243.221 85.4586L243.524 85.2342L243.888 85.4095L243.138 86.314L242.795 86.1387L242.994 85.704L242.513 85.3534L241.859 86.2859L242.815 86.987L243.448 86.6716L243.702 86.9099L243.056 87.6812L240.601 85.8863L240.793 85.6619L241.261 85.7881L242.712 83.7268L242.368 83.2781Z" fill="#D7D7D7"/>
<path d="M244.528 88.6699L244.713 88.4105L245.202 88.4666L246.495 86.3141L246.109 85.9566L246.281 85.6831L247.512 86.3281L247.444 86.9171L247.169 88.719L248.537 87.443L248.929 87.0784L250.14 87.7164L249.961 87.9828L249.5 87.8847L248.503 90.2195L248.874 90.577L248.695 90.8575L247.265 90.1002L247.451 89.8408L247.863 89.8619L248.627 88.0249L246.818 89.7426L246.281 89.5464L246.66 87.0293L245.656 88.719L245.972 89.0485L245.779 89.322L244.528 88.6699Z" fill="#D7D7D7"/>
<path d="M251.371 88.5226L251.515 88.2422L253.152 88.8522L253.008 89.1466L252.513 89.1186L251.66 91.4954L252.079 91.7969L251.935 92.0984L250.319 91.4954L250.442 91.222H250.944L251.79 88.8522L251.371 88.5226Z" fill="#D7D7D7"/>
<path d="M254.727 89.862L254.266 89.5816L254.397 89.2871L256.082 89.6938L255.972 89.9882L255.49 90.0233L255.14 91.5237C255.064 91.8532 255.085 92.1127 255.202 92.309C255.318 92.5053 255.511 92.6315 255.772 92.7016C256.02 92.7577 256.226 92.7296 256.398 92.6105C256.57 92.4913 256.694 92.2739 256.763 91.9584L257.12 90.43L256.68 90.1565L256.79 89.855L258.207 90.1986L258.097 90.5001L257.622 90.5351L257.272 91.9935C257.148 92.5123 256.935 92.8699 256.639 93.0662C256.343 93.2625 255.951 93.2976 255.477 93.1854C255.222 93.1223 254.995 93.0381 254.803 92.919C254.61 92.8068 254.466 92.6315 254.369 92.3931C254.273 92.1547 254.266 91.8462 254.356 91.4676L254.727 89.862Z" fill="#D7D7D7"/>
<path d="M259.101 93.8934L259.17 93.5779L259.645 93.4377L260.009 90.9417L259.521 90.7664L259.576 90.4438L260.958 90.549L261.123 91.124L261.563 92.8908L262.334 91.1731L262.561 90.6823L263.922 90.7874L263.86 91.1099L263.4 91.2011L263.372 93.7462L263.854 93.9285L263.799 94.258L262.189 94.1318L262.265 93.8163L262.657 93.6691V91.6708L261.653 93.9706L261.089 94.0056L260.47 91.5376L260.188 93.4938L260.6 93.6691L260.525 93.9986L259.101 93.8934Z" fill="#D7D7D7"/>
<path d="M269.885 93.9006C269.534 93.9497 269.225 93.9216 268.957 93.8094C268.688 93.6972 268.468 93.5149 268.303 93.2695C268.138 93.0241 268.028 92.7297 267.98 92.3861C267.932 92.0285 267.966 91.706 268.076 91.4045C268.193 91.1031 268.379 90.8576 268.64 90.6613C268.902 90.465 269.218 90.3388 269.596 90.2827C269.94 90.2336 270.25 90.2617 270.525 90.3668C270.793 90.472 271.013 90.6473 271.185 90.8997C271.357 91.1451 271.467 91.4606 271.515 91.8252C271.556 92.0986 271.536 92.3651 271.474 92.6175C271.405 92.8699 271.295 93.0873 271.13 93.2836C270.972 93.4729 270.772 93.6201 270.539 93.7183C270.649 93.8865 270.8 94.0057 271.006 94.0828C271.206 94.16 271.474 94.209 271.811 94.2231C271.811 94.2371 271.811 94.2932 271.811 94.3703C271.811 94.4545 271.811 94.5035 271.804 94.5175C271.625 94.6227 271.426 94.6858 271.199 94.7209C271.006 94.7489 270.827 94.7349 270.662 94.6858C270.49 94.6368 270.353 94.5386 270.236 94.4054C270.119 94.2651 270.057 94.0899 270.03 93.8795C269.988 93.8795 269.94 93.8866 269.885 93.9006ZM269.493 90.7455C269.197 90.7875 268.998 90.9207 268.881 91.1521C268.764 91.3835 268.737 91.692 268.792 92.0776C268.826 92.316 268.895 92.5404 268.998 92.7577C269.108 92.9751 269.252 93.1503 269.445 93.2905C269.638 93.4308 269.871 93.4869 270.146 93.4729C270.325 93.3817 270.449 93.2695 270.539 93.1293C270.621 92.9961 270.676 92.8419 270.69 92.6736C270.704 92.5053 270.697 92.316 270.669 92.0987C270.635 91.8673 270.573 91.6429 270.47 91.4185C270.367 91.2012 270.236 91.0189 270.071 90.8857C269.906 90.7595 269.713 90.7104 269.493 90.7455Z" fill="#D7D7D7"/>
<path d="M273.083 90.1843L272.547 90.1703L272.519 89.8477L274.177 89.3569L274.225 89.6724L273.826 89.9459L274.246 91.4253C274.335 91.7478 274.479 91.9722 274.679 92.0844C274.871 92.1965 275.105 92.2106 275.367 92.1334C275.607 92.0633 275.779 91.9301 275.869 91.7408C275.958 91.5515 275.965 91.2991 275.876 90.9906L275.449 89.4762L274.933 89.4621L274.885 89.1466L276.288 88.7329L276.336 89.0484L275.937 89.3219L276.336 90.7662C276.474 91.2851 276.467 91.6987 276.302 92.0212C276.137 92.3367 275.821 92.5681 275.346 92.7084C275.091 92.7855 274.851 92.8205 274.631 92.8135C274.411 92.8065 274.197 92.7294 273.998 92.5752C273.799 92.4209 273.647 92.1475 273.544 91.7759L273.083 90.1843Z" fill="#D7D7D7"/>
<path d="M278.805 91.4817L278.723 91.1942L279.019 90.8156L278.881 87.7026L279.445 87.2959L281.646 89.6166L282.079 89.6307L282.182 89.9322L280.635 90.6473L280.552 90.3598L280.882 89.9672L280.463 89.5255L279.452 89.9883L279.507 90.6053L280.05 90.5632L280.146 90.8717L278.805 91.4817ZM279.411 89.5255L280.16 89.1819L279.3 88.2425L279.411 89.5255Z" fill="#D7D7D7"/>
<path d="M283.702 89.0763L283.578 88.8028L283.867 88.4172L282.588 86.3068L282.058 86.3909L281.935 86.1034L283.441 85.1499L283.565 85.4374L283.241 85.8791L284.555 88.0456L285.401 87.5478L285.38 86.7064L285.697 86.5662L286.144 87.5338L283.702 89.0763Z" fill="#D7D7D7"/>
<path d="M285.662 84.0072L285.504 83.7338L286.886 82.647L287.058 82.9274L286.77 83.3411L288.289 85.3464L288.764 85.143L288.936 85.4305L287.574 86.5032L287.409 86.2508L287.677 85.8161L286.164 83.8249L285.662 84.0072Z" fill="#D7D7D7"/>
<path d="M287.877 81.8269L290.229 79.5342L290.91 80.3896L290.593 80.614L290.043 80.2353L289.562 80.7051L291.364 82.6262L291.831 82.3457L292.024 82.6122L290.759 83.8462L290.573 83.6078L290.807 83.1591L289.012 81.2449L288.544 81.7007L288.908 82.3668L288.613 82.5841L287.877 81.8269Z" fill="#D7D7D7"/>
<path d="M291.302 78.8329L291.095 78.5805L292.1 77.3115L292.313 77.5569L292.217 77.8934L293.413 78.1178L292.946 76.989L292.595 77.1993L292.375 76.9609L293.166 75.9653L293.379 76.2107L293.289 76.5543L293.915 78.265L294.651 78.875L295.064 78.6156L295.277 78.8329L294.232 80.1441L294.032 79.9267L294.163 79.485L293.468 78.9101L291.646 78.6226L291.302 78.8329Z" fill="#D7D7D7"/>
<path d="M408.739 44.0936C408.01 43.7647 407.151 43.668 406.168 43.8034C405.185 43.9389 404.326 44.2743 403.596 44.8096C402.867 45.3385 402.301 46.0287 401.904 46.8801C401.507 47.7315 401.305 48.6926 401.298 49.7633C401.298 50.8405 401.494 51.75 401.884 52.4982C402.275 53.2464 402.841 53.7882 403.57 54.1107C404.299 54.4397 405.165 54.5365 406.148 54.401C407.138 54.2656 407.991 53.9302 408.726 53.3948C409.455 52.8659 410.015 52.1692 410.406 51.3114C410.796 50.4535 410.992 49.486 410.992 48.4152C410.992 47.3445 410.803 46.4351 410.412 45.6933C410.028 44.958 409.468 44.4226 408.739 44.0936ZM407.86 51.2598C407.45 51.8726 406.877 52.2273 406.155 52.324C405.432 52.4272 404.866 52.2273 404.462 51.7371C404.059 51.2469 403.857 50.4664 403.857 49.4021C403.857 48.3443 404.065 47.5187 404.475 46.9253C404.885 46.3254 405.452 45.9771 406.174 45.8739C406.897 45.7707 407.47 45.9707 407.88 46.4544C408.29 46.9446 408.492 47.7122 408.492 48.7571C408.479 49.8214 408.27 50.6535 407.86 51.2598Z" fill="#D7D7D7"/>
<path d="M419.91 48.4216C419.695 48.241 419.448 48.1378 419.181 48.1185C419.812 47.8153 420.307 47.3896 420.659 46.8284C421.01 46.2737 421.179 45.648 421.186 44.9514C421.186 43.9516 420.893 43.2292 420.307 42.7712C419.721 42.3197 418.842 42.1714 417.677 42.3326L413.185 42.9583L413.166 53.2979L415.679 52.9496L415.685 48.9247L416.609 48.7957C417.143 48.7183 417.482 48.8667 417.625 49.2343L418.868 52.4981L421.57 52.124L420.437 49.2021C420.301 48.8667 420.125 48.6086 419.91 48.4216ZM418.432 46.2414C418.185 46.4543 417.794 46.6026 417.254 46.6736L415.653 46.8994L415.659 44.6805L417.26 44.4547C417.814 44.3773 418.211 44.4096 418.445 44.5515C418.686 44.6934 418.803 44.9643 418.803 45.3578C418.803 45.7319 418.68 46.0286 418.432 46.2414Z" fill="#D7D7D7"/>
<path d="M428.067 47.2281L429.746 46.9959L429.74 48.9116C429.317 49.0664 428.887 49.1761 428.464 49.2341C427.552 49.3631 426.875 49.189 426.439 48.7181C426.003 48.2473 425.782 47.4603 425.782 46.3573C425.782 45.2931 425.997 44.4739 426.42 43.8934C426.843 43.3193 427.481 42.971 428.34 42.8485C428.809 42.7839 429.251 42.7904 429.662 42.8743C430.072 42.9581 430.501 43.1258 430.944 43.3709L431.751 41.3262C431.361 41.0424 430.859 40.8489 430.241 40.7393C429.622 40.6296 428.965 40.6232 428.268 40.7264C427.253 40.8683 426.368 41.2037 425.606 41.7455C424.844 42.2809 424.258 42.9775 423.835 43.8353C423.419 44.6932 423.21 45.6543 423.204 46.7185C423.204 47.8151 423.406 48.731 423.822 49.4728C424.239 50.2145 424.831 50.7435 425.606 51.0595C426.381 51.3756 427.292 51.4659 428.34 51.3175C429.011 51.2272 429.662 51.066 430.299 50.8402C430.937 50.6145 431.517 50.3435 432.031 50.021L432.038 44.8351L428.06 45.3898L428.067 47.2281Z" fill="#D7D7D7"/>
<path d="M437.695 39.546L433.157 50.5113L435.709 50.1565L436.568 47.9054L440.858 47.3056L441.711 49.318L444.224 48.9697L439.706 39.2622L437.695 39.546ZM437.395 45.7446L438.717 42.2938L440.025 45.377L437.395 45.7446Z" fill="#D7D7D7"/>
<path d="M447.837 42.6035L452.211 47.8604L454.099 47.596L454.119 37.2563L451.717 37.5918L451.704 43.4292L447.329 38.2045L445.474 38.4625L445.454 48.8021L447.83 48.4667L447.837 42.6035Z" fill="#D7D7D7"/>
<path d="M459.099 36.5659L456.547 36.9207L456.527 47.2603L459.079 46.9055L459.099 36.5659Z" fill="#D7D7D7"/>
<path d="M469.469 44.4547L468.701 42.6293C467.913 43.3453 467.099 43.7645 466.253 43.8871C465.472 43.9967 464.879 43.8097 464.463 43.3388C464.046 42.8615 463.838 42.1068 463.844 41.0619C463.844 40.0234 464.053 39.2172 464.476 38.6302C464.892 38.0432 465.491 37.6949 466.266 37.5917C467.106 37.4756 467.919 37.6691 468.707 38.1658L469.488 36.1275C469.13 35.8308 468.649 35.618 468.056 35.4954C467.464 35.3793 466.852 35.36 466.214 35.4503C465.211 35.5922 464.333 35.934 463.584 36.4758C462.835 37.0176 462.262 37.7207 461.859 38.5721C461.455 39.43 461.253 40.3782 461.247 41.4231C461.247 42.4809 461.449 43.3775 461.846 44.1257C462.249 44.874 462.822 45.4157 463.564 45.7512C464.307 46.0866 465.185 46.1833 466.188 46.0479C466.819 45.9576 467.438 45.7705 468.03 45.4867C468.629 45.1965 469.104 44.8546 469.469 44.4547Z" fill="#D7D7D7"/>
<path d="M420.339 57.1549C419.734 56.6711 418.881 56.5099 417.775 56.6647L413.172 57.3032L413.153 67.6428L415.705 67.2881L415.711 63.2503L417.762 62.9665C418.849 62.8181 419.702 62.4117 420.313 61.7538C420.932 61.0959 421.238 60.2896 421.238 59.3286C421.251 58.361 420.945 57.6386 420.339 57.1549ZM417.43 60.9798L415.718 61.2185L415.724 59.0125L417.436 58.7739C417.931 58.7029 418.295 58.7481 418.53 58.9093C418.758 59.0641 418.875 59.3286 418.875 59.6962C418.868 60.4122 418.393 60.8444 417.43 60.9798Z" fill="#D7D7D7"/>
<path d="M429.889 61.3797C429.675 61.1991 429.427 61.0959 429.16 61.0765C429.792 60.7734 430.286 60.3477 430.638 59.7865C430.99 59.2318 431.165 58.6061 431.165 57.9031C431.165 56.9097 430.872 56.1809 430.287 55.7229C429.701 55.2649 428.822 55.1231 427.657 55.2843L423.165 55.91L423.145 66.2496L425.658 65.9012L425.665 61.8763L426.589 61.7473C427.123 61.6699 427.461 61.8183 427.604 62.186L428.848 65.4562L431.549 65.0821L430.417 62.1602C430.28 61.8183 430.104 61.5603 429.889 61.3797ZM428.412 59.1931C428.164 59.406 427.774 59.5478 427.227 59.6253L425.625 59.851L425.632 57.6322L427.233 57.4064C427.787 57.329 428.184 57.3613 428.418 57.5032C428.659 57.6451 428.776 57.916 428.776 58.3094C428.783 58.69 428.659 58.9802 428.412 59.1931Z" fill="#D7D7D7"/>
<path d="M440.63 53.9945C439.901 53.6656 439.049 53.5688 438.059 53.7043C437.07 53.8397 436.217 54.1751 435.481 54.7105C434.752 55.2394 434.186 55.9296 433.789 56.781C433.385 57.6324 433.19 58.5935 433.183 59.6642C433.183 60.7414 433.379 61.6509 433.769 62.3991C434.16 63.1473 434.726 63.6891 435.455 64.0116C436.184 64.3406 437.05 64.4374 438.033 64.3019C439.022 64.1664 439.875 63.831 440.604 63.2957C441.333 62.7668 441.893 62.0702 442.284 61.2123C442.674 60.3544 442.87 59.3869 442.876 58.3162C442.876 57.2454 442.687 56.3359 442.297 55.5942C441.919 54.8589 441.359 54.3235 440.63 53.9945ZM439.752 61.1671C439.335 61.7799 438.769 62.1346 438.046 62.2314C437.323 62.3346 436.757 62.1346 436.354 61.6444C435.943 61.1542 435.748 60.3738 435.748 59.3095C435.748 58.2516 435.956 57.426 436.367 56.8326C436.777 56.2327 437.343 55.8844 438.066 55.7812C438.788 55.678 439.355 55.878 439.771 56.3617C440.181 56.852 440.383 57.6195 440.383 58.6645C440.37 59.7223 440.162 60.5544 439.752 61.1671Z" fill="#D7D7D7"/>
<path d="M451.775 52.5431C451.001 52.24 450.083 52.1626 449.015 52.3109L445.064 52.8592L445.044 63.1988L448.995 62.6505C450.07 62.5022 450.994 62.1667 451.775 61.6443C452.55 61.1218 453.142 60.4445 453.552 59.6125C453.962 58.7739 454.164 57.8193 454.171 56.7486C454.171 55.6843 453.969 54.7942 453.559 54.0783C453.142 53.3558 452.55 52.8463 451.775 52.5431ZM450.935 59.4577C450.467 60.0188 449.764 60.3672 448.82 60.4962L447.596 60.6638L447.609 54.6846L448.833 54.5169C450.708 54.2589 451.638 55.1167 451.638 57.1034C451.638 58.1096 451.404 58.8901 450.935 59.4577Z" fill="#D7D7D7"/>
<path d="M462.36 56.5359C462.36 57.2712 462.204 57.8646 461.891 58.3033C461.585 58.7483 461.143 59.0128 460.576 59.0902C459.997 59.174 459.554 59.0321 459.242 58.6838C458.929 58.329 458.78 57.7808 458.78 57.0326L458.793 50.9501L456.306 51.2984L456.293 57.2777C456.293 58.7483 456.651 59.8126 457.374 60.477C458.096 61.1349 459.164 61.3671 460.576 61.1671C461.963 60.9736 463.024 60.4383 463.76 59.5675C464.502 58.6967 464.873 57.5357 464.873 56.0779L464.886 50.0986L462.373 50.447L462.36 56.5359Z" fill="#D7D7D7"/>
<path d="M471.981 51.1304C472.821 51.0143 473.635 51.2013 474.423 51.7044L475.204 49.6662C474.846 49.3695 474.364 49.1566 473.772 49.0341C473.179 48.9115 472.567 48.8986 471.929 48.9889C470.927 49.1308 470.048 49.4727 469.299 50.0145C468.551 50.5628 467.978 51.2594 467.574 52.1108C467.171 52.9687 466.969 53.9168 466.962 54.9618C466.962 56.0196 467.164 56.9162 467.561 57.6644C467.965 58.4126 468.538 58.9544 469.28 59.2898C470.029 59.6252 470.901 59.7284 471.903 59.5865C472.535 59.4962 473.153 59.3092 473.746 59.0254C474.338 58.7415 474.82 58.3997 475.178 57.9998L474.41 56.1744C473.622 56.8904 472.808 57.3096 471.962 57.4322C471.181 57.5418 470.588 57.3548 470.172 56.8839C469.755 56.4066 469.547 55.6519 469.553 54.607C469.553 53.5685 469.762 52.7623 470.185 52.1753C470.608 51.5883 471.2 51.24 471.981 51.1304Z" fill="#D7D7D7"/>
<path d="M476.369 48.5053V50.7112L479.246 50.3113L479.227 58.4385L481.805 58.0837L481.824 49.9501L484.702 49.5502L484.708 47.3442L476.369 48.5053Z" fill="#D7D7D7"/>
<path d="M443.794 96.7527C445.259 93.5985 448.071 91.1733 451.248 89.7026C454.425 88.232 457.953 87.6515 461.455 87.4902C461.227 91.7086 460.96 96.0883 458.897 99.7842C457.1 102.996 450.799 108.434 446.73 108.144C446.607 108.137 446.483 108.118 446.366 108.099C447.96 104.345 450.356 100.932 453.37 98.1523C453.793 97.7653 453.819 97.1074 453.422 96.6882C453.032 96.2689 452.368 96.2431 451.944 96.6366C448.748 99.5843 446.196 103.196 444.491 107.176C442.108 104.893 442.655 99.2037 443.794 96.7527Z" fill="#D7D7D7"/>
<path d="M436.731 92.8888C439.27 95.6947 442.57 103.396 441.054 106.97C440.878 107.382 440.644 107.724 440.37 108.002C436.64 104.641 433.776 100.281 432.22 95.5399C432.038 94.998 431.452 94.6949 430.898 94.8755C430.352 95.0497 430.046 95.6366 430.228 96.1849C431.81 100.99 434.642 105.434 438.333 108.95C435.332 109.363 430.983 107.15 429.206 105.441C426.621 102.958 425.15 99.5196 424.708 96.1075C424.265 92.6953 424.779 89.2832 425.697 86.0581C429.681 87.8061 433.815 89.6638 436.731 92.8888Z" fill="#D7D7D7"/>
<path d="M471.91 93.9401C471.304 93.9401 470.712 93.6563 470.334 93.1339C469.716 92.2695 469.924 91.0763 470.797 90.47C476.955 86.1483 482.072 80.3819 485.587 73.7834C489.219 66.972 491.14 59.277 491.14 51.5174C491.14 38.7784 486.134 26.8004 477.04 17.7896C467.945 8.77868 455.857 3.81848 443 3.81848C430.143 3.81848 418.055 8.77868 408.96 17.7896C399.866 26.8004 394.86 38.7784 394.86 51.5174C394.86 59.277 396.781 66.972 400.413 73.7834C403.935 80.3755 409.045 86.1483 415.203 90.47C416.076 91.0827 416.277 92.276 415.666 93.1339C415.047 93.9982 413.843 94.1982 412.977 93.5919C406.331 88.9284 400.804 82.6975 397.002 75.5765C393.077 68.2169 391 59.9026 391 51.5239C391 37.7592 396.41 24.8202 406.233 15.0934C416.056 5.3601 429.115 0 443 0C456.892 0 469.95 5.3601 479.767 15.0934C489.59 24.8267 495 37.7657 495 51.5239C495 59.9026 492.923 68.2169 488.998 75.5765C485.196 82.6975 479.676 88.9284 473.023 93.5919C472.691 93.8241 472.3 93.9401 471.91 93.9401Z" fill="#D7D7D7"/>
<path d="M468.87 25.0203C469.345 24.9558 469.729 25.3105 469.729 25.8201C469.729 26.3296 469.345 26.794 468.87 26.8585L414.019 34.4955C413.543 34.56 413.159 34.2053 413.159 33.6957C413.159 33.1861 413.543 32.7217 414.019 32.6572L468.87 25.0203Z" fill="#D7D7D7"/>
<path d="M468.87 67.1526C469.345 67.0881 469.729 67.4429 469.729 67.9524C469.729 68.462 469.345 68.9264 468.87 68.9909L414.019 76.6279C413.543 76.6924 413.159 76.3376 413.159 75.8281C413.159 75.3185 413.543 74.8541 414.019 74.7896L468.87 67.1526Z" fill="#D7D7D7"/>
<path d="M567.215 40.7674C569.603 32.0191 574.273 23.9967 580.941 17.4195C590.973 7.51504 604.309 2.06183 618.497 2.06183C632.685 2.06183 646.021 7.51504 656.052 17.4195C662.714 23.9967 667.391 32.0191 669.779 40.7674H671.932C669.499 31.4668 664.587 22.9369 657.529 15.9614C647.101 5.66518 633.244 0 618.497 0C603.749 0 589.893 5.6716 579.465 15.9614C572.4 22.9369 567.495 31.4668 565.062 40.7674H567.215Z" fill="#D7D7D7"/>
<path d="M669.779 68.2324C667.391 76.9807 662.72 85.0031 656.052 91.5804C646.021 101.485 632.685 106.938 618.497 106.938C604.309 106.938 590.973 101.485 580.941 91.5804C574.28 85.0031 569.603 76.9807 567.215 68.2324H565.062C567.495 77.5331 572.406 86.0629 579.465 93.0384C589.893 103.335 603.749 109 618.497 109C633.244 109 647.101 103.328 657.529 93.0384C664.594 86.0629 669.499 77.5331 671.932 68.2324H669.779Z" fill="#D7D7D7"/>
<path d="M663.267 68.2324C661.048 75.3235 657.1 81.8173 651.635 87.2127C642.788 95.9481 631.02 100.765 618.503 100.765C605.987 100.765 594.219 95.9545 585.372 87.2127C579.907 81.8173 575.958 75.3171 573.74 68.2324H569.394C571.73 76.4283 576.167 83.9369 582.431 90.1224C592.066 99.635 604.881 104.876 618.51 104.876C632.139 104.876 644.954 99.635 654.589 90.1224C660.853 83.9369 665.283 76.4283 667.625 68.2324H663.267Z" fill="#D7D7D7"/>
<path d="M573.733 40.7673C575.952 33.6762 579.9 27.1825 585.365 21.7871C594.212 13.0516 605.98 8.23431 618.497 8.23431C631.013 8.23431 642.781 13.0452 651.629 21.7871C657.093 27.1825 661.042 33.6826 663.26 40.7673H667.606C665.27 32.5714 660.834 25.0628 654.569 18.8774C644.934 9.36478 632.119 4.12354 618.49 4.12354C604.861 4.12354 592.046 9.36478 582.411 18.8774C576.147 25.0628 571.717 32.5714 569.375 40.7673H573.733Z" fill="#D7D7D7"/>
<path d="M673.051 69.2603H563.949C555.707 69.2603 549 62.6381 549 54.5C549 46.362 555.707 39.7397 563.949 39.7397H673.051C681.293 39.7397 688 46.362 688 54.5C688 62.6445 681.293 69.2603 673.051 69.2603ZM563.949 41.8016C556.852 41.8016 551.082 47.4988 551.082 54.5064C551.082 61.5141 556.852 67.2113 563.949 67.2113H673.051C680.148 67.2113 685.918 61.5141 685.918 54.5064C685.918 47.4988 680.148 41.8016 673.051 41.8016H563.949Z" fill="#D7D7D7"/>
<path d="M618.497 14.5356L620.871 21.7424H628.541L622.335 26.1936L624.703 33.4003L618.497 28.9491L612.291 33.4003L614.659 26.1936L608.453 21.7424H616.129L618.497 14.5356Z" fill="#D7D7D7"/>
<path d="M586.939 79.5693L587.447 78.7022L586.276 77.1606L585.287 77.3983L584.851 76.8202L589.132 75.876L589.483 76.3384L587.375 80.1409L586.939 79.5693ZM586.874 77.0193L587.759 78.1819L588.683 76.589L586.874 77.0193Z" fill="#D7D7D7"/>
<path d="M589.164 81.5282C589.164 81.1364 589.359 80.7446 589.75 80.3657L591.441 78.7085L591.942 79.2095L590.224 80.8923C589.977 81.13 589.854 81.3677 589.841 81.6053C589.828 81.843 589.932 82.0742 590.159 82.2926C590.381 82.511 590.608 82.6137 590.849 82.6009C591.09 82.588 591.33 82.466 591.578 82.2284L593.295 80.5455L593.796 81.0465L592.111 82.7037C591.727 83.0826 591.33 83.2689 590.934 83.2689C590.53 83.2689 590.14 83.0762 589.756 82.6972C589.353 82.3118 589.164 81.9265 589.164 81.5282Z" fill="#D7D7D7"/>
<path d="M593.412 85.8701L595.494 83.2174L594.466 82.4273L594.83 81.9648L597.465 83.9881L597.101 84.4506L596.066 83.6605L593.985 86.3133L593.412 85.8701Z" fill="#D7D7D7"/>
<path d="M601.03 86.1465L601.648 86.5062L599.638 89.9105L599.02 89.5508L599.892 88.0735L598.122 87.0522L597.25 88.5295L596.632 88.1762L598.642 84.772L599.261 85.1253L598.415 86.5512L600.184 87.5725L601.03 86.1465Z" fill="#D7D7D7"/>
<path d="M601.713 90.8996L603.255 87.2642L605.72 88.2854L605.499 88.8057L603.691 88.0542L603.261 89.0626L604.966 89.7692L604.744 90.2894L603.04 89.5829L602.585 90.6491L604.393 91.4006L604.172 91.9209L601.713 90.8996Z" fill="#D7D7D7"/>
<path d="M609.812 89.512L610.469 89.6919L609.415 93.4944L608.895 93.3531L607.555 90.1287L606.813 92.7942L606.163 92.6208L607.216 88.8184L607.737 88.9596L609.07 92.1776L609.812 89.512Z" fill="#D7D7D7"/>
<path d="M612.609 94.047L613.071 90.7198L611.783 90.5464L611.861 89.9619L615.166 90.4051L615.088 90.9896L613.793 90.8162L613.332 94.1433L612.609 94.047Z" fill="#D7D7D7"/>
<path d="M616.48 94.4194L616.643 90.4756L617.365 90.5013L617.202 94.4451L616.48 94.4194Z" fill="#D7D7D7"/>
<path d="M620.188 94.2398C619.882 94.092 619.648 93.8672 619.473 93.5718C619.297 93.2763 619.199 92.923 619.173 92.5184C619.147 92.1137 619.206 91.754 619.343 91.4393C619.479 91.1246 619.694 90.8805 619.974 90.7007C620.26 90.5208 620.592 90.418 620.988 90.3923C621.255 90.3795 621.515 90.4052 621.756 90.4758C621.997 90.5465 622.205 90.6493 622.368 90.7842L622.166 91.3173C621.977 91.1824 621.795 91.0925 621.613 91.0347C621.431 90.9833 621.242 90.9576 621.04 90.9704C620.657 90.9897 620.364 91.131 620.169 91.3943C619.974 91.6513 619.889 92.011 619.915 92.4734C619.941 92.9359 620.071 93.2892 620.292 93.5268C620.513 93.7645 620.819 93.8737 621.21 93.848C621.411 93.8351 621.6 93.7902 621.769 93.7195C621.938 93.6488 622.114 93.5332 622.283 93.3727L622.55 93.8801C622.4 94.0342 622.211 94.1627 621.977 94.259C621.743 94.3554 621.496 94.4132 621.223 94.426C620.839 94.4517 620.494 94.3875 620.188 94.2398Z" fill="#D7D7D7"/>
<path d="M630.642 92.6788L629.907 92.8715L629.074 91.7346C628.996 91.6254 628.912 91.5612 628.808 91.5419C628.704 91.5162 628.58 91.529 628.437 91.5676L627.734 91.7538L628.164 93.3403L627.468 93.5202L626.44 89.7113L628.092 89.2745C628.528 89.1589 628.886 89.1653 629.166 89.2938C629.445 89.4223 629.634 89.6663 629.725 90.0196C629.797 90.2701 629.784 90.5078 629.699 90.7197C629.608 90.9317 629.452 91.1115 629.224 91.2464C629.465 91.2336 629.673 91.3492 629.842 91.5869L630.642 92.6788ZM628.45 90.9831C628.717 90.9124 628.899 90.8161 628.996 90.6812C629.094 90.5527 629.12 90.3857 629.068 90.193C629.016 90.0003 628.912 89.8719 628.762 89.8141C628.613 89.7498 628.404 89.7563 628.138 89.8269L627.266 90.0582L627.578 91.2143L628.45 90.9831Z" fill="#D7D7D7"/>
<path d="M632.607 91.9916L631.098 88.3369L633.57 87.3413L633.784 87.8616L631.963 88.5938L632.379 89.6022L634.09 88.915L634.305 89.4417L632.594 90.1289L633.036 91.2016L634.858 90.4693L635.072 90.9896L632.607 91.9916Z" fill="#D7D7D7"/>
<path d="M637.538 89.5573C637.2 89.5508 636.887 89.4545 636.601 89.2682C636.315 89.0755 636.068 88.8057 635.866 88.4461C635.664 88.0928 635.56 87.7459 635.541 87.3991C635.528 87.0587 635.606 86.7439 635.782 86.4613C635.957 86.1787 636.217 85.941 636.556 85.7483C636.79 85.6199 637.031 85.53 637.278 85.4914C637.525 85.4465 637.753 85.4529 637.967 85.5107L638.019 86.0759C637.792 86.0374 637.584 86.031 637.395 86.0631C637.206 86.0952 637.024 86.153 636.848 86.2558C636.51 86.442 636.315 86.6925 636.25 87.0137C636.185 87.3284 636.269 87.6946 636.497 88.0928C636.725 88.4974 636.998 88.7608 637.304 88.8764C637.61 88.992 637.935 88.9599 638.273 88.7672C638.449 88.6709 638.598 88.5488 638.722 88.4075C638.846 88.2662 638.95 88.0864 639.034 87.8744L639.496 88.2148C639.431 88.4204 639.32 88.6131 639.151 88.8057C638.982 88.992 638.787 89.1526 638.553 89.281C638.221 89.4673 637.883 89.5637 637.538 89.5573Z" fill="#D7D7D7"/>
<path d="M641.415 87.4505L639.119 84.2197L639.711 83.8086L642.007 87.0394L641.415 87.4505Z" fill="#D7D7D7"/>
<path d="M641.194 82.7423L642.508 81.6247C642.833 81.3485 643.159 81.2072 643.471 81.2136C643.79 81.2136 644.063 81.3485 644.297 81.6182C644.531 81.888 644.622 82.1771 644.577 82.4918C644.531 82.8065 644.343 83.0956 644.024 83.3718L643.256 84.0205L644.343 85.2666L643.796 85.7355L641.194 82.7423ZM643.594 83.0056C643.783 82.8451 643.894 82.6845 643.926 82.5239C643.959 82.3633 643.907 82.2092 643.783 82.0679C643.653 81.9201 643.51 81.8495 643.341 81.8495C643.178 81.8559 642.996 81.9394 642.807 82.1L642.105 82.6973L642.892 83.603L643.594 83.0056Z" fill="#D7D7D7"/>
<path d="M647.602 82.3056L644.648 79.6528L646.444 77.7002L646.867 78.0792L645.546 79.5115L646.366 80.2438L647.608 78.8949L648.031 79.2739L646.789 80.6227L647.654 81.3999L648.974 79.9675L649.397 80.3465L647.602 82.3056Z" fill="#D7D7D7"/>
<path d="M650.893 78.3616C650.672 78.5286 650.445 78.6442 650.21 78.7085L649.924 78.2075C650.158 78.1368 650.36 78.0341 650.542 77.9056C650.724 77.7771 650.88 77.6101 651.03 77.411C651.193 77.1862 651.277 76.9871 651.284 76.8137C651.29 76.6338 651.225 76.4989 651.082 76.3962C650.958 76.3127 650.828 76.2998 650.679 76.3641C650.529 76.4283 650.334 76.576 650.093 76.788C649.716 77.1284 649.391 77.3404 649.117 77.4239C648.844 77.5074 648.578 77.456 648.304 77.2697C648.116 77.1348 647.979 76.9614 647.901 76.7559C647.823 76.5503 647.816 76.3191 647.862 76.075C647.914 75.8245 648.025 75.5804 648.207 75.3364C648.369 75.1116 648.558 74.9189 648.773 74.7647C648.987 74.6106 649.202 74.5142 649.417 74.4692L649.703 74.9638C649.267 75.0859 648.922 75.3235 648.669 75.6639C648.519 75.8695 648.441 76.0686 648.441 76.2484C648.441 76.4283 648.512 76.576 648.662 76.6788C648.792 76.7687 648.929 76.7816 649.072 76.7237C649.215 76.6659 649.41 76.5246 649.657 76.3063C649.918 76.0814 650.139 75.9144 650.34 75.7988C650.536 75.6832 650.724 75.619 650.906 75.6125C651.089 75.6061 651.271 75.6639 651.446 75.786C651.642 75.9209 651.772 76.0943 651.843 76.2998C651.915 76.5054 651.921 76.7302 651.863 76.9807C651.804 77.2312 651.681 77.4817 651.492 77.745C651.316 77.9891 651.115 78.1946 650.893 78.3616Z" fill="#D7D7D7"/>
<path d="M566.2 59.3754H561.347L561.464 58.5661L562.837 58.0844V51.3851L561.438 51.0961L561.523 50.1904C562.134 50.0941 562.856 50.0106 563.683 49.9335C564.509 49.8564 565.198 49.8179 565.738 49.8179C567.117 49.8179 568.158 50.0106 568.874 50.3959C569.583 50.7813 569.941 51.4236 569.941 52.3229C569.941 52.7018 569.843 53.0744 569.642 53.4276C569.446 53.7809 569.18 54.0956 568.848 54.359C568.516 54.6288 568.158 54.8279 567.768 54.9563L568.932 56.5236C569.251 56.9475 569.511 57.2815 569.72 57.5192C569.928 57.7568 570.155 57.9623 570.409 58.1422C570.663 58.322 570.956 58.4505 571.294 58.5404L571.574 58.6175L571.398 59.3818C571.014 59.5039 570.585 59.5617 570.097 59.5617C569.368 59.5617 568.75 59.369 568.249 58.9836C567.748 58.5982 567.313 58.0458 566.929 57.3393L565.972 55.5858H565.016V58.0266L566.291 58.4762L566.2 59.3754ZM565.01 50.8456V54.4361H566.363C566.734 54.2819 567.033 54.0571 567.254 53.7745C567.475 53.4919 567.592 53.1386 567.592 52.7147C567.592 52.3614 567.514 52.0402 567.352 51.7512C567.195 51.4622 566.961 51.2374 566.662 51.0704C566.363 50.9034 566.005 50.8199 565.602 50.8199C565.452 50.8199 565.322 50.8263 565.211 50.8327C565.094 50.8391 565.029 50.8456 565.01 50.8456Z" fill="#D7D7D7"/>
<path d="M573.486 50.7301L573.603 49.8887H581.969L581.728 52.702L580.733 52.5543L580.252 50.8907H577.11V54.1536H578.925L579.263 53.1709L580.375 52.9653L580.115 56.1962L579.042 56.3696L578.788 55.085H577.116V58.2194H580.427L581.371 56.4981L582.327 56.6137L582.093 59.3692H573.571L573.649 58.5599L574.924 58.0781V51.154L573.486 50.7301Z" fill="#D7D7D7"/>
<path d="M587.291 59.5551C586.595 59.5551 585.977 59.4459 585.424 59.2339C584.877 59.022 584.48 58.7522 584.246 58.4246L584.422 56.0288L585.502 56.1894L585.807 57.6153C585.964 57.8401 586.191 58.02 586.503 58.1677C586.809 58.3155 587.134 58.3861 587.473 58.3861C587.713 58.3861 587.941 58.3411 588.162 58.2448C588.377 58.1485 588.553 58.0136 588.683 57.8401C588.813 57.6603 588.878 57.4483 588.878 57.2107C588.878 56.9794 588.8 56.7675 588.644 56.5876C588.488 56.4078 588.292 56.2472 588.058 56.1123C587.824 55.9774 587.499 55.8169 587.089 55.6178C586.51 55.3416 586.035 55.0975 585.677 54.8727C585.319 54.6479 585.014 54.3524 584.753 53.9799C584.493 53.6073 584.363 53.1513 584.363 52.6182C584.363 52.0015 584.532 51.4684 584.877 51.0317C585.222 50.5949 585.664 50.2609 586.211 50.0425C586.757 49.8241 587.336 49.7085 587.954 49.7085C588.384 49.7085 588.845 49.7792 589.327 49.914C589.808 50.0489 590.172 50.2288 590.413 50.4407C590.413 50.4921 590.387 50.8518 590.329 51.5198C590.27 52.1878 590.231 52.6503 590.212 52.8943L589.164 52.7274L588.917 51.462C588.793 51.2629 588.592 51.0895 588.305 50.9417C588.019 50.794 587.733 50.7169 587.44 50.7169C587.108 50.7169 586.835 50.8133 586.634 50.9995C586.432 51.1922 586.328 51.462 586.328 51.8088C586.328 52.0593 586.412 52.2777 586.581 52.4768C586.751 52.6695 586.965 52.843 587.213 52.9843C587.466 53.132 587.818 53.3054 588.273 53.511C588.878 53.7936 589.372 54.0569 589.75 54.2882C590.127 54.5194 590.446 54.8277 590.719 55.2002C590.992 55.5792 591.122 56.0288 591.122 56.5555C591.122 57.2043 590.927 57.7566 590.53 58.2063C590.133 58.6559 589.639 58.9899 589.047 59.2147C588.449 59.4459 587.87 59.5551 587.291 59.5551Z" fill="#D7D7D7"/>
<path d="M593.002 49.895H602.162L601.908 52.8882L600.835 52.7147L600.438 50.9034H598.558V58.1487L600.048 58.4891L599.931 59.3755H595.006L595.084 58.5598L596.418 58.1166V50.897H594.59L594.05 52.9075L593.041 52.7597L593.002 49.895Z" fill="#D7D7D7"/>
<path d="M604.048 59.3753L604.159 58.566L605.349 57.9623L608.544 50.0683L610.456 49.7021L613.468 57.9944L614.574 58.5211L614.489 59.3818H609.695L609.806 58.5724L611.113 57.9687L610.541 56.3822H607.418L606.846 57.9815L608.29 58.5018L608.192 59.3689H604.048V59.3753ZM607.828 55.1939H610.15L609.025 51.8732L607.828 55.1939Z" fill="#D7D7D7"/>
<path d="M617.918 51.1989L616.474 50.7557L616.636 49.895H621.509L621.392 50.7557L620.097 51.1604V55.3675C620.097 56.2924 620.318 56.9797 620.761 57.4229C621.203 57.8661 621.808 58.0909 622.582 58.0909C623.291 58.0909 623.844 57.8789 624.241 57.4486C624.638 57.0246 624.833 56.3695 624.833 55.4895L624.84 51.1989L623.46 50.7557L623.571 49.895H627.676L627.565 50.7557L626.284 51.1604L626.251 55.2583C626.238 56.7228 625.88 57.8083 625.191 58.5148C624.501 59.2213 623.46 59.5746 622.075 59.5746C621.327 59.5746 620.657 59.4847 620.058 59.3049C619.46 59.125 618.952 58.7589 618.536 58.1936C618.12 57.6284 617.911 56.8127 617.911 55.74V51.1989H617.918Z" fill="#D7D7D7"/>
<path d="M634.396 59.3754H629.543L629.66 58.5661L631.033 58.0844V51.3851L629.634 51.0961L629.719 50.1904C630.33 50.0941 631.052 50.0106 631.878 49.9335C632.704 49.8564 633.394 49.8179 633.934 49.8179C635.313 49.8179 636.354 50.0106 637.07 50.3959C637.779 50.7813 638.136 51.4236 638.136 52.3229C638.136 52.7018 638.039 53.0744 637.837 53.4276C637.642 53.7809 637.375 54.0956 637.044 54.359C636.712 54.6288 636.354 54.8279 635.964 54.9563L637.128 56.5236C637.447 56.9475 637.707 57.2815 637.915 57.5192C638.123 57.7568 638.351 57.9623 638.605 58.1422C638.859 58.322 639.151 58.4505 639.49 58.5404L639.769 58.6175L639.594 59.3818C639.21 59.5039 638.78 59.5617 638.293 59.5617C637.564 59.5617 636.946 59.369 636.445 58.9836C635.944 58.5982 635.508 58.0458 635.124 57.3393L634.168 55.5858H633.212V58.0266L634.487 58.4762L634.396 59.3754ZM633.205 50.8456V54.4361H634.558C634.929 54.2819 635.229 54.0571 635.45 53.7745C635.671 53.4919 635.788 53.1386 635.788 52.7147C635.788 52.3614 635.71 52.0402 635.547 51.7512C635.391 51.4622 635.157 51.2374 634.858 51.0704C634.558 50.9034 634.201 50.8199 633.797 50.8199C633.648 50.8199 633.518 50.8263 633.407 50.8327C633.29 50.8391 633.225 50.8456 633.205 50.8456Z" fill="#D7D7D7"/>
<path d="M641.675 59.3753L641.786 58.566L642.976 57.9623L646.171 50.0683L648.083 49.7021L651.095 57.9944L652.201 58.5211L652.116 59.3818H647.328L647.439 58.5724L648.74 57.9687L648.168 56.3822H645.045L644.473 57.9815L645.917 58.5018L645.819 59.3689H641.675V59.3753ZM645.461 55.1939H647.784L646.658 51.8732L645.461 55.1939Z" fill="#D7D7D7"/>
<path d="M654.185 50.7751L654.283 49.8887H657.334L661.862 56.3053V51.1926L660.424 50.7494L660.56 49.8887H664.62L664.464 50.7494L663.176 51.154V59.3049L661.491 59.594L656.95 53.3443V58.1295L658.349 58.4956L658.258 59.3627H654.185L654.263 58.5534L655.558 58.0717V51.2825L654.185 50.7751Z" fill="#D7D7D7"/>
<path d="M666.493 49.895H675.653L675.399 52.8882L674.326 52.7147L673.929 50.9034H672.049V58.1487L673.539 58.4891L673.422 59.3755H668.497L668.575 58.5598L669.909 58.1166V50.897H668.081L667.541 52.9075L666.532 52.7597L666.493 49.895Z" fill="#D7D7D7"/>
</svg>
