<svg width="290" height="270" viewBox="0 0 290 270" fill="none" xmlns="http://www.w3.org/2000/svg">
<g filter="url(#filter0_d_141_589)">
<rect x="10" y="9" width="270" height="250" fill="white"/>
</g>
<path d="M89.88 129V123.72C93.496 121.448 96.408 119.384 98.616 117.528C100.856 115.64 102.488 113.88 103.512 112.248C104.536 110.616 105.048 109.064 105.048 107.592C105.048 106.376 104.68 105.368 103.944 104.568C103.24 103.736 102.184 103.32 100.776 103.32C99.272 103.32 98.088 103.88 97.224 105C96.392 106.088 95.96 107.688 95.928 109.8L88.872 107.64C88.936 105.304 89.496 103.336 90.552 101.736C91.64 100.104 93.112 98.888 94.968 98.088C96.824 97.256 98.936 96.84 101.304 96.84C104.088 96.84 106.36 97.352 108.12 98.376C109.88 99.368 111.176 100.648 112.008 102.216C112.84 103.752 113.256 105.352 113.256 107.016C113.256 110.088 112.088 112.888 109.752 115.416C107.416 117.912 104.104 120.392 99.816 122.856V122.904C100.616 122.84 101.624 122.792 102.84 122.76C104.088 122.728 105.208 122.712 106.2 122.712H113.64V129H89.88ZM129.322 129.48C126.57 129.48 124.17 128.952 122.122 127.896C120.106 126.808 118.41 125.048 117.034 122.616L124.282 119.016C124.634 120.296 125.194 121.32 125.962 122.088C126.762 122.856 127.946 123.24 129.514 123.24C130.986 123.24 132.154 122.856 133.018 122.088C133.882 121.288 134.314 120.136 134.314 118.632C134.314 115.72 132.714 114.264 129.514 114.264C127.306 114.264 125.61 114.888 124.426 116.136L118.186 114.984L120.202 97.32H140.17V103.704H126.202L125.386 110.04L125.242 110.808H125.29C125.93 110.072 126.826 109.512 127.978 109.128C129.13 108.744 130.41 108.552 131.818 108.552C133.898 108.552 135.674 108.968 137.146 109.8C138.65 110.632 139.786 111.768 140.554 113.208C141.354 114.648 141.754 116.296 141.754 118.152C141.754 120.744 141.178 122.888 140.026 124.584C138.874 126.248 137.354 127.48 135.466 128.28C133.578 129.08 131.53 129.48 129.322 129.48ZM159.034 129.48C154.714 129.48 151.434 128.104 149.194 125.352C146.986 122.6 145.882 118.536 145.882 113.16C145.882 107.784 146.986 103.72 149.194 100.968C151.434 98.216 154.714 96.84 159.034 96.84C163.354 96.84 166.618 98.216 168.826 100.968C171.066 103.72 172.186 107.784 172.186 113.16C172.186 118.536 171.066 122.6 168.826 125.352C166.618 128.104 163.354 129.48 159.034 129.48ZM159.034 123.048C160.794 123.048 162.058 122.296 162.826 120.792C163.626 119.256 164.026 116.712 164.026 113.16C164.026 109.608 163.626 107.08 162.826 105.576C162.058 104.04 160.794 103.272 159.034 103.272C157.274 103.272 155.994 104.04 155.194 105.576C154.426 107.08 154.042 109.608 154.042 113.16C154.042 116.712 154.426 119.256 155.194 120.792C155.994 122.296 157.274 123.048 159.034 123.048ZM201.013 110.472V116.328H192.229V126.12H185.749V116.328H176.917V110.472H185.749V100.728H192.229V110.472H201.013Z" fill="#373737"/>
<path d="M70.32 179.2C69.08 179.2 68 178.927 67.08 178.38C66.1733 177.833 65.4667 177.053 64.96 176.04C64.4667 175.027 64.22 173.813 64.22 172.4C64.22 171 64.4867 169.793 65.02 168.78C65.5533 167.767 66.2933 166.987 67.24 166.44C68.2 165.88 69.3133 165.6 70.58 165.6C71.9533 165.6 73.06 165.86 73.9 166.38C74.7533 166.887 75.4333 167.667 75.94 168.72L73.96 169.66C73.7067 168.927 73.2867 168.38 72.7 168.02C72.1267 167.647 71.4267 167.46 70.6 167.46C69.36 167.46 68.36 167.893 67.6 168.76C66.84 169.627 66.46 170.84 66.46 172.4C66.46 173.987 66.8067 175.213 67.5 176.08C68.2067 176.933 69.24 177.36 70.6 177.36C71.5867 177.36 72.42 177.113 73.1 176.62C73.78 176.113 74.12 175.347 74.12 174.32V173.94H70.28V172.2H76.02V179H74.42L74.34 177.26C73.9533 177.887 73.42 178.367 72.74 178.7C72.0733 179.033 71.2667 179.2 70.32 179.2ZM81.2127 164.5V176.2C81.2127 176.693 81.2993 177.033 81.4727 177.22C81.646 177.407 81.9327 177.5 82.3327 177.5C82.5727 177.5 82.7727 177.487 82.9327 177.46C83.106 177.42 83.3193 177.353 83.5727 177.26L83.3327 178.86C82.866 179.087 82.3127 179.2 81.6727 179.2C80.7793 179.2 80.1193 178.973 79.6927 178.52C79.2793 178.067 79.0727 177.353 79.0727 176.38V164.5H81.2127ZM89.7031 168.8C90.6765 168.8 91.5365 169.007 92.2831 169.42C93.0298 169.833 93.6098 170.433 94.0231 171.22C94.4498 171.993 94.6631 172.92 94.6631 174C94.6631 175.08 94.4498 176.013 94.0231 176.8C93.6098 177.573 93.0298 178.167 92.2831 178.58C91.5365 178.993 90.6765 179.2 89.7031 179.2C88.7298 179.2 87.8698 178.993 87.1231 178.58C86.3765 178.167 85.7898 177.573 85.3631 176.8C84.9365 176.013 84.7231 175.08 84.7231 174C84.7231 172.92 84.9365 171.993 85.3631 171.22C85.7898 170.433 86.3765 169.833 87.1231 169.42C87.8698 169.007 88.7298 168.8 89.7031 168.8ZM89.7031 170.48C88.8231 170.48 88.1298 170.787 87.6231 171.4C87.1165 172 86.8631 172.867 86.8631 174C86.8631 175.133 87.1165 176.007 87.6231 176.62C88.1298 177.22 88.8231 177.52 89.7031 177.52C90.5831 177.52 91.2698 177.22 91.7631 176.62C92.2698 176.007 92.5231 175.133 92.5231 174C92.5231 172.867 92.2698 172 91.7631 171.4C91.2698 170.787 90.5831 170.48 89.7031 170.48ZM102.715 179.2C101.942 179.2 101.255 179.007 100.655 178.62C100.069 178.22 99.6286 177.707 99.3353 177.08L99.2353 179H97.3553V164.5H99.4953V170.64C99.802 170.093 100.235 169.653 100.795 169.32C101.355 168.973 102.015 168.8 102.775 168.8C103.589 168.8 104.322 169.007 104.975 169.42C105.642 169.833 106.169 170.433 106.555 171.22C106.955 171.993 107.155 172.927 107.155 174.02C107.155 175.1 106.955 176.027 106.555 176.8C106.169 177.573 105.635 178.167 104.955 178.58C104.289 178.993 103.542 179.2 102.715 179.2ZM102.255 177.48C103.122 177.48 103.795 177.173 104.275 176.56C104.769 175.933 105.015 175.08 105.015 174C105.015 172.92 104.775 172.073 104.295 171.46C103.815 170.847 103.142 170.54 102.275 170.54C101.435 170.54 100.762 170.86 100.255 171.5C99.7486 172.127 99.4953 172.973 99.4953 174.04C99.4953 175.107 99.7486 175.947 100.255 176.56C100.762 177.173 101.429 177.48 102.255 177.48ZM115.655 172.58C115.655 171.913 115.468 171.4 115.095 171.04C114.735 170.667 114.235 170.48 113.595 170.48C112.995 170.48 112.475 170.62 112.035 170.9C111.608 171.18 111.302 171.633 111.115 172.26L109.315 171.5C109.568 170.687 110.062 170.033 110.795 169.54C111.542 169.047 112.502 168.8 113.675 168.8C114.462 168.8 115.162 168.933 115.775 169.2C116.402 169.453 116.888 169.847 117.235 170.38C117.595 170.9 117.775 171.56 117.775 172.36V176.82C117.775 177.313 118.022 177.56 118.515 177.56C118.755 177.56 118.988 177.527 119.215 177.46L119.095 178.94C118.788 179.087 118.402 179.16 117.935 179.16C117.402 179.16 116.942 179.04 116.555 178.8C116.168 178.56 115.908 178.2 115.775 177.72C115.455 178.213 114.995 178.587 114.395 178.84C113.795 179.08 113.195 179.2 112.595 179.2C111.648 179.2 110.862 178.973 110.235 178.52C109.608 178.067 109.295 177.387 109.295 176.48C109.295 175.747 109.535 175.14 110.015 174.66C110.508 174.18 111.202 173.847 112.095 173.66L115.655 172.96V172.58ZM111.455 176.32C111.455 176.693 111.595 176.993 111.875 177.22C112.168 177.433 112.555 177.54 113.035 177.54C113.488 177.54 113.915 177.467 114.315 177.32C114.715 177.173 115.035 176.933 115.275 176.6C115.528 176.267 115.655 175.833 115.655 175.3V174.46L113.135 174.98C112.562 175.087 112.135 175.24 111.855 175.44C111.588 175.64 111.455 175.933 111.455 176.32ZM123.361 164.5V176.2C123.361 176.693 123.448 177.033 123.621 177.22C123.794 177.407 124.081 177.5 124.481 177.5C124.721 177.5 124.921 177.487 125.081 177.46C125.254 177.42 125.468 177.353 125.721 177.26L125.481 178.86C125.014 179.087 124.461 179.2 123.821 179.2C122.928 179.2 122.268 178.973 121.841 178.52C121.428 178.067 121.221 177.353 121.221 176.38V164.5H123.361ZM144.67 175.5C144.27 176.7 143.583 177.62 142.61 178.26C141.636 178.887 140.503 179.2 139.21 179.2C137.93 179.2 136.823 178.927 135.89 178.38C134.97 177.833 134.256 177.053 133.75 176.04C133.243 175.013 132.99 173.8 132.99 172.4C132.99 171 133.243 169.793 133.75 168.78C134.256 167.753 134.97 166.967 135.89 166.42C136.823 165.873 137.923 165.6 139.19 165.6C140.496 165.6 141.603 165.873 142.51 166.42C143.416 166.967 144.07 167.773 144.47 168.84L142.45 169.74C141.943 168.22 140.896 167.46 139.31 167.46C138.07 167.46 137.076 167.893 136.33 168.76C135.596 169.613 135.23 170.827 135.23 172.4C135.23 173.96 135.583 175.173 136.29 176.04C136.996 176.907 137.983 177.34 139.25 177.34C140.063 177.34 140.763 177.133 141.35 176.72C141.95 176.293 142.376 175.66 142.63 174.82L144.67 175.5ZM150.661 179.2C150.008 179.2 149.401 179.08 148.841 178.84C148.295 178.6 147.855 178.213 147.521 177.68C147.188 177.147 147.021 176.453 147.021 175.6V169H149.161V175.06C149.161 175.967 149.348 176.593 149.721 176.94C150.108 177.273 150.655 177.44 151.361 177.44C151.815 177.44 152.241 177.34 152.641 177.14C153.041 176.927 153.361 176.6 153.601 176.16C153.855 175.707 153.981 175.127 153.981 174.42V169H156.121V179H154.241L154.141 177.38C153.795 178.007 153.328 178.467 152.741 178.76C152.155 179.053 151.461 179.2 150.661 179.2ZM163.265 179.2C162.265 179.2 161.351 179.007 160.525 178.62C159.698 178.233 159.045 177.687 158.565 176.98L160.045 175.7C160.338 176.247 160.758 176.687 161.305 177.02C161.865 177.34 162.531 177.5 163.305 177.5C163.918 177.5 164.405 177.393 164.765 177.18C165.125 176.967 165.305 176.667 165.305 176.28C165.305 176.027 165.218 175.807 165.045 175.62C164.885 175.42 164.571 175.267 164.105 175.16L162.005 174.72C160.938 174.507 160.178 174.16 159.725 173.68C159.271 173.2 159.045 172.6 159.045 171.88C159.045 171.333 159.205 170.827 159.525 170.36C159.858 169.893 160.331 169.52 160.945 169.24C161.558 168.947 162.298 168.8 163.165 168.8C164.151 168.8 164.998 168.98 165.705 169.34C166.425 169.687 166.971 170.187 167.345 170.84L165.865 172.08C165.598 171.547 165.218 171.153 164.725 170.9C164.245 170.633 163.738 170.5 163.205 170.5C162.551 170.5 162.045 170.62 161.685 170.86C161.338 171.087 161.165 171.387 161.165 171.76C161.165 172.013 161.265 172.247 161.465 172.46C161.665 172.66 162.025 172.813 162.545 172.92L164.825 173.4C165.785 173.587 166.458 173.907 166.845 174.36C167.245 174.8 167.445 175.34 167.445 175.98C167.445 176.94 167.071 177.72 166.325 178.32C165.578 178.907 164.558 179.2 163.265 179.2ZM176.411 169V170.68H172.971V176C172.971 176.48 173.104 176.84 173.371 177.08C173.637 177.307 173.984 177.42 174.411 177.42C174.784 177.42 175.097 177.367 175.351 177.26C175.617 177.14 175.864 176.98 176.091 176.78L176.571 178.34C176.264 178.607 175.884 178.82 175.431 178.98C174.991 179.127 174.497 179.2 173.951 179.2C173.071 179.2 172.331 178.987 171.731 178.56C171.131 178.12 170.831 177.387 170.831 176.36V170.68H168.911V169H170.831V166.66L172.971 166.06V169H176.411ZM182.867 168.8C183.841 168.8 184.701 169.007 185.447 169.42C186.194 169.833 186.774 170.433 187.187 171.22C187.614 171.993 187.827 172.92 187.827 174C187.827 175.08 187.614 176.013 187.187 176.8C186.774 177.573 186.194 178.167 185.447 178.58C184.701 178.993 183.841 179.2 182.867 179.2C181.894 179.2 181.034 178.993 180.287 178.58C179.541 178.167 178.954 177.573 178.527 176.8C178.101 176.013 177.887 175.08 177.887 174C177.887 172.92 178.101 171.993 178.527 171.22C178.954 170.433 179.541 169.833 180.287 169.42C181.034 169.007 181.894 168.8 182.867 168.8ZM182.867 170.48C181.987 170.48 181.294 170.787 180.787 171.4C180.281 172 180.027 172.867 180.027 174C180.027 175.133 180.281 176.007 180.787 176.62C181.294 177.22 181.987 177.52 182.867 177.52C183.747 177.52 184.434 177.22 184.927 176.62C185.434 176.007 185.687 175.133 185.687 174C185.687 172.867 185.434 172 184.927 171.4C184.434 170.787 183.747 170.48 182.867 170.48ZM190.519 179V169H192.419L192.519 170.68C192.866 170.04 193.326 169.567 193.899 169.26C194.486 168.953 195.106 168.8 195.759 168.8C196.479 168.8 197.139 168.967 197.739 169.3C198.353 169.62 198.813 170.107 199.119 170.76C199.333 170.32 199.626 169.953 199.999 169.66C200.373 169.367 200.786 169.153 201.239 169.02C201.693 168.873 202.139 168.8 202.579 168.8C203.219 168.8 203.819 168.933 204.379 169.2C204.939 169.467 205.393 169.873 205.739 170.42C206.086 170.967 206.259 171.667 206.259 172.52V179H204.119V172.86C204.119 172.033 203.919 171.447 203.519 171.1C203.133 170.74 202.646 170.56 202.059 170.56C201.366 170.56 200.759 170.82 200.239 171.34C199.719 171.847 199.459 172.587 199.459 173.56V179H197.319V172.86C197.319 172.033 197.119 171.447 196.719 171.1C196.333 170.74 195.846 170.56 195.259 170.56C194.859 170.56 194.459 170.667 194.059 170.88C193.659 171.093 193.326 171.427 193.059 171.88C192.793 172.333 192.659 172.933 192.659 173.68V179H190.519ZM213.904 179.2C212.904 179.2 212.024 178.993 211.264 178.58C210.517 178.167 209.93 177.573 209.504 176.8C209.077 176.013 208.864 175.08 208.864 174C208.864 172.92 209.07 171.993 209.484 171.22C209.91 170.433 210.49 169.833 211.224 169.42C211.97 169.007 212.824 168.8 213.784 168.8C214.757 168.8 215.584 169 216.264 169.4C216.944 169.8 217.464 170.347 217.824 171.04C218.184 171.733 218.364 172.52 218.364 173.4C218.364 173.653 218.357 173.887 218.344 174.1C218.33 174.313 218.31 174.493 218.284 174.64H210.964C211.057 175.573 211.357 176.287 211.864 176.78C212.384 177.26 213.05 177.5 213.864 177.5C214.53 177.5 215.07 177.373 215.484 177.12C215.897 176.867 216.224 176.513 216.464 176.06L218.164 176.86C217.817 177.593 217.264 178.167 216.504 178.58C215.757 178.993 214.89 179.2 213.904 179.2ZM213.744 170.5C213.01 170.5 212.404 170.713 211.924 171.14C211.457 171.567 211.157 172.187 211.024 173H216.284C216.23 172.2 215.977 171.587 215.524 171.16C215.07 170.72 214.477 170.5 213.744 170.5ZM221.066 179V169H222.886L223.086 170.8C223.633 169.467 224.68 168.8 226.226 168.8C226.426 168.8 226.626 168.82 226.826 168.86C227.026 168.887 227.193 168.933 227.326 169L227.026 170.88C226.88 170.827 226.713 170.787 226.526 170.76C226.353 170.72 226.113 170.7 225.806 170.7C225.38 170.7 224.966 170.813 224.566 171.04C224.18 171.253 223.853 171.587 223.586 172.04C223.333 172.48 223.206 173.033 223.206 173.7V179H221.066Z" fill="#7B7B7B"/>
<defs>
<filter id="filter0_d_141_589" x="0" y="0" width="290" height="270" filterUnits="userSpaceOnUse" color-interpolation-filters="sRGB">
<feFlood flood-opacity="0" result="BackgroundImageFix"/>
<feColorMatrix in="SourceAlpha" type="matrix" values="0 0 0 0 0 0 0 0 0 0 0 0 0 0 0 0 0 0 127 0" result="hardAlpha"/>
<feOffset dy="1"/>
<feGaussianBlur stdDeviation="5"/>
<feColorMatrix type="matrix" values="0 0 0 0 0 0 0 0 0 0 0 0 0 0 0 0 0 0 0.1 0"/>
<feBlend mode="normal" in2="BackgroundImageFix" result="effect1_dropShadow_141_589"/>
<feBlend mode="normal" in="SourceGraphic" in2="effect1_dropShadow_141_589" result="shape"/>
</filter>
</defs>
</svg>
