<svg width="390" height="250" viewBox="0 0 390 250" fill="none" xmlns="http://www.w3.org/2000/svg">
<g filter="url(#filter0_d_141_628)">
<rect x="10" y="9" width="370" height="230" fill="white"/>
</g>
<g filter="url(#filter1_d_141_628)">
<circle cx="65.5" cy="64.5" r="37.5" fill="#FF5300"/>
</g>
<path d="M53 53H77C78.65 53 80 54.35 80 56V74C80 75.65 78.65 77 77 77H53C51.35 77 50 75.65 50 74V56C50 54.35 51.35 53 53 53Z" stroke="white" stroke-width="2" stroke-linecap="round" stroke-linejoin="round"/>
<path d="M80 56L65 66.5L50 56" stroke="white" stroke-width="2" stroke-linecap="round" stroke-linejoin="round"/>
<path d="M129.275 35.5C131.858 35.5 133.867 36.2167 135.3 37.65C136.75 39.0667 137.475 41.1 137.475 43.75C137.475 46.4 136.75 48.4417 135.3 49.875C133.867 51.2917 131.858 52 129.275 52H123.45V35.5H129.275ZM129.275 49.725C131.025 49.725 132.358 49.2083 133.275 48.175C134.208 47.125 134.675 45.65 134.675 43.75C134.675 41.85 134.208 40.3833 133.275 39.35C132.358 38.3 131.025 37.775 129.275 37.775H126.125V49.725H129.275ZM140.971 52V39.5H143.246L143.496 41.75C144.179 40.0833 145.487 39.25 147.421 39.25C147.671 39.25 147.921 39.275 148.171 39.325C148.421 39.3583 148.629 39.4167 148.796 39.5L148.421 41.85C148.237 41.7833 148.029 41.7333 147.796 41.7C147.579 41.65 147.279 41.625 146.896 41.625C146.362 41.625 145.846 41.7667 145.346 42.05C144.862 42.3167 144.454 42.7333 144.121 43.3C143.804 43.85 143.646 44.5417 143.646 45.375V52H140.971ZM156.43 39.25C157.646 39.25 158.721 39.5083 159.655 40.025C160.588 40.5417 161.313 41.2917 161.83 42.275C162.363 43.2417 162.63 44.4 162.63 45.75C162.63 47.1 162.363 48.2667 161.83 49.25C161.313 50.2167 160.588 50.9583 159.655 51.475C158.721 51.9917 157.646 52.25 156.43 52.25C155.213 52.25 154.138 51.9917 153.205 51.475C152.271 50.9583 151.538 50.2167 151.005 49.25C150.471 48.2667 150.205 47.1 150.205 45.75C150.205 44.4 150.471 43.2417 151.005 42.275C151.538 41.2917 152.271 40.5417 153.205 40.025C154.138 39.5083 155.213 39.25 156.43 39.25ZM156.43 41.35C155.33 41.35 154.463 41.7333 153.83 42.5C153.196 43.25 152.88 44.3333 152.88 45.75C152.88 47.1667 153.196 48.2583 153.83 49.025C154.463 49.775 155.33 50.15 156.43 50.15C157.53 50.15 158.388 49.775 159.005 49.025C159.638 48.2583 159.955 47.1667 159.955 45.75C159.955 44.3333 159.638 43.25 159.005 42.5C158.388 41.7333 157.53 41.35 156.43 41.35ZM165.995 57.25V39.5H168.37L168.495 41.85C168.862 41.0667 169.42 40.4417 170.17 39.975C170.92 39.4917 171.787 39.25 172.77 39.25C173.787 39.25 174.703 39.5083 175.52 40.025C176.353 40.5417 177.012 41.2833 177.495 42.25C177.995 43.2167 178.245 44.375 178.245 45.725C178.245 47.0917 177.995 48.2667 177.495 49.25C176.995 50.2167 176.32 50.9583 175.47 51.475C174.637 51.9917 173.712 52.25 172.695 52.25C171.762 52.25 170.953 52.0417 170.27 51.625C169.587 51.1917 169.053 50.6333 168.67 49.95V57.25H165.995ZM172.12 50.075C173.187 50.075 174.028 49.6917 174.645 48.925C175.262 48.1583 175.57 47.1 175.57 45.75C175.57 44.4 175.27 43.3417 174.67 42.575C174.07 41.7917 173.237 41.4 172.17 41.4C171.12 41.4 170.27 41.7917 169.62 42.575C168.987 43.3583 168.67 44.4167 168.67 45.75C168.67 47.0667 168.978 48.1167 169.595 48.9C170.228 49.6833 171.07 50.075 172.12 50.075ZM197.024 43.975C197.024 43.1417 196.79 42.5 196.324 42.05C195.874 41.5833 195.249 41.35 194.449 41.35C193.699 41.35 193.049 41.525 192.499 41.875C191.965 42.225 191.582 42.7917 191.349 43.575L189.099 42.625C189.415 41.6083 190.032 40.7917 190.949 40.175C191.882 39.5583 193.082 39.25 194.549 39.25C195.532 39.25 196.407 39.4167 197.174 39.75C197.957 40.0667 198.565 40.5583 198.999 41.225C199.449 41.875 199.674 42.7 199.674 43.7V49.275C199.674 49.8917 199.982 50.2 200.599 50.2C200.899 50.2 201.19 50.1583 201.474 50.075L201.324 51.925C200.94 52.1083 200.457 52.2 199.874 52.2C199.207 52.2 198.632 52.05 198.149 51.75C197.665 51.45 197.34 51 197.174 50.4C196.774 51.0167 196.199 51.4833 195.449 51.8C194.699 52.1 193.949 52.25 193.199 52.25C192.015 52.25 191.032 51.9667 190.249 51.4C189.465 50.8333 189.074 49.9833 189.074 48.85C189.074 47.9333 189.374 47.175 189.974 46.575C190.59 45.975 191.457 45.5583 192.574 45.325L197.024 44.45V43.975ZM191.774 48.65C191.774 49.1167 191.949 49.4917 192.299 49.775C192.665 50.0417 193.149 50.175 193.749 50.175C194.315 50.175 194.849 50.0833 195.349 49.9C195.849 49.7167 196.249 49.4167 196.549 49C196.865 48.5833 197.024 48.0417 197.024 47.375V46.325L193.874 46.975C193.157 47.1083 192.624 47.3 192.274 47.55C191.94 47.8 191.774 48.1667 191.774 48.65ZM214.322 33.875V48.5C214.322 49.1167 214.431 49.5417 214.647 49.775C214.864 50.0083 215.222 50.125 215.722 50.125C216.022 50.125 216.272 50.1083 216.472 50.075C216.689 50.025 216.956 49.9417 217.272 49.825L216.972 51.825C216.389 52.1083 215.697 52.25 214.897 52.25C213.781 52.25 212.956 51.9667 212.422 51.4C211.906 50.8333 211.647 49.9417 211.647 48.725V33.875H214.322ZM220.861 37.4C220.277 37.4 219.827 37.2583 219.511 36.975C219.211 36.675 219.061 36.2583 219.061 35.725C219.061 35.1917 219.211 34.7833 219.511 34.5C219.827 34.2167 220.277 34.075 220.861 34.075C221.427 34.075 221.861 34.2167 222.161 34.5C222.477 34.7833 222.636 35.1917 222.636 35.725C222.636 36.2583 222.477 36.675 222.161 36.975C221.861 37.2583 221.427 37.4 220.861 37.4ZM222.186 39.5V52H219.511V39.5H222.186ZM226.371 52V39.5H228.746L228.871 41.65C229.288 40.8167 229.863 40.2083 230.596 39.825C231.346 39.4417 232.179 39.25 233.096 39.25C233.979 39.25 234.771 39.425 235.471 39.775C236.188 40.1083 236.754 40.625 237.171 41.325C237.588 42.0083 237.796 42.8667 237.796 43.9V52H235.121V44.725C235.121 43.4917 234.863 42.6417 234.346 42.175C233.846 41.6917 233.213 41.45 232.446 41.45C231.896 41.45 231.363 41.575 230.846 41.825C230.329 42.075 229.896 42.4917 229.546 43.075C229.213 43.6417 229.046 44.4 229.046 45.35V52H226.371ZM247.349 52.25C246.099 52.25 244.999 51.9917 244.049 51.475C243.116 50.9583 242.383 50.2167 241.849 49.25C241.316 48.2667 241.049 47.1 241.049 45.75C241.049 44.4 241.308 43.2417 241.824 42.275C242.358 41.2917 243.083 40.5417 243.999 40.025C244.933 39.5083 245.999 39.25 247.199 39.25C248.416 39.25 249.449 39.5 250.299 40C251.149 40.5 251.799 41.1833 252.249 42.05C252.699 42.9167 252.924 43.9 252.924 45C252.924 45.3167 252.916 45.6083 252.899 45.875C252.883 46.1417 252.858 46.3667 252.824 46.55H243.674C243.791 47.7167 244.166 48.6083 244.799 49.225C245.449 49.825 246.283 50.125 247.299 50.125C248.133 50.125 248.808 49.9667 249.324 49.65C249.841 49.3333 250.249 48.8917 250.549 48.325L252.674 49.325C252.241 50.2417 251.549 50.9583 250.599 51.475C249.666 51.9917 248.583 52.25 247.349 52.25ZM247.149 41.375C246.233 41.375 245.474 41.6417 244.874 42.175C244.291 42.7083 243.916 43.4833 243.749 44.5H250.324C250.258 43.5 249.941 42.7333 249.374 42.2C248.808 41.65 248.066 41.375 247.149 41.375Z" fill="#FF5300"/>
<path d="M146.125 79.375V100H142.25V89.25L142.438 83.2187H142.375L136.656 100H133.125L127.438 83.2187H127.375L127.594 89.25V100H123.688V79.375H129.938L133.656 90.625L134.969 95.2812H135.031L136.375 90.6562L140.063 79.375H146.125ZM159.836 90.0312C159.836 89.1354 159.575 88.4375 159.054 87.9375C158.554 87.4375 157.888 87.1875 157.054 87.1875C156.284 87.1875 155.607 87.3854 155.023 87.7812C154.44 88.1771 154.013 88.8333 153.742 89.75L150.086 88.625C150.44 87.25 151.211 86.1458 152.398 85.3125C153.607 84.4792 155.221 84.0625 157.242 84.0625C159.284 84.0625 160.929 84.5521 162.179 85.5312C163.45 86.4896 164.086 87.9271 164.086 89.8437V96.1875C164.086 96.9792 164.461 97.375 165.211 97.375C165.565 97.375 165.898 97.3229 166.211 97.2187L165.961 99.875C165.419 100.146 164.742 100.281 163.929 100.281C163.034 100.281 162.252 100.094 161.586 99.7187C160.94 99.3437 160.502 98.7812 160.273 98.0312C159.773 98.7812 159.054 99.3542 158.117 99.75C157.2 100.125 156.252 100.313 155.273 100.313C153.69 100.313 152.429 99.9583 151.492 99.25C150.575 98.5208 150.117 97.4687 150.117 96.0938C150.117 94.9271 150.492 93.9792 151.242 93.25C151.992 92.5 153.065 91.9896 154.461 91.7187L159.836 90.625V90.0312ZM154.398 95.6875C154.398 96.2083 154.586 96.6042 154.961 96.875C155.357 97.1458 155.825 97.2812 156.367 97.2812C156.971 97.2812 157.534 97.1875 158.054 97C158.575 96.8125 159.002 96.5 159.336 96.0625C159.669 95.6042 159.836 95 159.836 94.25V93.2812L156.554 93.9375C155.846 94.0833 155.304 94.2812 154.929 94.5312C154.575 94.7604 154.398 95.1458 154.398 95.6875ZM171.03 82.125C169.259 82.125 168.374 81.3646 168.374 79.8437C168.374 78.3021 169.259 77.5312 171.03 77.5312C172.801 77.5312 173.686 78.3021 173.686 79.8437C173.686 81.3646 172.801 82.125 171.03 82.125ZM173.155 84.375V100H168.874V84.375H173.155ZM181.912 77.5312V95.1875C181.912 95.9167 182.037 96.4271 182.287 96.7187C182.537 97.0104 182.954 97.1562 183.537 97.1562C183.891 97.1562 184.183 97.1354 184.412 97.0937C184.641 97.0521 184.933 96.9687 185.287 96.8437L184.912 99.6562C184.558 99.8646 184.11 100.021 183.568 100.125C183.048 100.25 182.527 100.313 182.006 100.313C180.485 100.313 179.37 99.9479 178.662 99.2187C177.975 98.4687 177.631 97.2812 177.631 95.6562V77.5312H181.912ZM214.179 79.375V91.875C214.179 94.6875 213.429 96.8021 211.929 98.2187C210.429 99.6146 208.241 100.313 205.366 100.313C202.491 100.313 200.304 99.6146 198.804 98.2187C197.304 96.8021 196.554 94.6875 196.554 91.875V79.375H200.866V91.6875C200.866 93.4167 201.231 94.6979 201.96 95.5312C202.71 96.3646 203.846 96.7812 205.366 96.7812C206.887 96.7812 208.012 96.3646 208.741 95.5312C209.471 94.6979 209.835 93.4167 209.835 91.6875V79.375H214.179ZM224.776 100.313C223.193 100.313 221.745 100.031 220.432 99.4687C219.14 98.9062 218.088 98.1146 217.276 97.0937L219.745 94.5937C220.245 95.3437 220.911 95.9583 221.745 96.4375C222.578 96.9167 223.568 97.1562 224.713 97.1562C225.526 97.1562 226.172 97.0417 226.651 96.8125C227.151 96.5625 227.401 96.1771 227.401 95.6562C227.401 95.3229 227.286 95.0417 227.057 94.8125C226.828 94.5625 226.37 94.3646 225.682 94.2187L222.932 93.6562C221.12 93.2812 219.828 92.7187 219.057 91.9688C218.307 91.1979 217.932 90.2083 217.932 89C217.932 88.1458 218.182 87.3437 218.682 86.5937C219.203 85.8437 219.974 85.2396 220.995 84.7812C222.015 84.3021 223.286 84.0625 224.807 84.0625C227.974 84.0625 230.245 85.0312 231.62 86.9687L229.057 89.4687C228.599 88.7396 227.995 88.1875 227.245 87.8125C226.515 87.4167 225.745 87.2187 224.932 87.2187C223.099 87.2187 222.182 87.7292 222.182 88.75C222.182 89.0833 222.328 89.375 222.62 89.625C222.911 89.8542 223.443 90.0521 224.213 90.2187L227.401 90.875C228.943 91.1875 230.047 91.7187 230.713 92.4687C231.38 93.1979 231.713 94.0833 231.713 95.125C231.713 96.625 231.109 97.8646 229.901 98.8437C228.713 99.8229 227.005 100.313 224.776 100.313Z" fill="#373737"/>
<path d="M34.46 152.6C35.6467 152.6 36.6733 152.827 37.54 153.28C38.4067 153.72 39.14 154.373 39.74 155.24L38.3 156.62C37.7933 155.847 37.22 155.293 36.58 154.96C35.9533 154.613 35.2067 154.44 34.34 154.44C33.3667 154.44 32.66 154.627 32.22 155C31.78 155.373 31.56 155.827 31.56 156.36C31.56 156.773 31.7 157.133 31.98 157.44C32.2733 157.747 32.8133 157.987 33.6 158.16L36.28 158.76C37.5467 159.053 38.4467 159.487 38.98 160.06C39.5267 160.62 39.8 161.34 39.8 162.22C39.8 163.033 39.58 163.74 39.14 164.34C38.7 164.927 38.0867 165.387 37.3 165.72C36.5133 166.04 35.6 166.2 34.56 166.2C33.16 166.2 31.9667 165.94 30.98 165.42C29.9933 164.887 29.2333 164.227 28.7 163.44L30.18 161.96C30.5933 162.667 31.1733 163.247 31.92 163.7C32.68 164.14 33.58 164.36 34.62 164.36C35.54 164.36 36.26 164.2 36.78 163.88C37.3133 163.547 37.58 163.073 37.58 162.46C37.58 162.087 37.4467 161.753 37.18 161.46C36.9267 161.153 36.4467 160.92 35.74 160.76L32.84 160.1C31.64 159.847 30.7533 159.427 30.18 158.84C29.6067 158.253 29.32 157.52 29.32 156.64C29.32 155.893 29.5267 155.213 29.94 154.6C30.3533 153.987 30.94 153.5 31.7 153.14C32.4733 152.78 33.3933 152.6 34.46 152.6ZM45.9739 166.2C45.3206 166.2 44.7139 166.08 44.1539 165.84C43.6072 165.6 43.1672 165.213 42.8339 164.68C42.5006 164.147 42.3339 163.453 42.3339 162.6V156H44.4739V162.06C44.4739 162.967 44.6606 163.593 45.0339 163.94C45.4206 164.273 45.9672 164.44 46.6739 164.44C47.1272 164.44 47.5539 164.34 47.9539 164.14C48.3539 163.927 48.6739 163.6 48.9139 163.16C49.1672 162.707 49.2939 162.127 49.2939 161.42V156H51.4339V166H49.5539L49.4539 164.38C49.1072 165.007 48.6406 165.467 48.0539 165.76C47.4672 166.053 46.7739 166.2 45.9739 166.2ZM54.7772 170.2V156H56.6772L56.7772 157.88C57.0705 157.253 57.5172 156.753 58.1172 156.38C58.7172 155.993 59.4105 155.8 60.1972 155.8C61.0105 155.8 61.7439 156.007 62.3972 156.42C63.0639 156.833 63.5905 157.427 63.9772 158.2C64.3772 158.973 64.5772 159.9 64.5772 160.98C64.5772 162.073 64.3772 163.013 63.9772 163.8C63.5772 164.573 63.0372 165.167 62.3572 165.58C61.6905 165.993 60.9505 166.2 60.1372 166.2C59.3905 166.2 58.7439 166.033 58.1972 165.7C57.6505 165.353 57.2239 164.907 56.9172 164.36V170.2H54.7772ZM59.6772 164.46C60.5305 164.46 61.2039 164.153 61.6972 163.54C62.1905 162.927 62.4372 162.08 62.4372 161C62.4372 159.92 62.1972 159.073 61.7172 158.46C61.2372 157.833 60.5705 157.52 59.7172 157.52C58.8772 157.52 58.1972 157.833 57.6772 158.46C57.1705 159.087 56.9172 159.933 56.9172 161C56.9172 162.053 57.1639 162.893 57.6572 163.52C58.1639 164.147 58.8372 164.46 59.6772 164.46ZM67.3163 170.2V156H69.2163L69.3163 157.88C69.6096 157.253 70.0563 156.753 70.6562 156.38C71.2563 155.993 71.9496 155.8 72.7363 155.8C73.5496 155.8 74.2829 156.007 74.9363 156.42C75.6029 156.833 76.1296 157.427 76.5163 158.2C76.9163 158.973 77.1163 159.9 77.1163 160.98C77.1163 162.073 76.9163 163.013 76.5163 163.8C76.1163 164.573 75.5763 165.167 74.8963 165.58C74.2296 165.993 73.4896 166.2 72.6763 166.2C71.9296 166.2 71.2829 166.033 70.7363 165.7C70.1896 165.353 69.7629 164.907 69.4563 164.36V170.2H67.3163ZM72.2163 164.46C73.0696 164.46 73.7429 164.153 74.2363 163.54C74.7296 162.927 74.9763 162.08 74.9763 161C74.9763 159.92 74.7363 159.073 74.2563 158.46C73.7763 157.833 73.1096 157.52 72.2563 157.52C71.4163 157.52 70.7363 157.833 70.2163 158.46C69.7096 159.087 69.4563 159.933 69.4563 161C69.4563 162.053 69.7029 162.893 70.1963 163.52C70.7029 164.147 71.3763 164.46 72.2163 164.46ZM84.1953 155.8C85.1686 155.8 86.0286 156.007 86.7753 156.42C87.522 156.833 88.102 157.433 88.5153 158.22C88.942 158.993 89.1553 159.92 89.1553 161C89.1553 162.08 88.942 163.013 88.5153 163.8C88.102 164.573 87.522 165.167 86.7753 165.58C86.0286 165.993 85.1686 166.2 84.1953 166.2C83.222 166.2 82.362 165.993 81.6153 165.58C80.8686 165.167 80.282 164.573 79.8553 163.8C79.4286 163.013 79.2153 162.08 79.2153 161C79.2153 159.92 79.4286 158.993 79.8553 158.22C80.282 157.433 80.8686 156.833 81.6153 156.42C82.362 156.007 83.222 155.8 84.1953 155.8ZM84.1953 157.48C83.3153 157.48 82.622 157.787 82.1153 158.4C81.6086 159 81.3553 159.867 81.3553 161C81.3553 162.133 81.6086 163.007 82.1153 163.62C82.622 164.22 83.3153 164.52 84.1953 164.52C85.0753 164.52 85.762 164.22 86.2553 163.62C86.762 163.007 87.0153 162.133 87.0153 161C87.0153 159.867 86.762 159 86.2553 158.4C85.762 157.787 85.0753 157.48 84.1953 157.48ZM91.8475 166V156H93.6675L93.8675 157.8C94.4142 156.467 95.4608 155.8 97.0075 155.8C97.2075 155.8 97.4075 155.82 97.6075 155.86C97.8075 155.887 97.9742 155.933 98.1075 156L97.8075 157.88C97.6608 157.827 97.4942 157.787 97.3075 157.76C97.1342 157.72 96.8942 157.7 96.5875 157.7C96.1608 157.7 95.7475 157.813 95.3475 158.04C94.9608 158.253 94.6342 158.587 94.3675 159.04C94.1142 159.48 93.9875 160.033 93.9875 160.7V166H91.8475ZM105.981 156V157.68H102.541V163C102.541 163.48 102.674 163.84 102.941 164.08C103.208 164.307 103.554 164.42 103.981 164.42C104.354 164.42 104.668 164.367 104.921 164.26C105.188 164.14 105.434 163.98 105.661 163.78L106.141 165.34C105.834 165.607 105.454 165.82 105.001 165.98C104.561 166.127 104.068 166.2 103.521 166.2C102.641 166.2 101.901 165.987 101.301 165.56C100.701 165.12 100.401 164.387 100.401 163.36V157.68H98.4809V156H100.401V153.66L102.541 153.06V156H105.981ZM112.638 152.62C113.971 152.62 115.038 152.933 115.838 153.56C116.638 154.187 117.038 155.047 117.038 156.14C117.038 156.82 116.871 157.42 116.537 157.94C116.204 158.46 115.731 158.847 115.118 159.1V159.12C115.891 159.4 116.498 159.82 116.938 160.38C117.378 160.927 117.598 161.607 117.598 162.42C117.598 163.58 117.144 164.5 116.238 165.18C115.344 165.86 114.144 166.2 112.638 166.2C111.624 166.2 110.744 166.047 109.998 165.74C109.264 165.433 108.691 165 108.278 164.44C107.864 163.867 107.658 163.193 107.658 162.42C107.658 161.62 107.878 160.94 108.318 160.38C108.758 159.82 109.371 159.4 110.158 159.12V159.1C109.544 158.847 109.064 158.467 108.718 157.96C108.384 157.44 108.218 156.833 108.218 156.14C108.218 155.047 108.618 154.187 109.418 153.56C110.231 152.933 111.304 152.62 112.638 152.62ZM112.638 154.42C111.931 154.42 111.371 154.593 110.958 154.94C110.544 155.273 110.338 155.747 110.338 156.36C110.338 156.96 110.544 157.433 110.958 157.78C111.384 158.113 111.944 158.28 112.638 158.28C113.318 158.28 113.871 158.113 114.298 157.78C114.724 157.433 114.938 156.96 114.938 156.36C114.938 155.747 114.731 155.273 114.318 154.94C113.904 154.593 113.344 154.42 112.638 154.42ZM112.638 164.4C113.504 164.4 114.184 164.207 114.678 163.82C115.184 163.433 115.438 162.9 115.438 162.22C115.438 161.527 115.184 160.987 114.678 160.6C114.171 160.213 113.491 160.02 112.638 160.02C111.784 160.02 111.098 160.213 110.578 160.6C110.071 160.987 109.818 161.527 109.818 162.22C109.818 162.9 110.071 163.433 110.578 163.82C111.084 164.207 111.771 164.4 112.638 164.4ZM118.819 152.8H128.879V154.58C127.212 156.287 126.025 158.073 125.319 159.94C124.625 161.807 124.279 163.827 124.279 166H122.119C122.119 163.907 122.492 161.907 123.239 160C123.985 158.08 125.125 156.3 126.659 154.66H118.819V152.8ZM138.264 169.84C136.597 169.84 135.13 169.5 133.864 168.82C132.61 168.14 131.63 167.18 130.924 165.94C130.217 164.687 129.864 163.207 129.864 161.5C129.864 160.22 130.077 159.047 130.504 157.98C130.944 156.9 131.557 155.973 132.344 155.2C133.144 154.427 134.077 153.827 135.144 153.4C136.224 152.973 137.404 152.76 138.684 152.76C139.91 152.76 141.01 152.96 141.984 153.36C142.97 153.76 143.804 154.313 144.484 155.02C145.164 155.727 145.677 156.547 146.024 157.48C146.384 158.413 146.564 159.413 146.564 160.48C146.564 161.72 146.357 162.76 145.944 163.6C145.544 164.44 145.024 165.08 144.384 165.52C143.757 165.947 143.097 166.16 142.404 166.16C141.617 166.16 141.03 165.96 140.644 165.56C140.27 165.16 140.11 164.647 140.164 164.02C139.87 164.62 139.43 165.093 138.844 165.44C138.27 165.787 137.664 165.96 137.024 165.96C136.37 165.96 135.79 165.8 135.284 165.48C134.777 165.16 134.377 164.707 134.084 164.12C133.804 163.533 133.664 162.847 133.664 162.06C133.664 161.1 133.85 160.213 134.224 159.4C134.61 158.587 135.144 157.94 135.824 157.46C136.504 156.967 137.284 156.72 138.164 156.72C138.884 156.72 139.504 156.907 140.024 157.28C140.544 157.653 140.884 158.187 141.044 158.88L141.504 156.9H143.384L141.924 163.18C141.897 163.327 141.87 163.467 141.844 163.6C141.83 163.72 141.824 163.833 141.824 163.94C141.824 164.313 141.917 164.56 142.104 164.68C142.29 164.8 142.51 164.86 142.764 164.86C143.19 164.86 143.597 164.7 143.984 164.38C144.37 164.06 144.684 163.58 144.924 162.94C145.164 162.3 145.284 161.493 145.284 160.52C145.284 159.267 145.01 158.153 144.464 157.18C143.93 156.193 143.17 155.427 142.184 154.88C141.197 154.32 140.044 154.04 138.724 154.04C137.27 154.04 135.984 154.347 134.864 154.96C133.757 155.573 132.884 156.44 132.244 157.56C131.617 158.68 131.304 159.993 131.304 161.5C131.304 162.993 131.617 164.267 132.244 165.32C132.87 166.373 133.71 167.18 134.764 167.74C135.817 168.3 136.997 168.58 138.304 168.58C139.37 168.58 140.224 168.44 140.864 168.16C141.504 167.893 142.05 167.6 142.504 167.28L143.204 168.34C142.83 168.607 142.424 168.853 141.984 169.08C141.544 169.307 141.024 169.487 140.424 169.62C139.824 169.767 139.104 169.84 138.264 169.84ZM137.764 164.46C138.27 164.46 138.73 164.287 139.144 163.94C139.557 163.58 139.884 163.107 140.124 162.52C140.377 161.92 140.504 161.273 140.504 160.58C140.504 159.873 140.31 159.313 139.924 158.9C139.55 158.473 139.057 158.26 138.444 158.26C137.857 158.26 137.344 158.433 136.904 158.78C136.477 159.127 136.144 159.587 135.904 160.16C135.664 160.733 135.544 161.36 135.544 162.04C135.544 162.813 135.73 163.413 136.104 163.84C136.49 164.253 137.044 164.46 137.764 164.46ZM154.988 164.44C156.001 164.44 156.788 164.667 157.348 165.12C157.908 165.56 158.188 166.173 158.188 166.96C158.188 167.667 157.968 168.267 157.528 168.76C157.088 169.267 156.488 169.647 155.728 169.9C154.968 170.167 154.108 170.3 153.148 170.3C151.494 170.3 150.274 170.047 149.488 169.54C148.714 169.033 148.328 168.4 148.328 167.64C148.328 167.187 148.461 166.78 148.728 166.42C148.994 166.06 149.434 165.813 150.048 165.68C149.674 165.52 149.381 165.3 149.168 165.02C148.954 164.727 148.848 164.353 148.848 163.9C148.848 163.46 148.974 163.073 149.228 162.74C149.481 162.393 149.854 162.133 150.348 161.96C149.294 161.36 148.768 160.433 148.768 159.18C148.768 158.167 149.161 157.353 149.948 156.74C150.734 156.113 151.774 155.8 153.068 155.8C153.908 155.8 154.648 155.933 155.288 156.2C155.394 155.533 155.688 154.987 156.168 154.56C156.648 154.12 157.254 153.9 157.988 153.9C158.054 153.9 158.108 153.9 158.148 153.9L158.488 155.58C158.421 155.567 158.341 155.56 158.247 155.56C157.101 155.56 156.461 155.98 156.328 156.82C157.034 157.433 157.388 158.22 157.388 159.18C157.388 160.207 156.994 161.027 156.208 161.64C155.421 162.253 154.374 162.56 153.068 162.56C152.521 162.56 152.021 162.513 151.568 162.42C151.208 162.513 150.948 162.66 150.788 162.86C150.641 163.047 150.568 163.247 150.568 163.46C150.568 164.113 151.041 164.44 151.988 164.44H154.988ZM153.068 157.3C152.454 157.3 151.941 157.473 151.528 157.82C151.128 158.153 150.928 158.607 150.928 159.18C150.928 159.753 151.128 160.213 151.528 160.56C151.941 160.907 152.454 161.08 153.068 161.08C153.694 161.08 154.208 160.907 154.608 160.56C155.021 160.213 155.228 159.753 155.228 159.18C155.228 158.607 155.021 158.153 154.608 157.82C154.208 157.473 153.694 157.3 153.068 157.3ZM153.148 168.7C154.241 168.7 155.048 168.553 155.568 168.26C156.101 167.967 156.368 167.62 156.368 167.22C156.368 166.913 156.241 166.667 155.988 166.48C155.748 166.293 155.308 166.2 154.668 166.2H151.448C151.061 166.2 150.741 166.3 150.488 166.5C150.248 166.7 150.128 166.96 150.128 167.28C150.128 167.72 150.394 168.067 150.928 168.32C151.461 168.573 152.201 168.7 153.148 168.7ZM160.148 166V156H162.048L162.148 157.68C162.495 157.04 162.955 156.567 163.528 156.26C164.115 155.953 164.735 155.8 165.388 155.8C166.108 155.8 166.768 155.967 167.368 156.3C167.982 156.62 168.442 157.107 168.748 157.76C168.962 157.32 169.255 156.953 169.628 156.66C170.002 156.367 170.415 156.153 170.868 156.02C171.322 155.873 171.768 155.8 172.208 155.8C172.848 155.8 173.448 155.933 174.008 156.2C174.568 156.467 175.022 156.873 175.368 157.42C175.715 157.967 175.888 158.667 175.888 159.52V166H173.748V159.86C173.748 159.033 173.548 158.447 173.148 158.1C172.762 157.74 172.275 157.56 171.688 157.56C170.995 157.56 170.388 157.82 169.868 158.34C169.348 158.847 169.088 159.587 169.088 160.56V166H166.948V159.86C166.948 159.033 166.748 158.447 166.348 158.1C165.962 157.74 165.475 157.56 164.888 157.56C164.488 157.56 164.088 157.667 163.688 157.88C163.288 158.093 162.955 158.427 162.688 158.88C162.422 159.333 162.288 159.933 162.288 160.68V166H160.148ZM180.213 154.32C179.746 154.32 179.386 154.207 179.133 153.98C178.893 153.74 178.773 153.407 178.773 152.98C178.773 152.553 178.893 152.227 179.133 152C179.386 151.773 179.746 151.66 180.213 151.66C180.666 151.66 181.013 151.773 181.253 152C181.506 152.227 181.633 152.553 181.633 152.98C181.633 153.407 181.506 153.74 181.253 153.98C181.013 154.207 180.666 154.32 180.213 154.32ZM181.273 156V166H179.133V156H181.273ZM190.401 159.58C190.401 158.913 190.214 158.4 189.841 158.04C189.481 157.667 188.981 157.48 188.341 157.48C187.741 157.48 187.221 157.62 186.781 157.9C186.354 158.18 186.048 158.633 185.861 159.26L184.061 158.5C184.314 157.687 184.808 157.033 185.541 156.54C186.288 156.047 187.248 155.8 188.421 155.8C189.208 155.8 189.908 155.933 190.521 156.2C191.148 156.453 191.634 156.847 191.981 157.38C192.341 157.9 192.521 158.56 192.521 159.36V163.82C192.521 164.313 192.768 164.56 193.261 164.56C193.501 164.56 193.734 164.527 193.961 164.46L193.841 165.94C193.534 166.087 193.148 166.16 192.681 166.16C192.148 166.16 191.688 166.04 191.301 165.8C190.914 165.56 190.654 165.2 190.521 164.72C190.201 165.213 189.741 165.587 189.141 165.84C188.541 166.08 187.941 166.2 187.341 166.2C186.394 166.2 185.608 165.973 184.981 165.52C184.354 165.067 184.041 164.387 184.041 163.48C184.041 162.747 184.281 162.14 184.761 161.66C185.254 161.18 185.948 160.847 186.841 160.66L190.401 159.96V159.58ZM186.201 163.32C186.201 163.693 186.341 163.993 186.621 164.22C186.914 164.433 187.301 164.54 187.781 164.54C188.234 164.54 188.661 164.467 189.061 164.32C189.461 164.173 189.781 163.933 190.021 163.6C190.274 163.267 190.401 162.833 190.401 162.3V161.46L187.881 161.98C187.308 162.087 186.881 162.24 186.601 162.44C186.334 162.64 186.201 162.933 186.201 163.32ZM198.107 151.5V163.2C198.107 163.693 198.194 164.033 198.367 164.22C198.541 164.407 198.827 164.5 199.227 164.5C199.467 164.5 199.667 164.487 199.827 164.46C200.001 164.42 200.214 164.353 200.467 164.26L200.227 165.86C199.761 166.087 199.207 166.2 198.567 166.2C197.674 166.2 197.014 165.973 196.587 165.52C196.174 165.067 195.967 164.353 195.967 163.38V151.5H198.107ZM203.455 163.3C203.908 163.3 204.268 163.433 204.535 163.7C204.815 163.953 204.955 164.3 204.955 164.74C204.955 165.18 204.815 165.533 204.535 165.8C204.268 166.067 203.908 166.2 203.455 166.2C202.988 166.2 202.615 166.067 202.335 165.8C202.068 165.533 201.935 165.18 201.935 164.74C201.935 164.3 202.068 163.953 202.335 163.7C202.615 163.433 202.988 163.3 203.455 163.3ZM211.793 155.8C212.979 155.8 213.926 156.06 214.633 156.58C215.339 157.1 215.846 157.773 216.153 158.6L214.133 159.4C213.959 158.787 213.679 158.32 213.293 158C212.919 157.667 212.426 157.5 211.813 157.5C210.919 157.5 210.219 157.807 209.713 158.42C209.219 159.02 208.973 159.887 208.973 161.02C208.973 162.14 209.226 163 209.733 163.6C210.239 164.2 210.933 164.5 211.813 164.5C212.506 164.5 213.053 164.333 213.453 164C213.866 163.667 214.139 163.187 214.273 162.56L216.213 163.22C215.933 164.127 215.419 164.853 214.673 165.4C213.926 165.933 212.986 166.2 211.853 166.2C210.866 166.2 209.993 165.993 209.233 165.58C208.486 165.167 207.899 164.573 207.473 163.8C207.046 163.013 206.833 162.08 206.833 161C206.833 159.92 207.046 158.993 207.473 158.22C207.899 157.433 208.486 156.833 209.233 156.42C209.979 156.007 210.833 155.8 211.793 155.8ZM223.043 155.8C224.016 155.8 224.876 156.007 225.623 156.42C226.37 156.833 226.95 157.433 227.363 158.22C227.79 158.993 228.003 159.92 228.003 161C228.003 162.08 227.79 163.013 227.363 163.8C226.95 164.573 226.37 165.167 225.623 165.58C224.876 165.993 224.016 166.2 223.043 166.2C222.07 166.2 221.21 165.993 220.463 165.58C219.716 165.167 219.13 164.573 218.703 163.8C218.276 163.013 218.063 162.08 218.063 161C218.063 159.92 218.276 158.993 218.703 158.22C219.13 157.433 219.716 156.833 220.463 156.42C221.21 156.007 222.07 155.8 223.043 155.8ZM223.043 157.48C222.163 157.48 221.47 157.787 220.963 158.4C220.456 159 220.203 159.867 220.203 161C220.203 162.133 220.456 163.007 220.963 163.62C221.47 164.22 222.163 164.52 223.043 164.52C223.923 164.52 224.61 164.22 225.103 163.62C225.61 163.007 225.863 162.133 225.863 161C225.863 159.867 225.61 159 225.103 158.4C224.61 157.787 223.923 157.48 223.043 157.48ZM230.695 166V156H232.595L232.695 157.68C233.042 157.04 233.502 156.567 234.075 156.26C234.662 155.953 235.282 155.8 235.935 155.8C236.655 155.8 237.315 155.967 237.915 156.3C238.528 156.62 238.988 157.107 239.295 157.76C239.508 157.32 239.802 156.953 240.175 156.66C240.548 156.367 240.962 156.153 241.415 156.02C241.868 155.873 242.315 155.8 242.755 155.8C243.395 155.8 243.995 155.933 244.555 156.2C245.115 156.467 245.568 156.873 245.915 157.42C246.262 157.967 246.435 158.667 246.435 159.52V166H244.295V159.86C244.295 159.033 244.095 158.447 243.695 158.1C243.308 157.74 242.822 157.56 242.235 157.56C241.542 157.56 240.935 157.82 240.415 158.34C239.895 158.847 239.635 159.587 239.635 160.56V166H237.495V159.86C237.495 159.033 237.295 158.447 236.895 158.1C236.508 157.74 236.022 157.56 235.435 157.56C235.035 157.56 234.635 157.667 234.235 157.88C233.835 158.093 233.502 158.427 233.235 158.88C232.968 159.333 232.835 159.933 232.835 160.68V166H230.695Z" fill="#7B7B7B"/>
<path d="M30.74 197.32C30.2733 197.32 29.9133 197.207 29.66 196.98C29.42 196.74 29.3 196.407 29.3 195.98C29.3 195.553 29.42 195.227 29.66 195C29.9133 194.773 30.2733 194.66 30.74 194.66C31.1933 194.66 31.54 194.773 31.78 195C32.0333 195.227 32.16 195.553 32.16 195.98C32.16 196.407 32.0333 196.74 31.78 196.98C31.54 197.207 31.1933 197.32 30.74 197.32ZM31.8 199V209H29.66V199H31.8ZM36.2283 197.32C35.7616 197.32 35.4016 197.207 35.1483 196.98C34.9083 196.74 34.7883 196.407 34.7883 195.98C34.7883 195.553 34.9083 195.227 35.1483 195C35.4016 194.773 35.7616 194.66 36.2283 194.66C36.6816 194.66 37.0283 194.773 37.2683 195C37.5216 195.227 37.6483 195.553 37.6483 195.98C37.6483 196.407 37.5216 196.74 37.2683 196.98C37.0283 197.207 36.6816 197.32 36.2283 197.32ZM37.2883 199V209.88C37.2883 210.733 37.1283 211.407 36.8083 211.9C36.5016 212.407 36.0949 212.767 35.5883 212.98C35.0949 213.193 34.5683 213.3 34.0083 213.3C33.5549 213.3 33.1416 213.24 32.7683 213.12C32.3949 213 32.0816 212.84 31.8283 212.64L32.1883 210.92C32.3749 211.067 32.5949 211.193 32.8483 211.3C33.1016 211.407 33.3949 211.46 33.7283 211.46C34.1549 211.46 34.4949 211.327 34.7483 211.06C35.0149 210.807 35.1483 210.347 35.1483 209.68V199H37.2883ZM50.0766 199L46.2566 202.92L50.3166 209H47.8366L44.7566 204.3L42.7766 206.34V209H40.6366V194.5H42.7766V203.88L47.5366 199H50.0766ZM55.8177 209.2C55.1643 209.2 54.5577 209.08 53.9977 208.84C53.451 208.6 53.011 208.213 52.6777 207.68C52.3443 207.147 52.1777 206.453 52.1777 205.6V199H54.3177V205.06C54.3177 205.967 54.5043 206.593 54.8777 206.94C55.2643 207.273 55.811 207.44 56.5177 207.44C56.971 207.44 57.3977 207.34 57.7977 207.14C58.1977 206.927 58.5177 206.6 58.7577 206.16C59.011 205.707 59.1377 205.127 59.1377 204.42V199H61.2777V209H59.3977L59.2977 207.38C58.951 208.007 58.4843 208.467 57.8977 208.76C57.311 209.053 56.6177 209.2 55.8177 209.2ZM65.7009 197.32C65.2343 197.32 64.8743 197.207 64.6209 196.98C64.3809 196.74 64.2609 196.407 64.2609 195.98C64.2609 195.553 64.3809 195.227 64.6209 195C64.8743 194.773 65.2343 194.66 65.7009 194.66C66.1543 194.66 66.5009 194.773 66.7409 195C66.9943 195.227 67.1209 195.553 67.1209 195.98C67.1209 196.407 66.9943 196.74 66.7409 196.98C66.5009 197.207 66.1543 197.32 65.7009 197.32ZM66.7609 199V209H64.6209V199H66.7609ZM73.6692 209.2C73.0159 209.2 72.4092 209.08 71.8492 208.84C71.3026 208.6 70.8626 208.213 70.5292 207.68C70.1959 207.147 70.0292 206.453 70.0292 205.6V199H72.1692V205.06C72.1692 205.967 72.3559 206.593 72.7292 206.94C73.1159 207.273 73.6626 207.44 74.3692 207.44C74.8226 207.44 75.2492 207.34 75.6492 207.14C76.0492 206.927 76.3692 206.6 76.6092 206.16C76.8626 205.707 76.9892 205.127 76.9892 204.42V199H79.1292V209H77.2492L77.1492 207.38C76.8026 208.007 76.3359 208.467 75.7492 208.76C75.1626 209.053 74.4692 209.2 73.6692 209.2ZM87.0125 195.62C88.3458 195.62 89.4125 195.933 90.2125 196.56C91.0125 197.187 91.4125 198.047 91.4125 199.14C91.4125 199.82 91.2458 200.42 90.9125 200.94C90.5792 201.46 90.1058 201.847 89.4925 202.1V202.12C90.2658 202.4 90.8725 202.82 91.3125 203.38C91.7525 203.927 91.9725 204.607 91.9725 205.42C91.9725 206.58 91.5192 207.5 90.6125 208.18C89.7192 208.86 88.5192 209.2 87.0125 209.2C85.9992 209.2 85.1192 209.047 84.3725 208.74C83.6392 208.433 83.0658 208 82.6525 207.44C82.2392 206.867 82.0325 206.193 82.0325 205.42C82.0325 204.62 82.2525 203.94 82.6925 203.38C83.1325 202.82 83.7458 202.4 84.5325 202.12V202.1C83.9192 201.847 83.4392 201.467 83.0925 200.96C82.7592 200.44 82.5925 199.833 82.5925 199.14C82.5925 198.047 82.9925 197.187 83.7925 196.56C84.6058 195.933 85.6792 195.62 87.0125 195.62ZM87.0125 197.42C86.3058 197.42 85.7458 197.593 85.3325 197.94C84.9192 198.273 84.7125 198.747 84.7125 199.36C84.7125 199.96 84.9192 200.433 85.3325 200.78C85.7592 201.113 86.3192 201.28 87.0125 201.28C87.6925 201.28 88.2458 201.113 88.6725 200.78C89.0992 200.433 89.3125 199.96 89.3125 199.36C89.3125 198.747 89.1058 198.273 88.6925 197.94C88.2792 197.593 87.7192 197.42 87.0125 197.42ZM87.0125 207.4C87.8792 207.4 88.5592 207.207 89.0525 206.82C89.5592 206.433 89.8125 205.9 89.8125 205.22C89.8125 204.527 89.5592 203.987 89.0525 203.6C88.5458 203.213 87.8658 203.02 87.0125 203.02C86.1592 203.02 85.4725 203.213 84.9525 203.6C84.4458 203.987 84.1925 204.527 84.1925 205.22C84.1925 205.9 84.4458 206.433 84.9525 206.82C85.4592 207.207 86.1458 207.4 87.0125 207.4ZM93.1936 195.8H103.254V197.58C101.587 199.287 100.4 201.073 99.6936 202.94C99.0003 204.807 98.6536 206.827 98.6536 209H96.4936C96.4936 206.907 96.8669 204.907 97.6136 203C98.3603 201.08 99.5003 199.3 101.034 197.66H93.1936V195.8ZM109.812 209V205.7H103.372V204.24C103.426 204.12 103.539 203.933 103.712 203.68L109.212 195.8H111.832V204.04H114.072V205.7H111.832V209H109.812ZM105.372 204.04H109.812V199.38C109.812 199.06 109.819 198.733 109.832 198.4C109.859 198.053 109.879 197.713 109.892 197.38H109.852C109.706 197.7 109.512 198.053 109.272 198.44C109.046 198.813 108.832 199.14 108.632 199.42L105.512 203.86C105.472 203.927 105.426 203.987 105.372 204.04ZM124.514 212.84C122.847 212.84 121.38 212.5 120.114 211.82C118.86 211.14 117.88 210.18 117.174 208.94C116.467 207.687 116.114 206.207 116.114 204.5C116.114 203.22 116.327 202.047 116.754 200.98C117.194 199.9 117.807 198.973 118.594 198.2C119.394 197.427 120.327 196.827 121.394 196.4C122.474 195.973 123.654 195.76 124.934 195.76C126.16 195.76 127.26 195.96 128.234 196.36C129.22 196.76 130.054 197.313 130.734 198.02C131.414 198.727 131.927 199.547 132.274 200.48C132.634 201.413 132.814 202.413 132.814 203.48C132.814 204.72 132.607 205.76 132.194 206.6C131.794 207.44 131.274 208.08 130.634 208.52C130.007 208.947 129.347 209.16 128.654 209.16C127.867 209.16 127.28 208.96 126.894 208.56C126.52 208.16 126.36 207.647 126.414 207.02C126.12 207.62 125.68 208.093 125.094 208.44C124.52 208.787 123.914 208.96 123.274 208.96C122.62 208.96 122.04 208.8 121.534 208.48C121.027 208.16 120.627 207.707 120.334 207.12C120.054 206.533 119.914 205.847 119.914 205.06C119.914 204.1 120.1 203.213 120.474 202.4C120.86 201.587 121.394 200.94 122.074 200.46C122.754 199.967 123.534 199.72 124.414 199.72C125.134 199.72 125.754 199.907 126.274 200.28C126.794 200.653 127.134 201.187 127.294 201.88L127.754 199.9H129.634L128.174 206.18C128.147 206.327 128.12 206.467 128.094 206.6C128.08 206.72 128.074 206.833 128.074 206.94C128.074 207.313 128.167 207.56 128.354 207.68C128.54 207.8 128.76 207.86 129.014 207.86C129.44 207.86 129.847 207.7 130.234 207.38C130.62 207.06 130.934 206.58 131.174 205.94C131.414 205.3 131.534 204.493 131.534 203.52C131.534 202.267 131.26 201.153 130.714 200.18C130.18 199.193 129.42 198.427 128.434 197.88C127.447 197.32 126.294 197.04 124.974 197.04C123.52 197.04 122.234 197.347 121.114 197.96C120.007 198.573 119.134 199.44 118.494 200.56C117.867 201.68 117.554 202.993 117.554 204.5C117.554 205.993 117.867 207.267 118.494 208.32C119.12 209.373 119.96 210.18 121.014 210.74C122.067 211.3 123.247 211.58 124.554 211.58C125.62 211.58 126.474 211.44 127.114 211.16C127.754 210.893 128.3 210.6 128.754 210.28L129.454 211.34C129.08 211.607 128.674 211.853 128.234 212.08C127.794 212.307 127.274 212.487 126.674 212.62C126.074 212.767 125.354 212.84 124.514 212.84ZM124.014 207.46C124.52 207.46 124.98 207.287 125.394 206.94C125.807 206.58 126.134 206.107 126.374 205.52C126.627 204.92 126.754 204.273 126.754 203.58C126.754 202.873 126.56 202.313 126.174 201.9C125.8 201.473 125.307 201.26 124.694 201.26C124.107 201.26 123.594 201.433 123.154 201.78C122.727 202.127 122.394 202.587 122.154 203.16C121.914 203.733 121.794 204.36 121.794 205.04C121.794 205.813 121.98 206.413 122.354 206.84C122.74 207.253 123.294 207.46 124.014 207.46ZM141.238 207.44C142.251 207.44 143.038 207.667 143.598 208.12C144.158 208.56 144.438 209.173 144.438 209.96C144.438 210.667 144.218 211.267 143.778 211.76C143.338 212.267 142.738 212.647 141.978 212.9C141.218 213.167 140.358 213.3 139.398 213.3C137.744 213.3 136.524 213.047 135.738 212.54C134.964 212.033 134.578 211.4 134.578 210.64C134.578 210.187 134.711 209.78 134.978 209.42C135.244 209.06 135.684 208.813 136.298 208.68C135.924 208.52 135.631 208.3 135.418 208.02C135.204 207.727 135.098 207.353 135.098 206.9C135.098 206.46 135.224 206.073 135.478 205.74C135.731 205.393 136.104 205.133 136.598 204.96C135.544 204.36 135.018 203.433 135.018 202.18C135.018 201.167 135.411 200.353 136.198 199.74C136.984 199.113 138.024 198.8 139.318 198.8C140.158 198.8 140.898 198.933 141.538 199.2C141.644 198.533 141.938 197.987 142.418 197.56C142.898 197.12 143.504 196.9 144.238 196.9C144.304 196.9 144.358 196.9 144.398 196.9L144.738 198.58C144.671 198.567 144.591 198.56 144.497 198.56C143.351 198.56 142.711 198.98 142.578 199.82C143.284 200.433 143.638 201.22 143.638 202.18C143.638 203.207 143.244 204.027 142.458 204.64C141.671 205.253 140.624 205.56 139.318 205.56C138.771 205.56 138.271 205.513 137.818 205.42C137.458 205.513 137.198 205.66 137.038 205.86C136.891 206.047 136.818 206.247 136.818 206.46C136.818 207.113 137.291 207.44 138.238 207.44H141.238ZM139.318 200.3C138.704 200.3 138.191 200.473 137.778 200.82C137.378 201.153 137.178 201.607 137.178 202.18C137.178 202.753 137.378 203.213 137.778 203.56C138.191 203.907 138.704 204.08 139.318 204.08C139.944 204.08 140.458 203.907 140.858 203.56C141.271 203.213 141.478 202.753 141.478 202.18C141.478 201.607 141.271 201.153 140.858 200.82C140.458 200.473 139.944 200.3 139.318 200.3ZM139.398 211.7C140.491 211.7 141.298 211.553 141.818 211.26C142.351 210.967 142.618 210.62 142.618 210.22C142.618 209.913 142.491 209.667 142.238 209.48C141.998 209.293 141.558 209.2 140.918 209.2H137.698C137.311 209.2 136.991 209.3 136.738 209.5C136.498 209.7 136.378 209.96 136.378 210.28C136.378 210.72 136.644 211.067 137.178 211.32C137.711 211.573 138.451 211.7 139.398 211.7ZM146.398 209V199H148.298L148.398 200.68C148.745 200.04 149.205 199.567 149.778 199.26C150.365 198.953 150.985 198.8 151.638 198.8C152.358 198.8 153.018 198.967 153.618 199.3C154.232 199.62 154.692 200.107 154.998 200.76C155.212 200.32 155.505 199.953 155.878 199.66C156.252 199.367 156.665 199.153 157.118 199.02C157.572 198.873 158.018 198.8 158.458 198.8C159.098 198.8 159.698 198.933 160.258 199.2C160.818 199.467 161.272 199.873 161.618 200.42C161.965 200.967 162.138 201.667 162.138 202.52V209H159.998V202.86C159.998 202.033 159.798 201.447 159.398 201.1C159.012 200.74 158.525 200.56 157.938 200.56C157.245 200.56 156.638 200.82 156.118 201.34C155.598 201.847 155.338 202.587 155.338 203.56V209H153.198V202.86C153.198 202.033 152.998 201.447 152.598 201.1C152.212 200.74 151.725 200.56 151.138 200.56C150.738 200.56 150.338 200.667 149.938 200.88C149.538 201.093 149.205 201.427 148.938 201.88C148.672 202.333 148.538 202.933 148.538 203.68V209H146.398ZM166.463 197.32C165.996 197.32 165.636 197.207 165.383 196.98C165.143 196.74 165.023 196.407 165.023 195.98C165.023 195.553 165.143 195.227 165.383 195C165.636 194.773 165.996 194.66 166.463 194.66C166.916 194.66 167.263 194.773 167.503 195C167.756 195.227 167.883 195.553 167.883 195.98C167.883 196.407 167.756 196.74 167.503 196.98C167.263 197.207 166.916 197.32 166.463 197.32ZM167.523 199V209H165.383V199H167.523ZM176.651 202.58C176.651 201.913 176.464 201.4 176.091 201.04C175.731 200.667 175.231 200.48 174.591 200.48C173.991 200.48 173.471 200.62 173.031 200.9C172.604 201.18 172.298 201.633 172.111 202.26L170.311 201.5C170.564 200.687 171.058 200.033 171.791 199.54C172.538 199.047 173.498 198.8 174.671 198.8C175.458 198.8 176.158 198.933 176.771 199.2C177.398 199.453 177.884 199.847 178.231 200.38C178.591 200.9 178.771 201.56 178.771 202.36V206.82C178.771 207.313 179.018 207.56 179.511 207.56C179.751 207.56 179.984 207.527 180.211 207.46L180.091 208.94C179.784 209.087 179.398 209.16 178.931 209.16C178.398 209.16 177.938 209.04 177.551 208.8C177.164 208.56 176.904 208.2 176.771 207.72C176.451 208.213 175.991 208.587 175.391 208.84C174.791 209.08 174.191 209.2 173.591 209.2C172.644 209.2 171.858 208.973 171.231 208.52C170.604 208.067 170.291 207.387 170.291 206.48C170.291 205.747 170.531 205.14 171.011 204.66C171.504 204.18 172.198 203.847 173.091 203.66L176.651 202.96V202.58ZM172.451 206.32C172.451 206.693 172.591 206.993 172.871 207.22C173.164 207.433 173.551 207.54 174.031 207.54C174.484 207.54 174.911 207.467 175.311 207.32C175.711 207.173 176.031 206.933 176.271 206.6C176.524 206.267 176.651 205.833 176.651 205.3V204.46L174.131 204.98C173.558 205.087 173.131 205.24 172.851 205.44C172.584 205.64 172.451 205.933 172.451 206.32ZM184.357 194.5V206.2C184.357 206.693 184.444 207.033 184.617 207.22C184.791 207.407 185.077 207.5 185.477 207.5C185.717 207.5 185.917 207.487 186.077 207.46C186.251 207.42 186.464 207.353 186.717 207.26L186.477 208.86C186.011 209.087 185.457 209.2 184.817 209.2C183.924 209.2 183.264 208.973 182.837 208.52C182.424 208.067 182.217 207.353 182.217 206.38V194.5H184.357ZM189.705 206.3C190.158 206.3 190.518 206.433 190.785 206.7C191.065 206.953 191.205 207.3 191.205 207.74C191.205 208.18 191.065 208.533 190.785 208.8C190.518 209.067 190.158 209.2 189.705 209.2C189.238 209.2 188.865 209.067 188.585 208.8C188.318 208.533 188.185 208.18 188.185 207.74C188.185 207.3 188.318 206.953 188.585 206.7C188.865 206.433 189.238 206.3 189.705 206.3ZM198.043 198.8C199.229 198.8 200.176 199.06 200.883 199.58C201.589 200.1 202.096 200.773 202.403 201.6L200.383 202.4C200.209 201.787 199.929 201.32 199.543 201C199.169 200.667 198.676 200.5 198.063 200.5C197.169 200.5 196.469 200.807 195.963 201.42C195.469 202.02 195.223 202.887 195.223 204.02C195.223 205.14 195.476 206 195.983 206.6C196.489 207.2 197.183 207.5 198.063 207.5C198.756 207.5 199.303 207.333 199.703 207C200.116 206.667 200.389 206.187 200.523 205.56L202.463 206.22C202.183 207.127 201.669 207.853 200.923 208.4C200.176 208.933 199.236 209.2 198.103 209.2C197.116 209.2 196.243 208.993 195.483 208.58C194.736 208.167 194.149 207.573 193.723 206.8C193.296 206.013 193.083 205.08 193.083 204C193.083 202.92 193.296 201.993 193.723 201.22C194.149 200.433 194.736 199.833 195.483 199.42C196.229 199.007 197.083 198.8 198.043 198.8ZM209.293 198.8C210.266 198.8 211.126 199.007 211.873 199.42C212.62 199.833 213.2 200.433 213.613 201.22C214.04 201.993 214.253 202.92 214.253 204C214.253 205.08 214.04 206.013 213.613 206.8C213.2 207.573 212.62 208.167 211.873 208.58C211.126 208.993 210.266 209.2 209.293 209.2C208.32 209.2 207.46 208.993 206.713 208.58C205.966 208.167 205.38 207.573 204.953 206.8C204.526 206.013 204.313 205.08 204.313 204C204.313 202.92 204.526 201.993 204.953 201.22C205.38 200.433 205.966 199.833 206.713 199.42C207.46 199.007 208.32 198.8 209.293 198.8ZM209.293 200.48C208.413 200.48 207.72 200.787 207.213 201.4C206.706 202 206.453 202.867 206.453 204C206.453 205.133 206.706 206.007 207.213 206.62C207.72 207.22 208.413 207.52 209.293 207.52C210.173 207.52 210.86 207.22 211.353 206.62C211.86 206.007 212.113 205.133 212.113 204C212.113 202.867 211.86 202 211.353 201.4C210.86 200.787 210.173 200.48 209.293 200.48ZM216.945 209V199H218.845L218.945 200.68C219.292 200.04 219.752 199.567 220.325 199.26C220.912 198.953 221.532 198.8 222.185 198.8C222.905 198.8 223.565 198.967 224.165 199.3C224.778 199.62 225.238 200.107 225.545 200.76C225.758 200.32 226.052 199.953 226.425 199.66C226.798 199.367 227.212 199.153 227.665 199.02C228.118 198.873 228.565 198.8 229.005 198.8C229.645 198.8 230.245 198.933 230.805 199.2C231.365 199.467 231.818 199.873 232.165 200.42C232.512 200.967 232.685 201.667 232.685 202.52V209H230.545V202.86C230.545 202.033 230.345 201.447 229.945 201.1C229.558 200.74 229.072 200.56 228.485 200.56C227.792 200.56 227.185 200.82 226.665 201.34C226.145 201.847 225.885 202.587 225.885 203.56V209H223.745V202.86C223.745 202.033 223.545 201.447 223.145 201.1C222.758 200.74 222.272 200.56 221.685 200.56C221.285 200.56 220.885 200.667 220.485 200.88C220.085 201.093 219.752 201.427 219.485 201.88C219.218 202.333 219.085 202.933 219.085 203.68V209H216.945Z" fill="#7B7B7B"/>
<defs>
<filter id="filter0_d_141_628" x="0" y="0" width="390" height="250" filterUnits="userSpaceOnUse" color-interpolation-filters="sRGB">
<feFlood flood-opacity="0" result="BackgroundImageFix"/>
<feColorMatrix in="SourceAlpha" type="matrix" values="0 0 0 0 0 0 0 0 0 0 0 0 0 0 0 0 0 0 127 0" result="hardAlpha"/>
<feOffset dy="1"/>
<feGaussianBlur stdDeviation="5"/>
<feColorMatrix type="matrix" values="0 0 0 0 0 0 0 0 0 0 0 0 0 0 0 0 0 0 0.1 0"/>
<feBlend mode="normal" in2="BackgroundImageFix" result="effect1_dropShadow_141_628"/>
<feBlend mode="normal" in="SourceGraphic" in2="effect1_dropShadow_141_628" result="shape"/>
</filter>
<filter id="filter1_d_141_628" x="17" y="17" width="105" height="105" filterUnits="userSpaceOnUse" color-interpolation-filters="sRGB">
<feFlood flood-opacity="0" result="BackgroundImageFix"/>
<feColorMatrix in="SourceAlpha" type="matrix" values="0 0 0 0 0 0 0 0 0 0 0 0 0 0 0 0 0 0 127 0" result="hardAlpha"/>
<feOffset dx="4" dy="5"/>
<feGaussianBlur stdDeviation="7.5"/>
<feColorMatrix type="matrix" values="0 0 0 0 1 0 0 0 0 0.326087 0 0 0 0 0 0 0 0 0.4 0"/>
<feBlend mode="normal" in2="BackgroundImageFix" result="effect1_dropShadow_141_628"/>
<feBlend mode="normal" in="SourceGraphic" in2="effect1_dropShadow_141_628" result="shape"/>
</filter>
</defs>
</svg>
