<svg width="290" height="270" viewBox="0 0 290 270" fill="none" xmlns="http://www.w3.org/2000/svg">
<g filter="url(#filter0_d_141_592)">
<rect x="10" y="9" width="270" height="250" fill="white"/>
</g>
<path d="M115.168 129V110.76C115.168 109.928 115.168 109.08 115.168 108.216C115.2 107.32 115.216 106.408 115.216 105.48C114.16 106.472 112.976 107.32 111.664 108.024C110.384 108.728 109.056 109.208 107.68 109.464L106.912 102.648C108 102.52 109.184 102.184 110.464 101.64C111.776 101.096 112.992 100.44 114.112 99.672C115.232 98.872 116.048 98.088 116.56 97.32H123.136V129H115.168ZM140.4 129.48C137.648 129.48 135.248 128.952 133.2 127.896C131.184 126.808 129.488 125.048 128.112 122.616L135.36 119.016C135.712 120.296 136.272 121.32 137.04 122.088C137.84 122.856 139.024 123.24 140.592 123.24C142.064 123.24 143.232 122.856 144.096 122.088C144.96 121.288 145.392 120.136 145.392 118.632C145.392 115.72 143.792 114.264 140.592 114.264C138.384 114.264 136.688 114.888 135.504 116.136L129.264 114.984L131.28 97.32H151.248V103.704H137.28L136.464 110.04L136.32 110.808H136.368C137.008 110.072 137.904 109.512 139.056 109.128C140.208 108.744 141.488 108.552 142.896 108.552C144.976 108.552 146.752 108.968 148.224 109.8C149.728 110.632 150.864 111.768 151.632 113.208C152.432 114.648 152.832 116.296 152.832 118.152C152.832 120.744 152.256 122.888 151.104 124.584C149.952 126.248 148.432 127.48 146.544 128.28C144.656 129.08 142.608 129.48 140.4 129.48ZM181.2 110.472V116.328H172.416V126.12H165.936V116.328H157.104V110.472H165.936V100.728H172.416V110.472H181.2Z" fill="#373737"/>
<path d="M86.44 165.6C87.72 165.6 88.8267 165.873 89.76 166.42C90.6933 166.967 91.4133 167.753 91.92 168.78C92.4267 169.793 92.68 171 92.68 172.4C92.68 173.8 92.4267 175.013 91.92 176.04C91.4133 177.053 90.6933 177.833 89.76 178.38C88.8267 178.927 87.72 179.2 86.44 179.2C85.16 179.2 84.0533 178.927 83.12 178.38C82.2 177.833 81.4867 177.053 80.98 176.04C80.4733 175.013 80.22 173.8 80.22 172.4C80.22 171 80.4733 169.793 80.98 168.78C81.4867 167.753 82.2 166.967 83.12 166.42C84.0533 165.873 85.16 165.6 86.44 165.6ZM86.44 167.46C85.2 167.46 84.2267 167.893 83.52 168.76C82.8133 169.613 82.46 170.827 82.46 172.4C82.46 173.973 82.8133 175.193 83.52 176.06C84.2267 176.913 85.2 177.34 86.44 177.34C87.6933 177.34 88.6733 176.913 89.38 176.06C90.0867 175.193 90.44 173.973 90.44 172.4C90.44 170.827 90.0867 169.613 89.38 168.76C88.6733 167.893 87.6933 167.46 86.44 167.46ZM99.1223 179.2C98.469 179.2 97.8623 179.08 97.3023 178.84C96.7557 178.6 96.3157 178.213 95.9823 177.68C95.649 177.147 95.4823 176.453 95.4823 175.6V169H97.6223V175.06C97.6223 175.967 97.809 176.593 98.1823 176.94C98.569 177.273 99.1157 177.44 99.8223 177.44C100.276 177.44 100.702 177.34 101.102 177.14C101.502 176.927 101.822 176.6 102.062 176.16C102.316 175.707 102.442 175.127 102.442 174.42V169H104.582V179H102.702L102.602 177.38C102.256 178.007 101.789 178.467 101.202 178.76C100.616 179.053 99.9223 179.2 99.1223 179.2ZM107.926 179V169H109.746L109.946 170.8C110.492 169.467 111.539 168.8 113.086 168.8C113.286 168.8 113.486 168.82 113.686 168.86C113.886 168.887 114.052 168.933 114.186 169L113.886 170.88C113.739 170.827 113.572 170.787 113.386 170.76C113.212 170.72 112.972 170.7 112.666 170.7C112.239 170.7 111.826 170.813 111.426 171.04C111.039 171.253 110.712 171.587 110.446 172.04C110.192 172.48 110.066 173.033 110.066 173.7V179H107.926ZM133.521 175.5C133.121 176.7 132.434 177.62 131.461 178.26C130.488 178.887 129.354 179.2 128.061 179.2C126.781 179.2 125.674 178.927 124.741 178.38C123.821 177.833 123.108 177.053 122.601 176.04C122.094 175.013 121.841 173.8 121.841 172.4C121.841 171 122.094 169.793 122.601 168.78C123.108 167.753 123.821 166.967 124.741 166.42C125.674 165.873 126.774 165.6 128.041 165.6C129.348 165.6 130.454 165.873 131.361 166.42C132.268 166.967 132.921 167.773 133.321 168.84L131.301 169.74C130.794 168.22 129.748 167.46 128.161 167.46C126.921 167.46 125.928 167.893 125.181 168.76C124.448 169.613 124.081 170.827 124.081 172.4C124.081 173.96 124.434 175.173 125.141 176.04C125.848 176.907 126.834 177.34 128.101 177.34C128.914 177.34 129.614 177.133 130.201 176.72C130.801 176.293 131.228 175.66 131.481 174.82L133.521 175.5ZM140.293 168.8C141.266 168.8 142.126 169.007 142.873 169.42C143.62 169.833 144.2 170.433 144.613 171.22C145.04 171.993 145.253 172.92 145.253 174C145.253 175.08 145.04 176.013 144.613 176.8C144.2 177.573 143.62 178.167 142.873 178.58C142.126 178.993 141.266 179.2 140.293 179.2C139.32 179.2 138.46 178.993 137.713 178.58C136.966 178.167 136.38 177.573 135.953 176.8C135.526 176.013 135.313 175.08 135.313 174C135.313 172.92 135.526 171.993 135.953 171.22C136.38 170.433 136.966 169.833 137.713 169.42C138.46 169.007 139.32 168.8 140.293 168.8ZM140.293 170.48C139.413 170.48 138.72 170.787 138.213 171.4C137.706 172 137.453 172.867 137.453 174C137.453 175.133 137.706 176.007 138.213 176.62C138.72 177.22 139.413 177.52 140.293 177.52C141.173 177.52 141.86 177.22 142.353 176.62C142.86 176.007 143.113 175.133 143.113 174C143.113 172.867 142.86 172 142.353 171.4C141.86 170.787 141.173 170.48 140.293 170.48ZM147.945 179V169H149.845L149.945 170.68C150.292 170.04 150.752 169.567 151.325 169.26C151.912 168.953 152.532 168.8 153.185 168.8C153.905 168.8 154.565 168.967 155.165 169.3C155.778 169.62 156.238 170.107 156.545 170.76C156.758 170.32 157.052 169.953 157.425 169.66C157.798 169.367 158.212 169.153 158.665 169.02C159.118 168.873 159.565 168.8 160.005 168.8C160.645 168.8 161.245 168.933 161.805 169.2C162.365 169.467 162.818 169.873 163.165 170.42C163.512 170.967 163.685 171.667 163.685 172.52V179H161.545V172.86C161.545 172.033 161.345 171.447 160.945 171.1C160.558 170.74 160.072 170.56 159.485 170.56C158.792 170.56 158.185 170.82 157.665 171.34C157.145 171.847 156.885 172.587 156.885 173.56V179H154.745V172.86C154.745 172.033 154.545 171.447 154.145 171.1C153.758 170.74 153.272 170.56 152.685 170.56C152.285 170.56 151.885 170.667 151.485 170.88C151.085 171.093 150.752 171.427 150.485 171.88C150.218 172.333 150.085 172.933 150.085 173.68V179H147.945ZM166.93 183.2V169H168.83L168.93 170.88C169.223 170.253 169.67 169.753 170.27 169.38C170.87 168.993 171.563 168.8 172.35 168.8C173.163 168.8 173.896 169.007 174.55 169.42C175.216 169.833 175.743 170.427 176.13 171.2C176.53 171.973 176.73 172.9 176.73 173.98C176.73 175.073 176.53 176.013 176.13 176.8C175.73 177.573 175.19 178.167 174.51 178.58C173.843 178.993 173.103 179.2 172.29 179.2C171.543 179.2 170.896 179.033 170.35 178.7C169.803 178.353 169.376 177.907 169.07 177.36V183.2H166.93ZM171.83 177.46C172.683 177.46 173.356 177.153 173.85 176.54C174.343 175.927 174.59 175.08 174.59 174C174.59 172.92 174.35 172.073 173.87 171.46C173.39 170.833 172.723 170.52 171.87 170.52C171.03 170.52 170.35 170.833 169.83 171.46C169.323 172.087 169.07 172.933 169.07 174C169.07 175.053 169.316 175.893 169.81 176.52C170.316 177.147 170.99 177.46 171.83 177.46ZM185.229 172.58C185.229 171.913 185.042 171.4 184.669 171.04C184.309 170.667 183.809 170.48 183.169 170.48C182.569 170.48 182.049 170.62 181.609 170.9C181.182 171.18 180.876 171.633 180.689 172.26L178.889 171.5C179.142 170.687 179.636 170.033 180.369 169.54C181.116 169.047 182.076 168.8 183.249 168.8C184.036 168.8 184.736 168.933 185.349 169.2C185.976 169.453 186.462 169.847 186.809 170.38C187.169 170.9 187.349 171.56 187.349 172.36V176.82C187.349 177.313 187.596 177.56 188.089 177.56C188.329 177.56 188.562 177.527 188.789 177.46L188.669 178.94C188.362 179.087 187.976 179.16 187.509 179.16C186.976 179.16 186.516 179.04 186.129 178.8C185.742 178.56 185.482 178.2 185.349 177.72C185.029 178.213 184.569 178.587 183.969 178.84C183.369 179.08 182.769 179.2 182.169 179.2C181.222 179.2 180.436 178.973 179.809 178.52C179.182 178.067 178.869 177.387 178.869 176.48C178.869 175.747 179.109 175.14 179.589 174.66C180.082 174.18 180.776 173.847 181.669 173.66L185.229 172.96V172.58ZM181.029 176.32C181.029 176.693 181.169 176.993 181.449 177.22C181.742 177.433 182.129 177.54 182.609 177.54C183.062 177.54 183.489 177.467 183.889 177.32C184.289 177.173 184.609 176.933 184.849 176.6C185.102 176.267 185.229 175.833 185.229 175.3V174.46L182.709 174.98C182.136 175.087 181.709 175.24 181.429 175.44C181.162 175.64 181.029 175.933 181.029 176.32ZM190.855 179V169H192.755L192.855 170.72C193.189 170.053 193.649 169.567 194.235 169.26C194.835 168.953 195.502 168.8 196.235 168.8C196.942 168.8 197.575 168.94 198.135 169.22C198.709 169.487 199.162 169.9 199.495 170.46C199.829 171.007 199.995 171.693 199.995 172.52V179H197.855V173.18C197.855 172.193 197.649 171.513 197.235 171.14C196.835 170.753 196.329 170.56 195.715 170.56C195.275 170.56 194.849 170.66 194.435 170.86C194.022 171.06 193.675 171.393 193.395 171.86C193.129 172.313 192.995 172.92 192.995 173.68V179H190.855ZM211.706 169L207.326 180.18C206.886 181.34 206.386 182.147 205.826 182.6C205.266 183.067 204.546 183.3 203.666 183.3C203.172 183.3 202.726 183.24 202.326 183.12C201.926 183 201.572 182.827 201.266 182.6L201.786 180.94C202.266 181.367 202.846 181.58 203.526 181.58C203.886 181.58 204.206 181.487 204.486 181.3C204.779 181.113 205.039 180.727 205.266 180.14L205.706 179.06L204.646 176.58L201.526 169H203.926L206.146 175.28L206.726 177.16L207.386 175.1L209.486 169H211.706Z" fill="#7B7B7B"/>
<defs>
<filter id="filter0_d_141_592" x="0" y="0" width="290" height="270" filterUnits="userSpaceOnUse" color-interpolation-filters="sRGB">
<feFlood flood-opacity="0" result="BackgroundImageFix"/>
<feColorMatrix in="SourceAlpha" type="matrix" values="0 0 0 0 0 0 0 0 0 0 0 0 0 0 0 0 0 0 127 0" result="hardAlpha"/>
<feOffset dy="1"/>
<feGaussianBlur stdDeviation="5"/>
<feColorMatrix type="matrix" values="0 0 0 0 0 0 0 0 0 0 0 0 0 0 0 0 0 0 0.1 0"/>
<feBlend mode="normal" in2="BackgroundImageFix" result="effect1_dropShadow_141_592"/>
<feBlend mode="normal" in="SourceGraphic" in2="effect1_dropShadow_141_592" result="shape"/>
</filter>
</defs>
</svg>
