<svg width="432" height="69" viewBox="0 0 432 69" fill="none" xmlns="http://www.w3.org/2000/svg">
<path d="M101 2.0625C103.041 2.0625 104.802 2.48958 106.281 3.34375C107.76 4.19792 108.896 5.41667 109.687 7C110.5 8.58333 110.906 10.4792 110.906 12.6875C110.906 14.8958 110.5 16.7917 109.687 18.375C108.896 19.9583 107.76 21.1771 106.281 22.0312C104.802 22.8854 103.041 23.3125 101 23.3125C98.9581 23.3125 97.1873 22.8854 95.6873 22.0312C94.2081 21.1771 93.0623 19.9583 92.2498 18.375C91.4581 16.7917 91.0623 14.8958 91.0623 12.6875C91.0623 10.4792 91.4581 8.58333 92.2498 7C93.0623 5.41667 94.2081 4.19792 95.6873 3.34375C97.1873 2.48958 98.9581 2.0625 101 2.0625ZM101 5.59375C99.2498 5.59375 97.8956 6.20833 96.9373 7.4375C95.9998 8.64583 95.531 10.3958 95.531 12.6875C95.531 14.9792 95.9998 16.7396 96.9373 17.9687C97.8956 19.1771 99.2498 19.7812 101 19.7812C102.729 19.7812 104.062 19.1771 105 17.9687C105.958 16.7396 106.437 14.9792 106.437 12.6875C106.437 10.3958 105.958 8.64583 105 7.4375C104.062 6.20833 102.729 5.59375 101 5.59375ZM120.256 23.3125C119.215 23.3125 118.277 23.125 117.444 22.75C116.611 22.375 115.944 21.7812 115.444 20.9687C114.965 20.1562 114.725 19.0833 114.725 17.75V7.375H119.006V16.7187C119.006 17.9271 119.256 18.7708 119.756 19.25C120.256 19.7083 120.975 19.9375 121.913 19.9375C122.808 19.9375 123.6 19.6146 124.288 18.9687C124.996 18.3021 125.35 17.2396 125.35 15.7812V7.375H129.631V23H125.819L125.663 20.2812C125.142 21.3021 124.423 22.0625 123.506 22.5625C122.59 23.0625 121.506 23.3125 120.256 23.3125ZM134.136 23V7.375H137.855L138.136 10.4375C138.532 9.375 139.126 8.55208 139.918 7.96875C140.73 7.36458 141.751 7.0625 142.98 7.0625C143.709 7.0625 144.272 7.17708 144.668 7.40625L144.168 11C143.959 10.9375 143.699 10.8854 143.386 10.8437C143.095 10.7812 142.709 10.75 142.23 10.75C141.584 10.75 140.97 10.9062 140.386 11.2187C139.824 11.5104 139.355 11.9687 138.98 12.5937C138.605 13.1979 138.418 13.9687 138.418 14.9062V23H134.136ZM161.073 19.5312H171.948V23H156.76V2.375H161.073V19.5312ZM183.997 13.0312C183.997 12.1354 183.737 11.4375 183.216 10.9375C182.716 10.4375 182.049 10.1875 181.216 10.1875C180.445 10.1875 179.768 10.3854 179.185 10.7812C178.601 11.1771 178.174 11.8333 177.904 12.75L174.247 11.625C174.601 10.25 175.372 9.14583 176.56 8.3125C177.768 7.47917 179.383 7.0625 181.404 7.0625C183.445 7.0625 185.091 7.55208 186.341 8.53125C187.612 9.48958 188.247 10.9271 188.247 12.8437V19.1875C188.247 19.9792 188.622 20.375 189.372 20.375C189.726 20.375 190.06 20.3229 190.372 20.2187L190.122 22.875C189.581 23.1458 188.904 23.2813 188.091 23.2813C187.195 23.2813 186.414 23.0938 185.747 22.7187C185.101 22.3437 184.664 21.7812 184.435 21.0312C183.935 21.7812 183.216 22.3542 182.279 22.75C181.362 23.125 180.414 23.3125 179.435 23.3125C177.851 23.3125 176.591 22.9583 175.654 22.25C174.737 21.5208 174.279 20.4687 174.279 19.0938C174.279 17.9271 174.654 16.9792 175.404 16.25C176.154 15.5 177.226 14.9896 178.622 14.7187L183.997 13.625V13.0312ZM178.56 18.6875C178.56 19.2083 178.747 19.6042 179.122 19.875C179.518 20.1458 179.987 20.2812 180.529 20.2812C181.133 20.2812 181.695 20.1875 182.216 20C182.737 19.8125 183.164 19.5 183.497 19.0625C183.831 18.6042 183.997 18 183.997 17.25V16.2812L180.716 16.9375C180.008 17.0833 179.466 17.2812 179.091 17.5312C178.737 17.7604 178.56 18.1458 178.56 18.6875ZM202.956 7.375V10.5625H197.956V17.9062C197.956 18.6562 198.144 19.2083 198.519 19.5625C198.915 19.8958 199.446 20.0625 200.113 20.0625C200.654 20.0625 201.113 19.9896 201.488 19.8437C201.883 19.6771 202.238 19.4583 202.55 19.1875L203.238 22.0312C202.717 22.4271 202.081 22.7396 201.331 22.9687C200.602 23.1979 199.821 23.3125 198.988 23.3125C197.425 23.3125 196.144 22.9583 195.144 22.25C194.165 21.5208 193.675 20.3021 193.675 18.5937V10.5625H190.8V7.375H193.675V3.78125L197.956 2.59375V7.375H202.956ZM213.103 23.3125C210.644 23.3125 208.676 22.6042 207.197 21.1875C205.717 19.75 204.978 17.75 204.978 15.1875C204.978 13.4792 205.311 12.0208 205.978 10.8125C206.644 9.60417 207.572 8.67708 208.759 8.03125C209.967 7.38542 211.342 7.0625 212.884 7.0625C214.467 7.0625 215.811 7.38542 216.915 8.03125C218.019 8.65625 218.863 9.52083 219.447 10.625C220.03 11.7083 220.322 12.9479 220.322 14.3437C220.322 14.7604 220.311 15.1562 220.29 15.5312C220.269 15.9062 220.238 16.2396 220.197 16.5312H209.165C209.332 17.7396 209.749 18.6458 210.415 19.25C211.103 19.8333 211.988 20.125 213.072 20.125C213.988 20.125 214.728 19.9479 215.29 19.5937C215.853 19.2396 216.29 18.75 216.603 18.125L220.009 19.4375C219.509 20.6667 218.634 21.625 217.384 22.3125C216.134 22.9792 214.707 23.3125 213.103 23.3125ZM212.853 10.2187C210.832 10.2187 209.613 11.3333 209.197 13.5625H216.228C216.103 12.4792 215.749 11.6562 215.165 11.0937C214.603 10.5104 213.832 10.2187 212.853 10.2187ZM230.2 23.3125C228.616 23.3125 227.168 23.0313 225.856 22.4687C224.564 21.9062 223.512 21.1146 222.7 20.0937L225.168 17.5937C225.668 18.3437 226.335 18.9583 227.168 19.4375C228.002 19.9167 228.991 20.1562 230.137 20.1562C230.95 20.1562 231.596 20.0417 232.075 19.8125C232.575 19.5625 232.825 19.1771 232.825 18.6562C232.825 18.3229 232.71 18.0417 232.481 17.8125C232.252 17.5625 231.793 17.3646 231.106 17.2187L228.356 16.6562C226.543 16.2812 225.252 15.7187 224.481 14.9688C223.731 14.1979 223.356 13.2083 223.356 12C223.356 11.1458 223.606 10.3437 224.106 9.59375C224.627 8.84375 225.398 8.23958 226.418 7.78125C227.439 7.30208 228.71 7.0625 230.231 7.0625C233.398 7.0625 235.668 8.03125 237.043 9.96875L234.481 12.4687C234.023 11.7396 233.418 11.1875 232.668 10.8125C231.939 10.4167 231.168 10.2187 230.356 10.2187C228.523 10.2187 227.606 10.7292 227.606 11.75C227.606 12.0833 227.752 12.375 228.043 12.625C228.335 12.8542 228.866 13.0521 229.637 13.2187L232.825 13.875C234.366 14.1875 235.471 14.7187 236.137 15.4687C236.804 16.1979 237.137 17.0833 237.137 18.125C237.137 19.625 236.533 20.8646 235.325 21.8437C234.137 22.8229 232.429 23.3125 230.2 23.3125ZM251.083 7.375V10.5625H246.083V17.9062C246.083 18.6562 246.27 19.2083 246.645 19.5625C247.041 19.8958 247.572 20.0625 248.239 20.0625C248.78 20.0625 249.239 19.9896 249.614 19.8437C250.01 19.6771 250.364 19.4583 250.676 19.1875L251.364 22.0312C250.843 22.4271 250.208 22.7396 249.458 22.9687C248.728 23.1979 247.947 23.3125 247.114 23.3125C245.551 23.3125 244.27 22.9583 243.27 22.25C242.291 21.5208 241.801 20.3021 241.801 18.5937V10.5625H238.926V7.375H241.801V3.78125L246.083 2.59375V7.375H251.083ZM156.699 62V41.375H172.168V44.8437H161.012V49.9687H169.793V53.2812H161.012V58.5312H172.605V62H156.699ZM185.677 46.375H190.114L184.177 62H179.239L173.302 46.375H177.896L181.739 58.7187L185.677 46.375ZM199.553 62.3125C197.095 62.3125 195.126 61.6042 193.647 60.1875C192.168 58.75 191.428 56.75 191.428 54.1875C191.428 52.4792 191.761 51.0208 192.428 49.8125C193.095 48.6042 194.022 47.6771 195.209 47.0312C196.418 46.3854 197.793 46.0625 199.334 46.0625C200.918 46.0625 202.261 46.3854 203.365 47.0312C204.47 47.6562 205.313 48.5208 205.897 49.625C206.48 50.7083 206.772 51.9479 206.772 53.3437C206.772 53.7604 206.761 54.1562 206.74 54.5312C206.72 54.9062 206.688 55.2396 206.647 55.5312H195.615C195.782 56.7396 196.199 57.6458 196.865 58.25C197.553 58.8333 198.438 59.125 199.522 59.125C200.438 59.125 201.178 58.9479 201.74 58.5937C202.303 58.2396 202.74 57.75 203.053 57.125L206.459 58.4375C205.959 59.6667 205.084 60.625 203.834 61.3125C202.584 61.9792 201.157 62.3125 199.553 62.3125ZM199.303 49.2187C197.282 49.2187 196.063 50.3333 195.647 52.5625H202.678C202.553 51.4792 202.199 50.6562 201.615 50.0937C201.053 49.5104 200.282 49.2187 199.303 49.2187ZM210.4 62V46.375H214.119L214.4 49.4375C214.796 48.375 215.389 47.5521 216.181 46.9687C216.994 46.3646 218.014 46.0625 219.244 46.0625C219.973 46.0625 220.535 46.1771 220.931 46.4062L220.431 50C220.223 49.9375 219.962 49.8854 219.65 49.8437C219.358 49.7812 218.973 49.75 218.494 49.75C217.848 49.75 217.233 49.9062 216.65 50.2187C216.087 50.5104 215.619 50.9687 215.244 51.5937C214.869 52.1979 214.681 52.9687 214.681 53.9062V62H210.4ZM238.271 46.375L231.958 62.9688C231.458 64.3854 230.896 65.5104 230.271 66.3438C229.667 67.1979 228.958 67.8021 228.146 68.1563C227.354 68.5313 226.406 68.7188 225.302 68.7188C224.49 68.7188 223.74 68.625 223.052 68.4375C222.386 68.25 221.802 67.9896 221.302 67.6563L222.208 64.5625C222.938 65.1458 223.854 65.4375 224.958 65.4375C225.563 65.4375 226.073 65.3125 226.49 65.0625C226.906 64.8125 227.261 64.3125 227.552 63.5625L228.083 62.2188L226.365 58.1562L221.583 46.375H226.333L229.302 55.75L230.115 58.875L231.083 55.5625L233.927 46.375H238.271ZM247.585 46.0625C249.147 46.0625 250.533 46.3854 251.741 47.0312C252.949 47.6771 253.887 48.6042 254.553 49.8125C255.241 51.0208 255.585 52.4792 255.585 54.1875C255.585 55.8958 255.241 57.3542 254.553 58.5625C253.887 59.7708 252.949 60.6979 251.741 61.3437C250.533 61.9896 249.147 62.3125 247.585 62.3125C246.001 62.3125 244.606 61.9896 243.397 61.3437C242.21 60.6979 241.272 59.7708 240.585 58.5625C239.918 57.3542 239.585 55.8958 239.585 54.1875C239.585 52.4792 239.918 51.0208 240.585 49.8125C241.272 48.6042 242.21 47.6771 243.397 47.0312C244.606 46.3854 246.001 46.0625 247.585 46.0625ZM247.585 49.25C246.418 49.25 245.501 49.6667 244.835 50.5C244.189 51.3125 243.866 52.5417 243.866 54.1875C243.866 55.8333 244.189 57.0729 244.835 57.9062C245.501 58.7187 246.418 59.125 247.585 59.125C248.731 59.125 249.626 58.7187 250.272 57.9062C250.939 57.0729 251.272 55.8333 251.272 54.1875C251.272 52.5417 250.939 51.3125 250.272 50.5C249.626 49.6667 248.731 49.25 247.585 49.25ZM259.167 62V46.375H263.011L263.167 49.3125C263.646 48.2292 264.344 47.4167 265.261 46.875C266.198 46.3333 267.271 46.0625 268.479 46.0625C270.104 46.0625 271.448 46.5417 272.511 47.5C273.573 48.4375 274.104 49.8542 274.104 51.75V62H269.823V52.9687C269.823 51.6354 269.552 50.7187 269.011 50.2187C268.49 49.6979 267.823 49.4375 267.011 49.4375C266.427 49.4375 265.854 49.5833 265.292 49.875C264.75 50.1458 264.302 50.5937 263.948 51.2187C263.615 51.8437 263.448 52.6771 263.448 53.7187V62H259.167ZM285.765 62.3125C283.307 62.3125 281.338 61.6042 279.859 60.1875C278.38 58.75 277.64 56.75 277.64 54.1875C277.64 52.4792 277.973 51.0208 278.64 49.8125C279.307 48.6042 280.234 47.6771 281.421 47.0312C282.63 46.3854 284.005 46.0625 285.546 46.0625C287.13 46.0625 288.473 46.3854 289.578 47.0312C290.682 47.6562 291.526 48.5208 292.109 49.625C292.692 50.7083 292.984 51.9479 292.984 53.3437C292.984 53.7604 292.973 54.1562 292.953 54.5312C292.932 54.9062 292.901 55.2396 292.859 55.5312H281.828C281.994 56.7396 282.411 57.6458 283.078 58.25C283.765 58.8333 284.651 59.125 285.734 59.125C286.651 59.125 287.39 58.9479 287.953 58.5937C288.515 58.2396 288.953 57.75 289.265 57.125L292.671 58.4375C292.171 59.6667 291.296 60.625 290.046 61.3125C288.796 61.9792 287.369 62.3125 285.765 62.3125ZM285.515 49.2187C283.494 49.2187 282.276 50.3333 281.859 52.5625H288.89C288.765 51.4792 288.411 50.6562 287.828 50.0937C287.265 49.5104 286.494 49.2187 285.515 49.2187ZM323.82 41.375V53.875C323.82 56.6875 323.07 58.8021 321.57 60.2187C320.07 61.6146 317.883 62.3125 315.008 62.3125C312.133 62.3125 309.945 61.6146 308.445 60.2187C306.945 58.8021 306.195 56.6875 306.195 53.875V41.375H310.508V53.6875C310.508 55.4167 310.872 56.6979 311.602 57.5312C312.352 58.3646 313.487 58.7812 315.008 58.7812C316.529 58.7812 317.654 58.3646 318.383 57.5312C319.112 56.6979 319.477 55.4167 319.477 53.6875V41.375H323.82ZM328.259 68.5625V46.375H332.103L332.29 49.4375C332.728 48.4375 333.394 47.625 334.29 47C335.207 46.375 336.28 46.0625 337.509 46.0625C338.78 46.0625 339.915 46.3854 340.915 47.0312C341.915 47.6771 342.696 48.6042 343.259 49.8125C343.842 51 344.134 52.4479 344.134 54.1562C344.134 55.8646 343.842 57.3333 343.259 58.5625C342.675 59.7708 341.873 60.6979 340.853 61.3437C339.853 61.9896 338.707 62.3125 337.415 62.3125C336.269 62.3125 335.28 62.0417 334.446 61.5C333.634 60.9583 332.998 60.2396 332.54 59.3437V68.5625H328.259ZM336.165 59.0312C337.311 59.0312 338.207 58.625 338.853 57.8125C339.519 56.9792 339.853 55.7708 339.853 54.1875C339.853 52.6042 339.53 51.4062 338.884 50.5937C338.259 49.7604 337.373 49.3437 336.228 49.3437C335.123 49.3437 334.228 49.7708 333.54 50.625C332.873 51.4792 332.54 52.6667 332.54 54.1875C332.54 55.6875 332.863 56.875 333.509 57.75C334.175 58.6042 335.061 59.0312 336.165 59.0312ZM353.757 62.3125C352.466 62.3125 351.309 61.9896 350.289 61.3437C349.289 60.6979 348.497 59.7812 347.914 58.5937C347.351 57.3854 347.07 55.9271 347.07 54.2187C347.07 52.4896 347.372 51.0208 347.976 49.8125C348.58 48.5833 349.393 47.6562 350.414 47.0312C351.455 46.3854 352.622 46.0625 353.914 46.0625C355.039 46.0625 356.007 46.3333 356.82 46.875C357.632 47.4167 358.247 48.1354 358.664 49.0312V39.5312H362.945V62H359.101L358.914 58.9687C358.476 60.0104 357.799 60.8333 356.882 61.4375C355.966 62.0208 354.924 62.3125 353.757 62.3125ZM355.007 59.0312C356.111 59.0312 356.997 58.6042 357.664 57.75C358.33 56.875 358.664 55.6458 358.664 54.0625C358.664 52.5625 358.33 51.4062 357.664 50.5937C357.018 49.7604 356.153 49.3437 355.07 49.3437C353.903 49.3437 352.986 49.7604 352.32 50.5937C351.674 51.4062 351.351 52.6042 351.351 54.1875C351.351 55.7708 351.674 56.9792 352.32 57.8125C352.966 58.625 353.861 59.0312 355.007 59.0312ZM376.35 52.0312C376.35 51.1354 376.089 50.4375 375.568 49.9375C375.068 49.4375 374.402 49.1875 373.568 49.1875C372.798 49.1875 372.12 49.3854 371.537 49.7812C370.954 50.1771 370.527 50.8333 370.256 51.75L366.6 50.625C366.954 49.25 367.725 48.1458 368.912 47.3125C370.12 46.4792 371.735 46.0625 373.756 46.0625C375.798 46.0625 377.443 46.5521 378.693 47.5312C379.964 48.4896 380.6 49.9271 380.6 51.8437V58.1875C380.6 58.9792 380.975 59.375 381.725 59.375C382.079 59.375 382.412 59.3229 382.725 59.2187L382.475 61.875C381.933 62.1458 381.256 62.2813 380.443 62.2813C379.548 62.2813 378.766 62.0938 378.1 61.7187C377.454 61.3437 377.016 60.7812 376.787 60.0312C376.287 60.7812 375.568 61.3542 374.631 61.75C373.714 62.125 372.766 62.3125 371.787 62.3125C370.204 62.3125 368.943 61.9583 368.006 61.25C367.089 60.5208 366.631 59.4687 366.631 58.0938C366.631 56.9271 367.006 55.9792 367.756 55.25C368.506 54.5 369.579 53.9896 370.975 53.7187L376.35 52.625V52.0312ZM370.912 57.6875C370.912 58.2083 371.1 58.6042 371.475 58.875C371.87 59.1458 372.339 59.2812 372.881 59.2812C373.485 59.2812 374.048 59.1875 374.568 59C375.089 58.8125 375.516 58.5 375.85 58.0625C376.183 57.6042 376.35 57 376.35 56.25V55.2812L373.068 55.9375C372.36 56.0833 371.818 56.2812 371.443 56.5312C371.089 56.7604 370.912 57.1458 370.912 57.6875ZM395.309 46.375V49.5625H390.309V56.9062C390.309 57.6562 390.496 58.2083 390.871 58.5625C391.267 58.8958 391.798 59.0625 392.465 59.0625C393.007 59.0625 393.465 58.9896 393.84 58.8437C394.236 58.6771 394.59 58.4583 394.902 58.1875L395.59 61.0312C395.069 61.4271 394.434 61.7396 393.684 61.9687C392.954 62.1979 392.173 62.3125 391.34 62.3125C389.777 62.3125 388.496 61.9583 387.496 61.25C386.517 60.5208 386.027 59.3021 386.027 57.5937V49.5625H383.152V46.375H386.027V42.7812L390.309 41.5937V46.375H395.309ZM405.455 62.3125C402.997 62.3125 401.028 61.6042 399.549 60.1875C398.07 58.75 397.33 56.75 397.33 54.1875C397.33 52.4792 397.663 51.0208 398.33 49.8125C398.997 48.6042 399.924 47.6771 401.111 47.0312C402.32 46.3854 403.695 46.0625 405.236 46.0625C406.82 46.0625 408.163 46.3854 409.268 47.0312C410.372 47.6562 411.215 48.5208 411.799 49.625C412.382 50.7083 412.674 51.9479 412.674 53.3437C412.674 53.7604 412.663 54.1562 412.643 54.5312C412.622 54.9062 412.59 55.2396 412.549 55.5312H401.518C401.684 56.7396 402.101 57.6458 402.768 58.25C403.455 58.8333 404.34 59.125 405.424 59.125C406.34 59.125 407.08 58.9479 407.643 58.5937C408.205 58.2396 408.643 57.75 408.955 57.125L412.361 58.4375C411.861 59.6667 410.986 60.625 409.736 61.3125C408.486 61.9792 407.059 62.3125 405.455 62.3125ZM405.205 49.2187C403.184 49.2187 401.965 50.3333 401.549 52.5625H408.58C408.455 51.4792 408.101 50.6562 407.518 50.0937C406.955 49.5104 406.184 49.2187 405.205 49.2187ZM422.208 62.3125C420.917 62.3125 419.76 61.9896 418.74 61.3437C417.74 60.6979 416.948 59.7812 416.365 58.5937C415.802 57.3854 415.521 55.9271 415.521 54.2187C415.521 52.4896 415.823 51.0208 416.427 49.8125C417.031 48.5833 417.844 47.6562 418.865 47.0312C419.906 46.3854 421.073 46.0625 422.365 46.0625C423.49 46.0625 424.458 46.3333 425.271 46.875C426.083 47.4167 426.698 48.1354 427.115 49.0312V39.5312H431.396V62H427.552L427.365 58.9687C426.927 60.0104 426.25 60.8333 425.333 61.4375C424.417 62.0208 423.375 62.3125 422.208 62.3125ZM423.458 59.0312C424.562 59.0312 425.448 58.6042 426.115 57.75C426.781 56.875 427.115 55.6458 427.115 54.0625C427.115 52.5625 426.781 51.4062 426.115 50.5937C425.469 49.7604 424.604 49.3437 423.521 49.3437C422.354 49.3437 421.437 49.7604 420.771 50.5937C420.125 51.4062 419.802 52.6042 419.802 54.1875C419.802 55.7708 420.125 56.9792 420.771 57.8125C421.417 58.625 422.312 59.0312 423.458 59.0312Z" fill="#373737"/>
<path d="M263.969 23V2.375H273C275.5 2.375 277.344 2.86458 278.531 3.84375C279.719 4.82292 280.312 6.20833 280.312 8C280.312 9.10417 279.979 10.0833 279.312 10.9375C278.646 11.7917 277.666 12.3333 276.375 12.5625V12.5937C277.812 12.8021 278.916 13.3437 279.687 14.2187C280.458 15.0937 280.844 16.1354 280.844 17.3437C280.844 19.1146 280.198 20.5 278.906 21.5C277.635 22.5 275.771 23 273.312 23H263.969ZM268.156 11.0312H272.437C274.708 11.0312 275.844 10.1458 275.844 8.375C275.844 6.60417 274.708 5.71875 272.437 5.71875H268.156V11.0312ZM268.156 19.75H272.937C274.083 19.75 274.937 19.5208 275.5 19.0625C276.083 18.5833 276.375 17.9062 276.375 17.0312C276.375 16.1771 276.083 15.5208 275.5 15.0625C274.937 14.5833 274.083 14.3437 272.937 14.3437H268.156V19.75ZM288.746 0.531249V18.1875C288.746 18.9167 288.871 19.4271 289.121 19.7187C289.371 20.0104 289.788 20.1562 290.371 20.1562C290.725 20.1562 291.017 20.1354 291.246 20.0937C291.475 20.0521 291.767 19.9687 292.121 19.8437L291.746 22.6562C291.392 22.8646 290.944 23.0208 290.402 23.125C289.881 23.25 289.36 23.3125 288.84 23.3125C287.319 23.3125 286.204 22.9479 285.496 22.2187C284.808 21.4687 284.465 20.2812 284.465 18.6562V0.531249H288.746ZM301.631 7.0625C303.194 7.0625 304.579 7.38542 305.788 8.03125C306.996 8.67708 307.933 9.60417 308.6 10.8125C309.288 12.0208 309.631 13.4792 309.631 15.1875C309.631 16.8958 309.288 18.3542 308.6 19.5625C307.933 20.7708 306.996 21.6979 305.788 22.3437C304.579 22.9896 303.194 23.3125 301.631 23.3125C300.048 23.3125 298.652 22.9896 297.444 22.3437C296.256 21.6979 295.319 20.7708 294.631 19.5625C293.965 18.3542 293.631 16.8958 293.631 15.1875C293.631 13.4792 293.965 12.0208 294.631 10.8125C295.319 9.60417 296.256 8.67708 297.444 8.03125C298.652 7.38542 300.048 7.0625 301.631 7.0625ZM301.631 10.25C300.465 10.25 299.548 10.6667 298.881 11.5C298.236 12.3125 297.913 13.5417 297.913 15.1875C297.913 16.8333 298.236 18.0729 298.881 18.9062C299.548 19.7187 300.465 20.125 301.631 20.125C302.777 20.125 303.673 19.7187 304.319 18.9062C304.986 18.0729 305.319 16.8333 305.319 15.1875C305.319 13.5417 304.986 12.3125 304.319 11.5C303.673 10.6667 302.777 10.25 301.631 10.25ZM322.373 20.0625C324.06 20.0625 325.362 20.4271 326.279 21.1562C327.196 21.8854 327.654 22.9063 327.654 24.2188C327.654 25.4271 327.31 26.4375 326.623 27.25C325.935 28.0625 324.967 28.6771 323.717 29.0938C322.487 29.5104 321.06 29.7188 319.435 29.7188C316.748 29.7188 314.779 29.3438 313.529 28.5938C312.3 27.8438 311.685 26.8646 311.685 25.6563C311.685 24.9479 311.904 24.3229 312.342 23.7813C312.8 23.2604 313.529 22.8958 314.529 22.6875C313.133 22.1667 312.435 21.1875 312.435 19.75C312.435 19.0417 312.644 18.4167 313.06 17.875C313.498 17.3333 314.092 16.9271 314.842 16.6562C313.196 15.7396 312.373 14.3125 312.373 12.375C312.373 10.7292 313.008 9.4375 314.279 8.5C315.55 7.54167 317.289 7.0625 319.498 7.0625C320.748 7.0625 321.873 7.22917 322.873 7.5625C323.019 6.47917 323.456 5.5625 324.185 4.8125C324.914 4.04167 325.904 3.65625 327.154 3.65625C327.196 3.65625 327.248 3.65625 327.31 3.65625C327.373 3.65625 327.435 3.65625 327.498 3.65625L327.998 6.71875C327.831 6.69792 327.644 6.6875 327.435 6.6875C326.644 6.6875 326.008 6.84375 325.529 7.15625C325.05 7.44792 324.748 7.875 324.623 8.4375C325.956 9.375 326.623 10.6875 326.623 12.375C326.623 14 325.977 15.2917 324.685 16.25C323.414 17.1875 321.685 17.6562 319.498 17.6562C318.539 17.6562 317.664 17.5729 316.873 17.4062C316.394 17.5312 316.05 17.7187 315.842 17.9687C315.654 18.1979 315.56 18.4583 315.56 18.75C315.56 19.625 316.227 20.0625 317.56 20.0625H322.373ZM319.498 9.75C318.664 9.75 317.977 9.97917 317.435 10.4375C316.894 10.8958 316.623 11.5312 316.623 12.3437C316.623 13.1562 316.894 13.8021 317.435 14.2812C317.977 14.7396 318.664 14.9688 319.498 14.9688C320.31 14.9688 320.987 14.7396 321.529 14.2812C322.071 13.8021 322.342 13.1562 322.342 12.3437C322.342 11.5312 322.071 10.8958 321.529 10.4375C320.987 9.97917 320.31 9.75 319.498 9.75ZM319.467 26.7813C321.071 26.7813 322.258 26.5833 323.029 26.1875C323.821 25.8125 324.217 25.3542 324.217 24.8125C324.217 24.4167 324.06 24.0938 323.748 23.8438C323.435 23.6146 322.873 23.5 322.06 23.5H316.779C316.279 23.5 315.862 23.625 315.529 23.875C315.217 24.1458 315.06 24.4896 315.06 24.9063C315.06 25.4896 315.446 25.9479 316.217 26.2813C317.008 26.6146 318.092 26.7813 319.467 26.7813ZM336.492 23.3125C334.909 23.3125 333.461 23.0313 332.149 22.4687C330.857 21.9062 329.805 21.1146 328.992 20.0937L331.461 17.5937C331.961 18.3437 332.628 18.9583 333.461 19.4375C334.295 19.9167 335.284 20.1562 336.43 20.1562C337.242 20.1562 337.888 20.0417 338.367 19.8125C338.867 19.5625 339.117 19.1771 339.117 18.6562C339.117 18.3229 339.003 18.0417 338.774 17.8125C338.545 17.5625 338.086 17.3646 337.399 17.2187L334.649 16.6562C332.836 16.2812 331.545 15.7187 330.774 14.9688C330.024 14.1979 329.649 13.2083 329.649 12C329.649 11.1458 329.899 10.3437 330.399 9.59375C330.92 8.84375 331.69 8.23958 332.711 7.78125C333.732 7.30208 335.003 7.0625 336.524 7.0625C339.69 7.0625 341.961 8.03125 343.336 9.96875L340.774 12.4687C340.315 11.7396 339.711 11.1875 338.961 10.8125C338.232 10.4167 337.461 10.2187 336.649 10.2187C334.815 10.2187 333.899 10.7292 333.899 11.75C333.899 12.0833 334.045 12.375 334.336 12.625C334.628 12.8542 335.159 13.0521 335.93 13.2187L339.117 13.875C340.659 14.1875 341.763 14.7187 342.43 15.4687C343.097 16.1979 343.43 17.0833 343.43 18.125C343.43 19.625 342.826 20.8646 341.617 21.8437C340.43 22.8229 338.722 23.3125 336.492 23.3125ZM6.94946 62L0.949463 41.375H5.54321L9.60571 58.4062L13.7307 41.375H17.8557L22.0432 58.4062L26.0745 41.375H30.4807L24.4807 62H19.637L16.762 50.75L15.7932 45.875H15.7307L14.762 50.75L11.9182 62H6.94946ZM35.5237 44.125C33.7528 44.125 32.8674 43.3646 32.8674 41.8437C32.8674 40.3021 33.7528 39.5312 35.5237 39.5312C37.2945 39.5312 38.1799 40.3021 38.1799 41.8437C38.1799 43.3646 37.2945 44.125 35.5237 44.125ZM37.6487 46.375V62H33.3674V46.375H37.6487ZM46.4058 39.5312V57.1875C46.4058 57.9167 46.5308 58.4271 46.7808 58.7187C47.0308 59.0104 47.4474 59.1562 48.0308 59.1562C48.3849 59.1562 48.6766 59.1354 48.9058 59.0937C49.1349 59.0521 49.4266 58.9687 49.7808 58.8437L49.4058 61.6562C49.0516 61.8646 48.6037 62.0208 48.062 62.125C47.5412 62.25 47.0203 62.3125 46.4995 62.3125C44.9787 62.3125 43.8641 61.9479 43.1558 61.2187C42.4683 60.4687 42.1245 59.2812 42.1245 57.6562V39.5312H46.4058ZM56.385 39.5312V57.1875C56.385 57.9167 56.51 58.4271 56.76 58.7187C57.01 59.0104 57.4267 59.1562 58.01 59.1562C58.3642 59.1562 58.6558 59.1354 58.885 59.0937C59.1142 59.0521 59.4058 58.9687 59.76 58.8437L59.385 61.6562C59.0308 61.8646 58.5829 62.0208 58.0413 62.125C57.5204 62.25 56.9996 62.3125 56.4788 62.3125C54.9579 62.3125 53.8433 61.9479 53.135 61.2187C52.4475 60.4687 52.1038 59.2812 52.1038 57.6562V39.5312H56.385ZM75.7456 41.375V51.1562L84.2144 41.375H89.2144L81.8081 49.7812L89.4644 62H84.5269L78.6831 52.5625L75.7456 55.9062V62H71.4331V41.375H75.7456ZM98.1736 62.3125C95.7153 62.3125 93.7465 61.6042 92.2673 60.1875C90.7882 58.75 90.0486 56.75 90.0486 54.1875C90.0486 52.4792 90.3819 51.0208 91.0486 49.8125C91.7153 48.6042 92.6423 47.6771 93.8298 47.0312C95.0382 46.3854 96.4132 46.0625 97.9548 46.0625C99.5382 46.0625 100.882 46.3854 101.986 47.0312C103.09 47.6562 103.934 48.5208 104.517 49.625C105.101 50.7083 105.392 51.9479 105.392 53.3437C105.392 53.7604 105.382 54.1562 105.361 54.5312C105.34 54.9062 105.309 55.2396 105.267 55.5312H94.2361C94.4028 56.7396 94.8194 57.6458 95.4861 58.25C96.1736 58.8333 97.059 59.125 98.1423 59.125C99.059 59.125 99.7986 58.9479 100.361 58.5937C100.924 58.2396 101.361 57.75 101.674 57.125L105.08 58.4375C104.58 59.6667 103.705 60.625 102.455 61.3125C101.205 61.9792 99.7778 62.3125 98.1736 62.3125ZM97.9236 49.2187C95.9028 49.2187 94.684 50.3333 94.2673 52.5625H101.299C101.174 51.4792 100.819 50.6562 100.236 50.0937C99.6736 49.5104 98.9028 49.2187 97.9236 49.2187ZM116.271 62.3125C113.812 62.3125 111.843 61.6042 110.364 60.1875C108.885 58.75 108.146 56.75 108.146 54.1875C108.146 52.4792 108.479 51.0208 109.146 49.8125C109.812 48.6042 110.739 47.6771 111.927 47.0312C113.135 46.3854 114.51 46.0625 116.052 46.0625C117.635 46.0625 118.979 46.3854 120.083 47.0312C121.187 47.6562 122.031 48.5208 122.614 49.625C123.198 50.7083 123.489 51.9479 123.489 53.3437C123.489 53.7604 123.479 54.1562 123.458 54.5312C123.437 54.9062 123.406 55.2396 123.364 55.5312H112.333C112.5 56.7396 112.916 57.6458 113.583 58.25C114.271 58.8333 115.156 59.125 116.239 59.125C117.156 59.125 117.896 58.9479 118.458 58.5937C119.021 58.2396 119.458 57.75 119.771 57.125L123.177 58.4375C122.677 59.6667 121.802 60.625 120.552 61.3125C119.302 61.9792 117.875 62.3125 116.271 62.3125ZM116.021 49.2187C114 49.2187 112.781 50.3333 112.364 52.5625H119.396C119.271 51.4792 118.916 50.6562 118.333 50.0937C117.771 49.5104 117 49.2187 116.021 49.2187ZM127.117 68.5625V46.375H130.961L131.149 49.4375C131.586 48.4375 132.253 47.625 133.149 47C134.065 46.375 135.138 46.0625 136.367 46.0625C137.638 46.0625 138.774 46.3854 139.774 47.0312C140.774 47.6771 141.555 48.6042 142.117 49.8125C142.701 51 142.992 52.4479 142.992 54.1562C142.992 55.8646 142.701 57.3333 142.117 58.5625C141.534 59.7708 140.732 60.6979 139.711 61.3437C138.711 61.9896 137.565 62.3125 136.274 62.3125C135.128 62.3125 134.138 62.0417 133.305 61.5C132.492 60.9583 131.857 60.2396 131.399 59.3437V68.5625H127.117ZM135.024 59.0312C136.17 59.0312 137.065 58.625 137.711 57.8125C138.378 56.9792 138.711 55.7708 138.711 54.1875C138.711 52.6042 138.388 51.4062 137.742 50.5937C137.117 49.7604 136.232 49.3437 135.086 49.3437C133.982 49.3437 133.086 49.7708 132.399 50.625C131.732 51.4792 131.399 52.6667 131.399 54.1875C131.399 55.6875 131.722 56.875 132.367 57.75C133.034 58.6042 133.92 59.0312 135.024 59.0312Z" fill="#FF5300"/>
</svg>
