<svg width="290" height="270" viewBox="0 0 290 270" fill="none" xmlns="http://www.w3.org/2000/svg">
<g filter="url(#filter0_d_141_590)">
<rect x="10" y="9" width="270" height="250" fill="white"/>
</g>
<path d="M100.168 129V110.76C100.168 109.928 100.168 109.08 100.168 108.216C100.2 107.32 100.216 106.408 100.216 105.48C99.16 106.472 97.976 107.32 96.664 108.024C95.384 108.728 94.056 109.208 92.68 109.464L91.912 102.648C93 102.52 94.184 102.184 95.464 101.64C96.776 101.096 97.992 100.44 99.112 99.672C100.232 98.872 101.048 98.088 101.56 97.32H108.136V129H100.168ZM125.4 129.48C122.648 129.48 120.248 128.952 118.2 127.896C116.184 126.808 114.488 125.048 113.112 122.616L120.36 119.016C120.712 120.296 121.272 121.32 122.04 122.088C122.84 122.856 124.024 123.24 125.592 123.24C127.064 123.24 128.232 122.856 129.096 122.088C129.96 121.288 130.392 120.136 130.392 118.632C130.392 115.72 128.792 114.264 125.592 114.264C123.384 114.264 121.688 114.888 120.504 116.136L114.264 114.984L116.28 97.32H136.248V103.704H122.28L121.464 110.04L121.32 110.808H121.368C122.008 110.072 122.904 109.512 124.056 109.128C125.208 108.744 126.488 108.552 127.896 108.552C129.976 108.552 131.752 108.968 133.224 109.8C134.728 110.632 135.864 111.768 136.632 113.208C137.432 114.648 137.832 116.296 137.832 118.152C137.832 120.744 137.256 122.888 136.104 124.584C134.952 126.248 133.432 127.48 131.544 128.28C129.656 129.08 127.608 129.48 125.4 129.48ZM156.072 96.84C158.6 96.84 160.84 97.368 162.792 98.424C164.776 99.48 166.2 101.288 167.064 103.848L160.344 107.016C160.024 105.896 159.464 105.016 158.664 104.376C157.896 103.704 156.856 103.368 155.544 103.368C153.688 103.368 152.216 104.2 151.128 105.864C150.04 107.496 149.496 109.768 149.496 112.68V113.448L149.592 113.736C149.944 112.776 150.536 111.96 151.368 111.288C152.2 110.616 153.144 110.12 154.2 109.8C155.256 109.448 156.312 109.272 157.368 109.272C159.32 109.272 161.064 109.656 162.6 110.424C164.136 111.192 165.336 112.296 166.2 113.736C167.096 115.176 167.544 116.888 167.544 118.872C167.544 121.048 167.048 122.936 166.056 124.536C165.064 126.104 163.672 127.32 161.88 128.184C160.12 129.048 158.04 129.48 155.64 129.48C152.92 129.48 150.52 128.888 148.44 127.704C146.392 126.488 144.792 124.696 143.64 122.328C142.52 119.928 141.96 116.968 141.96 113.448C141.96 109.704 142.584 106.6 143.832 104.136C145.08 101.672 146.76 99.848 148.872 98.664C151.016 97.448 153.416 96.84 156.072 96.84ZM155.496 114.84C154.216 114.84 153.144 115.224 152.28 115.992C151.416 116.728 150.984 117.752 150.984 119.064C150.984 120.312 151.416 121.336 152.28 122.136C153.176 122.904 154.248 123.288 155.496 123.288C156.936 123.288 158.04 122.92 158.808 122.184C159.608 121.448 160.008 120.408 160.008 119.064C160.008 117.72 159.608 116.68 158.808 115.944C158.04 115.208 156.936 114.84 155.496 114.84ZM195.778 110.472V116.328H186.994V126.12H180.514V116.328H171.682V110.472H180.514V100.728H186.994V110.472H195.778Z" fill="#373737"/>
<path d="M60.04 165.8C61.44 165.8 62.56 166.167 63.4 166.9C64.2533 167.633 64.68 168.647 64.68 169.94C64.68 171.22 64.2533 172.233 63.4 172.98C62.56 173.713 61.44 174.08 60.04 174.08H57.1V179H54.96V165.8H60.04ZM59.7 172.24C60.6467 172.24 61.34 172.047 61.78 171.66C62.2333 171.273 62.46 170.7 62.46 169.94C62.46 169.18 62.2333 168.607 61.78 168.22C61.34 167.82 60.6467 167.62 59.7 167.62H57.1V172.24H59.7ZM67.1991 179V169H69.0191L69.2191 170.8C69.7657 169.467 70.8124 168.8 72.3591 168.8C72.5591 168.8 72.7591 168.82 72.9591 168.86C73.1591 168.887 73.3257 168.933 73.4591 169L73.1591 170.88C73.0124 170.827 72.8457 170.787 72.6591 170.76C72.4857 170.72 72.2457 170.7 71.9391 170.7C71.5124 170.7 71.0991 170.813 70.6991 171.04C70.3124 171.253 69.9857 171.587 69.7191 172.04C69.4657 172.48 69.3391 173.033 69.3391 173.7V179H67.1991ZM79.5664 168.8C80.5397 168.8 81.3997 169.007 82.1464 169.42C82.8931 169.833 83.4731 170.433 83.8864 171.22C84.3131 171.993 84.5264 172.92 84.5264 174C84.5264 175.08 84.3131 176.013 83.8864 176.8C83.4731 177.573 82.8931 178.167 82.1464 178.58C81.3997 178.993 80.5397 179.2 79.5664 179.2C78.5931 179.2 77.7331 178.993 76.9864 178.58C76.2397 178.167 75.6531 177.573 75.2264 176.8C74.7997 176.013 74.5864 175.08 74.5864 174C74.5864 172.92 74.7997 171.993 75.2264 171.22C75.6531 170.433 76.2397 169.833 76.9864 169.42C77.7331 169.007 78.5931 168.8 79.5664 168.8ZM79.5664 170.48C78.6864 170.48 77.9931 170.787 77.4864 171.4C76.9797 172 76.7264 172.867 76.7264 174C76.7264 175.133 76.9797 176.007 77.4864 176.62C77.9931 177.22 78.6864 177.52 79.5664 177.52C80.4464 177.52 81.1331 177.22 81.6264 176.62C82.1331 176.007 82.3864 175.133 82.3864 174C82.3864 172.867 82.1331 172 81.6264 171.4C81.1331 170.787 80.4464 170.48 79.5664 170.48ZM88.2986 167.32C87.8319 167.32 87.4719 167.207 87.2186 166.98C86.9786 166.74 86.8586 166.407 86.8586 165.98C86.8586 165.553 86.9786 165.227 87.2186 165C87.4719 164.773 87.8319 164.66 88.2986 164.66C88.7519 164.66 89.0986 164.773 89.3386 165C89.5919 165.227 89.7186 165.553 89.7186 165.98C89.7186 166.407 89.5919 166.74 89.3386 166.98C89.0986 167.207 88.7519 167.32 88.2986 167.32ZM89.3586 169V179.88C89.3586 180.733 89.1986 181.407 88.8786 181.9C88.5719 182.407 88.1653 182.767 87.6586 182.98C87.1653 183.193 86.6386 183.3 86.0786 183.3C85.6253 183.3 85.2119 183.24 84.8386 183.12C84.4653 183 84.1519 182.84 83.8986 182.64L84.2586 180.92C84.4453 181.067 84.6653 181.193 84.9186 181.3C85.1719 181.407 85.4653 181.46 85.7986 181.46C86.2253 181.46 86.5653 181.327 86.8186 181.06C87.0853 180.807 87.2186 180.347 87.2186 179.68V169H89.3586ZM97.1069 179.2C96.1069 179.2 95.2269 178.993 94.4669 178.58C93.7202 178.167 93.1335 177.573 92.7069 176.8C92.2802 176.013 92.0669 175.08 92.0669 174C92.0669 172.92 92.2735 171.993 92.6869 171.22C93.1135 170.433 93.6935 169.833 94.4269 169.42C95.1735 169.007 96.0269 168.8 96.9869 168.8C97.9602 168.8 98.7869 169 99.4669 169.4C100.147 169.8 100.667 170.347 101.027 171.04C101.387 171.733 101.567 172.52 101.567 173.4C101.567 173.653 101.56 173.887 101.547 174.1C101.534 174.313 101.514 174.493 101.487 174.64H94.1669C94.2602 175.573 94.5602 176.287 95.0669 176.78C95.5869 177.26 96.2535 177.5 97.0669 177.5C97.7335 177.5 98.2735 177.373 98.6869 177.12C99.1002 176.867 99.4269 176.513 99.6669 176.06L101.367 176.86C101.02 177.593 100.467 178.167 99.7069 178.58C98.9602 178.993 98.0935 179.2 97.1069 179.2ZM96.9469 170.5C96.2135 170.5 95.6069 170.713 95.1269 171.14C94.6602 171.567 94.3602 172.187 94.2269 173H99.4869C99.4335 172.2 99.1802 171.587 98.7269 171.16C98.2735 170.72 97.6802 170.5 96.9469 170.5ZM108.589 168.8C109.776 168.8 110.723 169.06 111.429 169.58C112.136 170.1 112.643 170.773 112.949 171.6L110.929 172.4C110.756 171.787 110.476 171.32 110.089 171C109.716 170.667 109.223 170.5 108.609 170.5C107.716 170.5 107.016 170.807 106.509 171.42C106.016 172.02 105.769 172.887 105.769 174.02C105.769 175.14 106.023 176 106.529 176.6C107.036 177.2 107.729 177.5 108.609 177.5C109.303 177.5 109.849 177.333 110.249 177C110.663 176.667 110.936 176.187 111.069 175.56L113.009 176.22C112.729 177.127 112.216 177.853 111.469 178.4C110.723 178.933 109.783 179.2 108.649 179.2C107.663 179.2 106.789 178.993 106.029 178.58C105.283 178.167 104.696 177.573 104.269 176.8C103.843 176.013 103.629 175.08 103.629 174C103.629 172.92 103.843 171.993 104.269 171.22C104.696 170.433 105.283 169.833 106.029 169.42C106.776 169.007 107.629 168.8 108.589 168.8ZM121.86 169V170.68H118.42V176C118.42 176.48 118.553 176.84 118.82 177.08C119.087 177.307 119.433 177.42 119.86 177.42C120.233 177.42 120.547 177.367 120.8 177.26C121.067 177.14 121.313 176.98 121.54 176.78L122.02 178.34C121.713 178.607 121.333 178.82 120.88 178.98C120.44 179.127 119.947 179.2 119.4 179.2C118.52 179.2 117.78 178.987 117.18 178.56C116.58 178.12 116.28 177.387 116.28 176.36V170.68H114.36V169H116.28V166.66L118.42 166.06V169H121.86ZM141.72 175.5C141.32 176.7 140.634 177.62 139.66 178.26C138.687 178.887 137.554 179.2 136.26 179.2C134.98 179.2 133.874 178.927 132.94 178.38C132.02 177.833 131.307 177.053 130.8 176.04C130.294 175.013 130.04 173.8 130.04 172.4C130.04 171 130.294 169.793 130.8 168.78C131.307 167.753 132.02 166.967 132.94 166.42C133.874 165.873 134.974 165.6 136.24 165.6C137.547 165.6 138.654 165.873 139.56 166.42C140.467 166.967 141.12 167.773 141.52 168.84L139.5 169.74C138.994 168.22 137.947 167.46 136.36 167.46C135.12 167.46 134.127 167.893 133.38 168.76C132.647 169.613 132.28 170.827 132.28 172.4C132.28 173.96 132.634 175.173 133.34 176.04C134.047 176.907 135.034 177.34 136.3 177.34C137.114 177.34 137.814 177.133 138.4 176.72C139 176.293 139.427 175.66 139.68 174.82L141.72 175.5ZM148.492 168.8C149.466 168.8 150.326 169.007 151.072 169.42C151.819 169.833 152.399 170.433 152.812 171.22C153.239 171.993 153.452 172.92 153.452 174C153.452 175.08 153.239 176.013 152.812 176.8C152.399 177.573 151.819 178.167 151.072 178.58C150.326 178.993 149.466 179.2 148.492 179.2C147.519 179.2 146.659 178.993 145.912 178.58C145.166 178.167 144.579 177.573 144.152 176.8C143.726 176.013 143.512 175.08 143.512 174C143.512 172.92 143.726 171.993 144.152 171.22C144.579 170.433 145.166 169.833 145.912 169.42C146.659 169.007 147.519 168.8 148.492 168.8ZM148.492 170.48C147.612 170.48 146.919 170.787 146.412 171.4C145.906 172 145.652 172.867 145.652 174C145.652 175.133 145.906 176.007 146.412 176.62C146.919 177.22 147.612 177.52 148.492 177.52C149.372 177.52 150.059 177.22 150.552 176.62C151.059 176.007 151.312 175.133 151.312 174C151.312 172.867 151.059 172 150.552 171.4C150.059 170.787 149.372 170.48 148.492 170.48ZM156.144 179V169H158.044L158.144 170.68C158.491 170.04 158.951 169.567 159.524 169.26C160.111 168.953 160.731 168.8 161.384 168.8C162.104 168.8 162.764 168.967 163.364 169.3C163.978 169.62 164.438 170.107 164.744 170.76C164.958 170.32 165.251 169.953 165.624 169.66C165.998 169.367 166.411 169.153 166.864 169.02C167.318 168.873 167.764 168.8 168.204 168.8C168.844 168.8 169.444 168.933 170.004 169.2C170.564 169.467 171.018 169.873 171.364 170.42C171.711 170.967 171.884 171.667 171.884 172.52V179H169.744V172.86C169.744 172.033 169.544 171.447 169.144 171.1C168.758 170.74 168.271 170.56 167.684 170.56C166.991 170.56 166.384 170.82 165.864 171.34C165.344 171.847 165.084 172.587 165.084 173.56V179H162.944V172.86C162.944 172.033 162.744 171.447 162.344 171.1C161.958 170.74 161.471 170.56 160.884 170.56C160.484 170.56 160.084 170.667 159.684 170.88C159.284 171.093 158.951 171.427 158.684 171.88C158.418 172.333 158.284 172.933 158.284 173.68V179H156.144ZM175.129 183.2V169H177.029L177.129 170.88C177.422 170.253 177.869 169.753 178.469 169.38C179.069 168.993 179.762 168.8 180.549 168.8C181.362 168.8 182.095 169.007 182.749 169.42C183.415 169.833 183.942 170.427 184.329 171.2C184.729 171.973 184.929 172.9 184.929 173.98C184.929 175.073 184.729 176.013 184.329 176.8C183.929 177.573 183.389 178.167 182.709 178.58C182.042 178.993 181.302 179.2 180.489 179.2C179.742 179.2 179.095 179.033 178.549 178.7C178.002 178.353 177.575 177.907 177.269 177.36V183.2H175.129ZM180.029 177.46C180.882 177.46 181.555 177.153 182.049 176.54C182.542 175.927 182.789 175.08 182.789 174C182.789 172.92 182.549 172.073 182.069 171.46C181.589 170.833 180.922 170.52 180.069 170.52C179.229 170.52 178.549 170.833 178.029 171.46C177.522 172.087 177.269 172.933 177.269 174C177.269 175.053 177.515 175.893 178.009 176.52C178.515 177.147 179.189 177.46 180.029 177.46ZM189.748 164.5V176.2C189.748 176.693 189.834 177.033 190.008 177.22C190.181 177.407 190.468 177.5 190.868 177.5C191.108 177.5 191.308 177.487 191.468 177.46C191.641 177.42 191.854 177.353 192.108 177.26L191.868 178.86C191.401 179.087 190.848 179.2 190.208 179.2C189.314 179.2 188.654 178.973 188.228 178.52C187.814 178.067 187.608 177.353 187.608 176.38V164.5H189.748ZM198.298 179.2C197.298 179.2 196.418 178.993 195.658 178.58C194.912 178.167 194.325 177.573 193.898 176.8C193.472 176.013 193.258 175.08 193.258 174C193.258 172.92 193.465 171.993 193.878 171.22C194.305 170.433 194.885 169.833 195.618 169.42C196.365 169.007 197.218 168.8 198.178 168.8C199.152 168.8 199.978 169 200.658 169.4C201.338 169.8 201.858 170.347 202.218 171.04C202.578 171.733 202.758 172.52 202.758 173.4C202.758 173.653 202.752 173.887 202.738 174.1C202.725 174.313 202.705 174.493 202.678 174.64H195.358C195.452 175.573 195.752 176.287 196.258 176.78C196.778 177.26 197.445 177.5 198.258 177.5C198.925 177.5 199.465 177.373 199.878 177.12C200.292 176.867 200.618 176.513 200.858 176.06L202.558 176.86C202.212 177.593 201.658 178.167 200.898 178.58C200.152 178.993 199.285 179.2 198.298 179.2ZM198.138 170.5C197.405 170.5 196.798 170.713 196.318 171.14C195.852 171.567 195.552 172.187 195.418 173H200.678C200.625 172.2 200.372 171.587 199.918 171.16C199.465 170.72 198.872 170.5 198.138 170.5ZM211.586 169V170.68H208.146V176C208.146 176.48 208.28 176.84 208.546 177.08C208.813 177.307 209.16 177.42 209.586 177.42C209.96 177.42 210.273 177.367 210.526 177.26C210.793 177.14 211.04 176.98 211.266 176.78L211.746 178.34C211.44 178.607 211.06 178.82 210.606 178.98C210.166 179.127 209.673 179.2 209.126 179.2C208.246 179.2 207.506 178.987 206.906 178.56C206.306 178.12 206.006 177.387 206.006 176.36V170.68H204.086V169H206.006V166.66L208.146 166.06V169H211.586ZM218.103 179.2C217.103 179.2 216.223 178.993 215.463 178.58C214.716 178.167 214.13 177.573 213.703 176.8C213.276 176.013 213.063 175.08 213.063 174C213.063 172.92 213.27 171.993 213.683 171.22C214.11 170.433 214.69 169.833 215.423 169.42C216.17 169.007 217.023 168.8 217.983 168.8C218.956 168.8 219.783 169 220.463 169.4C221.143 169.8 221.663 170.347 222.023 171.04C222.383 171.733 222.563 172.52 222.563 173.4C222.563 173.653 222.556 173.887 222.543 174.1C222.53 174.313 222.51 174.493 222.483 174.64H215.163C215.256 175.573 215.556 176.287 216.063 176.78C216.583 177.26 217.25 177.5 218.063 177.5C218.73 177.5 219.27 177.373 219.683 177.12C220.096 176.867 220.423 176.513 220.663 176.06L222.363 176.86C222.016 177.593 221.463 178.167 220.703 178.58C219.956 178.993 219.09 179.2 218.103 179.2ZM217.943 170.5C217.21 170.5 216.603 170.713 216.123 171.14C215.656 171.567 215.356 172.187 215.223 173H220.483C220.43 172.2 220.176 171.587 219.723 171.16C219.27 170.72 218.676 170.5 217.943 170.5ZM229.105 179.2C228.279 179.2 227.532 178.993 226.865 178.58C226.199 178.167 225.665 177.573 225.265 176.8C224.879 176.027 224.685 175.1 224.685 174.02C224.685 172.9 224.892 171.953 225.305 171.18C225.719 170.407 226.272 169.82 226.965 169.42C227.659 169.007 228.419 168.8 229.245 168.8C229.965 168.8 230.592 168.973 231.125 169.32C231.672 169.653 232.079 170.1 232.345 170.66V164.5H234.485V179H232.585L232.465 177.1C232.199 177.767 231.759 178.287 231.145 178.66C230.532 179.02 229.852 179.2 229.105 179.2ZM229.565 177.48C230.405 177.48 231.079 177.16 231.585 176.52C232.092 175.88 232.345 175 232.345 173.88C232.345 172.84 232.092 172.027 231.585 171.44C231.092 170.84 230.445 170.54 229.645 170.54C228.752 170.54 228.059 170.847 227.565 171.46C227.072 172.073 226.825 172.92 226.825 174C226.825 175.08 227.065 175.933 227.545 176.56C228.025 177.173 228.699 177.48 229.565 177.48Z" fill="#7B7B7B"/>
<defs>
<filter id="filter0_d_141_590" x="0" y="0" width="290" height="270" filterUnits="userSpaceOnUse" color-interpolation-filters="sRGB">
<feFlood flood-opacity="0" result="BackgroundImageFix"/>
<feColorMatrix in="SourceAlpha" type="matrix" values="0 0 0 0 0 0 0 0 0 0 0 0 0 0 0 0 0 0 127 0" result="hardAlpha"/>
<feOffset dy="1"/>
<feGaussianBlur stdDeviation="5"/>
<feColorMatrix type="matrix" values="0 0 0 0 0 0 0 0 0 0 0 0 0 0 0 0 0 0 0.1 0"/>
<feBlend mode="normal" in2="BackgroundImageFix" result="effect1_dropShadow_141_590"/>
<feBlend mode="normal" in="SourceGraphic" in2="effect1_dropShadow_141_590" result="shape"/>
</filter>
</defs>
</svg>
