<svg width="290" height="270" viewBox="0 0 290 270" fill="none" xmlns="http://www.w3.org/2000/svg">
<g filter="url(#filter0_d_141_591)">
<rect x="10" y="9" width="270" height="250" fill="white"/>
</g>
<path d="M114.728 129.48C111.976 129.48 109.576 128.952 107.528 127.896C105.512 126.808 103.816 125.048 102.44 122.616L109.688 119.016C110.04 120.296 110.6 121.32 111.368 122.088C112.168 122.856 113.352 123.24 114.92 123.24C116.392 123.24 117.56 122.856 118.424 122.088C119.288 121.288 119.72 120.136 119.72 118.632C119.72 115.72 118.12 114.264 114.92 114.264C112.712 114.264 111.016 114.888 109.832 116.136L103.592 114.984L105.608 97.32H125.576V103.704H111.608L110.792 110.04L110.648 110.808H110.696C111.336 110.072 112.232 109.512 113.384 109.128C114.536 108.744 115.816 108.552 117.224 108.552C119.304 108.552 121.08 108.968 122.552 109.8C124.056 110.632 125.192 111.768 125.96 113.208C126.76 114.648 127.16 116.296 127.16 118.152C127.16 120.744 126.584 122.888 125.432 124.584C124.28 126.248 122.76 127.48 120.872 128.28C118.984 129.08 116.936 129.48 114.728 129.48ZM144.44 129.48C140.12 129.48 136.84 128.104 134.6 125.352C132.392 122.6 131.288 118.536 131.288 113.16C131.288 107.784 132.392 103.72 134.6 100.968C136.84 98.216 140.12 96.84 144.44 96.84C148.76 96.84 152.024 98.216 154.232 100.968C156.472 103.72 157.592 107.784 157.592 113.16C157.592 118.536 156.472 122.6 154.232 125.352C152.024 128.104 148.76 129.48 144.44 129.48ZM144.44 123.048C146.2 123.048 147.464 122.296 148.232 120.792C149.032 119.256 149.432 116.712 149.432 113.16C149.432 109.608 149.032 107.08 148.232 105.576C147.464 104.04 146.2 103.272 144.44 103.272C142.68 103.272 141.4 104.04 140.6 105.576C139.832 107.08 139.448 109.608 139.448 113.16C139.448 116.712 139.832 119.256 140.6 120.792C141.4 122.296 142.68 123.048 144.44 123.048ZM186.419 110.472V116.328H177.635V126.12H171.155V116.328H162.323V110.472H171.155V100.728H177.635V110.472H186.419Z" fill="#373737"/>
<path d="M87.78 165.8V167.64H83.26V179H81.12V167.64H76.6V165.8H87.78ZM92.3334 179.2C91.3334 179.2 90.4534 178.993 89.6934 178.58C88.9468 178.167 88.3601 177.573 87.9334 176.8C87.5068 176.013 87.2934 175.08 87.2934 174C87.2934 172.92 87.5001 171.993 87.9134 171.22C88.3401 170.433 88.9201 169.833 89.6534 169.42C90.4001 169.007 91.2534 168.8 92.2134 168.8C93.1868 168.8 94.0134 169 94.6934 169.4C95.3734 169.8 95.8934 170.347 96.2534 171.04C96.6134 171.733 96.7934 172.52 96.7934 173.4C96.7934 173.653 96.7868 173.887 96.7734 174.1C96.7601 174.313 96.7401 174.493 96.7134 174.64H89.3934C89.4868 175.573 89.7868 176.287 90.2934 176.78C90.8134 177.26 91.4801 177.5 92.2934 177.5C92.9601 177.5 93.5001 177.373 93.9134 177.12C94.3268 176.867 94.6534 176.513 94.8934 176.06L96.5934 176.86C96.2468 177.593 95.6934 178.167 94.9334 178.58C94.1868 178.993 93.3201 179.2 92.3334 179.2ZM92.1734 170.5C91.4401 170.5 90.8334 170.713 90.3534 171.14C89.8868 171.567 89.5868 172.187 89.4534 173H94.7134C94.6601 172.2 94.4068 171.587 93.9534 171.16C93.5001 170.72 92.9068 170.5 92.1734 170.5ZM105.276 172.58C105.276 171.913 105.089 171.4 104.716 171.04C104.356 170.667 103.856 170.48 103.216 170.48C102.616 170.48 102.096 170.62 101.656 170.9C101.229 171.18 100.923 171.633 100.736 172.26L98.9359 171.5C99.1893 170.687 99.6826 170.033 100.416 169.54C101.163 169.047 102.123 168.8 103.296 168.8C104.083 168.8 104.783 168.933 105.396 169.2C106.023 169.453 106.509 169.847 106.856 170.38C107.216 170.9 107.396 171.56 107.396 172.36V176.82C107.396 177.313 107.643 177.56 108.136 177.56C108.376 177.56 108.609 177.527 108.836 177.46L108.716 178.94C108.409 179.087 108.023 179.16 107.556 179.16C107.023 179.16 106.563 179.04 106.176 178.8C105.789 178.56 105.529 178.2 105.396 177.72C105.076 178.213 104.616 178.587 104.016 178.84C103.416 179.08 102.816 179.2 102.216 179.2C101.269 179.2 100.483 178.973 99.8559 178.52C99.2293 178.067 98.9159 177.387 98.9159 176.48C98.9159 175.747 99.1559 175.14 99.6359 174.66C100.129 174.18 100.823 173.847 101.716 173.66L105.276 172.96V172.58ZM101.076 176.32C101.076 176.693 101.216 176.993 101.496 177.22C101.789 177.433 102.176 177.54 102.656 177.54C103.109 177.54 103.536 177.467 103.936 177.32C104.336 177.173 104.656 176.933 104.896 176.6C105.149 176.267 105.276 175.833 105.276 175.3V174.46L102.756 174.98C102.183 175.087 101.756 175.24 101.476 175.44C101.209 175.64 101.076 175.933 101.076 176.32ZM110.902 179V169H112.802L112.902 170.68C113.249 170.04 113.709 169.567 114.282 169.26C114.869 168.953 115.489 168.8 116.142 168.8C116.862 168.8 117.522 168.967 118.122 169.3C118.736 169.62 119.196 170.107 119.502 170.76C119.716 170.32 120.009 169.953 120.382 169.66C120.756 169.367 121.169 169.153 121.622 169.02C122.076 168.873 122.522 168.8 122.962 168.8C123.602 168.8 124.202 168.933 124.762 169.2C125.322 169.467 125.776 169.873 126.122 170.42C126.469 170.967 126.642 171.667 126.642 172.52V179H124.502V172.86C124.502 172.033 124.302 171.447 123.902 171.1C123.516 170.74 123.029 170.56 122.442 170.56C121.749 170.56 121.142 170.82 120.622 171.34C120.102 171.847 119.842 172.587 119.842 173.56V179H117.702V172.86C117.702 172.033 117.502 171.447 117.102 171.1C116.716 170.74 116.229 170.56 115.642 170.56C115.242 170.56 114.842 170.667 114.442 170.88C114.042 171.093 113.709 171.427 113.442 171.88C113.176 172.333 113.042 172.933 113.042 173.68V179H110.902ZM150.19 165.8V179H148.23V171.36L148.37 167.72H148.35L144.33 179H142.55L138.53 167.72H138.51L138.67 171.36V179H136.69V165.8H139.87L142.53 173.44L143.45 176.58H143.49L144.43 173.44L147.07 165.8H150.19ZM158.076 179.2C157.076 179.2 156.196 178.993 155.436 178.58C154.689 178.167 154.102 177.573 153.676 176.8C153.249 176.013 153.036 175.08 153.036 174C153.036 172.92 153.242 171.993 153.656 171.22C154.082 170.433 154.662 169.833 155.396 169.42C156.142 169.007 156.996 168.8 157.956 168.8C158.929 168.8 159.756 169 160.436 169.4C161.116 169.8 161.636 170.347 161.996 171.04C162.356 171.733 162.536 172.52 162.536 173.4C162.536 173.653 162.529 173.887 162.516 174.1C162.502 174.313 162.482 174.493 162.456 174.64H155.136C155.229 175.573 155.529 176.287 156.036 176.78C156.556 177.26 157.222 177.5 158.036 177.5C158.702 177.5 159.242 177.373 159.656 177.12C160.069 176.867 160.396 176.513 160.636 176.06L162.336 176.86C161.989 177.593 161.436 178.167 160.676 178.58C159.929 178.993 159.062 179.2 158.076 179.2ZM157.916 170.5C157.182 170.5 156.576 170.713 156.096 171.14C155.629 171.567 155.329 172.187 155.196 173H160.456C160.402 172.2 160.149 171.587 159.696 171.16C159.242 170.72 158.649 170.5 157.916 170.5ZM165.238 179V169H167.138L167.238 170.68C167.585 170.04 168.045 169.567 168.618 169.26C169.205 168.953 169.825 168.8 170.478 168.8C171.198 168.8 171.858 168.967 172.458 169.3C173.071 169.62 173.531 170.107 173.838 170.76C174.051 170.32 174.345 169.953 174.718 169.66C175.091 169.367 175.505 169.153 175.958 169.02C176.411 168.873 176.858 168.8 177.298 168.8C177.938 168.8 178.538 168.933 179.098 169.2C179.658 169.467 180.111 169.873 180.458 170.42C180.805 170.967 180.978 171.667 180.978 172.52V179H178.838V172.86C178.838 172.033 178.638 171.447 178.238 171.1C177.851 170.74 177.365 170.56 176.778 170.56C176.085 170.56 175.478 170.82 174.958 171.34C174.438 171.847 174.178 172.587 174.178 173.56V179H172.038V172.86C172.038 172.033 171.838 171.447 171.438 171.1C171.051 170.74 170.565 170.56 169.978 170.56C169.578 170.56 169.178 170.667 168.778 170.88C168.378 171.093 168.045 171.427 167.778 171.88C167.511 172.333 167.378 172.933 167.378 173.68V179H165.238ZM189.583 179.2C188.809 179.2 188.123 179.007 187.523 178.62C186.936 178.22 186.496 177.707 186.203 177.08L186.103 179H184.223V164.5H186.363V170.64C186.669 170.093 187.103 169.653 187.663 169.32C188.223 168.973 188.883 168.8 189.643 168.8C190.456 168.8 191.189 169.007 191.843 169.42C192.509 169.833 193.036 170.433 193.423 171.22C193.823 171.993 194.023 172.927 194.023 174.02C194.023 175.1 193.823 176.027 193.423 176.8C193.036 177.573 192.503 178.167 191.823 178.58C191.156 178.993 190.409 179.2 189.583 179.2ZM189.123 177.48C189.989 177.48 190.663 177.173 191.143 176.56C191.636 175.933 191.883 175.08 191.883 174C191.883 172.92 191.643 172.073 191.163 171.46C190.683 170.847 190.009 170.54 189.143 170.54C188.303 170.54 187.629 170.86 187.123 171.5C186.616 172.127 186.363 172.973 186.363 174.04C186.363 175.107 186.616 175.947 187.123 176.56C187.629 177.173 188.296 177.48 189.123 177.48ZM201.162 179.2C200.162 179.2 199.282 178.993 198.522 178.58C197.775 178.167 197.188 177.573 196.762 176.8C196.335 176.013 196.122 175.08 196.122 174C196.122 172.92 196.328 171.993 196.742 171.22C197.168 170.433 197.748 169.833 198.482 169.42C199.228 169.007 200.082 168.8 201.042 168.8C202.015 168.8 202.842 169 203.522 169.4C204.202 169.8 204.722 170.347 205.082 171.04C205.442 171.733 205.622 172.52 205.622 173.4C205.622 173.653 205.615 173.887 205.602 174.1C205.588 174.313 205.568 174.493 205.542 174.64H198.222C198.315 175.573 198.615 176.287 199.122 176.78C199.642 177.26 200.308 177.5 201.122 177.5C201.788 177.5 202.328 177.373 202.742 177.12C203.155 176.867 203.482 176.513 203.722 176.06L205.422 176.86C205.075 177.593 204.522 178.167 203.762 178.58C203.015 178.993 202.148 179.2 201.162 179.2ZM201.002 170.5C200.268 170.5 199.662 170.713 199.182 171.14C198.715 171.567 198.415 172.187 198.282 173H203.542C203.488 172.2 203.235 171.587 202.782 171.16C202.328 170.72 201.735 170.5 201.002 170.5ZM208.324 179V169H210.144L210.344 170.8C210.891 169.467 211.937 168.8 213.484 168.8C213.684 168.8 213.884 168.82 214.084 168.86C214.284 168.887 214.451 168.933 214.584 169L214.284 170.88C214.137 170.827 213.971 170.787 213.784 170.76C213.611 170.72 213.371 170.7 213.064 170.7C212.637 170.7 212.224 170.813 211.824 171.04C211.437 171.253 211.111 171.587 210.844 172.04C210.591 172.48 210.464 173.033 210.464 173.7V179H208.324Z" fill="#7B7B7B"/>
<defs>
<filter id="filter0_d_141_591" x="0" y="0" width="290" height="270" filterUnits="userSpaceOnUse" color-interpolation-filters="sRGB">
<feFlood flood-opacity="0" result="BackgroundImageFix"/>
<feColorMatrix in="SourceAlpha" type="matrix" values="0 0 0 0 0 0 0 0 0 0 0 0 0 0 0 0 0 0 127 0" result="hardAlpha"/>
<feOffset dy="1"/>
<feGaussianBlur stdDeviation="5"/>
<feColorMatrix type="matrix" values="0 0 0 0 0 0 0 0 0 0 0 0 0 0 0 0 0 0 0.1 0"/>
<feBlend mode="normal" in2="BackgroundImageFix" result="effect1_dropShadow_141_591"/>
<feBlend mode="normal" in="SourceGraphic" in2="effect1_dropShadow_141_591" result="shape"/>
</filter>
</defs>
</svg>
