<svg width="390" height="250" viewBox="0 0 390 250" fill="none" xmlns="http://www.w3.org/2000/svg">
<g filter="url(#filter0_d_141_632)">
<rect x="10" y="9" width="370" height="230" fill="white"/>
</g>
<g filter="url(#filter1_d_141_632)">
<circle cx="65.5" cy="64.5" r="37.5" fill="#FF5300"/>
</g>
<path d="M79.5 62C79.5 72.5 66 81.5 66 81.5C66 81.5 52.5 72.5 52.5 62C52.5 58.4196 53.9223 54.9858 56.4541 52.4541C58.9858 49.9223 62.4196 48.5 66 48.5C69.5804 48.5 73.0142 49.9223 75.5459 52.4541C78.0777 54.9858 79.5 58.4196 79.5 62Z" stroke="white" stroke-width="2" stroke-linecap="round" stroke-linejoin="round"/>
<path d="M66 66.5C68.4853 66.5 70.5 64.4853 70.5 62C70.5 59.5147 68.4853 57.5 66 57.5C63.5147 57.5 61.5 59.5147 61.5 62C61.5 64.4853 63.5147 66.5 66 66.5Z" stroke="white" stroke-width="2" stroke-linecap="round" stroke-linejoin="round"/>
<path d="M126.125 49.7H135.225V52H123.45V35.5H126.125V49.7ZM143.173 39.25C144.39 39.25 145.465 39.5083 146.398 40.025C147.331 40.5417 148.056 41.2917 148.573 42.275C149.106 43.2417 149.373 44.4 149.373 45.75C149.373 47.1 149.106 48.2667 148.573 49.25C148.056 50.2167 147.331 50.9583 146.398 51.475C145.465 51.9917 144.39 52.25 143.173 52.25C141.956 52.25 140.881 51.9917 139.948 51.475C139.015 50.9583 138.281 50.2167 137.748 49.25C137.215 48.2667 136.948 47.1 136.948 45.75C136.948 44.4 137.215 43.2417 137.748 42.275C138.281 41.2917 139.015 40.5417 139.948 40.025C140.881 39.5083 141.956 39.25 143.173 39.25ZM143.173 41.35C142.073 41.35 141.206 41.7333 140.573 42.5C139.94 43.25 139.623 44.3333 139.623 45.75C139.623 47.1667 139.94 48.2583 140.573 49.025C141.206 49.775 142.073 50.15 143.173 50.15C144.273 50.15 145.131 49.775 145.748 49.025C146.381 48.2583 146.698 47.1667 146.698 45.75C146.698 44.3333 146.381 43.25 145.748 42.5C145.131 41.7333 144.273 41.35 143.173 41.35ZM158.138 39.25C159.621 39.25 160.805 39.575 161.688 40.225C162.571 40.875 163.205 41.7167 163.588 42.75L161.063 43.75C160.846 42.9833 160.496 42.4 160.013 42C159.546 41.5833 158.93 41.375 158.163 41.375C157.046 41.375 156.171 41.7583 155.538 42.525C154.921 43.275 154.613 44.3583 154.613 45.775C154.613 47.175 154.93 48.25 155.563 49C156.196 49.75 157.063 50.125 158.163 50.125C159.03 50.125 159.713 49.9167 160.213 49.5C160.73 49.0833 161.071 48.4833 161.238 47.7L163.663 48.525C163.313 49.6583 162.671 50.5667 161.738 51.25C160.805 51.9167 159.63 52.25 158.213 52.25C156.98 52.25 155.888 51.9917 154.938 51.475C154.005 50.9583 153.271 50.2167 152.738 49.25C152.205 48.2667 151.938 47.1 151.938 45.75C151.938 44.4 152.205 43.2417 152.738 42.275C153.271 41.2917 154.005 40.5417 154.938 40.025C155.871 39.5083 156.938 39.25 158.138 39.25ZM174.001 43.975C174.001 43.1417 173.768 42.5 173.301 42.05C172.851 41.5833 172.226 41.35 171.426 41.35C170.676 41.35 170.026 41.525 169.476 41.875C168.943 42.225 168.56 42.7917 168.326 43.575L166.076 42.625C166.393 41.6083 167.01 40.7917 167.926 40.175C168.86 39.5583 170.06 39.25 171.526 39.25C172.51 39.25 173.385 39.4167 174.151 39.75C174.935 40.0667 175.543 40.5583 175.976 41.225C176.426 41.875 176.651 42.7 176.651 43.7V49.275C176.651 49.8917 176.96 50.2 177.576 50.2C177.876 50.2 178.168 50.1583 178.451 50.075L178.301 51.925C177.918 52.1083 177.435 52.2 176.851 52.2C176.185 52.2 175.61 52.05 175.126 51.75C174.643 51.45 174.318 51 174.151 50.4C173.751 51.0167 173.176 51.4833 172.426 51.8C171.676 52.1 170.926 52.25 170.176 52.25C168.993 52.25 168.01 51.9667 167.226 51.4C166.443 50.8333 166.051 49.9833 166.051 48.85C166.051 47.9333 166.351 47.175 166.951 46.575C167.568 45.975 168.435 45.5583 169.551 45.325L174.001 44.45V43.975ZM168.751 48.65C168.751 49.1167 168.926 49.4917 169.276 49.775C169.643 50.0417 170.126 50.175 170.726 50.175C171.293 50.175 171.826 50.0833 172.326 49.9C172.826 49.7167 173.226 49.4167 173.526 49C173.843 48.5833 174.001 48.0417 174.001 47.375V46.325L170.851 46.975C170.135 47.1083 169.601 47.3 169.251 47.55C168.918 47.8 168.751 48.1667 168.751 48.65ZM188.496 39.5V41.6H184.196V48.25C184.196 48.85 184.362 49.3 184.696 49.6C185.029 49.8833 185.462 50.025 185.996 50.025C186.462 50.025 186.854 49.9583 187.171 49.825C187.504 49.675 187.812 49.475 188.096 49.225L188.696 51.175C188.312 51.5083 187.837 51.775 187.271 51.975C186.721 52.1583 186.104 52.25 185.421 52.25C184.321 52.25 183.396 51.9833 182.646 51.45C181.896 50.9 181.521 49.9833 181.521 48.7V41.6H179.121V39.5H181.521V36.575L184.196 35.825V39.5H188.496ZM192.491 37.4C191.908 37.4 191.458 37.2583 191.141 36.975C190.841 36.675 190.691 36.2583 190.691 35.725C190.691 35.1917 190.841 34.7833 191.141 34.5C191.458 34.2167 191.908 34.075 192.491 34.075C193.058 34.075 193.491 34.2167 193.791 34.5C194.108 34.7833 194.266 35.1917 194.266 35.725C194.266 36.2583 194.108 36.675 193.791 36.975C193.491 37.2583 193.058 37.4 192.491 37.4ZM193.816 39.5V52H191.141V39.5H193.816ZM203.427 39.25C204.643 39.25 205.718 39.5083 206.652 40.025C207.585 40.5417 208.31 41.2917 208.827 42.275C209.36 43.2417 209.627 44.4 209.627 45.75C209.627 47.1 209.36 48.2667 208.827 49.25C208.31 50.2167 207.585 50.9583 206.652 51.475C205.718 51.9917 204.643 52.25 203.427 52.25C202.21 52.25 201.135 51.9917 200.202 51.475C199.268 50.9583 198.535 50.2167 198.002 49.25C197.468 48.2667 197.202 47.1 197.202 45.75C197.202 44.4 197.468 43.2417 198.002 42.275C198.535 41.2917 199.268 40.5417 200.202 40.025C201.135 39.5083 202.21 39.25 203.427 39.25ZM203.427 41.35C202.327 41.35 201.46 41.7333 200.827 42.5C200.193 43.25 199.877 44.3333 199.877 45.75C199.877 47.1667 200.193 48.2583 200.827 49.025C201.46 49.775 202.327 50.15 203.427 50.15C204.527 50.15 205.385 49.775 206.002 49.025C206.635 48.2583 206.952 47.1667 206.952 45.75C206.952 44.3333 206.635 43.25 206.002 42.5C205.385 41.7333 204.527 41.35 203.427 41.35ZM212.992 52V39.5H215.367L215.492 41.65C215.909 40.8167 216.484 40.2083 217.217 39.825C217.967 39.4417 218.8 39.25 219.717 39.25C220.6 39.25 221.392 39.425 222.092 39.775C222.809 40.1083 223.375 40.625 223.792 41.325C224.209 42.0083 224.417 42.8667 224.417 43.9V52H221.742V44.725C221.742 43.4917 221.484 42.6417 220.967 42.175C220.467 41.6917 219.834 41.45 219.067 41.45C218.517 41.45 217.984 41.575 217.467 41.825C216.95 42.075 216.517 42.4917 216.167 43.075C215.834 43.6417 215.667 44.4 215.667 45.35V52H212.992Z" fill="#FF5300"/>
<path d="M141.5 79.375L134 100H128.969L121.438 79.375H126L130.344 92.5L131.531 96.5625L132.688 92.5312L137.062 79.375H141.5ZM146.341 82.125C144.57 82.125 143.685 81.3646 143.685 79.8437C143.685 78.3021 144.57 77.5312 146.341 77.5312C148.112 77.5312 148.998 78.3021 148.998 79.8437C148.998 81.3646 148.112 82.125 146.341 82.125ZM148.466 84.375V100H144.185V84.375H148.466ZM159.255 100.313C157.671 100.313 156.223 100.031 154.911 99.4687C153.619 98.9062 152.567 98.1146 151.755 97.0937L154.223 94.5937C154.723 95.3437 155.39 95.9583 156.223 96.4375C157.057 96.9167 158.046 97.1562 159.192 97.1562C160.005 97.1562 160.65 97.0417 161.13 96.8125C161.63 96.5625 161.88 96.1771 161.88 95.6562C161.88 95.3229 161.765 95.0417 161.536 94.8125C161.307 94.5625 160.848 94.3646 160.161 94.2187L157.411 93.6562C155.598 93.2812 154.307 92.7187 153.536 91.9688C152.786 91.1979 152.411 90.2083 152.411 89C152.411 88.1458 152.661 87.3437 153.161 86.5937C153.682 85.8437 154.453 85.2396 155.473 84.7812C156.494 84.3021 157.765 84.0625 159.286 84.0625C162.453 84.0625 164.723 85.0312 166.098 86.9687L163.536 89.4687C163.078 88.7396 162.473 88.1875 161.723 87.8125C160.994 87.4167 160.223 87.2187 159.411 87.2187C157.578 87.2187 156.661 87.7292 156.661 88.75C156.661 89.0833 156.807 89.375 157.098 89.625C157.39 89.8542 157.921 90.0521 158.692 90.2187L161.88 90.875C163.421 91.1875 164.525 91.7187 165.192 92.4687C165.859 93.1979 166.192 94.0833 166.192 95.125C166.192 96.625 165.588 97.8646 164.38 98.8437C163.192 99.8229 161.484 100.313 159.255 100.313ZM171.762 82.125C169.992 82.125 169.106 81.3646 169.106 79.8437C169.106 78.3021 169.992 77.5312 171.762 77.5312C173.533 77.5312 174.419 78.3021 174.419 79.8437C174.419 81.3646 173.533 82.125 171.762 82.125ZM173.887 84.375V100H169.606V84.375H173.887ZM188.957 84.375V87.5625H183.957V94.9062C183.957 95.6562 184.145 96.2083 184.52 96.5625C184.915 96.8958 185.447 97.0625 186.113 97.0625C186.655 97.0625 187.113 96.9896 187.488 96.8437C187.884 96.6771 188.238 96.4583 188.551 96.1875L189.238 99.0312C188.717 99.4271 188.082 99.7396 187.332 99.9687C186.603 100.198 185.822 100.313 184.988 100.313C183.426 100.313 182.145 99.9583 181.145 99.25C180.165 98.5208 179.676 97.3021 179.676 95.5937V87.5625H176.801V84.375H179.676V80.7812L183.957 79.5937V84.375H188.957ZM219.062 79.375V91.875C219.062 94.6875 218.312 96.8021 216.812 98.2187C215.312 99.6146 213.124 100.313 210.249 100.313C207.374 100.313 205.187 99.6146 203.687 98.2187C202.187 96.8021 201.437 94.6875 201.437 91.875V79.375H205.749V91.6875C205.749 93.4167 206.114 94.6979 206.843 95.5312C207.593 96.3646 208.728 96.7812 210.249 96.7812C211.77 96.7812 212.895 96.3646 213.624 95.5312C214.353 94.6979 214.718 93.4167 214.718 91.6875V79.375H219.062ZM229.659 100.313C228.075 100.313 226.627 100.031 225.315 99.4687C224.023 98.9062 222.971 98.1146 222.159 97.0937L224.627 94.5937C225.127 95.3437 225.794 95.9583 226.627 96.4375C227.461 96.9167 228.45 97.1562 229.596 97.1562C230.409 97.1562 231.055 97.0417 231.534 96.8125C232.034 96.5625 232.284 96.1771 232.284 95.6562C232.284 95.3229 232.169 95.0417 231.94 94.8125C231.711 94.5625 231.252 94.3646 230.565 94.2187L227.815 93.6562C226.002 93.2812 224.711 92.7187 223.94 91.9688C223.19 91.1979 222.815 90.2083 222.815 89C222.815 88.1458 223.065 87.3437 223.565 86.5937C224.086 85.8437 224.857 85.2396 225.877 84.7812C226.898 84.3021 228.169 84.0625 229.69 84.0625C232.857 84.0625 235.127 85.0312 236.502 86.9687L233.94 89.4687C233.482 88.7396 232.877 88.1875 232.127 87.8125C231.398 87.4167 230.627 87.2187 229.815 87.2187C227.982 87.2187 227.065 87.7292 227.065 88.75C227.065 89.0833 227.211 89.375 227.502 89.625C227.794 89.8542 228.325 90.0521 229.096 90.2187L232.284 90.875C233.825 91.1875 234.93 91.7187 235.596 92.4687C236.263 93.1979 236.596 94.0833 236.596 95.125C236.596 96.625 235.992 97.8646 234.784 98.8437C233.596 99.8229 231.888 100.313 229.659 100.313Z" fill="#373737"/>
<path d="M32.06 164V154.94C32.06 154.687 32.06 154.413 32.06 154.12C32.0733 153.827 32.0867 153.52 32.1 153.2C31.6467 153.64 31.1267 154.02 30.54 154.34C29.9533 154.647 29.36 154.867 28.76 155L28.36 153.14C28.6267 153.1 28.9467 153.007 29.32 152.86C29.7067 152.713 30.1 152.527 30.5 152.3C30.9 152.073 31.2667 151.833 31.6 151.58C31.9333 151.313 32.1933 151.053 32.38 150.8H34.18V164H32.06ZM41.7869 164.2C40.6135 164.2 39.6469 163.947 38.8869 163.44C38.1402 162.933 37.5469 162.2 37.1069 161.24L39.1069 160.2C39.2935 160.853 39.5935 161.38 40.0069 161.78C40.4202 162.18 41.0269 162.38 41.8269 162.38C42.6535 162.38 43.3002 162.153 43.7669 161.7C44.2469 161.247 44.4869 160.62 44.4869 159.82C44.4869 158.993 44.2669 158.367 43.8269 157.94C43.3869 157.5 42.7535 157.28 41.9269 157.28C41.3402 157.28 40.8135 157.373 40.3469 157.56C39.8935 157.733 39.5269 158.02 39.2469 158.42L37.4869 158.08L38.2869 150.8H45.9669V152.64H39.9869L39.5069 156.36L39.4669 156.58H39.5069C39.8135 156.26 40.2069 156.007 40.6869 155.82C41.1802 155.62 41.7602 155.52 42.4269 155.52C43.2802 155.52 44.0135 155.7 44.6269 156.06C45.2535 156.407 45.7335 156.893 46.0669 157.52C46.4135 158.147 46.5869 158.873 46.5869 159.7C46.5869 160.673 46.3735 161.493 45.9469 162.16C45.5335 162.827 44.9602 163.333 44.2269 163.68C43.5069 164.027 42.6935 164.2 41.7869 164.2ZM53.8875 150.62C55.2208 150.62 56.2875 150.933 57.0875 151.56C57.8875 152.187 58.2875 153.047 58.2875 154.14C58.2875 154.82 58.1208 155.42 57.7875 155.94C57.4542 156.46 56.9808 156.847 56.3675 157.1V157.12C57.1408 157.4 57.7475 157.82 58.1875 158.38C58.6275 158.927 58.8475 159.607 58.8475 160.42C58.8475 161.58 58.3942 162.5 57.4875 163.18C56.5942 163.86 55.3942 164.2 53.8875 164.2C52.8742 164.2 51.9942 164.047 51.2475 163.74C50.5142 163.433 49.9408 163 49.5275 162.44C49.1142 161.867 48.9075 161.193 48.9075 160.42C48.9075 159.62 49.1275 158.94 49.5675 158.38C50.0075 157.82 50.6208 157.4 51.4075 157.12V157.1C50.7942 156.847 50.3142 156.467 49.9675 155.96C49.6342 155.44 49.4675 154.833 49.4675 154.14C49.4675 153.047 49.8675 152.187 50.6675 151.56C51.4808 150.933 52.5542 150.62 53.8875 150.62ZM53.8875 152.42C53.1808 152.42 52.6208 152.593 52.2075 152.94C51.7942 153.273 51.5875 153.747 51.5875 154.36C51.5875 154.96 51.7942 155.433 52.2075 155.78C52.6342 156.113 53.1942 156.28 53.8875 156.28C54.5675 156.28 55.1208 156.113 55.5475 155.78C55.9742 155.433 56.1875 154.96 56.1875 154.36C56.1875 153.747 55.9808 153.273 55.5675 152.94C55.1542 152.593 54.5942 152.42 53.8875 152.42ZM53.8875 162.4C54.7542 162.4 55.4342 162.207 55.9275 161.82C56.4342 161.433 56.6875 160.9 56.6875 160.22C56.6875 159.527 56.4342 158.987 55.9275 158.6C55.4208 158.213 54.7408 158.02 53.8875 158.02C53.0342 158.02 52.3475 158.213 51.8275 158.6C51.3208 158.987 51.0675 159.527 51.0675 160.22C51.0675 160.9 51.3208 161.433 51.8275 161.82C52.3342 162.207 53.0208 162.4 53.8875 162.4ZM68.2342 164V154H70.0542L70.2542 155.8C70.8009 154.467 71.8476 153.8 73.3942 153.8C73.5942 153.8 73.7942 153.82 73.9942 153.86C74.1942 153.887 74.3609 153.933 74.4942 154L74.1942 155.88C74.0476 155.827 73.8809 155.787 73.6942 155.76C73.5209 155.72 73.2809 155.7 72.9742 155.7C72.5476 155.7 72.1342 155.813 71.7342 156.04C71.3476 156.253 71.0209 156.587 70.7542 157.04C70.5009 157.48 70.3742 158.033 70.3742 158.7V164H68.2342ZM82.0806 157.58C82.0806 156.913 81.894 156.4 81.5206 156.04C81.1606 155.667 80.6606 155.48 80.0206 155.48C79.4206 155.48 78.9006 155.62 78.4606 155.9C78.034 156.18 77.7273 156.633 77.5406 157.26L75.7406 156.5C75.994 155.687 76.4873 155.033 77.2206 154.54C77.9673 154.047 78.9273 153.8 80.1006 153.8C80.8873 153.8 81.5873 153.933 82.2006 154.2C82.8273 154.453 83.314 154.847 83.6606 155.38C84.0206 155.9 84.2006 156.56 84.2006 157.36V161.82C84.2006 162.313 84.4473 162.56 84.9406 162.56C85.1806 162.56 85.414 162.527 85.6406 162.46L85.5206 163.94C85.214 164.087 84.8273 164.16 84.3606 164.16C83.8273 164.16 83.3673 164.04 82.9806 163.8C82.594 163.56 82.334 163.2 82.2006 162.72C81.8806 163.213 81.4206 163.587 80.8206 163.84C80.2206 164.08 79.6206 164.2 79.0206 164.2C78.074 164.2 77.2873 163.973 76.6606 163.52C76.034 163.067 75.7206 162.387 75.7206 161.48C75.7206 160.747 75.9606 160.14 76.4406 159.66C76.934 159.18 77.6273 158.847 78.5206 158.66L82.0806 157.96V157.58ZM77.8806 161.32C77.8806 161.693 78.0206 161.993 78.3006 162.22C78.594 162.433 78.9806 162.54 79.4606 162.54C79.914 162.54 80.3406 162.467 80.7406 162.32C81.1406 162.173 81.4606 161.933 81.7006 161.6C81.954 161.267 82.0806 160.833 82.0806 160.3V159.46L79.5606 159.98C78.9873 160.087 78.5606 160.24 78.2806 160.44C78.014 160.64 77.8806 160.933 77.8806 161.32ZM89.7869 149.5V161.2C89.7869 161.693 89.8735 162.033 90.0469 162.22C90.2202 162.407 90.5069 162.5 90.9069 162.5C91.1469 162.5 91.3469 162.487 91.5069 162.46C91.6802 162.42 91.8935 162.353 92.1469 162.26L91.9069 163.86C91.4402 164.087 90.8869 164.2 90.2469 164.2C89.3535 164.2 88.6935 163.973 88.2669 163.52C87.8535 163.067 87.6469 162.353 87.6469 161.38V149.5H89.7869ZM98.3373 164.2C97.3373 164.2 96.4573 163.993 95.6973 163.58C94.9507 163.167 94.364 162.573 93.9373 161.8C93.5107 161.013 93.2973 160.08 93.2973 159C93.2973 157.92 93.504 156.993 93.9173 156.22C94.344 155.433 94.924 154.833 95.6573 154.42C96.404 154.007 97.2573 153.8 98.2173 153.8C99.1907 153.8 100.017 154 100.697 154.4C101.377 154.8 101.897 155.347 102.257 156.04C102.617 156.733 102.797 157.52 102.797 158.4C102.797 158.653 102.791 158.887 102.777 159.1C102.764 159.313 102.744 159.493 102.717 159.64H95.3973C95.4907 160.573 95.7907 161.287 96.2973 161.78C96.8173 162.26 97.484 162.5 98.2973 162.5C98.964 162.5 99.504 162.373 99.9173 162.12C100.331 161.867 100.657 161.513 100.897 161.06L102.597 161.86C102.251 162.593 101.697 163.167 100.937 163.58C100.191 163.993 99.324 164.2 98.3373 164.2ZM98.1773 155.5C97.444 155.5 96.8373 155.713 96.3573 156.14C95.8907 156.567 95.5907 157.187 95.4573 158H100.717C100.664 157.2 100.411 156.587 99.9573 156.16C99.504 155.72 98.9107 155.5 98.1773 155.5ZM111.14 162.44C112.153 162.44 112.94 162.667 113.5 163.12C114.06 163.56 114.34 164.173 114.34 164.96C114.34 165.667 114.12 166.267 113.68 166.76C113.24 167.267 112.64 167.647 111.88 167.9C111.12 168.167 110.26 168.3 109.3 168.3C107.647 168.3 106.427 168.047 105.64 167.54C104.867 167.033 104.48 166.4 104.48 165.64C104.48 165.187 104.613 164.78 104.88 164.42C105.147 164.06 105.587 163.813 106.2 163.68C105.827 163.52 105.533 163.3 105.32 163.02C105.107 162.727 105 162.353 105 161.9C105 161.46 105.127 161.073 105.38 160.74C105.633 160.393 106.007 160.133 106.5 159.96C105.447 159.36 104.92 158.433 104.92 157.18C104.92 156.167 105.313 155.353 106.1 154.74C106.887 154.113 107.927 153.8 109.22 153.8C110.06 153.8 110.8 153.933 111.44 154.2C111.547 153.533 111.84 152.987 112.32 152.56C112.8 152.12 113.407 151.9 114.14 151.9C114.207 151.9 114.26 151.9 114.3 151.9L114.64 153.58C114.573 153.567 114.493 153.56 114.4 153.56C113.253 153.56 112.613 153.98 112.48 154.82C113.187 155.433 113.54 156.22 113.54 157.18C113.54 158.207 113.147 159.027 112.36 159.64C111.573 160.253 110.527 160.56 109.22 160.56C108.673 160.56 108.173 160.513 107.72 160.42C107.36 160.513 107.1 160.66 106.94 160.86C106.793 161.047 106.72 161.247 106.72 161.46C106.72 162.113 107.193 162.44 108.14 162.44H111.14ZM109.22 155.3C108.607 155.3 108.093 155.473 107.68 155.82C107.28 156.153 107.08 156.607 107.08 157.18C107.08 157.753 107.28 158.213 107.68 158.56C108.093 158.907 108.607 159.08 109.22 159.08C109.847 159.08 110.36 158.907 110.76 158.56C111.173 158.213 111.38 157.753 111.38 157.18C111.38 156.607 111.173 156.153 110.76 155.82C110.36 155.473 109.847 155.3 109.22 155.3ZM109.3 166.7C110.393 166.7 111.2 166.553 111.72 166.26C112.253 165.967 112.52 165.62 112.52 165.22C112.52 164.913 112.393 164.667 112.14 164.48C111.9 164.293 111.46 164.2 110.82 164.2H107.6C107.213 164.2 106.893 164.3 106.64 164.5C106.4 164.7 106.28 164.96 106.28 165.28C106.28 165.72 106.547 166.067 107.08 166.32C107.613 166.573 108.353 166.7 109.3 166.7ZM117.381 152.32C116.914 152.32 116.554 152.207 116.301 151.98C116.061 151.74 115.941 151.407 115.941 150.98C115.941 150.553 116.061 150.227 116.301 150C116.554 149.773 116.914 149.66 117.381 149.66C117.834 149.66 118.181 149.773 118.421 150C118.674 150.227 118.801 150.553 118.801 150.98C118.801 151.407 118.674 151.74 118.421 151.98C118.181 152.207 117.834 152.32 117.381 152.32ZM118.441 154V164H116.301V154H118.441ZM121.789 164V149.5H123.929V155.6C124.262 154.973 124.709 154.52 125.269 154.24C125.842 153.947 126.476 153.8 127.169 153.8C127.876 153.8 128.509 153.94 129.069 154.22C129.642 154.487 130.096 154.9 130.429 155.46C130.762 156.007 130.929 156.693 130.929 157.52V164H128.789V158.2C128.789 157.2 128.582 156.513 128.169 156.14C127.769 155.753 127.262 155.56 126.649 155.56C126.209 155.56 125.782 155.667 125.369 155.88C124.956 156.08 124.609 156.413 124.329 156.88C124.062 157.333 123.929 157.947 123.929 158.72V164H121.789ZM144.476 164.2C143.476 164.2 142.562 164.007 141.736 163.62C140.909 163.233 140.256 162.687 139.776 161.98L141.256 160.7C141.549 161.247 141.969 161.687 142.516 162.02C143.076 162.34 143.742 162.5 144.516 162.5C145.129 162.5 145.616 162.393 145.976 162.18C146.336 161.967 146.516 161.667 146.516 161.28C146.516 161.027 146.429 160.807 146.256 160.62C146.096 160.42 145.782 160.267 145.316 160.16L143.216 159.72C142.149 159.507 141.389 159.16 140.936 158.68C140.482 158.2 140.256 157.6 140.256 156.88C140.256 156.333 140.416 155.827 140.736 155.36C141.069 154.893 141.542 154.52 142.156 154.24C142.769 153.947 143.509 153.8 144.376 153.8C145.362 153.8 146.209 153.98 146.916 154.34C147.636 154.687 148.182 155.187 148.556 155.84L147.076 157.08C146.809 156.547 146.429 156.153 145.936 155.9C145.456 155.633 144.949 155.5 144.416 155.5C143.762 155.5 143.256 155.62 142.896 155.86C142.549 156.087 142.376 156.387 142.376 156.76C142.376 157.013 142.476 157.247 142.676 157.46C142.876 157.66 143.236 157.813 143.756 157.92L146.036 158.4C146.996 158.587 147.669 158.907 148.056 159.36C148.456 159.8 148.656 160.34 148.656 160.98C148.656 161.94 148.282 162.72 147.536 163.32C146.789 163.907 145.769 164.2 144.476 164.2ZM152.342 152.32C151.875 152.32 151.515 152.207 151.262 151.98C151.022 151.74 150.902 151.407 150.902 150.98C150.902 150.553 151.022 150.227 151.262 150C151.515 149.773 151.875 149.66 152.342 149.66C152.795 149.66 153.142 149.773 153.382 150C153.635 150.227 153.762 150.553 153.762 150.98C153.762 151.407 153.635 151.74 153.382 151.98C153.142 152.207 152.795 152.32 152.342 152.32ZM153.402 154V164H151.262V154H153.402ZM163.11 154V155.68H159.67V161C159.67 161.48 159.803 161.84 160.07 162.08C160.337 162.307 160.683 162.42 161.11 162.42C161.483 162.42 161.797 162.367 162.05 162.26C162.317 162.14 162.563 161.98 162.79 161.78L163.27 163.34C162.963 163.607 162.583 163.82 162.13 163.98C161.69 164.127 161.197 164.2 160.65 164.2C159.77 164.2 159.03 163.987 158.43 163.56C157.83 163.12 157.53 162.387 157.53 161.36V155.68H155.61V154H157.53V151.66L159.67 151.06V154H163.11ZM166.325 161.3C166.872 161.3 167.292 161.5 167.585 161.9C167.879 162.287 168.025 162.78 168.025 163.38C168.025 164.127 167.819 164.827 167.405 165.48C166.992 166.133 166.412 166.64 165.665 167L164.665 166.14C165.199 165.94 165.645 165.647 166.005 165.26C166.379 164.887 166.625 164.493 166.745 164.08L166.665 164.04C166.599 164.08 166.519 164.113 166.425 164.14C166.345 164.167 166.225 164.18 166.065 164.18C165.785 164.18 165.505 164.067 165.225 163.84C164.945 163.613 164.805 163.267 164.805 162.8C164.805 162.36 164.952 162 165.245 161.72C165.552 161.44 165.912 161.3 166.325 161.3ZM29.66 189V174.5H31.8V180.6C32.1333 179.973 32.58 179.52 33.14 179.24C33.7133 178.947 34.3467 178.8 35.04 178.8C35.7467 178.8 36.38 178.94 36.94 179.22C37.5133 179.487 37.9667 179.9 38.3 180.46C38.6333 181.007 38.8 181.693 38.8 182.52V189H36.66V183.2C36.66 182.2 36.4533 181.513 36.04 181.14C35.64 180.753 35.1333 180.56 34.52 180.56C34.08 180.56 33.6533 180.667 33.24 180.88C32.8267 181.08 32.48 181.413 32.2 181.88C31.9333 182.333 31.8 182.947 31.8 183.72V189H29.66ZM46.3828 178.8C47.3561 178.8 48.2161 179.007 48.9628 179.42C49.7095 179.833 50.2895 180.433 50.7028 181.22C51.1295 181.993 51.3428 182.92 51.3428 184C51.3428 185.08 51.1295 186.013 50.7028 186.8C50.2895 187.573 49.7095 188.167 48.9628 188.58C48.2161 188.993 47.3561 189.2 46.3828 189.2C45.4095 189.2 44.5495 188.993 43.8028 188.58C43.0561 188.167 42.4695 187.573 42.0428 186.8C41.6161 186.013 41.4028 185.08 41.4028 184C41.4028 182.92 41.6161 181.993 42.0428 181.22C42.4695 180.433 43.0561 179.833 43.8028 179.42C44.5495 179.007 45.4095 178.8 46.3828 178.8ZM46.3828 180.48C45.5028 180.48 44.8095 180.787 44.3028 181.4C43.7961 182 43.5428 182.867 43.5428 184C43.5428 185.133 43.7961 186.007 44.3028 186.62C44.8095 187.22 45.5028 187.52 46.3828 187.52C47.2628 187.52 47.9495 187.22 48.4428 186.62C48.9495 186.007 49.2028 185.133 49.2028 184C49.2028 182.867 48.9495 182 48.4428 181.4C47.9495 180.787 47.2628 180.48 46.3828 180.48ZM57.595 189.2C56.9417 189.2 56.335 189.08 55.775 188.84C55.2283 188.6 54.7883 188.213 54.455 187.68C54.1217 187.147 53.955 186.453 53.955 185.6V179H56.095V185.06C56.095 185.967 56.2817 186.593 56.655 186.94C57.0417 187.273 57.5883 187.44 58.295 187.44C58.7483 187.44 59.175 187.34 59.575 187.14C59.975 186.927 60.295 186.6 60.535 186.16C60.7883 185.707 60.915 185.127 60.915 184.42V179H63.055V189H61.175L61.075 187.38C60.7283 188.007 60.2617 188.467 59.675 188.76C59.0883 189.053 58.395 189.2 57.595 189.2ZM70.1983 189.2C69.1983 189.2 68.2849 189.007 67.4583 188.62C66.6316 188.233 65.9783 187.687 65.4983 186.98L66.9783 185.7C67.2716 186.247 67.6916 186.687 68.2383 187.02C68.7983 187.34 69.4649 187.5 70.2383 187.5C70.8516 187.5 71.3383 187.393 71.6983 187.18C72.0583 186.967 72.2383 186.667 72.2383 186.28C72.2383 186.027 72.1516 185.807 71.9783 185.62C71.8183 185.42 71.5049 185.267 71.0383 185.16L68.9383 184.72C67.8716 184.507 67.1116 184.16 66.6583 183.68C66.2049 183.2 65.9783 182.6 65.9783 181.88C65.9783 181.333 66.1383 180.827 66.4583 180.36C66.7916 179.893 67.2649 179.52 67.8783 179.24C68.4916 178.947 69.2316 178.8 70.0983 178.8C71.0849 178.8 71.9316 178.98 72.6383 179.34C73.3583 179.687 73.9049 180.187 74.2783 180.84L72.7983 182.08C72.5316 181.547 72.1516 181.153 71.6583 180.9C71.1783 180.633 70.6716 180.5 70.1383 180.5C69.4849 180.5 68.9783 180.62 68.6183 180.86C68.2716 181.087 68.0983 181.387 68.0983 181.76C68.0983 182.013 68.1983 182.247 68.3983 182.46C68.5983 182.66 68.9583 182.813 69.4783 182.92L71.7583 183.4C72.7183 183.587 73.3916 183.907 73.7783 184.36C74.1783 184.8 74.3783 185.34 74.3783 185.98C74.3783 186.94 74.0049 187.72 73.2583 188.32C72.5116 188.907 71.4916 189.2 70.1983 189.2ZM83.3442 179V180.68H79.9042V186C79.9042 186.48 80.0376 186.84 80.3042 187.08C80.5709 187.307 80.9176 187.42 81.3442 187.42C81.7176 187.42 82.0309 187.367 82.2842 187.26C82.5509 187.14 82.7976 186.98 83.0242 186.78L83.5042 188.34C83.1976 188.607 82.8176 188.82 82.3642 188.98C81.9242 189.127 81.4309 189.2 80.8842 189.2C80.0042 189.2 79.2642 188.987 78.6642 188.56C78.0642 188.12 77.7642 187.387 77.7642 186.36V180.68H75.8442V179H77.7642V176.66L79.9042 176.06V179H83.3442ZM89.8008 178.8C90.7741 178.8 91.6341 179.007 92.3808 179.42C93.1274 179.833 93.7074 180.433 94.1208 181.22C94.5474 181.993 94.7608 182.92 94.7608 184C94.7608 185.08 94.5474 186.013 94.1208 186.8C93.7074 187.573 93.1274 188.167 92.3808 188.58C91.6341 188.993 90.7741 189.2 89.8008 189.2C88.8274 189.2 87.9674 188.993 87.2208 188.58C86.4741 188.167 85.8874 187.573 85.4608 186.8C85.0341 186.013 84.8208 185.08 84.8208 184C84.8208 182.92 85.0341 181.993 85.4608 181.22C85.8874 180.433 86.4741 179.833 87.2208 179.42C87.9674 179.007 88.8274 178.8 89.8008 178.8ZM89.8008 180.48C88.9208 180.48 88.2274 180.787 87.7208 181.4C87.2141 182 86.9608 182.867 86.9608 184C86.9608 185.133 87.2141 186.007 87.7208 186.62C88.2274 187.22 88.9208 187.52 89.8008 187.52C90.6808 187.52 91.3674 187.22 91.8608 186.62C92.3674 186.007 92.6208 185.133 92.6208 184C92.6208 182.867 92.3674 182 91.8608 181.4C91.3674 180.787 90.6808 180.48 89.8008 180.48ZM97.453 189V179H99.353L99.453 180.72C99.7863 180.053 100.246 179.567 100.833 179.26C101.433 178.953 102.1 178.8 102.833 178.8C103.54 178.8 104.173 178.94 104.733 179.22C105.306 179.487 105.76 179.9 106.093 180.46C106.426 181.007 106.593 181.693 106.593 182.52V189H104.453V183.18C104.453 182.193 104.246 181.513 103.833 181.14C103.433 180.753 102.926 180.56 102.313 180.56C101.873 180.56 101.446 180.66 101.033 180.86C100.62 181.06 100.273 181.393 99.993 181.86C99.7263 182.313 99.593 182.92 99.593 183.68V189H97.453ZM110.896 186.3C111.442 186.3 111.862 186.5 112.156 186.9C112.449 187.287 112.596 187.78 112.596 188.38C112.596 189.127 112.389 189.827 111.976 190.48C111.562 191.133 110.982 191.64 110.236 192L109.236 191.14C109.769 190.94 110.216 190.647 110.576 190.26C110.949 189.887 111.196 189.493 111.316 189.08L111.236 189.04C111.169 189.08 111.089 189.113 110.996 189.14C110.916 189.167 110.796 189.18 110.636 189.18C110.356 189.18 110.076 189.067 109.796 188.84C109.516 188.613 109.376 188.267 109.376 187.8C109.376 187.36 109.522 187 109.816 186.72C110.122 186.44 110.482 186.3 110.896 186.3ZM130.198 179L125.818 190.18C125.378 191.34 124.878 192.147 124.318 192.6C123.758 193.067 123.038 193.3 122.158 193.3C121.664 193.3 121.218 193.24 120.818 193.12C120.418 193 120.064 192.827 119.758 192.6L120.278 190.94C120.758 191.367 121.338 191.58 122.018 191.58C122.378 191.58 122.698 191.487 122.978 191.3C123.271 191.113 123.531 190.727 123.758 190.14L124.198 189.06L123.138 186.58L120.018 179H122.418L124.638 185.28L125.218 187.16L125.878 185.1L127.978 179H130.198ZM141.463 179L137.643 182.92L141.703 189H139.223L136.143 184.3L134.163 186.34V189H132.023V174.5H134.163V183.88L138.923 179H141.463ZM153.877 189.2C152.703 189.2 151.737 188.947 150.977 188.44C150.23 187.933 149.637 187.2 149.197 186.24L151.197 185.2C151.383 185.853 151.683 186.38 152.097 186.78C152.51 187.18 153.117 187.38 153.917 187.38C154.743 187.38 155.39 187.153 155.857 186.7C156.337 186.247 156.577 185.62 156.577 184.82C156.577 183.993 156.357 183.367 155.917 182.94C155.477 182.5 154.843 182.28 154.017 182.28C153.43 182.28 152.903 182.373 152.437 182.56C151.983 182.733 151.617 183.02 151.337 183.42L149.577 183.08L150.377 175.8H158.057V177.64H152.077L151.597 181.36L151.557 181.58H151.597C151.903 181.26 152.297 181.007 152.777 180.82C153.27 180.62 153.85 180.52 154.517 180.52C155.37 180.52 156.103 180.7 156.717 181.06C157.343 181.407 157.823 181.893 158.157 182.52C158.503 183.147 158.677 183.873 158.677 184.7C158.677 185.673 158.463 186.493 158.037 187.16C157.623 187.827 157.05 188.333 156.317 188.68C155.597 189.027 154.783 189.2 153.877 189.2ZM165.977 175.62C167.311 175.62 168.377 175.933 169.177 176.56C169.977 177.187 170.377 178.047 170.377 179.14C170.377 179.82 170.211 180.42 169.877 180.94C169.544 181.46 169.071 181.847 168.457 182.1V182.12C169.231 182.4 169.837 182.82 170.277 183.38C170.717 183.927 170.937 184.607 170.937 185.42C170.937 186.58 170.484 187.5 169.577 188.18C168.684 188.86 167.484 189.2 165.977 189.2C164.964 189.2 164.084 189.047 163.337 188.74C162.604 188.433 162.031 188 161.617 187.44C161.204 186.867 160.997 186.193 160.997 185.42C160.997 184.62 161.217 183.94 161.657 183.38C162.097 182.82 162.711 182.4 163.497 182.12V182.1C162.884 181.847 162.404 181.467 162.057 180.96C161.724 180.44 161.557 179.833 161.557 179.14C161.557 178.047 161.957 177.187 162.757 176.56C163.571 175.933 164.644 175.62 165.977 175.62ZM165.977 177.42C165.271 177.42 164.711 177.593 164.297 177.94C163.884 178.273 163.677 178.747 163.677 179.36C163.677 179.96 163.884 180.433 164.297 180.78C164.724 181.113 165.284 181.28 165.977 181.28C166.657 181.28 167.211 181.113 167.637 180.78C168.064 180.433 168.277 179.96 168.277 179.36C168.277 178.747 168.071 178.273 167.657 177.94C167.244 177.593 166.684 177.42 165.977 177.42ZM165.977 187.4C166.844 187.4 167.524 187.207 168.017 186.82C168.524 186.433 168.777 185.9 168.777 185.22C168.777 184.527 168.524 183.987 168.017 183.6C167.511 183.213 166.831 183.02 165.977 183.02C165.124 183.02 164.437 183.213 163.917 183.6C163.411 183.987 163.157 184.527 163.157 185.22C163.157 185.9 163.411 186.433 163.917 186.82C164.424 187.207 165.111 187.4 165.977 187.4ZM178.08 175.6C179.213 175.6 180.167 175.88 180.94 176.44C181.713 177 182.3 177.787 182.7 178.8C183.1 179.813 183.3 181.007 183.3 182.38C183.3 184.647 182.84 186.353 181.92 187.5C181.013 188.633 179.74 189.2 178.1 189.2C176.98 189.2 176.013 188.953 175.2 188.46C174.4 187.967 173.807 187.227 173.42 186.24L175.44 185.3C175.627 185.913 175.933 186.413 176.36 186.8C176.787 187.173 177.38 187.36 178.14 187.36C178.953 187.36 179.593 187.153 180.06 186.74C180.527 186.313 180.86 185.713 181.06 184.94C181.26 184.153 181.36 183.227 181.36 182.16V181.94H181.28C181.12 182.487 180.853 182.927 180.48 183.26C180.107 183.58 179.68 183.82 179.2 183.98C178.72 184.127 178.24 184.2 177.76 184.2C176.907 184.2 176.147 184.033 175.48 183.7C174.827 183.353 174.313 182.873 173.94 182.26C173.567 181.647 173.38 180.92 173.38 180.08C173.38 178.707 173.8 177.62 174.64 176.82C175.48 176.007 176.627 175.6 178.08 175.6ZM178.1 177.48C177.26 177.48 176.62 177.707 176.18 178.16C175.74 178.613 175.52 179.247 175.52 180.06C175.52 180.78 175.753 181.347 176.22 181.76C176.687 182.16 177.313 182.36 178.1 182.36C178.86 182.36 179.48 182.14 179.96 181.7C180.44 181.247 180.68 180.66 180.68 179.94C180.68 179.193 180.44 178.6 179.96 178.16C179.48 177.707 178.86 177.48 178.1 177.48ZM191.084 175.6C192.137 175.6 193.017 175.82 193.724 176.26C194.444 176.7 195.004 177.42 195.404 178.42L193.524 179.32C193.337 178.747 193.037 178.293 192.624 177.96C192.224 177.627 191.664 177.46 190.944 177.46C190.251 177.46 189.664 177.687 189.184 178.14C188.704 178.58 188.331 179.18 188.064 179.94C187.811 180.7 187.684 181.567 187.684 182.54V182.9L187.764 182.94C187.911 182.42 188.171 181.993 188.544 181.66C188.931 181.327 189.364 181.08 189.844 180.92C190.324 180.76 190.797 180.68 191.264 180.68C192.131 180.68 192.891 180.853 193.544 181.2C194.211 181.533 194.724 182.013 195.084 182.64C195.457 183.267 195.644 184.013 195.644 184.88C195.644 186.2 195.224 187.253 194.384 188.04C193.544 188.813 192.411 189.2 190.984 189.2C189.864 189.2 188.911 188.92 188.124 188.36C187.337 187.8 186.737 187.013 186.324 186C185.911 184.987 185.704 183.8 185.704 182.44C185.704 180.933 185.937 179.673 186.404 178.66C186.884 177.647 187.531 176.887 188.344 176.38C189.157 175.86 190.071 175.6 191.084 175.6ZM190.944 182.46C190.184 182.46 189.564 182.687 189.084 183.14C188.604 183.58 188.364 184.16 188.364 184.88C188.364 185.347 188.477 185.767 188.704 186.14C188.931 186.513 189.237 186.813 189.624 187.04C190.024 187.253 190.464 187.36 190.944 187.36C191.771 187.36 192.404 187.147 192.844 186.72C193.297 186.28 193.524 185.667 193.524 184.88C193.524 184.133 193.297 183.547 192.844 183.12C192.404 182.68 191.771 182.46 190.944 182.46ZM199.45 186.3C199.997 186.3 200.417 186.5 200.71 186.9C201.004 187.287 201.15 187.78 201.15 188.38C201.15 189.127 200.944 189.827 200.53 190.48C200.117 191.133 199.537 191.64 198.79 192L197.79 191.14C198.324 190.94 198.77 190.647 199.13 190.26C199.504 189.887 199.75 189.493 199.87 189.08L199.79 189.04C199.724 189.08 199.644 189.113 199.55 189.14C199.47 189.167 199.35 189.18 199.19 189.18C198.91 189.18 198.63 189.067 198.35 188.84C198.07 188.613 197.93 188.267 197.93 187.8C197.93 187.36 198.077 187 198.37 186.72C198.677 186.44 199.037 186.3 199.45 186.3ZM207.107 189.2C206.453 189.2 205.847 189.08 205.287 188.84C204.74 188.6 204.3 188.213 203.967 187.68C203.633 187.147 203.467 186.453 203.467 185.6V179H205.607V185.06C205.607 185.967 205.793 186.593 206.167 186.94C206.553 187.273 207.1 187.44 207.807 187.44C208.26 187.44 208.687 187.34 209.087 187.14C209.487 186.927 209.807 186.6 210.047 186.16C210.3 185.707 210.427 185.127 210.427 184.42V179H212.567V189H210.687L210.587 187.38C210.24 188.007 209.773 188.467 209.187 188.76C208.6 189.053 207.907 189.2 207.107 189.2ZM225.35 179L221.53 182.92L225.59 189H223.11L220.03 184.3L218.05 186.34V189H215.91V174.5H218.05V183.88L222.81 179H225.35Z" fill="#7B7B7B"/>
<defs>
<filter id="filter0_d_141_632" x="0" y="0" width="390" height="250" filterUnits="userSpaceOnUse" color-interpolation-filters="sRGB">
<feFlood flood-opacity="0" result="BackgroundImageFix"/>
<feColorMatrix in="SourceAlpha" type="matrix" values="0 0 0 0 0 0 0 0 0 0 0 0 0 0 0 0 0 0 127 0" result="hardAlpha"/>
<feOffset dy="1"/>
<feGaussianBlur stdDeviation="5"/>
<feColorMatrix type="matrix" values="0 0 0 0 0 0 0 0 0 0 0 0 0 0 0 0 0 0 0.1 0"/>
<feBlend mode="normal" in2="BackgroundImageFix" result="effect1_dropShadow_141_632"/>
<feBlend mode="normal" in="SourceGraphic" in2="effect1_dropShadow_141_632" result="shape"/>
</filter>
<filter id="filter1_d_141_632" x="17" y="17" width="105" height="105" filterUnits="userSpaceOnUse" color-interpolation-filters="sRGB">
<feFlood flood-opacity="0" result="BackgroundImageFix"/>
<feColorMatrix in="SourceAlpha" type="matrix" values="0 0 0 0 0 0 0 0 0 0 0 0 0 0 0 0 0 0 127 0" result="hardAlpha"/>
<feOffset dx="4" dy="5"/>
<feGaussianBlur stdDeviation="7.5"/>
<feColorMatrix type="matrix" values="0 0 0 0 1 0 0 0 0 0.326087 0 0 0 0 0 0 0 0 0.4 0"/>
<feBlend mode="normal" in2="BackgroundImageFix" result="effect1_dropShadow_141_632"/>
<feBlend mode="normal" in="SourceGraphic" in2="effect1_dropShadow_141_632" result="shape"/>
</filter>
</defs>
</svg>
