<svg width="381" height="106" viewBox="0 0 381 106" fill="none" xmlns="http://www.w3.org/2000/svg">
<path d="M81.958 21L75.958 0.374999H80.5518L84.6143 17.4062L88.7393 0.374999H92.8643L97.0518 17.4062L101.083 0.374999H105.489L99.4893 21H94.6455L91.7705 9.75L90.8018 4.875H90.7393L89.7705 9.75L86.9268 21H81.958ZM114.192 21.3125C111.733 21.3125 109.765 20.6042 108.285 19.1875C106.806 17.75 106.067 15.75 106.067 13.1875C106.067 11.4792 106.4 10.0208 107.067 8.8125C107.733 7.60417 108.66 6.67708 109.848 6.03125C111.056 5.38542 112.431 5.0625 113.973 5.0625C115.556 5.0625 116.9 5.38542 118.004 6.03125C119.108 6.65625 119.952 7.52083 120.535 8.625C121.119 9.70833 121.41 10.9479 121.41 12.3437C121.41 12.7604 121.4 13.1562 121.379 13.5312C121.358 13.9062 121.327 14.2396 121.285 14.5312H110.254C110.421 15.7396 110.837 16.6458 111.504 17.25C112.192 17.8333 113.077 18.125 114.16 18.125C115.077 18.125 115.817 17.9479 116.379 17.5937C116.942 17.2396 117.379 16.75 117.692 16.125L121.098 17.4375C120.598 18.6667 119.723 19.625 118.473 20.3125C117.223 20.9792 115.796 21.3125 114.192 21.3125ZM113.942 8.21875C111.921 8.21875 110.702 9.33333 110.285 11.5625H117.317C117.192 10.4792 116.837 9.65625 116.254 9.09375C115.692 8.51042 114.921 8.21875 113.942 8.21875ZM139.341 0.374999V8.84375H148.434V0.374999H152.747V21H148.434V12.3125H139.341V21H135.028V0.374999H139.341ZM166.477 11.0312C166.477 10.1354 166.216 9.4375 165.695 8.9375C165.195 8.4375 164.529 8.1875 163.695 8.1875C162.924 8.1875 162.247 8.38542 161.664 8.78125C161.081 9.17708 160.654 9.83333 160.383 10.75L156.727 9.625C157.081 8.25 157.852 7.14583 159.039 6.3125C160.247 5.47917 161.862 5.0625 163.883 5.0625C165.924 5.0625 167.57 5.55208 168.82 6.53125C170.091 7.48958 170.727 8.92708 170.727 10.8437V17.1875C170.727 17.9792 171.102 18.375 171.852 18.375C172.206 18.375 172.539 18.3229 172.852 18.2187L172.602 20.875C172.06 21.1458 171.383 21.2813 170.57 21.2813C169.674 21.2813 168.893 21.0938 168.227 20.7187C167.581 20.3437 167.143 19.7812 166.914 19.0312C166.414 19.7812 165.695 20.3542 164.758 20.75C163.841 21.125 162.893 21.3125 161.914 21.3125C160.331 21.3125 159.07 20.9583 158.133 20.25C157.216 19.5208 156.758 18.4687 156.758 17.0938C156.758 15.9271 157.133 14.9792 157.883 14.25C158.633 13.5 159.706 12.9896 161.102 12.7187L166.477 11.625V11.0312ZM161.039 16.6875C161.039 17.2083 161.227 17.6042 161.602 17.875C161.997 18.1458 162.466 18.2812 163.008 18.2812C163.612 18.2812 164.174 18.1875 164.695 18C165.216 17.8125 165.643 17.5 165.977 17.0625C166.31 16.6042 166.477 16 166.477 15.25V14.2812L163.195 14.9375C162.487 15.0833 161.945 15.2812 161.57 15.5312C161.216 15.7604 161.039 16.1458 161.039 16.6875ZM185.154 5.375H189.592L183.654 21H178.717L172.779 5.375H177.373L181.217 17.7187L185.154 5.375ZM199.031 21.3125C196.572 21.3125 194.603 20.6042 193.124 19.1875C191.645 17.75 190.906 15.75 190.906 13.1875C190.906 11.4792 191.239 10.0208 191.906 8.8125C192.572 7.60417 193.499 6.67708 194.687 6.03125C195.895 5.38542 197.27 5.0625 198.812 5.0625C200.395 5.0625 201.739 5.38542 202.843 6.03125C203.947 6.65625 204.791 7.52083 205.374 8.625C205.958 9.70833 206.249 10.9479 206.249 12.3437C206.249 12.7604 206.239 13.1562 206.218 13.5312C206.197 13.9062 206.166 14.2396 206.124 14.5312H195.093C195.26 15.7396 195.676 16.6458 196.343 17.25C197.031 17.8333 197.916 18.125 198.999 18.125C199.916 18.125 200.656 17.9479 201.218 17.5937C201.781 17.2396 202.218 16.75 202.531 16.125L205.937 17.4375C205.437 18.6667 204.562 19.625 203.312 20.3125C202.062 20.9792 200.635 21.3125 199.031 21.3125ZM198.781 8.21875C196.76 8.21875 195.541 9.33333 195.124 11.5625H202.156C202.031 10.4792 201.676 9.65625 201.093 9.09375C200.531 8.51042 199.76 8.21875 198.781 8.21875ZM227.398 0.0624995C229.273 0.0624995 230.919 0.385416 232.336 1.03125C233.752 1.67708 234.961 2.63542 235.961 3.90625L233.554 6.6875C232.7 5.60417 231.763 4.8125 230.742 4.3125C229.742 3.79167 228.575 3.53125 227.242 3.53125C225.909 3.53125 224.94 3.78125 224.336 4.28125C223.732 4.76042 223.429 5.34375 223.429 6.03125C223.429 6.59375 223.638 7.07292 224.054 7.46875C224.492 7.84375 225.252 8.15625 226.336 8.40625L230.179 9.28125C232.2 9.73958 233.659 10.4271 234.554 11.3437C235.45 12.2396 235.898 13.4062 235.898 14.8437C235.898 16.1979 235.544 17.3646 234.836 18.3437C234.127 19.3021 233.138 20.0417 231.867 20.5625C230.596 21.0625 229.138 21.3125 227.492 21.3125C225.346 21.3125 223.461 20.9375 221.836 20.1875C220.211 19.4375 218.929 18.4687 217.992 17.2812L220.429 14.375C221.138 15.375 222.107 16.2083 223.336 16.875C224.586 17.5208 225.971 17.8437 227.492 17.8437C228.763 17.8437 229.742 17.6354 230.429 17.2187C231.117 16.7812 231.461 16.1667 231.461 15.375C231.461 14.8542 231.273 14.3958 230.898 14C230.544 13.6042 229.877 13.3021 228.898 13.0937L224.711 12.1562C222.877 11.7604 221.461 11.1146 220.461 10.2187C219.461 9.32292 218.961 8.10417 218.961 6.5625C218.961 5.33333 219.294 4.22917 219.961 3.25C220.627 2.27083 221.586 1.5 222.836 0.937499C224.107 0.354166 225.627 0.0624995 227.398 0.0624995ZM246.666 5.0625C248.228 5.0625 249.613 5.38542 250.822 6.03125C252.03 6.67708 252.968 7.60417 253.634 8.8125C254.322 10.0208 254.666 11.4792 254.666 13.1875C254.666 14.8958 254.322 16.3542 253.634 17.5625C252.968 18.7708 252.03 19.6979 250.822 20.3437C249.613 20.9896 248.228 21.3125 246.666 21.3125C245.082 21.3125 243.686 20.9896 242.478 20.3437C241.291 19.6979 240.353 18.7708 239.666 17.5625C238.999 16.3542 238.666 14.8958 238.666 13.1875C238.666 11.4792 238.999 10.0208 239.666 8.8125C240.353 7.60417 241.291 6.67708 242.478 6.03125C243.686 5.38542 245.082 5.0625 246.666 5.0625ZM246.666 8.25C245.499 8.25 244.582 8.66667 243.916 9.5C243.27 10.3125 242.947 11.5417 242.947 13.1875C242.947 14.8333 243.27 16.0729 243.916 16.9062C244.582 17.7187 245.499 18.125 246.666 18.125C247.811 18.125 248.707 17.7187 249.353 16.9062C250.02 16.0729 250.353 14.8333 250.353 13.1875C250.353 11.5417 250.02 10.3125 249.353 9.5C248.707 8.66667 247.811 8.25 246.666 8.25ZM258.248 21V5.375H262.092L262.248 8.1875C262.769 7.14583 263.477 6.36458 264.373 5.84375C265.289 5.32292 266.3 5.0625 267.404 5.0625C268.529 5.0625 269.539 5.32292 270.435 5.84375C271.352 6.34375 272.039 7.11458 272.498 8.15625C272.977 7.11458 273.717 6.34375 274.717 5.84375C275.717 5.32292 276.748 5.0625 277.81 5.0625C278.831 5.0625 279.758 5.27083 280.592 5.6875C281.446 6.10417 282.123 6.72917 282.623 7.5625C283.123 8.39583 283.373 9.45833 283.373 10.75V21H279.092V11.5937C279.092 10.4479 278.831 9.63542 278.31 9.15625C277.81 8.67708 277.175 8.4375 276.404 8.4375C275.446 8.4375 274.633 8.79167 273.967 9.5C273.3 10.1875 272.967 11.2187 272.967 12.5937V21H268.685V11.5937C268.685 10.4479 268.425 9.63542 267.904 9.15625C267.404 8.67708 266.758 8.4375 265.967 8.4375C265.425 8.4375 264.883 8.58333 264.342 8.875C263.821 9.16667 263.383 9.625 263.029 10.25C262.696 10.875 262.529 11.6979 262.529 12.7187V21H258.248ZM295.039 21.3125C292.58 21.3125 290.612 20.6042 289.133 19.1875C287.653 17.75 286.914 15.75 286.914 13.1875C286.914 11.4792 287.247 10.0208 287.914 8.8125C288.58 7.60417 289.508 6.67708 290.695 6.03125C291.903 5.38542 293.278 5.0625 294.82 5.0625C296.403 5.0625 297.747 5.38542 298.851 6.03125C299.955 6.65625 300.799 7.52083 301.383 8.625C301.966 9.70833 302.258 10.9479 302.258 12.3437C302.258 12.7604 302.247 13.1562 302.226 13.5312C302.205 13.9062 302.174 14.2396 302.133 14.5312H291.101C291.268 15.7396 291.685 16.6458 292.351 17.25C293.039 17.8333 293.924 18.125 295.008 18.125C295.924 18.125 296.664 17.9479 297.226 17.5937C297.789 17.2396 298.226 16.75 298.539 16.125L301.945 17.4375C301.445 18.6667 300.57 19.625 299.32 20.3125C298.07 20.9792 296.643 21.3125 295.039 21.3125ZM294.789 8.21875C292.768 8.21875 291.549 9.33333 291.133 11.5625H298.164C298.039 10.4792 297.685 9.65625 297.101 9.09375C296.539 8.51042 295.768 8.21875 294.789 8.21875ZM137.657 78.375C140.011 78.375 141.865 78.9687 143.22 80.1562C144.574 81.3229 145.251 82.9479 145.251 85.0312C145.251 87.1354 144.574 88.7708 143.22 89.9375C141.865 91.1042 140.011 91.6875 137.657 91.6875H133.313V99H129.001V78.375H137.657ZM137.001 88.2812C139.584 88.2812 140.876 87.1979 140.876 85.0312C140.876 82.8646 139.584 81.7813 137.001 81.7813H133.313V88.2812H137.001ZM148.766 99V83.375H152.485L152.766 86.4375C153.162 85.375 153.756 84.5521 154.547 83.9687C155.36 83.3646 156.381 83.0625 157.61 83.0625C158.339 83.0625 158.901 83.1771 159.297 83.4062L158.797 87C158.589 86.9375 158.328 86.8854 158.016 86.8437C157.724 86.7812 157.339 86.75 156.86 86.75C156.214 86.75 155.599 86.9062 155.016 87.2187C154.453 87.5104 153.985 87.9687 153.61 88.5937C153.235 89.1979 153.047 89.9687 153.047 90.9062V99H148.766ZM168.769 83.0625C170.332 83.0625 171.717 83.3854 172.926 84.0312C174.134 84.6771 175.071 85.6042 175.738 86.8125C176.426 88.0208 176.769 89.4792 176.769 91.1875C176.769 92.8958 176.426 94.3542 175.738 95.5625C175.071 96.7708 174.134 97.6979 172.926 98.3437C171.717 98.9896 170.332 99.3125 168.769 99.3125C167.186 99.3125 165.79 98.9896 164.582 98.3437C163.394 97.6979 162.457 96.7708 161.769 95.5625C161.103 94.3542 160.769 92.8958 160.769 91.1875C160.769 89.4792 161.103 88.0208 161.769 86.8125C162.457 85.6042 163.394 84.6771 164.582 84.0312C165.79 83.3854 167.186 83.0625 168.769 83.0625ZM168.769 86.25C167.603 86.25 166.686 86.6667 166.019 87.5C165.374 88.3125 165.051 89.5417 165.051 91.1875C165.051 92.8333 165.374 94.0729 166.019 94.9062C166.686 95.7187 167.603 96.125 168.769 96.125C169.915 96.125 170.811 95.7187 171.457 94.9062C172.124 94.0729 172.457 92.8333 172.457 91.1875C172.457 89.5417 172.124 88.3125 171.457 87.5C170.811 86.6667 169.915 86.25 168.769 86.25ZM182.508 81.125C180.737 81.125 179.852 80.3646 179.852 78.8437C179.852 77.3021 180.737 76.5312 182.508 76.5312C184.279 76.5312 185.164 77.3021 185.164 78.8437C185.164 80.3646 184.279 81.125 182.508 81.125ZM184.633 83.375V100.156C184.633 101.51 184.383 102.594 183.883 103.406C183.404 104.24 182.748 104.833 181.914 105.188C181.081 105.542 180.133 105.719 179.07 105.719C178.3 105.719 177.602 105.625 176.977 105.438C176.352 105.271 175.81 105.031 175.352 104.719L176.008 101.656C176.258 101.865 176.57 102.031 176.945 102.156C177.3 102.302 177.716 102.375 178.195 102.375C178.841 102.375 179.362 102.177 179.758 101.781C180.154 101.406 180.352 100.729 180.352 99.75V83.375H184.633ZM196.421 99.3125C193.963 99.3125 191.994 98.6042 190.515 97.1875C189.036 95.75 188.296 93.75 188.296 91.1875C188.296 89.4792 188.63 88.0208 189.296 86.8125C189.963 85.6042 190.89 84.6771 192.078 84.0312C193.286 83.3854 194.661 83.0625 196.203 83.0625C197.786 83.0625 199.13 83.3854 200.234 84.0312C201.338 84.6562 202.182 85.5208 202.765 86.625C203.348 87.7083 203.64 88.9479 203.64 90.3437C203.64 90.7604 203.63 91.1562 203.609 91.5312C203.588 91.9062 203.557 92.2396 203.515 92.5312H192.484C192.65 93.7396 193.067 94.6458 193.734 95.25C194.421 95.8333 195.307 96.125 196.39 96.125C197.307 96.125 198.046 95.9479 198.609 95.5937C199.171 95.2396 199.609 94.75 199.921 94.125L203.328 95.4375C202.828 96.6667 201.953 97.625 200.703 98.3125C199.453 98.9792 198.025 99.3125 196.421 99.3125ZM196.171 86.2187C194.15 86.2187 192.932 87.3333 192.515 89.5625H199.546C199.421 88.4792 199.067 87.6562 198.484 87.0937C197.921 86.5104 197.15 86.2187 196.171 86.2187ZM214.362 83.0625C216.445 83.0625 218.06 83.5104 219.206 84.4062C220.372 85.3021 221.143 86.3854 221.518 87.6562L217.518 89.0937C217.102 87.1979 216.07 86.25 214.424 86.25C213.237 86.25 212.31 86.6667 211.643 87.5C210.997 88.3333 210.674 89.5729 210.674 91.2187C210.674 92.8854 211.008 94.125 211.674 94.9375C212.362 95.7292 213.289 96.125 214.456 96.125C216.268 96.125 217.352 95.1979 217.706 93.3437L221.581 94.5937C221.227 95.9896 220.435 97.125 219.206 98C217.997 98.875 216.424 99.3125 214.487 99.3125C212.862 99.3125 211.435 98.9896 210.206 98.3437C208.997 97.6979 208.06 96.7708 207.393 95.5625C206.727 94.3542 206.393 92.8958 206.393 91.1875C206.393 89.4792 206.727 88.0208 207.393 86.8125C208.081 85.6042 209.018 84.6771 210.206 84.0312C211.414 83.3854 212.799 83.0625 214.362 83.0625ZM235.439 83.375V86.5625H230.439V93.9062C230.439 94.6562 230.626 95.2083 231.001 95.5625C231.397 95.8958 231.928 96.0625 232.595 96.0625C233.137 96.0625 233.595 95.9896 233.97 95.8437C234.366 95.6771 234.72 95.4583 235.032 95.1875L235.72 98.0312C235.199 98.4271 234.564 98.7396 233.814 98.9687C233.084 99.1979 232.303 99.3125 231.47 99.3125C229.907 99.3125 228.626 98.9583 227.626 98.25C226.647 97.5208 226.157 96.3021 226.157 94.5937V86.5625H223.282V83.375H226.157V79.7812L230.439 78.5937V83.375H235.439ZM244.585 99.3125C243.002 99.3125 241.554 99.0313 240.241 98.4687C238.95 97.9062 237.898 97.1146 237.085 96.0937L239.554 93.5937C240.054 94.3437 240.72 94.9583 241.554 95.4375C242.387 95.9167 243.377 96.1562 244.523 96.1562C245.335 96.1562 245.981 96.0417 246.46 95.8125C246.96 95.5625 247.21 95.1771 247.21 94.6562C247.21 94.3229 247.096 94.0417 246.866 93.8125C246.637 93.5625 246.179 93.3646 245.491 93.2187L242.741 92.6562C240.929 92.2812 239.637 91.7187 238.866 90.9688C238.116 90.1979 237.741 89.2083 237.741 88C237.741 87.1458 237.991 86.3437 238.491 85.5937C239.012 84.8437 239.783 84.2396 240.804 83.7812C241.825 83.3021 243.095 83.0625 244.616 83.0625C247.783 83.0625 250.054 84.0312 251.429 85.9687L248.866 88.4687C248.408 87.7396 247.804 87.1875 247.054 86.8125C246.325 86.4167 245.554 86.2187 244.741 86.2187C242.908 86.2187 241.991 86.7292 241.991 87.75C241.991 88.0833 242.137 88.375 242.429 88.625C242.72 88.8542 243.252 89.0521 244.023 89.2187L247.21 89.875C248.752 90.1875 249.856 90.7187 250.523 91.4687C251.189 92.1979 251.523 93.0833 251.523 94.125C251.523 95.625 250.918 96.8646 249.71 97.8437C248.523 98.8229 246.814 99.3125 244.585 99.3125Z" fill="#373737"/>
<path d="M8.75 39.375C11.9792 39.375 14.4792 40.2708 16.25 42.0625C18.0208 43.8542 18.9063 46.3958 18.9063 49.6875C18.9063 52.9792 18.0208 55.5208 16.25 57.3125C14.4792 59.1042 11.9792 60 8.75 60H0.78125V39.375H8.75ZM8.53125 56.5625C10.4896 56.5625 11.9583 55.9792 12.9375 54.8125C13.9375 53.625 14.4375 51.9167 14.4375 49.6875C14.4375 47.4583 13.9375 45.7604 12.9375 44.5937C11.9583 43.4062 10.4896 42.8125 8.53125 42.8125H5.09375V56.5625H8.53125ZM30.0547 60.3125C27.5964 60.3125 25.6276 59.6042 24.1484 58.1875C22.6693 56.75 21.9297 54.75 21.9297 52.1875C21.9297 50.4792 22.263 49.0208 22.9297 47.8125C23.5964 46.6042 24.5234 45.6771 25.7109 45.0312C26.9193 44.3854 28.2943 44.0625 29.8359 44.0625C31.4193 44.0625 32.763 44.3854 33.8672 45.0312C34.9714 45.6562 35.8151 46.5208 36.3984 47.625C36.9818 48.7083 37.2734 49.9479 37.2734 51.3437C37.2734 51.7604 37.263 52.1562 37.2422 52.5312C37.2214 52.9062 37.1901 53.2396 37.1484 53.5312H26.1172C26.2839 54.7396 26.7005 55.6458 27.3672 56.25C28.0547 56.8333 28.9401 57.125 30.0234 57.125C30.9401 57.125 31.6797 56.9479 32.2422 56.5937C32.8047 56.2396 33.2422 55.75 33.5547 55.125L36.9609 56.4375C36.4609 57.6667 35.5859 58.625 34.3359 59.3125C33.0859 59.9792 31.6589 60.3125 30.0547 60.3125ZM29.8047 47.2187C27.7839 47.2187 26.5651 48.3333 26.1484 50.5625H33.1797C33.0547 49.4792 32.7005 48.6562 32.1172 48.0937C31.5547 47.5104 30.7839 47.2187 29.8047 47.2187ZM47.1516 60.3125C45.5683 60.3125 44.1204 60.0313 42.8079 59.4687C41.5162 58.9062 40.4641 58.1146 39.6516 57.0937L42.1204 54.5937C42.6204 55.3437 43.287 55.9583 44.1204 56.4375C44.9537 56.9167 45.9433 57.1562 47.0891 57.1562C47.9016 57.1562 48.5474 57.0417 49.0266 56.8125C49.5266 56.5625 49.7766 56.1771 49.7766 55.6562C49.7766 55.3229 49.662 55.0417 49.4329 54.8125C49.2037 54.5625 48.7454 54.3646 48.0579 54.2187L45.3079 53.6562C43.4954 53.2812 42.2037 52.7187 41.4329 51.9688C40.6829 51.1979 40.3079 50.2083 40.3079 49C40.3079 48.1458 40.5579 47.3437 41.0579 46.5937C41.5787 45.8437 42.3495 45.2396 43.3704 44.7812C44.3912 44.3021 45.662 44.0625 47.1829 44.0625C50.3495 44.0625 52.6204 45.0312 53.9954 46.9687L51.4329 49.4687C50.9745 48.7396 50.3704 48.1875 49.6204 47.8125C48.8912 47.4167 48.1204 47.2187 47.3079 47.2187C45.4745 47.2187 44.5579 47.7292 44.5579 48.75C44.5579 49.0833 44.7037 49.375 44.9954 49.625C45.287 49.8542 45.8183 50.0521 46.5891 50.2187L49.7766 50.875C51.3183 51.1875 52.4224 51.7187 53.0891 52.4687C53.7558 53.1979 54.0891 54.0833 54.0891 55.125C54.0891 56.625 53.4849 57.8646 52.2766 58.8437C51.0891 59.8229 49.3808 60.3125 47.1516 60.3125ZM59.6594 42.125C57.8886 42.125 57.0032 41.3646 57.0032 39.8437C57.0032 38.3021 57.8886 37.5312 59.6594 37.5312C61.4303 37.5312 62.3157 38.3021 62.3157 39.8437C62.3157 41.3646 61.4303 42.125 59.6594 42.125ZM61.7844 44.375V60H57.5032V44.375H61.7844ZM75.604 57.0625C77.2915 57.0625 78.5936 57.4271 79.5103 58.1562C80.4269 58.8854 80.8853 59.9063 80.8853 61.2188C80.8853 62.4271 80.5415 63.4375 79.854 64.25C79.1665 65.0625 78.1978 65.6771 76.9478 66.0938C75.7186 66.5104 74.2915 66.7188 72.6665 66.7188C69.979 66.7188 68.0103 66.3438 66.7603 65.5938C65.5311 64.8438 64.9165 63.8646 64.9165 62.6563C64.9165 61.9479 65.1353 61.3229 65.5728 60.7813C66.0311 60.2604 66.7603 59.8958 67.7603 59.6875C66.3644 59.1667 65.6665 58.1875 65.6665 56.75C65.6665 56.0417 65.8748 55.4167 66.2915 54.875C66.729 54.3333 67.3228 53.9271 68.0728 53.6562C66.4269 52.7396 65.604 51.3125 65.604 49.375C65.604 47.7292 66.2394 46.4375 67.5103 45.5C68.7811 44.5417 70.5207 44.0625 72.729 44.0625C73.979 44.0625 75.104 44.2292 76.104 44.5625C76.2498 43.4792 76.6873 42.5625 77.4165 41.8125C78.1457 41.0417 79.1353 40.6562 80.3853 40.6562C80.4269 40.6562 80.479 40.6562 80.5415 40.6562C80.604 40.6562 80.6665 40.6562 80.729 40.6562L81.229 43.7187C81.0623 43.6979 80.8748 43.6875 80.6665 43.6875C79.8748 43.6875 79.2394 43.8437 78.7603 44.1562C78.2811 44.4479 77.979 44.875 77.854 45.4375C79.1873 46.375 79.854 47.6875 79.854 49.375C79.854 51 79.2082 52.2917 77.9165 53.25C76.6457 54.1875 74.9165 54.6562 72.729 54.6562C71.7707 54.6562 70.8957 54.5729 70.104 54.4062C69.6248 54.5312 69.2811 54.7187 69.0728 54.9687C68.8853 55.1979 68.7915 55.4583 68.7915 55.75C68.7915 56.625 69.4582 57.0625 70.7915 57.0625H75.604ZM72.729 46.75C71.8957 46.75 71.2082 46.9792 70.6665 47.4375C70.1248 47.8958 69.854 48.5312 69.854 49.3437C69.854 50.1562 70.1248 50.8021 70.6665 51.2812C71.2082 51.7396 71.8957 51.9688 72.729 51.9688C73.5415 51.9688 74.2186 51.7396 74.7603 51.2812C75.3019 50.8021 75.5728 50.1562 75.5728 49.3437C75.5728 48.5312 75.3019 47.8958 74.7603 47.4375C74.2186 46.9792 73.5415 46.75 72.729 46.75ZM72.6978 63.7813C74.3019 63.7813 75.4894 63.5833 76.2603 63.1875C77.0519 62.8125 77.4478 62.3542 77.4478 61.8125C77.4478 61.4167 77.2915 61.0938 76.979 60.8438C76.6665 60.6146 76.104 60.5 75.2915 60.5H70.0103C69.5103 60.5 69.0936 60.625 68.7603 60.875C68.4478 61.1458 68.2915 61.4896 68.2915 61.9063C68.2915 62.4896 68.6769 62.9479 69.4478 63.2813C70.2394 63.6146 71.3228 63.7813 72.6978 63.7813ZM83.4736 60V44.375H87.3174L87.4736 47.3125C87.9528 46.2292 88.6507 45.4167 89.5674 44.875C90.5049 44.3333 91.5778 44.0625 92.7861 44.0625C94.4111 44.0625 95.7549 44.5417 96.8174 45.5C97.8799 46.4375 98.4111 47.8542 98.4111 49.75V60H94.1299V50.9687C94.1299 49.6354 93.8591 48.7187 93.3174 48.2187C92.7966 47.6979 92.1299 47.4375 91.3174 47.4375C90.734 47.4375 90.1611 47.5833 89.5986 47.875C89.057 48.1458 88.609 48.5937 88.2549 49.2187C87.9215 49.8437 87.7549 50.6771 87.7549 51.7187V60H83.4736ZM110.072 60.3125C107.613 60.3125 105.645 59.6042 104.166 58.1875C102.686 56.75 101.947 54.75 101.947 52.1875C101.947 50.4792 102.28 49.0208 102.947 47.8125C103.613 46.6042 104.541 45.6771 105.728 45.0312C106.936 44.3854 108.311 44.0625 109.853 44.0625C111.436 44.0625 112.78 44.3854 113.884 45.0312C114.988 45.6562 115.832 46.5208 116.416 47.625C116.999 48.7083 117.291 49.9479 117.291 51.3437C117.291 51.7604 117.28 52.1562 117.259 52.5312C117.238 52.9062 117.207 53.2396 117.166 53.5312H106.134C106.301 54.7396 106.718 55.6458 107.384 56.25C108.072 56.8333 108.957 57.125 110.041 57.125C110.957 57.125 111.697 56.9479 112.259 56.5937C112.822 56.2396 113.259 55.75 113.572 55.125L116.978 56.4375C116.478 57.6667 115.603 58.625 114.353 59.3125C113.103 59.9792 111.676 60.3125 110.072 60.3125ZM109.822 47.2187C107.801 47.2187 106.582 48.3333 106.166 50.5625H113.197C113.072 49.4792 112.718 48.6562 112.134 48.0937C111.572 47.5104 110.801 47.2187 109.822 47.2187ZM126.825 60.3125C125.533 60.3125 124.377 59.9896 123.356 59.3437C122.356 58.6979 121.565 57.7812 120.981 56.5937C120.419 55.3854 120.137 53.9271 120.137 52.2187C120.137 50.4896 120.44 49.0208 121.044 47.8125C121.648 46.5833 122.46 45.6562 123.481 45.0312C124.523 44.3854 125.69 44.0625 126.981 44.0625C128.106 44.0625 129.075 44.3333 129.887 44.875C130.7 45.4167 131.315 46.1354 131.731 47.0312V37.5312H136.012V60H132.169L131.981 56.9687C131.544 58.0104 130.867 58.8333 129.95 59.4375C129.033 60.0208 127.992 60.3125 126.825 60.3125ZM128.075 57.0312C129.179 57.0312 130.065 56.6042 130.731 55.75C131.398 54.875 131.731 53.6458 131.731 52.0625C131.731 50.5625 131.398 49.4062 130.731 48.5937C130.085 47.7604 129.221 47.3437 128.137 47.3437C126.971 47.3437 126.054 47.7604 125.387 48.5937C124.742 49.4062 124.419 50.6042 124.419 52.1875C124.419 53.7708 124.742 54.9792 125.387 55.8125C126.033 56.625 126.929 57.0312 128.075 57.0312ZM155.875 60.3125C153.73 60.3125 152.021 59.8125 150.75 58.8125C149.5 57.8125 148.875 56.4271 148.875 54.6562C148.855 53.9479 148.969 53.2396 149.219 52.5312C149.49 51.8021 149.938 51.125 150.563 50.5C151.209 49.875 152.105 49.3437 153.25 48.9062C152.438 47.8646 151.886 47 151.594 46.3125C151.303 45.625 151.157 44.8854 151.157 44.0937C151.157 43.2604 151.365 42.4583 151.782 41.6875C152.198 40.9167 152.844 40.2917 153.719 39.8125C154.594 39.3125 155.719 39.0625 157.094 39.0625C158.928 39.0625 160.292 39.5104 161.188 40.4062C162.105 41.3021 162.563 42.3854 162.563 43.6562C162.563 44.8229 162.219 45.8854 161.532 46.8437C160.865 47.7812 159.698 48.6042 158.032 49.3125C158.303 49.625 158.584 49.9583 158.875 50.3125C159.188 50.6667 159.521 51.0521 159.875 51.4687C160.313 51.9687 160.719 52.4375 161.094 52.875C161.469 53.2917 161.813 53.6771 162.125 54.0312C162.438 53.3854 162.678 52.6771 162.844 51.9062C163.011 51.1146 163.073 50.2292 163.032 49.25L166.063 49.375C166.084 50.6042 165.928 51.7812 165.594 52.9062C165.261 54.0312 164.74 55.0417 164.032 55.9375C164.719 56.5208 165.323 56.9062 165.844 57.0937C166.386 57.2604 167.011 57.3125 167.719 57.25L167.188 60.3125C166.521 60.3125 165.917 60.2604 165.375 60.1563C164.834 60.0729 164.282 59.8854 163.719 59.5937C163.157 59.2812 162.532 58.8333 161.844 58.25C161.136 58.8958 160.282 59.4062 159.282 59.7812C158.282 60.1354 157.146 60.3125 155.875 60.3125ZM154.907 44.1875C154.907 44.6458 155 45.0937 155.188 45.5312C155.396 45.9687 155.855 46.6354 156.563 47.5312C157.521 46.9479 158.188 46.3958 158.563 45.875C158.938 45.3333 159.125 44.7083 159.125 44C159.125 43.375 158.938 42.8958 158.563 42.5625C158.188 42.2292 157.688 42.0625 157.063 42.0625C156.355 42.0625 155.813 42.2708 155.438 42.6875C155.084 43.0833 154.907 43.5833 154.907 44.1875ZM152.625 54.3437C152.625 55.2812 152.98 56.0208 153.688 56.5625C154.396 57.1042 155.303 57.375 156.407 57.375C157.115 57.375 157.75 57.2917 158.313 57.125C158.896 56.9583 159.438 56.7187 159.938 56.4062C159.271 55.7396 158.5 54.9062 157.625 53.9062C157.084 53.3021 156.584 52.75 156.125 52.25C155.667 51.75 155.24 51.2812 154.844 50.8437C153.99 51.3854 153.407 51.9167 153.094 52.4375C152.782 52.9375 152.625 53.5729 152.625 54.3437ZM187.949 39.375C191.178 39.375 193.678 40.2708 195.449 42.0625C197.22 43.8542 198.105 46.3958 198.105 49.6875C198.105 52.9792 197.22 55.5208 195.449 57.3125C193.678 59.1042 191.178 60 187.949 60H179.98V39.375H187.949ZM187.73 56.5625C189.689 56.5625 191.158 55.9792 192.137 54.8125C193.137 53.625 193.637 51.9167 193.637 49.6875C193.637 47.4583 193.137 45.7604 192.137 44.5937C191.158 43.4062 189.689 42.8125 187.73 42.8125H184.293V56.5625H187.73ZM209.254 60.3125C206.796 60.3125 204.827 59.6042 203.348 58.1875C201.868 56.75 201.129 54.75 201.129 52.1875C201.129 50.4792 201.462 49.0208 202.129 47.8125C202.796 46.6042 203.723 45.6771 204.91 45.0312C206.118 44.3854 207.493 44.0625 209.035 44.0625C210.618 44.0625 211.962 44.3854 213.066 45.0312C214.171 45.6562 215.014 46.5208 215.598 47.625C216.181 48.7083 216.473 49.9479 216.473 51.3437C216.473 51.7604 216.462 52.1562 216.441 52.5312C216.421 52.9062 216.389 53.2396 216.348 53.5312H205.316C205.483 54.7396 205.9 55.6458 206.566 56.25C207.254 56.8333 208.139 57.125 209.223 57.125C210.139 57.125 210.879 56.9479 211.441 56.5937C212.004 56.2396 212.441 55.75 212.754 55.125L216.16 56.4375C215.66 57.6667 214.785 58.625 213.535 59.3125C212.285 59.9792 210.858 60.3125 209.254 60.3125ZM209.004 47.2187C206.983 47.2187 205.764 48.3333 205.348 50.5625H212.379C212.254 49.4792 211.9 48.6562 211.316 48.0937C210.754 47.5104 209.983 47.2187 209.004 47.2187ZM229.863 44.375H234.3L228.363 60H223.425L217.488 44.375H222.081L225.925 56.7187L229.863 44.375ZM243.739 60.3125C241.28 60.3125 239.312 59.6042 237.833 58.1875C236.353 56.75 235.614 54.75 235.614 52.1875C235.614 50.4792 235.947 49.0208 236.614 47.8125C237.28 46.6042 238.208 45.6771 239.395 45.0312C240.603 44.3854 241.978 44.0625 243.52 44.0625C245.103 44.0625 246.447 44.3854 247.551 45.0312C248.655 45.6562 249.499 46.5208 250.083 47.625C250.666 48.7083 250.958 49.9479 250.958 51.3437C250.958 51.7604 250.947 52.1562 250.926 52.5312C250.905 52.9062 250.874 53.2396 250.833 53.5312H239.801C239.968 54.7396 240.385 55.6458 241.051 56.25C241.739 56.8333 242.624 57.125 243.708 57.125C244.624 57.125 245.364 56.9479 245.926 56.5937C246.489 56.2396 246.926 55.75 247.239 55.125L250.645 56.4375C250.145 57.6667 249.27 58.625 248.02 59.3125C246.77 59.9792 245.343 60.3125 243.739 60.3125ZM243.489 47.2187C241.468 47.2187 240.249 48.3333 239.833 50.5625H246.864C246.739 49.4792 246.385 48.6562 245.801 48.0937C245.239 47.5104 244.468 47.2187 243.489 47.2187ZM258.804 37.5312V55.1875C258.804 55.9167 258.929 56.4271 259.179 56.7187C259.429 57.0104 259.846 57.1562 260.429 57.1562C260.784 57.1562 261.075 57.1354 261.304 57.0937C261.534 57.0521 261.825 56.9687 262.179 56.8437L261.804 59.6562C261.45 59.8646 261.002 60.0208 260.461 60.125C259.94 60.25 259.419 60.3125 258.898 60.3125C257.377 60.3125 256.263 59.9479 255.554 59.2187C254.867 58.4687 254.523 57.2812 254.523 55.6562V37.5312H258.804ZM271.69 44.0625C273.252 44.0625 274.638 44.3854 275.846 45.0312C277.055 45.6771 277.992 46.6042 278.659 47.8125C279.346 49.0208 279.69 50.4792 279.69 52.1875C279.69 53.8958 279.346 55.3542 278.659 56.5625C277.992 57.7708 277.055 58.6979 275.846 59.3437C274.638 59.9896 273.252 60.3125 271.69 60.3125C270.107 60.3125 268.711 59.9896 267.502 59.3437C266.315 58.6979 265.377 57.7708 264.69 56.5625C264.023 55.3542 263.69 53.8958 263.69 52.1875C263.69 50.4792 264.023 49.0208 264.69 47.8125C265.377 46.6042 266.315 45.6771 267.502 45.0312C268.711 44.3854 270.107 44.0625 271.69 44.0625ZM271.69 47.25C270.523 47.25 269.607 47.6667 268.94 48.5C268.294 49.3125 267.971 50.5417 267.971 52.1875C267.971 53.8333 268.294 55.0729 268.94 55.9062C269.607 56.7187 270.523 57.125 271.69 57.125C272.836 57.125 273.732 56.7187 274.377 55.9062C275.044 55.0729 275.377 53.8333 275.377 52.1875C275.377 50.5417 275.044 49.3125 274.377 48.5C273.732 47.6667 272.836 47.25 271.69 47.25ZM283.272 66.5625V44.375H287.116L287.303 47.4375C287.741 46.4375 288.408 45.625 289.303 45C290.22 44.375 291.293 44.0625 292.522 44.0625C293.793 44.0625 294.928 44.3854 295.928 45.0312C296.928 45.6771 297.71 46.6042 298.272 47.8125C298.856 49 299.147 50.4479 299.147 52.1562C299.147 53.8646 298.856 55.3333 298.272 56.5625C297.689 57.7708 296.887 58.6979 295.866 59.3437C294.866 59.9896 293.72 60.3125 292.428 60.3125C291.283 60.3125 290.293 60.0417 289.46 59.5C288.647 58.9583 288.012 58.2396 287.553 57.3437V66.5625H283.272ZM291.178 57.0312C292.324 57.0312 293.22 56.625 293.866 55.8125C294.533 54.9792 294.866 53.7708 294.866 52.1875C294.866 50.6042 294.543 49.4062 293.897 48.5937C293.272 47.7604 292.387 47.3437 291.241 47.3437C290.137 47.3437 289.241 47.7708 288.553 48.625C287.887 49.4792 287.553 50.6667 287.553 52.1875C287.553 53.6875 287.876 54.875 288.522 55.75C289.189 56.6042 290.074 57.0312 291.178 57.0312ZM302.865 60V44.375H306.708L306.865 47.1875C307.385 46.1458 308.094 45.3646 308.99 44.8437C309.906 44.3229 310.917 44.0625 312.021 44.0625C313.146 44.0625 314.156 44.3229 315.052 44.8437C315.969 45.3437 316.656 46.1146 317.115 47.1562C317.594 46.1146 318.333 45.3437 319.333 44.8437C320.333 44.3229 321.365 44.0625 322.427 44.0625C323.448 44.0625 324.375 44.2708 325.208 44.6875C326.062 45.1042 326.74 45.7292 327.24 46.5625C327.74 47.3958 327.99 48.4583 327.99 49.75V60H323.708V50.5937C323.708 49.4479 323.448 48.6354 322.927 48.1562C322.427 47.6771 321.792 47.4375 321.021 47.4375C320.062 47.4375 319.25 47.7917 318.583 48.5C317.917 49.1875 317.583 50.2187 317.583 51.5937V60H313.302V50.5937C313.302 49.4479 313.042 48.6354 312.521 48.1562C312.021 47.6771 311.375 47.4375 310.583 47.4375C310.042 47.4375 309.5 47.5833 308.958 47.875C308.437 48.1667 308 48.625 307.646 49.25C307.312 49.875 307.146 50.6979 307.146 51.7187V60H302.865ZM339.656 60.3125C337.197 60.3125 335.228 59.6042 333.749 58.1875C332.27 56.75 331.531 54.75 331.531 52.1875C331.531 50.4792 331.864 49.0208 332.531 47.8125C333.197 46.6042 334.124 45.6771 335.312 45.0312C336.52 44.3854 337.895 44.0625 339.437 44.0625C341.02 44.0625 342.364 44.3854 343.468 45.0312C344.572 45.6562 345.416 46.5208 345.999 47.625C346.583 48.7083 346.874 49.9479 346.874 51.3437C346.874 51.7604 346.864 52.1562 346.843 52.5312C346.822 52.9062 346.791 53.2396 346.749 53.5312H335.718C335.885 54.7396 336.301 55.6458 336.968 56.25C337.656 56.8333 338.541 57.125 339.624 57.125C340.541 57.125 341.281 56.9479 341.843 56.5937C342.406 56.2396 342.843 55.75 343.156 55.125L346.562 56.4375C346.062 57.6667 345.187 58.625 343.937 59.3125C342.687 59.9792 341.26 60.3125 339.656 60.3125ZM339.406 47.2187C337.385 47.2187 336.166 48.3333 335.749 50.5625H342.781C342.656 49.4792 342.301 48.6562 341.718 48.0937C341.156 47.5104 340.385 47.2187 339.406 47.2187ZM350.502 60V44.375H354.346L354.502 47.3125C354.982 46.2292 355.68 45.4167 356.596 44.875C357.534 44.3333 358.607 44.0625 359.815 44.0625C361.44 44.0625 362.784 44.5417 363.846 45.5C364.909 46.4375 365.44 47.8542 365.44 49.75V60H361.159V50.9687C361.159 49.6354 360.888 48.7187 360.346 48.2187C359.825 47.6979 359.159 47.4375 358.346 47.4375C357.763 47.4375 357.19 47.5833 356.627 47.875C356.086 48.1458 355.638 48.5937 355.284 49.2187C354.95 49.8437 354.784 50.6771 354.784 51.7187V60H350.502ZM380.26 44.375V47.5625H375.26V54.9062C375.26 55.6562 375.447 56.2083 375.822 56.5625C376.218 56.8958 376.749 57.0625 377.416 57.0625C377.958 57.0625 378.416 56.9896 378.791 56.8437C379.187 56.6771 379.541 56.4583 379.854 56.1875L380.541 59.0312C380.02 59.4271 379.385 59.7396 378.635 59.9687C377.906 60.1979 377.124 60.3125 376.291 60.3125C374.729 60.3125 373.447 59.9583 372.447 59.25C371.468 58.5208 370.979 57.3021 370.979 55.5937V47.5625H368.104V44.375H370.979V40.7812L375.26 39.5937V44.375H380.26Z" fill="#FF5300"/>
</svg>
